<svg width="119" height="133" fill="none" xmlns="http://www.w3.org/2000/svg"><path opacity=".908" fill-rule="evenodd" clip-rule="evenodd" d="M43.066 3.75c2.018.079 3.89.621 5.62 1.626 2.973 2.773 4.9 6.164 5.78 10.172 1.205 4.793 1.274 9.591.207 14.394a22.232 22.232 0 0 1 5.278 4.988c5.075 2.637 7.256 6.833 6.543 12.59a340.199 340.199 0 0 1-1.055 4.115c8.302.473 15.904 3.022 22.807 7.65a15.88 15.88 0 0 0 1.73 1.577c7.299-.392 9.344 2.731 6.136 9.368-2.512 3.435-5.897 5.322-10.155 5.66a127.24 127.24 0 0 1-3.572-1.466l-.391.19a32.753 32.753 0 0 1 1.195 7.226c.26.858.854 1.265 1.78 1.22a17.81 17.81 0 0 0 3.427-.137c6.25-2.11 11.3-.48 15.153 4.889 4.006 6.021 4.178 12.132.516 18.333-1.332 1.503-3.022 2.284-5.07 2.344-5.442-.263-9.434-2.801-11.977-7.616a14.77 14.77 0 0 1-7.14 1.45 64.212 64.212 0 0 1-6.866 15.367c-.746 3.41-2.735 5.773-5.97 7.091-7.518 2.68-14.527 1.714-21.026-2.899-3.563-3.283-4.218-7.066-1.966-11.35 1.757-2.403 4.115-3.905 7.073-4.503a82.005 82.005 0 0 1 3.493-.614 76.296 76.296 0 0 0 1.458-5.278 13.126 13.126 0 0 0-3.015-2.85c-.886-.982-1.766-1.955-2.641-2.92-2.477 4.55-6.316 6.78-11.514 6.69a8.103 8.103 0 0 1-3.951-2.249c-1.363-4.286-.335-7.919 3.084-10.897-1.397-4.295-1.765-8.688-1.105-13.178a34.99 34.99 0 0 1 1.895-6.679c-4.62-.308-8.28-2.314-10.98-6.018a12.404 12.404 0 0 1-1.178-3.815 13.57 13.57 0 0 1-6.925-.102c-2.339-.67-3.262-2.218-2.769-4.643.642-2.654 1.966-4.906 3.975-6.756a135.364 135.364 0 0 1 3.942-2.987c-7.515-6.168-11.284-14.154-11.306-23.96 1.07-5.584 4.211-7.18 9.426-4.788 3.38 1.988 6.054 4.67 8.021 8.046a36.795 36.795 0 0 1 4.389 11.44c1.105-.501 2.292-.865 3.56-1.092-3.603-7.17-4.396-14.665-2.38-22.485.699-2.452 1.996-4.505 3.893-6.16.851-.401 1.708-.73 2.57-.984Z" fill="#040404"/><path fill-rule="evenodd" clip-rule="evenodd" d="M43.247 5.966c1.563.02 2.958.496 4.186 1.43 2.552 2.522 4.204 5.55 4.957 9.083 1.21 4.496 1.123 8.948-.259 13.356l-2.76.593c-3.424-4.392-4.846-9.377-4.27-14.954a8.397 8.397 0 0 1 1.278-3.963c-.04-.852-.479-1.196-1.319-1.034a3.028 3.028 0 0 0-1.322 1.644c-1.742 6.87-.54 13.163 3.606 18.88l-5.364 1.817c-1.658-1.961-2.766-4.225-3.325-6.789-1.576-5.584-1.307-11.066.806-16.446.87-1.66 2.132-2.866 3.786-3.617ZM18.975 16.012a12.924 12.924 0 0 1 5.9 3.126c4.55 4.735 7.385 10.361 8.508 16.878.093.5.027.977-.198 1.433a27.632 27.632 0 0 0-5.878 4.669c-1.03-.268-1.93-.798-2.703-1.59-4.749-4.765-7.653-10.482-8.714-17.15-.195-2.06.08-4.05.823-5.974.644-.687 1.398-1.152 2.262-1.392Z" fill="#F9C0FA"/><path fill-rule="evenodd" clip-rule="evenodd" d="M20.804 20.403c1.376.243 1.68.974.915 2.196.923 6.111 3.666 11.237 8.228 15.378.125.553-.055.975-.54 1.265-.715.035-1.33-.212-1.845-.742-3.807-4.001-6.365-8.696-7.676-14.084-.396-1.53-.09-2.868.918-4.013Z" fill="#0B080B"/><path fill-rule="evenodd" clip-rule="evenodd" d="M52.345 31.812c1.839.431 3.327 1.407 4.466 2.93a43.849 43.849 0 0 0-14.756 2.835c-2.33.086-4.585.546-6.765 1.38l-.206-.272a61.286 61.286 0 0 1 17.261-6.873Z" fill="#A9F59F"/><path fill-rule="evenodd" clip-rule="evenodd" d="M57.281 36.632c4.64 1.181 7.026 4.188 7.157 9.022-.646 5.268-2.955 9.657-6.929 13.167-4.888 4.37-10.607 6.706-17.158 7.009-5.43.223-9.204-2.124-11.325-7.04-.653-5.627 1.132-10.331 5.354-14.115 6.714-5.292 14.347-7.973 22.901-8.043Z" fill="#FBC2FC"/><path fill-rule="evenodd" clip-rule="evenodd" d="M35.266 40.902a.586.586 0 0 1 .461.185c-5.217 3.64-8.257 8.618-9.12 14.934-8.24 1.326-9.646-1.14-4.215-7.398a43.878 43.878 0 0 1 12.874-7.721Z" fill="#47CA33"/><path fill-rule="evenodd" clip-rule="evenodd" d="M45.145 45.185c1.492.31 1.797 1.041.915 2.196-.553.125-.975-.055-1.265-.54a2.343 2.343 0 0 1 .35-1.656Z" fill="#130F13"/><path fill-rule="evenodd" clip-rule="evenodd" d="M66.132 53.679c7.1.806 13.689 3.053 19.766 6.742l2.81 2.58a71.083 71.083 0 0 0 3.667-.104c2.038.128 3.027 1.198 2.966 3.209-1.322 4.07-4.096 6.529-8.321 7.375a3.919 3.919 0 0 1-1.912-.264c-4.8-1.939-9.608-3.86-14.423-5.762-1.175.127-1.457.697-.845 1.71a496.527 496.527 0 0 1 9.093 3.81 24.62 24.62 0 0 1 2.135 11.007 68.08 68.08 0 0 1-5.478 23.837 671.707 671.707 0 0 0-6.385 12.755c-2.708 2.217-5.83 3.369-9.363 3.457-4.875.236-9.134-1.244-12.78-4.44-2.64-2.932-2.678-5.9-.112-8.902a19.784 19.784 0 0 1 3.06-1.892 52.304 52.304 0 0 1 6.679-1.636 279.372 279.372 0 0 0 3.097-15.4c-.57-.439-1.14-.436-1.706.01a55.132 55.132 0 0 0-1.116 5.445 14.923 14.923 0 0 1-3.922-3.34c-4.73-5.776-7.39-12.392-7.977-19.849a1.922 1.922 0 0 0-1.57-.094 20.793 20.793 0 0 0 .858 7.91 44.206 44.206 0 0 0 1.97 5.14 37.002 37.002 0 0 1 2.6 4.986c-1.655 4.392-4.805 6.636-9.451 6.732-1.562-.088-2.55-.874-2.962-2.356-.08-3.19 1.227-5.607 3.921-7.251a2.23 2.23 0 0 0 .198-1.434 13.89 13.89 0 0 1-1.665-5.586 48.452 48.452 0 0 1 1.037-11.058c.34-1.08.767-2.117 1.281-3.11 9.714-1.048 17.247-5.65 22.6-13.807a8.019 8.019 0 0 1 2.25-.42Z" fill="#FCC2FD"/><path fill-rule="evenodd" clip-rule="evenodd" d="M35.415 50.418c1.566.128 1.882.78.947 1.957-1.378-.093-1.694-.745-.947-1.957Z" fill="#191519"/><path fill-rule="evenodd" clip-rule="evenodd" d="M42.583 51.406c.478.008.905.148 1.281.42a3.406 3.406 0 0 1-.383 1.895c.264 1 .66 1.948 1.191 2.843.17 1.335-.324 1.672-1.479 1.014a29.393 29.393 0 0 0-1.565-2.773c-1.497-.043-1.972-.717-1.426-2.023.846-.397 1.64-.856 2.381-1.376Z" fill="#0B080B"/><path fill-rule="evenodd" clip-rule="evenodd" d="M93.126 83.94c2.673.285 4.958 1.372 6.855 3.258 4.221 4.454 5.417 9.61 3.59 15.47-1.794 3.285-4.495 4.333-8.104 3.144-3.052-1.504-5.292-3.801-6.72-6.892a1.673 1.673 0 0 0-.976-.865 31.442 31.442 0 0 0-3.114 1.396c-1.325.339-2.66.601-4.004.788l-.14-.75A64.99 64.99 0 0 0 83 84.979c3.493.543 6.868.197 10.126-1.039Z" fill="#FBC1FC"/></svg>