<svg width="111" height="110" fill="none" xmlns="http://www.w3.org/2000/svg"><path opacity=".903" fill-rule="evenodd" clip-rule="evenodd" d="M38.109.058c3.556-.374 6.009 1.073 7.356 4.341.193.819.434 1.623.724 2.412C50.04 4.65 54.1 4.126 58.37 5.244c.716.184 1.32.545 1.809 1.085 1.541-3.002 3.994-4.167 7.357-3.498 2.39.702 3.876 2.27 4.462 4.704.917 3.872-.33 6.767-3.739 8.683a303.4 303.4 0 0 1 2.533 7.96c2.277 3.131 2.921 6.588 1.93 10.372a56.864 56.864 0 0 1-2.412 5.065c4.896 5.703 9.802 11.411 14.713 17.126.017-1.567.258-3.094.724-4.583 1.14-1.856 2.788-2.539 4.945-2.05 2.043.757 3.451 2.164 4.22 4.22 1.78-2.459 4.072-3.062 6.875-1.808 1.809 2.586 1.889 5.24.241 7.96 3.457.155 4.783 1.883 3.98 5.185a7.095 7.095 0 0 1-1.568 2.171c5.972 7.776 7.381 16.299 4.221 25.568-2.957 6.445-7.981 9.218-15.075 8.322-2.914-.452-5.485-1.618-7.719-3.498a149.414 149.414 0 0 0-2.291 4.824c-2.723 4.518-6.703 6.488-11.94 5.91-2.248-.661-3.977-1.988-5.186-3.98a16.984 16.984 0 0 1-1.568-8.925 571.53 571.53 0 0 1-8.08-1.688 115.382 115.382 0 0 1-16.522 12.663l-3.377 1.689c-.634.24-1.277.32-1.93.241-7.425-2.36-12.61-7.144-15.558-14.352-2.216-9.924 1.683-13.904 11.699-11.94l2.774 1.086 3.738-4.583a28.424 28.424 0 0 1-1.809-6.513 10.254 10.254 0 0 1-4.22 1.448c.247 2.647-.96 4.013-3.619 4.1a6.958 6.958 0 0 1-2.653-.603A2466.633 2466.633 0 0 0 .6 43.957c-.84-.977-.8-1.902.121-2.774l2.894-1.93c.882-.516 1.726-.475 2.533.121 1.676 2.4 3.445 4.732 5.307 6.995a58.704 58.704 0 0 0-2.654-6.754 4.916 4.916 0 0 1-.482-2.412c.09-.22.21-.422.362-.603a63.399 63.399 0 0 1 4.824-2.05c.347.053.668.173.965.362 3.883 8.45 7.863 16.851 11.94 25.206a3.393 3.393 0 0 1 1.808-.483c.387-5.907 2.638-10.972 6.754-15.196-5.772-3.606-7.661-8.672-5.668-15.195 1.23-2.8 3.12-5.05 5.668-6.754a19.638 19.638 0 0 1 1.688-7.116c-2.21-.926-3.537-2.574-3.98-4.944-.539-2.713-.137-5.286 1.207-7.72 1.144-1.353 2.551-2.237 4.22-2.652Zm34.733 68.02c.996.875 1.961 1.8 2.895 2.773l2.17 1.086a22.908 22.908 0 0 0-1.085 8.924c-2.81-.56-4.74-2.168-5.789-4.824a1.02 1.02 0 0 1 0-.965 16.472 16.472 0 0 0 1.81-6.995Z" fill="#040202"/><path fill-rule="evenodd" clip-rule="evenodd" d="M46.792 45.404a12.392 12.392 0 0 0-3.618-.482c-4.843-.71-8.662-3.042-11.457-6.995-1.735-3.709-1.333-7.166 1.206-10.372l2.774-2.774a5.13 5.13 0 0 1 2.17-.844l.242-.603c-1.11-2.61-.788-5.063.965-7.357l1.447-.603c.68-.655.6-1.218-.241-1.688-3.724-.106-5.574-2.036-5.548-5.79-.076-2.336.89-4.105 2.894-5.306 3.201-.709 5.252.537 6.151 3.739-.493 3.86.753 4.625 3.739 2.291 3.602-2.064 7.301-2.305 11.095-.723a3.812 3.812 0 0 1 1.568 2.291c.562.322 1.126.322 1.688 0-.154-3.696 1.573-5.425 5.186-5.186 2.55 1.287 3.474 3.337 2.774 6.151-.547 1.593-1.633 2.598-3.256 3.015-.504.303-.745.745-.724 1.327a462.258 462.258 0 0 0 3.015 9.89c2.564 3.567 2.726 7.266.483 11.095-2.86 3.66-6.518 6.192-10.975 7.598a30.938 30.938 0 0 1-11.578 1.326Z" fill="#D39356"/><path fill-rule="evenodd" clip-rule="evenodd" d="M38.35 6.329c.825-.09 1.428.232 1.809.965.388.789.87 1.513 1.447 2.17.362 1.247-.08 1.689-1.327 1.327a61 61 0 0 1-2.05-3.015 1.792 1.792 0 0 1 .12-1.447Z" fill="#0E0905"/><path fill-rule="evenodd" clip-rule="evenodd" d="M66.088 7.294c1.086-.081 1.527.401 1.327 1.447a91.458 91.458 0 0 1-2.774 3.498c-1.085.2-1.527-.242-1.326-1.327a65.336 65.336 0 0 1 2.773-3.618Z" fill="#0F0A05"/><path fill-rule="evenodd" clip-rule="evenodd" d="M53.787 22.972c2.024-.033 2.424.73 1.206 2.292-1.288.238-1.89-.285-1.809-1.568a2.73 2.73 0 0 1 .603-.724Z" fill="#0C0804"/><path fill-rule="evenodd" clip-rule="evenodd" d="M43.657 23.213c1.531-.235 2.134.409 1.809 1.93-.804.965-1.609.965-2.413 0-.236-.79-.035-1.433.604-1.93Z" fill="#100A05"/><path fill-rule="evenodd" clip-rule="evenodd" d="M48.24 27.555c.984-.11 1.909.05 2.773.482.292.91.05 1.633-.723 2.171a27.425 27.425 0 0 1-.362 3.498c-.468.179-.91.139-1.327-.12a20.889 20.889 0 0 0-.362-3.137c-1.104-.342-1.465-1.066-1.085-2.17.398-.217.76-.459 1.085-.724Z" fill="#070402"/><path fill-rule="evenodd" clip-rule="evenodd" d="M12.541 37.203a.69.69 0 0 1 .603.241L23.998 60.6c.161.322.161.643 0 .965l-2.17 2.17L10.851 38.41c.528-.463 1.09-.865 1.689-1.206Z" fill="#9E9E9E"/><path fill-rule="evenodd" clip-rule="evenodd" d="M24.601 84.72a21.571 21.571 0 0 1 3.618-.24c1.769.239 3.457.762 5.066 1.567a2.48 2.48 0 0 0 1.93-.241A950.614 950.614 0 0 1 44.5 74.831c.361-1.246-.08-1.688-1.327-1.326l-3.739 4.22a39.206 39.206 0 0 1-2.05-11.577c-.032-2.907.13-5.801.483-8.684.17-1.679.613-3.286 1.326-4.824.27-1.801-.294-2.123-1.688-.965a27.548 27.548 0 0 0-2.171 9.408 211.742 211.742 0 0 0 0 8.924c-3.078 2.341-6.415 2.783-10.01 1.327-3.222-2.288-3.463-4.861-.724-7.719a10.243 10.243 0 0 1 5.066-2.17c.2-.202.402-.403.603-.604.154-6.102 2.526-11.127 7.115-15.075 2.925.681 5.9 1.244 8.925 1.688 8.07.466 15.348-1.664 21.829-6.392.468.227.87.549 1.206.965l15.678 18.09c.234.457.396.94.483 1.448a20.89 20.89 0 0 0 3.256 1.568c1.845 1.58 1.927 3.268.241 5.065-3.025 2.039-6.322 2.602-9.89 1.689a7.49 7.49 0 0 1-1.929-.965L66.571 58.309c-1.293-.698-1.896-.336-1.81 1.085l5.549 5.548c.55 2.203.468 4.373-.242 6.512a55.762 55.762 0 0 1-8.924 14.473c-7.09 8.621-15.532 15.536-25.327 20.743-6.9-2.156-11.724-6.578-14.472-13.266-.999-2.553-.758-4.965.724-7.236A4.84 4.84 0 0 1 24.6 84.72Z" fill="#D39456"/><path fill-rule="evenodd" clip-rule="evenodd" d="M4.34 41.545c.366.003.648.163.844.482a528.26 528.26 0 0 0 11.578 15.196c1.224 2.85 2.51 5.665 3.86 8.442.16.483.16.965 0 1.448L3.012 43.233a.603.603 0 0 1 0-.723c.487-.289.929-.61 1.327-.965Z" fill="#9D9D9D"/><path fill-rule="evenodd" clip-rule="evenodd" d="M43.174 44.922a12.395 12.395 0 0 1 3.618.482 10.421 10.421 0 0 1-3.618-.482Z" fill="#A07041"/><path fill-rule="evenodd" clip-rule="evenodd" d="M88.762 52.158c1.423-.112 2.508.45 3.256 1.688 1.069 1.6 1.551 3.369 1.447 5.307.304.898.866 1.14 1.689.724.234-2.034 1.078-3.762 2.532-5.186 1.983-1.14 3.028-.578 3.136 1.688-.099 2.489-1.264 4.297-3.497 5.427-.258.867.062 1.35.964 1.447a11.103 11.103 0 0 1 4.704-.361c1.114.38 1.396 1.063.844 2.05-2.752 3.074-5.97 3.717-9.648 1.93-.794.153-1.035.636-.724 1.447 1.02 1.153 2.306 1.716 3.86 1.688a45.31 45.31 0 0 0 4.944-.844c6.149 7.189 7.475 15.189 3.98 24-2.974 5.286-7.436 7.337-13.387 6.15-2.576-.743-4.785-2.07-6.633-3.98-.08-1.849-.162-3.698-.241-5.547-.287-2.15-1.131-4.039-2.533-5.668l-3.618-1.81a2.996 2.996 0 0 1-.603-.964c-.62-2.984-.34-5.879.844-8.684a38.718 38.718 0 0 0 6.995-1.085c2.183-.817 3.83-2.225 4.945-4.221.719-2.988-.328-5.159-3.136-6.513-1.454-2.03-1.937-4.28-1.447-6.754.306-.747.75-1.39 1.327-1.93Z" fill="#8C90A4"/><path fill-rule="evenodd" clip-rule="evenodd" d="M37.868 57.465a65.475 65.475 0 0 0-.483 8.683 24.086 24.086 0 0 1 .483-8.683Z" fill="#805934"/><path fill-rule="evenodd" clip-rule="evenodd" d="M99.375 71.213c.948-.11 1.71.212 2.291.965 2.019 3.245 3.225 6.783 3.618 10.613a46.989 46.989 0 0 1 0 6.754c-.019 1.168-.542 1.972-1.567 2.412-.562-.08-.886-.402-.965-.965 1.435-6.109.591-11.898-2.533-17.367-1.02-.57-1.302-1.373-.844-2.412Z" fill="#FBFBFC"/><path fill-rule="evenodd" clip-rule="evenodd" d="M25.566 73.625c1.179.333 2.385.534 3.618.603.416.822.175 1.385-.723 1.689-.402.16-.804.16-1.206 0a7.55 7.55 0 0 1-1.689-2.292Z" fill="#929292"/><path fill-rule="evenodd" clip-rule="evenodd" d="M69.224 77.726a16.955 16.955 0 0 0 2.653 3.256 407.081 407.081 0 0 1 10.131 4.583c2.029 2.773 2.714 5.868 2.05 9.286-.66 4.175-2.55 7.672-5.668 10.493-5.396 3.106-9.052 1.699-10.975-4.221a53.94 53.94 0 0 1-.482-6.272l-.603-.603a76.44 76.44 0 0 1-8.201-2.05 68.763 68.763 0 0 0 11.095-14.472Z" fill="#D39356"/><path fill-rule="evenodd" clip-rule="evenodd" d="M28.22 84.48a21.561 21.561 0 0 0-3.619.24c.648-.359 1.372-.52 2.171-.482.53.001 1.012.082 1.447.241Z" fill="#92663B"/><path fill-rule="evenodd" clip-rule="evenodd" d="M101.063 93.163c1.009-.159 1.37.243 1.086 1.206-.316.52-.719.6-1.206.241a1.793 1.793 0 0 1 .12-1.447Z" fill="#F5F5F7"/></svg>