<svg width="140" height="127" fill="none" xmlns="http://www.w3.org/2000/svg"><path opacity=".922" fill-rule="evenodd" clip-rule="evenodd" d="M62.945 7.145c3.913-.766 7.742-.5 11.493.8 2.487 1.143 3.55 3.088 3.19 5.837a5.188 5.188 0 0 1-1.308 2.449c4.898 1.668 9.122 4.399 12.669 8.192 1.87-4.273 5.005-5.548 9.407-3.825 2.01 1.179 3.527 2.832 4.549 4.96a39.298 39.298 0 0 1 1.992 4.877 5.373 5.373 0 0 1 2.705-.783l.237 2.158a8.207 8.207 0 0 1 1.958.15c.274.464.413.975.411 1.531 1.382-.297 2.092.272 2.129 1.707 1.231-.255 1.892.238 1.982 1.481.558-.292 1.157-.358 1.799-.198.099.49.272.957.517 1.4 1.185-.529 1.837-.115 1.957 1.24 1.817-.593 2.776.03 2.874 1.868a4.672 4.672 0 0 1 1.945.03c.356.904 1.017 1.398 1.982 1.48.223.393.466.77.732 1.133.616-.351 1.261-.381 1.931-.091.263.383.39.814.384 1.292.672-.118 1.107.157 1.305.827a7.298 7.298 0 0 1 2.237.483c.153.251.266.522.332.812-.914 7.317-4.507 12.888-10.781 16.715-6.008 3.292-12.428 4.847-19.264 4.666a11.202 11.202 0 0 0-1.161 1.583c-.583.367-1.197.678-1.839.93A102.935 102.935 0 0 0 97 76.322c-.741.32-1.433.275-2.078-.136l-7.31 10.753c1.4 5.386-.65 8.442-6.151 9.169a652.145 652.145 0 0 1-11.953 17.087c-.612.399-1.22.385-1.825-.043-3.241 4.575-7.623 7.402-13.142 8.482-5.545.435-8.775-2.081-9.687-7.549-.17-4.097.96-7.78 3.396-11.051a31.737 31.737 0 0 1-6.574-4.615c-4.52.998-9.085 1.783-13.694 2.354-3.183.49-6.371.558-9.563.202-8.007-6.573-11.726-15.022-11.157-25.345 1.302-4.179 4.145-5.907 8.53-5.184 4.26 1.09 7.745 3.376 10.46 6.858a43.818 43.818 0 0 0 6.782-2.323 49.178 49.178 0 0 1 1.712-6.497c-3.309-.628-6.25-2.004-8.825-4.126-2.242-2.067-3.002-4.572-2.282-7.514.734-1.263 1.82-2.07 3.252-2.42a15.928 15.928 0 0 1 6.78-.139C36.657 50.708 40.32 48 44.666 46.16c2.155-.88 4.33-1.686 6.529-2.416-2.625-4.115-3.144-8.466-1.557-13.054 2.18-3.286 5.267-5 9.262-5.144.319-1.896 1.194-3.489 2.63-4.778-2.647-.151-4.973-1.069-6.976-2.752-1.918-3.523-1.134-6.32 2.354-8.387a26.977 26.977 0 0 1 6.036-2.484Zm28.728 33.97a59.207 59.207 0 0 0 3.473 2.893c-2.8 6.206-3 12.496-.595 18.872a6.665 6.665 0 0 0-1.375 2.941 95.727 95.727 0 0 1-5.452 3.39c-.194.353-.313.73-.36 1.132.39.877.912 1.588 1.569 2.132a133.104 133.104 0 0 0-3.883 5.523c-.697-3.806-1.397-7.611-2.104-11.416a52.06 52.06 0 0 0-2.48-8.22c6.972-1.38 9.866-5.582 8.684-12.603a9.343 9.343 0 0 0 2.523-4.645ZM68.26 86.394c1.191 3.182 3.245 5.666 6.157 7.453a84.16 84.16 0 0 0-4.296 6.174c-.989-2.002-2.454-3.54-4.39-4.613a556.853 556.853 0 0 0-1.178-5.209l.134-.985a23.322 23.322 0 0 0 3.573-2.82Z" fill="#030302"/><path fill-rule="evenodd" clip-rule="evenodd" d="M63.183 9.303c3.496-.687 6.919-.456 10.267.691 2.095 1.131 2.51 2.703 1.247 4.717a11.816 11.816 0 0 0-2.107 1.808 2.22 2.22 0 0 0 .158 1.439c1.927.13 3.8.613 5.619 1.445.247.147.31.342.186.586-1.62 1.668-3.574 2.652-5.864 2.95a65.208 65.208 0 0 0-5.722-3.496 3.385 3.385 0 0 0-.825-.88c-3.332.504-6.467-.041-9.401-1.636-1.367-1.686-1.213-3.24.458-4.66a16.12 16.12 0 0 1 5.984-2.964Z" fill="#70532B"/><path fill-rule="evenodd" clip-rule="evenodd" d="M64.687 20.785a2.255 2.255 0 0 1 1.505.442 1670.606 1670.606 0 0 0 23.13 13.958c.868.98 1.156 2.121.862 3.423-.247.064-.492.05-.732-.04L62.94 22.555a18.969 18.969 0 0 0 1.746-1.77Z" fill="#46C833"/><path fill-rule="evenodd" clip-rule="evenodd" d="M80.456 20.75a25.14 25.14 0 0 1 5.39 3.776 114.832 114.832 0 0 0 3.432 3.626c.549.14.974-.028 1.279-.504.185-2.22 1.166-3.986 2.936-5.297 2.08-.593 3.874-.102 5.379 1.47 4.269 4.84 5.355 10.302 3.257 16.386-1.407 2.28-3.326 2.855-5.756 1.725-2.68-1.863-4.292-4.396-4.839-7.597l-15.997-9.768a30.565 30.565 0 0 0 3.626-2.34 3.824 3.824 0 0 0 1.293-1.477Z" fill="#FBE8CE"/><path fill-rule="evenodd" clip-rule="evenodd" d="M60.872 25.815c1.21.168 2.431.236 3.663.204a8.694 8.694 0 0 1 1.783.775L89.21 40.778c-1.138-.263-2.3-.54-3.489-.83-5.29-.074-8.365 2.488-9.225 7.688-.112 3.62 1.363 6.37 4.425 8.249-4.856 1.01-9.53.433-14.022-1.735-5.885-2.679-10.578-6.733-14.077-12.163-1.68-2.727-2.245-5.658-1.694-8.792.903-2.49 2.62-4.176 5.147-5.055l4.29-.714c.367-.474.47-1.011.307-1.61Z" fill="#FCE9CE"/><path fill-rule="evenodd" clip-rule="evenodd" d="M64.73 30.002c2.133-.438 2.784.34 1.955 2.333-2.272.48-2.925-.298-1.955-2.333Z" fill="#0E0D0C"/><path fill-rule="evenodd" clip-rule="evenodd" d="M66.108 35.916a3.54 3.54 0 0 1 1.958.15l1.544.8c.61 1.245.2 1.937-1.228 2.076-.532.764-.967 1.58-1.308 2.45-.797 1.138-1.484 1.133-2.064-.016.279-.858.63-1.706 1.055-2.543a3.4 3.4 0 0 0-.331-1.905c.018-.383.144-.72.374-1.011Z" fill="#0B0A09"/><path fill-rule="evenodd" clip-rule="evenodd" d="M74.073 35.526c1.63-.043 2.112.673 1.449 2.146-1.052.516-1.73.227-2.037-.868.091-.477.287-.902.588-1.278Z" fill="#121110"/><path fill-rule="evenodd" clip-rule="evenodd" d="M105.534 32.553c.45 1.374 1.391 1.836 2.822 1.389-.02 1.296.602 1.794 1.863 1.494-.052 1.342.577 1.92 1.889 1.733.121 1.48.911 2.041 2.369 1.681.14 1.274.83 1.684 2.076 1.228.048.5.257.922.624 1.266.728.04 1.452.002 2.171-.117-.125 1.793.673 2.433 2.395 1.92-.005.478.122.91.385 1.293.567.058 1.13.036 1.692-.065.149 1.58.93 2.06 2.342 1.441.437.75.921 1.465 1.449 2.146.717.234 1.45.275 2.198.122-1.18 6.336-4.628 11.042-10.339 14.119-5.487 2.8-11.32 4.17-17.505 4.108a75.045 75.045 0 0 1-5.482-4.614c-1.72-4.253-1.954-8.595-.704-13.027a12.732 12.732 0 0 1 1.87-3.966c4.062-.157 6.463-2.241 7.199-6.251.263-1.783.388-3.577.379-5.38.158-.15.261-.323.307-.52Z" fill="#A0824C"/><path fill-rule="evenodd" clip-rule="evenodd" d="M108.354 36.126c1.315-.326 1.816.185 1.503 1.533-4.223 4.986-6.742 10.763-7.559 17.332-.832.841-1.453.707-1.864-.402.88-6.944 3.518-13.098 7.92-18.463Z" fill="#060502"/><path fill-rule="evenodd" clip-rule="evenodd" d="M82.562 42.115c2.076-.611 3.97-.294 5.686.953a3.706 3.706 0 0 0-1.215 2.196c.652 3.19-.004 6.052-1.967 8.588a6.523 6.523 0 0 0-1.347.997c-4.833-1.806-6.29-5.124-4.37-9.954a10.244 10.244 0 0 1 3.213-2.78Z" fill="#70532B"/><path fill-rule="evenodd" clip-rule="evenodd" d="M51.206 46.048a4.07 4.07 0 0 1 1.945.029 32.454 32.454 0 0 0 8.208 7.348c.114.329.068.657-.134.985-2.513 2.484-5.461 3.253-8.846 2.307a2.23 2.23 0 0 0-1.439.158c-.93 1.716-2.386 2.442-4.37 2.18a8.47 8.47 0 0 1-2.53-.936c-.468-.219-.706-.556-.718-1.013a30.881 30.881 0 0 1 5.134-5.175c.286-.906-.047-1.355-.998-1.346a5.393 5.393 0 0 0-2.479 1.728 8.528 8.528 0 0 1 .897-3.98 5.787 5.787 0 0 1 1.826-1.05 127.34 127.34 0 0 0 3.504-1.235Z" fill="#6F532B"/><path fill-rule="evenodd" clip-rule="evenodd" d="M112.372 39.567c1.227-.224 1.727.288 1.503 1.533a1243.692 1243.692 0 0 1-7.742 14.561c-1.403.242-1.828-.318-1.277-1.68a738.304 738.304 0 0 0 7.516-14.414Z" fill="#080603"/><path fill-rule="evenodd" clip-rule="evenodd" d="M43.078 49.368c.131 0 .221.07.266.213a18.68 18.68 0 0 0-.432 4.9 48.644 48.644 0 0 0-6.979 11.566c-3.674-.267-6.787-1.744-9.344-4.432-1.894-3.192-.959-4.993 2.803-5.404 1.925.046 3.835.12 5.727.22a25.407 25.407 0 0 1 7.96-7.063Z" fill="#FAE7CD"/><path fill-rule="evenodd" clip-rule="evenodd" d="M118.121 43.303c.802-.27 1.238.007 1.304.827a3.283 3.283 0 0 1-.655 1.77l-10.458 14.132c-1.164.451-1.73.068-1.703-1.147a1094.51 1094.51 0 0 0 11.512-15.582Z" fill="#070503"/><path fill-rule="evenodd" clip-rule="evenodd" d="M124.668 47.679c1.367-.062 1.885.61 1.556 2.013a15.888 15.888 0 0 1-5.734 6.332 84.29 84.29 0 0 1-7.277 4.44c-1.373.38-1.835-.135-1.383-1.546a45.55 45.55 0 0 0 10.396-6.967c1.293-1.175 2.107-2.6 2.442-4.272Z" fill="#060502"/><path fill-rule="evenodd" clip-rule="evenodd" d="M66.038 72.808c-1.05.491-2.143.854-3.278 1.088-2.43.8-4.328 2.302-5.692 4.509a21.62 21.62 0 0 1-2.322 4.259c-1.361.795-2.73 1.592-4.105 2.392a10.707 10.707 0 0 0-2.615 3.806 7.288 7.288 0 0 0 1.087 4.37.88.88 0 0 1-.427.532 95.748 95.748 0 0 1-26.35 5.323c-.902.005-1.8-.058-2.69-.19A27.267 27.267 0 0 1 12.04 89.3a11.1 11.1 0 0 1 1.84-2.022 237.179 237.179 0 0 1 3.311-6.309c2.545-.272 4.432-1.49 5.665-3.656.895.682 1.67 1.487 2.328 2.414.228.116.477.17.745.16 4.94-1.734 9.888-3.45 14.843-5.15.46-.554.478-1.122.055-1.704-1.744.222-3.433.69-5.062 1.405-.13-.066-.258-.133-.386-.2a49.769 49.769 0 0 1 6.69-15.295c2.246 2.11 4.856 2.672 7.83 1.688a9.053 9.053 0 0 0 2.465-1.849c4.605 1.01 8.295-.367 11.073-4.129 4.386 2.446 9.099 3.748 14.14 3.906 1.319 1.23 1.888 2.745 1.712 4.543-3.18 1.864-4.139 4.558-2.873 8.081-1.728 3.24-1.002 5.789 2.175 7.647a13.31 13.31 0 0 0 4.008 1.137 6.863 6.863 0 0 1-.35 3.436c.994 1.407 2 2.833 3.018 4.279 1.229 3.325.112 5.308-3.35 5.949-3.88-.036-7.079-1.545-9.597-4.526a93.04 93.04 0 0 1-2.844-5.997 28.935 28.935 0 0 1-1.31-6.407 32.616 32.616 0 0 1-.14-6.78c-.66-.287-1.211-.145-1.651.425a6.694 6.694 0 0 0-.336 2.463Z" fill="#FDEACF"/><path fill-rule="evenodd" clip-rule="evenodd" d="M79.952 64.727a.8.8 0 0 1 .412.44 64.316 64.316 0 0 1 2.023 12.881 9.446 9.446 0 0 1-4.512-2.416l-.239-1.066c.122-1.211.354-2.41.697-3.595a68.552 68.552 0 0 0-.422-3.836 5.931 5.931 0 0 1 2.04-2.408Z" fill="#6D512A"/><path fill-rule="evenodd" clip-rule="evenodd" d="M12.392 72.639c3.17-.228 5.978.677 8.427 2.713.316 1.064.049 1.942-.802 2.636a63.551 63.551 0 0 1-4.184 1.674l-1.174 1.463a21.09 21.09 0 0 1-3.123 5.803c-.215.141-.45.207-.706.2a21.243 21.243 0 0 1-1.654-9.525c.213-2.259 1.286-3.913 3.216-4.964Z" fill="#6F532B"/><path fill-rule="evenodd" clip-rule="evenodd" d="M96.2 64.64a18.223 18.223 0 0 1 3.553 2.52c.183.336.09.59-.28.76a46.607 46.607 0 0 0-3.074-2.574 1.194 1.194 0 0 1-.199-.706Z" fill="#422C03"/><path fill-rule="evenodd" clip-rule="evenodd" d="M95.025 67.195a.585.585 0 0 1 .493.068c-.87.62-1.147 1.418-.829 2.396.444.212.887.204 1.332-.025l1.107-.971c.097.151.196.302.292.453a28.587 28.587 0 0 1-1.923 4.58 107.765 107.765 0 0 1-4.99-3.456 67.923 67.923 0 0 0 4.518-3.045Z" fill="#9B7F4A"/><path fill-rule="evenodd" clip-rule="evenodd" d="m66.038 72.808.08.72-3.357.368a14.795 14.795 0 0 0 3.277-1.088Z" fill="#AFA28F"/><path fill-rule="evenodd" clip-rule="evenodd" d="M62.945 75.575a18.609 18.609 0 0 1 3.143-.103c.285 2.816.713 5.6 1.282 8.352a21.214 21.214 0 0 1-6.612 4.973c-3 1.553-6.09 2.903-9.26 4.052-1.564-1.355-1.86-2.94-.887-4.756a8.315 8.315 0 0 1 1.627-1.756 13.2 13.2 0 0 0 4.104-2.393 26.592 26.592 0 0 0 2.51-4.765 12.198 12.198 0 0 1 4.093-3.604Z" fill="#70532B"/><path fill-rule="evenodd" clip-rule="evenodd" d="M91.102 73.45c.877.228 1.459.73 1.743 1.507a436.814 436.814 0 0 1-6.79 9.968 7.923 7.923 0 0 1-1.556-2.013 379.504 379.504 0 0 0 6.603-9.462Z" fill="#462F03"/><path fill-rule="evenodd" clip-rule="evenodd" d="M61.889 90.25c.53.542.849 1.235.956 2.08-3.288 1.677-5.55 4.271-6.788 7.782-.071 3.371 1.562 5.335 4.894 5.893a6.164 6.164 0 0 1 1.704 1.147 95.601 95.601 0 0 0 2.737 5.038c-3.355 4.929-7.99 7.259-13.912 6.989-2.604-.889-4.098-2.707-4.482-5.453.097-4.347 1.667-8.079 4.715-11.195.145-.443.06-.838-.252-1.185-2.805-.657-5.294-1.96-7.467-3.911a123.777 123.777 0 0 0 16.309-6.16 7.162 7.162 0 0 0 1.586-1.025Z" fill="#FBE8CD"/><path fill-rule="evenodd" clip-rule="evenodd" d="m62.577 94.3.719-.079c.177 1.037.411 2.063.702 3.077 3.654 1.672 5.096 4.507 4.332 8.503a16.676 16.676 0 0 1-1.71 4.313 59.685 59.685 0 0 0-2.685-4.558 10.297 10.297 0 0 0-4.472-2.057c-1.741-1.486-1.97-3.2-.687-5.141a85.527 85.527 0 0 1 3.8-4.058Z" fill="#6F532B"/><path fill-rule="evenodd" clip-rule="evenodd" d="M76.48 94.956a5.04 5.04 0 0 1 2.49.575 762.092 762.092 0 0 0-9.218 13.268c.36-1.624.614-3.35.765-5.18 2.041-2.863 4.03-5.75 5.963-8.663Z" fill="#462E03"/></svg>