<svg width="140" height="127" viewBox="0 0 140 127" fill="none" xmlns="http://www.w3.org/2000/svg">
<path opacity="0.922" fill-rule="evenodd" clip-rule="evenodd" d="M62.9452 7.14526C66.8575 6.37864 70.6869 6.64516 74.438 7.94452C76.9247 9.08757 77.9879 11.0333 77.6276 13.7817C77.4168 14.7124 76.98 15.5289 76.3195 16.2307C81.2178 17.8993 85.4417 20.63 88.9889 24.4231C90.8584 20.1496 93.9941 18.8746 98.3962 20.5984C100.406 21.7769 101.923 23.4301 102.945 25.5582C103.718 27.139 104.382 28.7647 104.937 30.435C105.761 29.9361 106.662 29.6752 107.642 29.6524C107.721 30.3717 107.8 31.091 107.879 31.8103C108.536 31.7813 109.187 31.831 109.837 31.9591C110.111 32.4242 110.25 32.9348 110.248 33.4912C111.63 33.1944 112.34 33.7634 112.377 35.1984C113.608 34.9429 114.269 35.4364 114.359 36.6791C114.917 36.3872 115.516 36.3214 116.158 36.4814C116.257 36.9713 116.43 37.4376 116.675 37.8804C117.86 37.352 118.512 37.7657 118.632 39.1213C120.449 38.5279 121.408 39.1505 121.506 40.9893C122.16 40.8626 122.809 40.8721 123.451 41.0182C123.807 41.9232 124.468 42.4166 125.433 42.4988C125.656 42.892 125.899 43.2695 126.165 43.6318C126.781 43.2808 127.426 43.2505 128.096 43.5408C128.359 43.9242 128.486 44.3552 128.48 44.8331C129.152 44.7147 129.587 44.9903 129.785 45.6604C130.569 45.7062 131.314 45.8669 132.022 46.1425C132.175 46.3942 132.288 46.665 132.354 46.9553C131.44 54.2717 127.847 59.8432 121.573 63.6705C115.565 66.962 109.145 68.517 102.309 68.3359C101.873 68.8327 101.487 69.3605 101.148 69.9194C100.565 70.2864 99.9514 70.5965 99.3094 70.8496C98.488 72.6479 97.7178 74.4717 96.999 76.3207C96.2577 76.6417 95.566 76.5964 94.9214 76.1851C92.4836 79.7694 90.0482 83.3533 87.6104 86.9377C89.0105 92.3239 86.9611 95.38 81.4599 96.1068C77.5589 101.877 73.5745 107.573 69.5066 113.194C68.8953 113.593 68.2871 113.579 67.682 113.151C64.4407 117.726 60.0585 120.553 54.5402 121.633C48.9948 122.068 45.765 119.552 44.8533 114.084C44.6821 109.987 45.8132 106.304 48.2491 103.033C45.8532 101.767 43.6627 100.228 41.6753 98.4175C37.1551 99.4159 32.5896 100.201 27.9813 100.772C24.7981 101.262 21.6097 101.33 18.4185 100.974C10.4113 94.4006 6.69211 85.9524 7.26082 75.6294C8.56312 71.4501 11.4064 69.7221 15.7906 70.4452C20.0502 71.5349 23.5361 73.8209 26.2508 77.3031C28.5621 76.7183 30.8235 75.9441 33.0326 74.9804C33.4549 72.7738 34.0273 70.608 34.7449 68.4831C31.4364 67.8548 28.4946 66.4795 25.9197 64.3573C23.6784 62.2897 22.9177 59.7849 23.6378 56.8431C24.3725 55.5796 25.4582 54.7728 26.8903 54.423C29.1467 53.8901 31.4056 53.8439 33.6695 54.2844C36.6566 50.7081 40.3215 48 44.6666 46.1598C46.8217 45.2792 48.9972 44.4739 51.1955 43.7436C48.5714 39.6288 48.0518 35.2775 49.6392 30.6898C51.8187 27.4039 54.9061 25.6894 58.9015 25.5464C59.2196 23.6501 60.0952 22.0573 61.5308 20.7683C58.8837 20.6166 56.5578 19.6995 54.5552 18.0165C52.6367 14.4929 53.4214 11.6969 56.9091 9.6287C58.8478 8.54567 60.8582 7.71803 62.9452 7.14526ZM91.673 41.1141C92.7719 42.1044 93.9286 43.0692 95.1457 44.0082C92.3457 50.2138 92.1466 56.5043 94.5508 62.8796C93.8503 63.7474 93.3903 64.7284 93.1756 65.8214C91.3945 67.0135 89.5774 68.1433 87.7244 69.2111C87.5302 69.5637 87.4115 69.9407 87.3635 70.3428C87.7536 71.2203 88.2758 71.9314 88.9326 72.4755C87.5907 74.2857 86.2958 76.1267 85.0504 77.9981C84.353 74.1922 83.6532 70.3866 82.9462 66.5818C82.3434 63.7689 81.5181 61.0288 80.4653 58.3615C87.438 56.9811 90.3322 52.7804 89.1504 45.7592C90.4384 44.4529 91.2801 42.9044 91.673 41.1141ZM68.2595 86.3956C69.4512 89.5771 71.5054 92.0611 74.4171 93.8478C72.9002 95.8313 71.469 97.8893 70.1214 100.022C69.132 98.02 67.6672 96.4825 65.7317 95.4091C65.3465 93.6708 64.9543 91.9346 64.5525 90.2003C64.5965 89.872 64.6429 89.5432 64.6869 89.2149C65.9854 88.3786 67.1778 87.4388 68.2595 86.3956Z" fill="#030302"/>
<path fill-rule="evenodd" clip-rule="evenodd" d="M63.1826 9.30319C66.6791 8.6165 70.1016 8.84693 73.4503 9.99447C75.5449 11.125 75.9604 12.6972 74.6966 14.7106C73.9216 15.2316 73.2211 15.8345 72.5902 16.5194C72.4823 17.0166 72.535 17.4962 72.7484 17.958C74.6749 18.0886 76.5478 18.5705 78.367 19.403C78.6137 19.5501 78.6764 19.7453 78.5528 19.9892C76.9332 21.6574 74.9787 22.6407 72.6892 22.939C70.8395 21.6745 68.9327 20.509 66.9665 19.4429C66.7444 19.1004 66.4695 18.8069 66.1418 18.5629C62.8096 19.0665 59.6752 18.5215 56.7409 16.927C55.3738 15.2406 55.5282 13.6867 57.1992 12.2662C59.0068 10.851 61.002 9.8632 63.1826 9.30319Z" fill="#70532B"/>
<path fill-rule="evenodd" clip-rule="evenodd" d="M64.6874 20.7853C65.2369 20.7511 65.7384 20.8981 66.1918 21.2265C73.8662 25.942 81.5749 30.5949 89.3227 35.1846C90.19 36.1648 90.478 37.3061 90.1844 38.6085C89.9366 38.6719 89.6924 38.6584 89.4519 38.5676C80.6148 33.2299 71.7777 27.8922 62.9406 22.5545C63.5728 21.9922 64.1535 21.4028 64.6874 20.7853Z" fill="#46C833"/>
<path fill-rule="evenodd" clip-rule="evenodd" d="M80.4563 20.7504C82.3941 21.7565 84.1922 23.0148 85.8458 24.5258C86.9641 25.7593 88.1065 26.9684 89.2776 28.1524C89.8268 28.2922 90.2524 28.1241 90.5568 27.6478C90.7422 25.4275 91.7226 23.6616 93.493 22.3506C95.573 21.7582 97.3668 22.2485 98.8719 23.8219C103.141 28.6615 104.227 34.1233 102.129 40.2073C100.722 42.4873 98.803 43.0623 96.3734 41.9319C93.6936 40.069 92.0806 37.5365 91.5345 34.3348C86.2021 31.0789 80.8697 27.8228 75.5373 24.567C76.7982 23.8744 78.0059 23.0945 79.1626 22.2272C79.727 21.8422 80.1582 21.35 80.4563 20.7504Z" fill="#FBE8CE"/>
<path fill-rule="evenodd" clip-rule="evenodd" d="M60.8723 25.8151C62.0822 25.983 63.303 26.0509 64.5346 26.0191C65.1625 26.2122 65.7563 26.4706 66.3184 26.7937C73.9479 31.4554 81.5799 36.1165 89.2095 40.7782C88.0716 40.5148 86.9104 40.2379 85.7211 39.9484C80.4302 39.8738 77.3559 42.4359 76.4958 47.6355C76.3842 51.2564 77.8585 54.0062 80.9211 55.8848C76.065 56.8959 71.391 56.3177 66.8989 54.1502C61.0136 51.4713 56.3214 47.4171 52.8224 41.9874C51.1419 39.2602 50.5771 36.3294 51.128 33.1953C52.0311 30.7047 53.7483 29.0194 56.2748 28.1404C57.7045 27.9024 59.1343 27.6642 60.5641 27.4262C60.9317 26.9517 61.0353 26.4145 60.8723 25.8151Z" fill="#FCE9CE"/>
<path fill-rule="evenodd" clip-rule="evenodd" d="M64.7296 30.0016C66.8631 29.5644 67.514 30.3422 66.6847 32.3346C64.4128 32.8146 63.7595 32.0371 64.7296 30.0016Z" fill="#0E0D0C"/>
<path fill-rule="evenodd" clip-rule="evenodd" d="M66.108 35.9165C66.7775 35.7818 67.4308 35.8313 68.0656 36.0653C68.5802 36.3322 69.0949 36.5993 69.6096 36.8662C70.2195 38.1105 69.8103 38.8027 68.3819 38.9424C67.8495 39.7061 67.415 40.5224 67.0738 41.3915C66.2768 42.5298 65.5895 42.5245 65.0095 41.3757C65.2889 40.5178 65.6398 39.6705 66.0646 38.8332C66.1396 38.1693 66.0286 37.5345 65.7339 36.9283C65.7524 36.5445 65.8779 36.2073 66.108 35.9165Z" fill="#0B0A09"/>
<path fill-rule="evenodd" clip-rule="evenodd" d="M74.0728 35.5263C75.7036 35.4832 76.185 36.1987 75.522 37.6722C74.4698 38.1883 73.7925 37.8987 73.4853 36.8042C73.5761 36.3275 73.7719 35.9017 74.0728 35.5263Z" fill="#121110"/>
<path fill-rule="evenodd" clip-rule="evenodd" d="M105.534 32.5533C105.984 33.9266 106.925 34.3893 108.356 33.9418C108.336 35.2381 108.958 35.736 110.219 35.4356C110.167 36.7778 110.796 37.3559 112.108 37.1692C112.229 38.6497 113.019 39.21 114.477 38.8501C114.617 40.1244 115.307 40.5338 116.553 40.0778C116.601 40.5778 116.81 40.9999 117.177 41.3438C117.905 41.3847 118.629 41.3456 119.348 41.2265C119.223 43.0197 120.021 43.6599 121.743 43.1471C121.738 43.6251 121.865 44.0561 122.128 44.4395C122.695 44.4977 123.258 44.4761 123.82 44.3748C123.969 45.9551 124.75 46.4354 126.162 45.816C126.599 46.5658 127.083 47.2811 127.611 47.9619C128.328 48.1959 129.061 48.2367 129.809 48.0844C128.629 54.4197 125.181 59.126 119.47 62.203C113.983 65.0029 108.15 66.3721 101.965 66.3111C100.058 64.8552 98.2315 63.317 96.4834 61.6966C94.7638 57.4442 94.5292 53.1022 95.7795 48.6704C96.177 47.2312 96.8008 45.9088 97.6487 44.7037C101.711 44.5465 104.112 42.4626 104.848 38.4526C105.111 36.6698 105.236 34.8763 105.227 33.0724C105.385 32.923 105.488 32.7499 105.534 32.5533Z" fill="#A0824C"/>
<path fill-rule="evenodd" clip-rule="evenodd" d="M108.354 36.126C109.669 35.8 110.17 36.3114 109.857 37.6593C105.634 42.6447 103.115 48.4217 102.298 54.9909C101.466 55.832 100.845 55.6979 100.434 54.5892C101.314 47.6452 103.952 41.4909 108.354 36.126Z" fill="#060502"/>
<path fill-rule="evenodd" clip-rule="evenodd" d="M82.5622 42.1155C84.6376 41.5035 86.5312 41.8212 88.248 43.0678C87.5834 43.6665 87.1785 44.3984 87.0334 45.2639C87.6849 48.4531 87.0289 51.3158 85.0656 53.8519C84.5718 54.128 84.123 54.4605 83.7192 54.8492C78.8859 53.0427 77.4292 49.7246 79.3492 44.8953C80.2427 43.7301 81.3129 42.8034 82.5622 42.1155Z" fill="#70532B"/>
<path fill-rule="evenodd" clip-rule="evenodd" d="M51.2062 46.0476C51.8573 45.9001 52.5038 45.9098 53.1506 46.0765C55.4575 48.9833 58.1922 51.433 61.3594 53.4245C61.4733 53.7537 61.4269 54.0823 61.2251 54.4099C58.7124 56.8936 55.7637 57.6628 52.379 56.7169C51.8819 56.6097 51.4024 56.6624 50.9404 56.8751C50.0104 58.5912 48.5542 59.3174 46.5695 59.0542C45.6739 58.8762 44.8292 58.5646 44.0401 58.1189C43.572 57.9003 43.3335 57.5625 43.3221 57.1059C44.8349 55.1728 46.5453 53.4478 48.4557 51.9311C48.7419 51.0248 48.4087 50.5761 47.4584 50.5847C46.4646 50.926 45.6398 51.5019 44.9792 52.3132C44.9531 50.9283 45.2513 49.6014 45.8762 48.3321C46.4155 47.8736 47.0225 47.524 47.702 47.2821C48.9071 46.8766 50.0752 46.4653 51.2062 46.0476Z" fill="#6F532B"/>
<path fill-rule="evenodd" clip-rule="evenodd" d="M112.372 39.5668C113.599 39.3435 114.099 39.8549 113.875 41.1001C111.326 45.9714 108.746 50.8249 106.133 55.6613C104.73 55.9033 104.305 55.3435 104.856 53.9817C107.417 49.1994 109.922 44.3943 112.372 39.5668Z" fill="#080603"/>
<path fill-rule="evenodd" clip-rule="evenodd" d="M43.0781 49.3677C43.2091 49.3679 43.2994 49.4387 43.3442 49.5811C42.9845 51.1877 42.8413 52.821 42.9123 54.4818C40.0527 58.004 37.7271 61.8592 35.9332 66.0472C32.2591 65.7804 29.146 64.3026 26.5889 61.6145C24.6948 58.4234 25.63 56.6219 29.3921 56.2106C31.3166 56.257 33.2271 56.3302 35.1187 56.4304C37.2755 53.5124 39.9286 51.1582 43.0781 49.3677Z" fill="#FAE7CD"/>
<path fill-rule="evenodd" clip-rule="evenodd" d="M118.121 43.3027C118.923 43.0337 119.359 43.3095 119.425 44.1299C119.382 44.7772 119.165 45.3672 118.77 45.9005C115.284 50.611 111.798 55.3218 108.312 60.0323C107.148 60.483 106.582 60.1002 106.609 58.8849C110.498 53.7166 114.336 48.5226 118.121 43.3027Z" fill="#070503"/>
<path fill-rule="evenodd" clip-rule="evenodd" d="M124.668 47.6787C126.035 47.6175 126.553 48.2886 126.224 49.6916C124.888 52.3284 122.978 54.4394 120.49 56.0244C118.135 57.6292 115.711 59.109 113.213 60.4642C111.84 60.8446 111.378 60.329 111.83 58.9176C115.63 57.0646 119.094 54.7425 122.226 51.951C123.519 50.7757 124.333 49.3516 124.668 47.6787Z" fill="#060502"/>
<path fill-rule="evenodd" clip-rule="evenodd" d="M66.038 72.8082C64.9879 73.299 63.8946 73.6618 62.7604 73.8964C60.3295 74.6953 58.4321 76.1982 57.0682 78.4047C56.4527 79.913 55.6793 81.3326 54.7458 82.6638C53.3845 83.4587 52.0162 84.256 50.641 85.0563C49.495 86.1318 48.6225 87.4005 48.0261 88.8623C47.9276 90.4385 48.2915 91.8949 49.1131 93.232C49.0397 93.4693 48.899 93.6467 48.6863 93.7642C40.1532 96.7776 31.37 98.5521 22.3364 99.0872C21.4342 99.0923 20.5367 99.0291 19.6463 98.8976C16.3887 96.2824 13.8531 93.0829 12.0395 89.2995C12.5687 88.551 13.1813 87.877 13.8798 87.2773C14.9522 85.1567 16.0556 83.0537 17.1901 80.9683C19.7348 80.6958 21.6222 79.4772 22.8547 77.3124C23.7498 77.9939 24.525 78.7985 25.1826 79.7257C25.4113 79.8416 25.6599 79.8953 25.9282 79.8864C30.8673 78.1518 35.8157 76.4351 40.7709 74.7363C41.2317 74.1822 41.2493 73.6141 40.8262 73.0316C39.0816 73.2535 37.3932 73.7223 35.7636 74.4374C35.6349 74.3708 35.5062 74.3039 35.3776 74.2372C36.7559 68.7409 38.986 63.6426 42.068 58.9423C44.3139 61.0512 46.9236 61.6136 49.8972 60.6296C50.8253 60.1546 51.6457 59.5386 52.3632 58.7812C56.9682 59.7902 60.6582 58.414 63.4356 54.6522C67.8223 57.0977 72.5347 58.3996 77.5751 58.5578C78.8946 59.7884 79.4639 61.3031 79.2878 63.1013C76.1077 64.9653 75.1492 67.6589 76.4149 71.1822C74.6866 74.4219 75.4133 76.9707 78.5902 78.8295C79.8783 79.4219 81.2133 79.801 82.5976 79.9662C82.7733 81.1452 82.6566 82.2902 82.2473 83.402C83.2416 84.8088 84.2476 86.235 85.2656 87.6807C86.495 91.0058 85.3783 92.9888 81.9157 93.63C78.0365 93.5937 74.8374 92.0851 72.3185 89.1039C71.2992 87.1383 70.3515 85.1393 69.4754 83.1073C68.7972 81.0217 68.3586 78.886 68.1644 76.6996C67.8827 74.4239 67.8357 72.1643 68.0259 69.9204C67.3658 69.6334 66.8136 69.7751 66.3739 70.3447C66.1076 71.1454 65.9965 71.9664 66.038 72.8082Z" fill="#FDEACF"/>
<path fill-rule="evenodd" clip-rule="evenodd" d="M79.9519 64.727C80.1355 64.8082 80.2729 64.9547 80.3642 65.167C81.4747 69.397 82.1505 73.6905 82.3868 78.0482C80.6625 77.6595 79.1592 76.8541 77.8747 75.6323C77.7944 75.2771 77.7165 74.9217 77.6363 74.5665C77.7579 73.3549 77.9901 72.1566 78.333 70.9714C78.2282 69.6864 78.0876 68.4077 77.9113 67.1352C78.3862 66.1347 79.0647 65.3321 79.9519 64.727Z" fill="#6D512A"/>
<path fill-rule="evenodd" clip-rule="evenodd" d="M12.3919 72.6388C15.5627 72.4113 18.3702 73.316 20.8192 75.3523C21.1351 76.4158 20.8677 77.2945 20.017 77.9884C18.6424 78.5954 17.2478 79.1533 15.8331 79.6616C15.4427 80.1493 15.0498 80.6375 14.6594 81.1252C13.9198 83.2267 12.8803 85.1609 11.5361 86.9284C11.321 87.0692 11.0857 87.1354 10.83 87.1273C9.54582 84.0763 8.99542 80.9014 9.17637 77.6028C9.38916 75.3442 10.4618 73.6896 12.3919 72.6388Z" fill="#6F532B"/>
<path fill-rule="evenodd" clip-rule="evenodd" d="M96.2004 64.6396C97.4672 65.3249 98.6515 66.1653 99.7535 67.1609C99.9359 67.4964 99.8424 67.7493 99.4729 67.9197C98.4883 67.0205 97.4646 66.1624 96.3994 65.3457C96.2593 65.1311 96.1922 64.8958 96.2004 64.6396Z" fill="#422C03"/>
<path fill-rule="evenodd" clip-rule="evenodd" d="M95.0254 67.1953C95.1993 67.1444 95.3644 67.1668 95.5181 67.2625C94.6472 67.8828 94.371 68.6814 94.6895 69.6588C95.1327 69.8712 95.5758 69.863 96.0214 69.6337C96.391 69.3099 96.7583 68.9866 97.1279 68.6628C97.2246 68.814 97.3237 68.9647 97.4204 69.1159C96.9123 70.6969 96.2721 72.2232 95.4972 73.6952C93.8035 72.5921 92.1409 71.4403 90.5069 70.2399C92.0725 69.2733 93.5771 68.2586 95.0254 67.1953Z" fill="#9B7F4A"/>
<path fill-rule="evenodd" clip-rule="evenodd" d="M66.038 72.8083C66.0644 73.048 66.0908 73.2878 66.1171 73.5276C64.9974 73.6506 63.8801 73.7734 62.7605 73.8965C63.8946 73.6619 64.9879 73.2991 66.038 72.8083Z" fill="#AFA28F"/>
<path fill-rule="evenodd" clip-rule="evenodd" d="M62.9448 75.5748C63.9917 75.4518 65.0386 75.4175 66.0881 75.472C66.3733 78.2877 66.8007 81.0716 67.3701 83.8241C65.5049 85.9063 63.3018 87.5639 60.7584 88.7974C57.7575 90.3498 54.6689 91.7002 51.4974 92.8486C49.9338 91.4939 49.6382 89.9089 50.6107 88.0929C51.0712 87.426 51.6135 86.8405 52.2376 86.3368C53.7542 85.7855 55.1225 84.9879 56.3424 83.9443C57.3397 82.4431 58.1746 80.8551 58.8519 79.1793C59.9606 77.6541 61.3257 76.4526 62.9448 75.5748Z" fill="#70532B"/>
<path fill-rule="evenodd" clip-rule="evenodd" d="M91.1024 73.4503C91.9792 73.6784 92.561 74.1805 92.8453 74.9573C90.6231 78.3171 88.3603 81.6396 86.0546 84.9248C85.4016 84.3045 84.8838 83.6335 84.4987 82.9119C86.7537 79.7832 88.9549 76.6293 91.1024 73.4503Z" fill="#462F03"/>
<path fill-rule="evenodd" clip-rule="evenodd" d="M61.8888 90.2504C62.4191 90.7917 62.7379 91.4847 62.8453 92.3292C59.5573 94.0071 57.2946 96.6013 56.0572 100.112C55.986 103.483 57.619 105.447 60.9514 106.005C61.5796 106.29 62.1482 106.672 62.6548 107.152C63.5383 108.898 64.4508 110.577 65.3925 112.19C62.0372 117.119 57.4013 119.449 51.4799 119.179C48.8755 118.29 47.3824 116.472 46.998 113.726C47.0952 109.379 48.6651 105.647 51.7125 102.531C51.858 102.088 51.7733 101.693 51.4609 101.346C48.6564 100.689 46.1666 99.3856 43.9939 97.4346C49.5618 95.7692 54.9997 93.7155 60.3028 91.2741C60.8953 90.991 61.4232 90.6498 61.8888 90.2504Z" fill="#FBE8CD"/>
<path fill-rule="evenodd" clip-rule="evenodd" d="M62.5766 94.3001C62.8164 94.2737 63.0561 94.2474 63.2959 94.221C63.473 95.2578 63.7071 96.2838 63.9982 97.2984C67.652 98.9705 69.0943 101.805 68.33 105.801C67.9587 107.324 67.3888 108.762 66.6202 110.114C65.7938 108.557 64.8989 107.038 63.9352 105.556C62.6193 104.512 61.1269 103.827 59.4627 103.499C57.722 102.013 57.4923 100.299 58.7761 98.3577C60.0119 96.9506 61.2779 95.5981 62.5766 94.3001Z" fill="#6F532B"/>
<path fill-rule="evenodd" clip-rule="evenodd" d="M76.4802 94.9556C77.3537 94.9321 78.1828 95.1239 78.9701 95.5312C75.8494 99.923 72.7758 104.346 69.7516 108.799C70.1118 107.175 70.3661 105.449 70.5168 103.619C72.5583 100.756 74.5461 97.8685 76.4802 94.9556Z" fill="#462E03"/>
</svg>
