<svg width="404" height="404" fill="none" xmlns="http://www.w3.org/2000/svg"><path opacity=".933" fill-rule="evenodd" clip-rule="evenodd" d="M195.733.264c55.536-2.62 104.088 14.3 145.664 50.764 41.109 39.251 61.977 87.55 62.603 144.896-1.453 65.591-26.956 119.369-76.515 161.337-49.841 39.272-106.171 53.794-168.987 43.572-52.375-10.482-93.906-37.406-124.592-80.772-30.403-46.695-40.36-97.526-29.87-152.5 13.24-59.571 45.497-105.403 96.769-137.496C130.139 12.637 161.781 2.704 195.733.264Z" fill="#040505"/><path fill-rule="evenodd" clip-rule="evenodd" d="M195.729 3.966c29.097-1.525 57.19 2.997 84.289 13.564a221.682 221.682 0 0 1 6.752 32.473c.483 6.767-1.494 12.728-5.933 17.881a275.966 275.966 0 0 1-23.732 16.031 17.022 17.022 0 0 0-4.296 6.371 91.83 91.83 0 0 0-4.501 13.565 86.322 86.322 0 0 1-4.501 10.687c-2.619 2.158-5.618 3.528-9.002 4.111a69.652 69.652 0 0 0-12.48-5.138 363.745 363.745 0 0 0-16.775-3.494c-6.901.692-12.015 4.117-15.344 10.276a69.229 69.229 0 0 0-3.887 20.553 755.411 755.411 0 0 1 1.841 37.405c.287 2.524.832 4.99 1.637 7.399a181.964 181.964 0 0 0 8.592 13.976c4.444 4.328 8.74 8.78 12.889 13.359a61.459 61.459 0 0 1 13.912 12.743c7.295 6.782 14.595 13.564 21.89 20.347a74.437 74.437 0 0 0 12.685 13.564c2.045 2.742 4.091 5.48 6.137 8.221a20.098 20.098 0 0 1 1.841 6.577 178.484 178.484 0 0 1-3.478 18.497c-1.62 11.202 2.541 19.353 12.48 24.458 5.72 2.466 11.449 2.466 17.185 0a72.17 72.17 0 0 0 16.776-9.454c7.525-7.37 13.049-16.072 16.572-26.102a183.103 183.103 0 0 0 4.91-25.074 42.822 42.822 0 0 0-.41-9.865 208.74 208.74 0 0 1-3.273-20.142c-1.092-10.26 0-20.265 3.273-30.006 2.308-4.645 5.377-8.69 9.207-12.126 6.256-1.208 10.552 1.19 12.889 7.193 3.077 16.039 12.148 20.766 27.209 14.181 4.473-2.03 8.225-4.974 11.253-8.837a160.645 160.645 0 0 0 7.774-13.154c2.033 64.868-20.401 119.332-67.309 163.393-24.943 22.398-53.72 37.948-86.334 46.654-14.804-4.801-21.146-14.942-19.027-30.418a29.719 29.719 0 0 1 4.092-6.988l10.229-10.276c4.182-5.915 3.429-11.053-2.25-15.414a40.494 40.494 0 0 0-14.321-4.933c-5.18-.588-10.365-1.134-15.549-1.644-11.014-3.252-18.856-10.174-23.527-20.758a77.817 77.817 0 0 1-4.501-16.031c-3.968-14.901-11.538-27.574-22.709-38.022-4.629-4.177-9.948-7.19-15.957-9.044-11.224-2.856-20.908-.185-29.051 8.016a61.277 61.277 0 0 0-6.343 8.221 419.638 419.638 0 0 0-11.047 22.197c-2.697 5.705-7.13 9.199-13.298 10.481-14.385-1.652-23.591 4.444-27.62 18.292a1125.987 1125.987 0 0 0-5.727 26.307C22.055 301.028 6.78 262.8 4.032 219.356a579.688 579.688 0 0 1-.204-21.785c2.295.041 4.477-.44 6.547-1.439a160.401 160.401 0 0 1 20.458-9.043l13.912-6.988a158.063 158.063 0 0 0 15.14-11.098c6.329-6.897 9.806-15.05 10.433-24.458.162-4.802.434-9.598.818-14.387 1.094-6.103 3.754-11.378 7.98-15.825a194.553 194.553 0 0 0 24.754-22.814c6.109-9.902 8.019-20.59 5.728-32.061a22.055 22.055 0 0 0-5.319-8.633 45.918 45.918 0 0 1-4.5-10.687 12.584 12.584 0 0 1 0-4.521C129.131 17.04 161.114 6.49 195.728 3.966Z" fill="#93D8FE"/><path fill-rule="evenodd" clip-rule="evenodd" d="M268.564 288.824c.581-.826.855-1.788.818-2.877a58.958 58.958 0 0 0 1.432-13.976 21.69 21.69 0 0 0-4.5-9.454 45.634 45.634 0 0 1-4.501-5.755 74.437 74.437 0 0 1-12.685-13.564c-6.342-5.825-12.684-11.645-19.026-17.47a145.867 145.867 0 0 1-9.002-9.454l-6.546-4.933a126.754 126.754 0 0 0-12.071-12.126 75.5 75.5 0 0 1-10.229-16.853l-.818-4.11a675.466 675.466 0 0 0-1.842-36.995 61.107 61.107 0 0 1 4.297-20.964c3.2-4.725 7.635-6.985 13.298-6.782a120.18 120.18 0 0 1 20.049 5.344c7.357 4.362 13.973 3.334 19.845-3.083a92.577 92.577 0 0 0 6.137-17.264 119.58 119.58 0 0 1 4.501-10.276l23.936-16.648c5.221-5.047 8.086-11.213 8.593-18.497a182.368 182.368 0 0 0-6.547-33.912c40.717 17.344 71.883 45.433 93.496 84.265 12.017 22.461 19.452 46.37 22.299 71.729a118.103 118.103 0 0 1-5.114 12.537 64.92 64.92 0 0 0-5.319 8.221c-7.198 7.896-15.86 10.428-25.983 7.604a18.688 18.688 0 0 1-3.069-3.494 74.935 74.935 0 0 1-3.273-10.276c-2.991-6.608-8.106-9.691-15.344-9.249a38.472 38.472 0 0 0-4.501 2.878c-7.627 7.764-11.514 17.149-11.661 28.157-.315 6.86-.176 13.712.409 20.552a772.28 772.28 0 0 1 2.864 15.62c.618 13.553-1.702 26.571-6.955 39.05a187.641 187.641 0 0 1-5.729 10.276c-2.659 2.948-5.319 5.891-7.979 8.838-6.8 5.109-14.37 8.468-22.709 10.071-9.218-.901-15.082-5.833-17.594-14.798a33.278 33.278 0 0 1 1.023-12.332Z" fill="#AFFB93"/><path fill-rule="evenodd" clip-rule="evenodd" d="M195.731 3.967c29.096-1.525 57.189 2.997 84.289 13.565a221.684 221.684 0 0 1 6.751 32.473c.483 6.767-1.493 12.727-5.933 17.88a275.943 275.943 0 0 1-23.732 16.031 17.023 17.023 0 0 0-4.296 6.372 91.96 91.96 0 0 0-4.501 13.564 86.335 86.335 0 0 1-4.501 10.688c-2.618 2.157-5.618 3.528-9.001 4.11a69.712 69.712 0 0 0-12.48-5.138 365.114 365.114 0 0 0-16.776-3.494c-6.9.692-12.015 4.117-15.344 10.276a69.229 69.229 0 0 0-3.887 20.553 754.235 754.235 0 0 1 1.841 37.406 36.27 36.27 0 0 0 1.637 7.399 181.945 181.945 0 0 0 8.592 13.975c4.444 4.329 8.74 8.78 12.889 13.359a61.482 61.482 0 0 1 13.912 12.743l21.891 20.347a74.435 74.435 0 0 0 12.684 13.565c2.046 2.741 4.092 5.479 6.137 8.221a20.094 20.094 0 0 1 1.842 6.576 178.984 178.984 0 0 1-3.478 18.498c-1.621 11.201 2.541 19.352 12.479 24.457 5.721 2.467 11.449 2.467 17.186 0a72.174 72.174 0 0 0 16.776-9.454c7.524-7.37 13.048-16.072 16.571-26.102a182.924 182.924 0 0 0 4.91-25.074 42.88 42.88 0 0 0-.409-9.865 208.465 208.465 0 0 1-3.274-20.141c-1.092-10.26 0-20.265 3.274-30.007 2.307-4.645 5.376-8.69 9.206-12.126 6.256-1.207 10.553 1.191 12.889 7.193 3.077 16.039 12.148 20.767 27.21 14.182 4.472-2.031 8.224-4.974 11.252-8.838a160.077 160.077 0 0 0 7.774-13.154c2.034 64.868-20.401 119.332-67.308 163.393-24.943 22.398-53.72 37.948-86.335 46.654-14.804-4.801-21.146-14.941-19.027-30.417a29.733 29.733 0 0 1 4.092-6.988l10.229-10.277c4.182-5.915 3.429-11.053-2.25-15.414a40.513 40.513 0 0 0-14.321-4.933c-5.18-.587-10.364-1.134-15.548-1.644-11.014-3.251-18.857-10.173-23.528-20.758a77.8 77.8 0 0 1-4.501-16.031c-3.968-14.9-11.538-27.573-22.708-38.022-4.629-4.176-9.949-7.189-15.958-9.043-11.224-2.857-20.908-.185-29.051 8.015a61.25 61.25 0 0 0-6.342 8.221 419.648 419.648 0 0 0-11.048 22.197c-2.697 5.705-7.13 9.199-13.298 10.482-14.385-1.653-23.591 4.443-27.619 18.292a1123.76 1123.76 0 0 0-5.728 26.307c-27.805-33.012-43.08-71.239-45.827-114.683a579.742 579.742 0 0 1-.205-21.786c2.295.041 4.477-.44 6.547-1.439a160.407 160.407 0 0 1 20.458-9.043l13.912-6.988a157.917 157.917 0 0 0 15.14-11.098c6.329-6.897 9.807-15.049 10.433-24.458.162-4.802.434-9.597.819-14.386 1.094-6.104 3.753-11.379 7.978-15.826a194.527 194.527 0 0 0 24.755-22.813c6.11-9.903 8.019-20.59 5.729-32.062-1.112-3.305-2.885-6.182-5.32-8.632a45.946 45.946 0 0 1-4.5-10.688 12.588 12.588 0 0 1 0-4.521c29.353-18.575 61.336-29.126 95.95-31.651Z" fill="#93D8FE"/><path fill-rule="evenodd" clip-rule="evenodd" d="M268.564 288.822c.581-.827.855-1.788.818-2.878a58.953 58.953 0 0 0 1.432-13.976 21.696 21.696 0 0 0-4.5-9.454 45.696 45.696 0 0 1-4.501-5.754 74.476 74.476 0 0 1-12.685-13.565c-6.342-5.825-12.684-11.645-19.026-17.47a145.867 145.867 0 0 1-9.002-9.454c-2.181-1.644-4.366-3.288-6.546-4.932a126.523 126.523 0 0 0-12.071-12.126 75.528 75.528 0 0 1-10.229-16.854l-.818-4.11a675.515 675.515 0 0 0-1.842-36.995 61.096 61.096 0 0 1 4.297-20.963c3.2-4.725 7.635-6.986 13.298-6.783a120.277 120.277 0 0 1 20.049 5.344c7.357 4.362 13.973 3.335 19.845-3.083a92.583 92.583 0 0 0 6.137-17.264 119.581 119.581 0 0 1 4.501-10.276l23.936-16.648c5.221-5.047 8.086-11.212 8.593-18.497a182.371 182.371 0 0 0-6.547-33.912c40.717 17.344 71.883 45.433 93.496 84.266 12.017 22.46 19.452 46.369 22.299 71.728a118.017 118.017 0 0 1-5.114 12.537 64.992 64.992 0 0 0-5.319 8.221c-7.198 7.896-15.86 10.428-25.983 7.605a18.75 18.75 0 0 1-3.069-3.494 74.949 74.949 0 0 1-3.273-10.277c-2.991-6.607-8.106-9.69-15.344-9.248a38.335 38.335 0 0 0-4.501 2.877c-7.627 7.765-11.514 17.149-11.661 28.157-.315 6.86-.176 13.713.409 20.553a769.729 769.729 0 0 1 2.864 15.62c.618 13.552-1.702 26.57-6.955 39.049a188.042 188.042 0 0 1-5.729 10.277c-2.659 2.947-5.319 5.89-7.979 8.837-6.8 5.11-14.37 8.468-22.709 10.071-9.218-.9-15.082-5.833-17.594-14.798a33.27 33.27 0 0 1 1.023-12.331Z" fill="#AFFB93"/><path fill-rule="evenodd" clip-rule="evenodd" d="M5.056 186.059a27.14 27.14 0 0 0 .818-6.576c9.451-57.178 37.275-102.874 83.47-137.086a104.466 104.466 0 0 0 6.547-4.316c1.46 7.59 4.666 14.305 9.616 20.141 3.12 10.873 1.756 21.15-4.092 30.83a143.573 143.573 0 0 1-22.3 20.757c-6.023 5.184-9.774 11.692-11.252 19.525-.397 6.167-.807 12.333-1.227 18.498-1.08 6.69-3.808 12.581-8.184 17.675A171.114 171.114 0 0 1 44.336 176.4a183.104 183.104 0 0 1-26.596 12.331 104.809 104.809 0 0 0-7.774 4.111 28.084 28.084 0 0 1-5.729 1.849c-.02-2.926.252-5.804.819-8.632Z" fill="#AFFA93"/><path fill-rule="evenodd" clip-rule="evenodd" d="M5.88 179.484a27.14 27.14 0 0 1-.818 6.577c-.05-2.289.222-4.481.819-6.577Z" fill="#7CB168"/><path fill-rule="evenodd" clip-rule="evenodd" d="M240.336 336.912c.188 1.225.327 2.458.409 3.7-.16.69-.364 1.377-.614 2.055-.953 1.233-1.911 2.466-2.864 3.699a63.098 63.098 0 0 0-10.229 10.688c-4.325 7.025-5.009 14.424-2.046 22.197 3.146 7.271 8.261 12.685 15.344 16.236-56.678 12.369-108.915 2.228-156.712-30.418-11.02-7.777-21.045-16.754-30.074-26.924a26.503 26.503 0 0 1 0-6.576l4.091-18.909a43.748 43.748 0 0 1 6.547-14.386c2.198-2.372 4.858-3.947 7.979-4.728 4.085-.365 8.177-.637 12.275-.822 3.52-.74 6.656-2.248 9.41-4.521a50.477 50.477 0 0 0 6.343-8.838l7.365-15.62c2.814-5.976 6.701-11.115 11.661-15.414 9.562-6.803 19.519-7.35 29.87-1.644 12.291 7.966 20.952 18.859 25.982 32.678a589.86 589.86 0 0 1 8.183 26.307c8.346 16.701 21.916 24.581 40.713 23.636 5.213.452 9.988 2.096 14.321 4.932a6.465 6.465 0 0 1 2.046 2.672Z" fill="#AFFB93"/><path fill-rule="evenodd" clip-rule="evenodd" d="M269.385 285.948c.037 1.089-.237 2.051-.818 2.877-.037-1.089.237-2.051.818-2.877Z" fill="#72A460"/><path fill-rule="evenodd" clip-rule="evenodd" d="M240.326 336.913c.81 1.179.945 2.413.409 3.699a43.12 43.12 0 0 0-.409-3.699Z" fill="#71A15E"/></svg>