<svg width="390" height="270" viewBox="0 0 390 270" fill="none" xmlns="http://www.w3.org/2000/svg">
<path d="M116.667 0.869125C112.267 1.13579 89.7334 1.80246 66.4 2.33579C19.2 3.40246 20.1334 3.13579 17.2 13.4025C15.8667 17.5358 16 19.1358 18.1334 23.4025C21.3334 29.8025 23.6 30.4691 40.9334 29.5358C52.5334 29.0025 54.6667 29.1358 54.6667 30.8691C54.6667 33.1358 38.9334 54.8691 27.7334 68.0691C16 81.9358 15.3334 84.0691 20.8 90.4691C24.4 94.7358 31.0667 96.8691 35.8667 95.2691C40 94.0691 62.9334 65.8025 77.8667 43.5358C80.8 39.4025 83.6001 35.9358 84.1334 35.9358C87.8667 35.9358 123.067 62.4691 140 78.0691C150.267 87.5358 153.6 88.4691 160.933 84.0691C165.6 81.1358 167.467 75.5358 165.467 70.3358C163.6 65.4025 145.2 47.9358 131.067 37.6691L118.667 28.6025L137.6 27.8025C148.133 27.4025 157.733 26.6025 159.067 25.9358C162.4 24.4691 165.6 17.6691 165.867 11.5358C166 7.40246 165.2 5.66912 162.267 3.13579C158.667 0.0691223 157.733 -0.064209 141.6 0.202454C132.267 0.335793 121.067 0.602455 116.667 0.869125Z" fill="black"/>
<path d="M367.6 2.86916C364.4 6.06915 364.4 6.73581 363.333 35.4025C361.333 94.0691 360.533 156.736 361.6 160.069C363.6 165.936 371.333 168.069 379.867 165.136C385.6 163.136 386.667 159.669 386.667 143.536C386.667 136.069 387.333 102.202 388.267 68.2025L389.867 6.46915L387.067 3.66914C385.2 1.80247 381.867 0.735809 377.6 0.202484C371.733 -0.330856 370.4 0.0691528 367.6 2.86916Z" fill="black"/>
<path d="M273.333 16.0691C220.267 19.2691 211.467 20.2025 208.4 23.0025C202 28.7358 203.733 42.8691 211.067 44.7358C212.933 45.1358 224.8 44.7358 237.467 43.9358C250.267 43.0025 267.6 41.9358 276 41.2691C284.4 40.7358 291.867 40.7358 292.533 41.4025C296.267 44.7358 291.6 81.2691 285.067 101.936C280.8 114.869 280.4 115.536 270 126.069C264.133 131.936 254.533 140.336 248.667 144.602C242.8 148.736 236.933 153.536 235.733 155.136C233.2 158.202 232.667 165.402 234.667 169.269C236.533 172.736 242.933 174.602 248.4 173.269C257.2 171.402 282.267 152.069 295.333 137.402C310.933 119.669 319.2 88.0691 319.333 46.2025V22.3358L314.933 18.4691C310.933 14.8691 310 14.6025 300.267 14.7358C294.667 14.8691 282.533 15.4025 273.333 16.0691Z" fill="black"/>
<path d="M138.667 111.402C108 114.469 75.7333 115.936 41.7333 115.936C1.46667 115.936 0 116.469 0 129.402C0 141.269 6.8 143.002 51.7333 142.469L78 142.202L78.4 158.869C78.6667 174.736 78.9333 175.802 82.1333 179.269C85.2 182.602 86.1333 182.869 92.4 182.202C102.933 181.269 104 179.136 104 159.402C104 150.602 104.533 142.602 105.067 141.802C105.6 141.002 112.533 139.936 120.667 139.402C147.067 137.802 173.867 134.469 177.067 132.469C183.333 128.336 184.533 117.669 179.333 112.602C176.533 109.669 175.067 109.269 166.4 109.402C161.067 109.536 148.533 110.336 138.667 111.402Z" fill="black"/>
<path d="M145.6 163.002C143.2 165.536 142.533 168.336 141.867 179.669C141.067 192.069 140.667 193.402 138.133 193.936C136.533 194.202 120.667 195.136 102.667 195.936C84.6666 196.602 63.6 197.669 55.7333 198.069L41.3333 199.002V184.869C41.3333 167.669 40 165.269 29.8666 164.336C24.5333 163.802 22.6666 164.202 19.4666 166.736L15.6 169.802L16.4 211.669C17.3333 258.469 17.8666 260.736 26.6666 265.936C30.5333 268.069 34.4 268.602 49.3333 269.136C84.4 270.069 146.267 264.469 153.867 259.536C161.6 254.469 162.4 250.869 166 209.269C168.8 175.136 168.667 167.802 165.2 163.402C162.933 160.469 161.467 159.936 155.467 159.936C149.867 159.936 147.867 160.602 145.6 163.002ZM138.933 226.602C138.667 230.602 137.867 234.469 137.2 235.136C134.8 237.669 102.667 241.269 73.7333 242.069L44.1333 243.002L43.3333 239.669C42.9333 237.936 42.6666 233.402 42.9333 229.802L43.3333 223.269L72 222.202C87.7333 221.669 106.667 220.736 114 220.069C121.333 219.402 130 219.002 133.333 219.136L139.333 219.269L138.933 226.602Z" fill="black"/>
<path d="M299.867 179.936C274.267 183.936 251.733 193.402 242.667 203.669C234 213.402 231.467 225.269 235.333 238.069C242.267 261.802 271.467 271.802 319.333 267.269C330.267 266.202 343.733 264.069 349.067 262.602C368.267 257.269 381.6 248.069 386.8 236.736C390.133 229.269 390.133 214.202 386.8 206.336C381.733 194.736 368.267 185.802 349.867 181.936C338.4 179.536 309.6 178.469 299.867 179.936ZM350.533 207.269C363.067 211.136 367.467 219.136 361.333 227.002C348.533 243.269 280.933 247.936 264 233.802C250.4 222.336 271.067 208.869 308.667 204.736C318.8 203.669 343.333 205.136 350.533 207.269Z" fill="black"/>
</svg>
