<svg width="45" height="45" fill="none" xmlns="http://www.w3.org/2000/svg"><path d="M22.377 44.754c12.359 0 22.377-10.018 22.377-22.377C44.754 10.02 34.736 0 22.377 0 10.02 0 0 10.019 0 22.377c0 12.359 10.019 22.377 22.377 22.377Z" fill="#41A6DE"/><path d="M31.328 20.699h-7.273v-7.273a1.69 1.69 0 0 0-1.678-1.678 1.69 1.69 0 0 0-1.678 1.678V20.7h-7.273a1.69 1.69 0 0 0-1.678 1.678c0 .918.76 1.678 1.678 1.678H20.7v7.273c0 .918.76 1.678 1.678 1.678a1.69 1.69 0 0 0 1.678-1.678v-7.273h7.273a1.69 1.69 0 0 0 1.678-1.678 1.69 1.69 0 0 0-1.678-1.678Z" fill="#fff"/></svg>