<svg width="25" height="25" viewBox="0 0 25 25" fill="none" xmlns="http://www.w3.org/2000/svg">
<path opacity="0.967" fill-rule="evenodd" clip-rule="evenodd" d="M25 7.35341C25 7.42809 25 7.50277 25 7.57745C24.9828 7.60395 24.9746 7.63471 24.9753 7.6697C25.0035 7.84106 24.9869 8.00579 24.9259 8.16391C24.9439 8.30034 24.9192 8.42773 24.8518 8.5461C24.997 8.77903 24.999 9.01405 24.8579 9.25118C24.777 9.34436 24.6844 9.41905 24.58 9.47522C24.6386 9.5897 24.6777 9.7127 24.6974 9.84423C24.7026 9.9946 24.6675 10.133 24.5924 10.2594C24.5986 10.266 24.6047 10.2725 24.6109 10.2791C24.6418 10.4272 24.6335 10.5721 24.5862 10.714C24.5921 10.8427 24.5715 10.9657 24.5244 11.083C24.4676 11.1737 24.408 11.2616 24.3453 11.3466C24.4353 11.554 24.425 11.7561 24.3144 11.9529C24.2245 12.1213 24.0906 12.2267 23.913 12.2692C23.9103 12.3582 23.902 12.4483 23.8883 12.5393C23.9744 12.8693 23.8817 13.122 23.6104 13.2971C23.6149 13.6015 23.4852 13.8102 23.2213 13.9231C23.2274 13.9297 23.2336 13.9363 23.2398 13.9429C23.2633 14.1432 23.2118 14.3168 23.0854 14.4634C23.1768 14.7845 23.0863 15.0305 22.8136 15.2015C22.7227 15.2363 22.628 15.256 22.5295 15.2608C22.52 15.2991 22.5077 15.3365 22.4925 15.3728C22.649 15.6936 22.5954 15.9658 22.3319 16.1899C22.2554 16.2375 22.1731 16.2659 22.0849 16.2755C22.0441 16.5518 21.8979 16.7275 21.6464 16.8027C21.6325 16.9544 21.5831 17.0905 21.4981 17.2113C21.4828 17.326 21.4458 17.4315 21.387 17.5275C21.2907 17.6169 21.2085 17.718 21.1399 17.8307C21.135 17.8487 21.1288 17.8664 21.1214 17.8834C21.1528 17.9448 21.1631 18.0107 21.1523 18.0811C21.1326 18.1687 21.1059 18.2544 21.072 18.3381C21.0244 18.4041 20.9709 18.4634 20.9114 18.516C20.8619 18.5451 20.8146 18.5758 20.7693 18.6082C20.733 18.6818 20.7125 18.7608 20.7076 18.8454C20.6569 18.9995 20.5643 19.116 20.4297 19.1947C20.4029 19.2408 20.3679 19.2781 20.3247 19.3067C20.2212 19.6185 20.0133 19.7635 19.7009 19.7416C19.6841 20.0319 19.5482 20.2296 19.2933 20.3347C19.2535 20.4102 19.202 20.4761 19.1388 20.5323C19.0871 20.6556 19.0109 20.7566 18.9103 20.8355C18.7773 21.1102 18.5673 21.2354 18.2804 21.2111C18.2616 21.2333 18.2411 21.2531 18.2186 21.2704C18.2492 21.6904 18.068 21.9321 17.6751 21.9952C17.7795 22.2886 17.7177 22.5324 17.4898 22.7266C17.4216 22.7626 17.3517 22.7933 17.2798 22.8189C17.2067 22.8296 17.1347 22.8273 17.0637 22.8123C16.9788 23.0485 16.8203 23.1913 16.5881 23.2406C16.5163 23.3074 16.438 23.3646 16.3534 23.4119C16.2904 23.449 16.2245 23.4753 16.1558 23.491C16.0734 23.5771 16.0282 23.6825 16.0199 23.8073C15.8934 24.0344 15.7164 24.2014 15.4888 24.3081C15.4492 24.3107 15.4122 24.3217 15.3776 24.3411C15.3489 24.3892 15.3161 24.433 15.2788 24.4728C15.2171 24.7978 15.0318 24.9735 14.7229 25C14.6425 24.9831 14.5602 24.9722 14.4759 24.9671C14.3851 24.9307 14.2966 24.889 14.2103 24.8419C13.9276 24.9134 13.7114 24.8167 13.5618 24.5519C13.2828 24.7217 13.0295 24.6865 12.8021 24.4465C12.782 24.3996 12.7573 24.3557 12.728 24.3147C12.7109 24.2393 12.6964 24.1647 12.6848 24.0907C12.6464 24.0883 12.6155 24.0706 12.5921 24.0379C12.3288 24.1042 12.1229 24.012 11.9745 23.7612C11.9369 23.6743 11.9163 23.5821 11.9128 23.4844C11.9043 23.4731 11.894 23.4644 11.8819 23.4581C11.6761 23.6082 11.4661 23.6148 11.2519 23.4778C11.1689 23.404 11.0928 23.3228 11.0234 23.234C10.9942 23.1893 10.9716 23.1411 10.9555 23.0891C10.7151 23.0149 10.5113 22.8787 10.344 22.6805C10.3068 22.5745 10.245 22.4868 10.1587 22.4169C10.1307 22.3703 10.106 22.3219 10.0846 22.272C9.78928 22.3041 9.58547 22.1746 9.4732 21.8832C9.46702 21.8809 9.46085 21.8788 9.45467 21.8766C9.16179 22.095 8.89415 22.0643 8.65177 21.7843C8.58339 21.6638 8.54633 21.532 8.5406 21.389C8.50179 21.3651 8.4668 21.3365 8.43561 21.3033C8.26005 21.2688 8.08299 21.2424 7.90446 21.2242C7.79491 21.18 7.70433 21.1075 7.63271 21.0068C7.5995 20.9388 7.5645 20.8729 7.52772 20.8091C7.50228 20.7274 7.48788 20.644 7.48448 20.5587C7.31647 20.5558 7.17442 20.4899 7.05833 20.361C6.97904 20.3717 6.89875 20.3783 6.81746 20.3808C6.58032 20.5019 6.3621 20.4711 6.16279 20.2885C6.05635 20.169 6.00283 20.0261 6.00221 19.8602C5.72563 19.9224 5.50947 19.8302 5.35372 19.5835C5.3107 19.4969 5.28393 19.4046 5.27343 19.3067C5.13853 19.2927 5.01501 19.2466 4.90286 19.1683C4.84288 19.124 4.79347 19.0692 4.75463 19.0036C4.58063 18.9496 4.4571 18.8354 4.38407 18.6609C4.23045 18.6686 4.08635 18.6356 3.95174 18.5621C3.91325 18.5131 3.86796 18.4735 3.81586 18.4435C3.74467 18.3764 3.69322 18.2951 3.66146 18.1997C3.6432 18.0552 3.61026 17.9146 3.56264 17.7779C3.49264 17.7541 3.43294 17.7146 3.38353 17.6593C3.22189 17.629 3.08807 17.5456 2.98208 17.4089C2.96189 17.3677 2.93925 17.3281 2.91415 17.2903C2.8468 17.2533 2.7871 17.2049 2.73504 17.1454C2.66792 17.0254 2.59586 16.9091 2.51887 16.7961C2.50193 16.7562 2.4937 16.7145 2.49417 16.6709C2.42807 16.6652 2.36631 16.6455 2.30888 16.6116C2.23691 16.5415 2.16279 16.4734 2.08654 16.4073C2.01275 16.2957 1.93657 16.1858 1.85803 16.0779C1.83394 16.0221 1.81335 15.9649 1.79627 15.9065C1.69469 15.7977 1.63704 15.6659 1.62333 15.5112C1.37515 15.4637 1.2084 15.3144 1.12307 15.0631C0.752354 14.8937 0.639126 14.6083 0.783379 14.2065C0.786488 14.127 0.792665 14.0479 0.801908 13.9692C0.740986 13.9109 0.681283 13.8493 0.6228 13.7847C0.599842 13.7419 0.579256 13.698 0.561039 13.6529C0.446088 13.5743 0.351388 13.4732 0.276936 13.3498C0.217312 13.1818 0.21937 13.0148 0.283113 12.849C0.225614 12.744 0.161795 12.643 0.0916524 12.5459C0.0375359 12.397 0.0354767 12.2477 0.0854763 12.0978C0.0169545 11.9675 -0.00569089 11.8269 0.0175388 11.6761C0.0194102 11.6416 0.0297033 11.6108 0.0484194 11.5838C-0.0282708 11.3696 -0.0138607 11.1631 0.0916524 10.9644C0.116574 10.9401 0.13922 10.9137 0.15959 10.8854C0.0118073 10.6629 -0.00260406 10.4301 0.116357 10.1869C0.150023 10.1437 0.185021 10.102 0.221351 10.0617C0.148127 9.86543 0.158421 9.67434 0.252232 9.4884C0.31314 9.42399 0.372843 9.3581 0.43134 9.29071C0.454324 9.14936 0.507851 9.02197 0.591919 8.90852C0.365679 8.60159 0.38009 8.30726 0.635152 8.02554C0.661881 7.91361 0.703056 7.80818 0.758675 7.70924C0.812604 7.66261 0.864071 7.61429 0.913078 7.56427C0.794573 7.28054 0.839865 7.03233 1.04895 6.81966C1.10089 6.77632 1.15854 6.74557 1.22188 6.72741C1.28946 6.64098 1.33476 6.54214 1.35776 6.43088C1.3834 6.36636 1.41635 6.30706 1.45658 6.25297C1.41648 5.95416 1.51736 5.72793 1.75921 5.57425C1.77098 5.34704 1.86362 5.16912 2.03713 5.04051C2.06937 5.02099 2.10232 5.00561 2.13595 4.99438C2.17646 4.70294 2.33292 4.52941 2.60534 4.47381C2.65685 4.40526 2.71243 4.34156 2.77209 4.28272C2.82213 3.88606 3.03418 3.69058 3.40824 3.69626C3.4445 3.71003 3.48156 3.72102 3.51941 3.7292C3.61123 3.56096 3.74711 3.45993 3.92703 3.42609C4.04707 3.20398 4.22824 3.09636 4.47053 3.1032C4.58158 2.95531 4.72569 2.87183 4.90286 2.8528C5.08151 2.70589 5.27503 2.67953 5.48342 2.77373C5.65434 2.75776 5.80668 2.80388 5.94045 2.91211C6.04732 2.86597 6.15849 2.83521 6.27396 2.81986C6.38402 2.64363 6.53842 2.55578 6.73717 2.55628C6.84152 2.55003 6.93623 2.57639 7.02127 2.63535C7.02745 2.62876 7.03363 2.62217 7.0398 2.61558C7.17023 2.58476 7.29788 2.59135 7.42272 2.63535C7.48177 2.56587 7.54764 2.50218 7.62036 2.44426C7.78326 2.34681 7.95208 2.33363 8.1268 2.40472C8.19998 2.44395 8.27203 2.48568 8.34297 2.52992C8.61629 2.40844 8.85098 2.46555 9.04705 2.70125C9.24343 2.57756 9.43901 2.57976 9.63378 2.70784C9.68309 2.75557 9.7325 2.8039 9.78201 2.8528C10.0551 2.89604 10.2363 3.05639 10.3255 3.33384C10.3651 3.36129 10.4022 3.39205 10.4367 3.42609C10.7214 3.22707 10.9829 3.25783 11.221 3.51834C11.2666 3.58931 11.3058 3.66398 11.3384 3.74238C11.47 3.83241 11.5503 3.95979 11.5793 4.12457C11.652 4.1513 11.7241 4.17986 11.7954 4.21023C11.8447 4.26288 11.9023 4.29363 11.9684 4.30249C12.0176 4.22796 12.0753 4.16207 12.1413 4.1048C12.1798 4.07985 12.221 4.06229 12.2648 4.05209C12.31 3.9249 12.3801 3.81508 12.4748 3.72261C12.5133 3.69661 12.5524 3.67244 12.5921 3.65013C12.6065 3.44592 12.695 3.28998 12.8577 3.18228C12.9458 3.05307 13.061 2.96521 13.2036 2.9187C13.2943 2.80848 13.4012 2.72502 13.5247 2.6683C13.5491 2.66178 13.5738 2.65957 13.5989 2.66171C13.5377 2.34854 13.6365 2.11351 13.8953 1.95664C13.9788 1.92565 14.0653 1.90588 14.1547 1.89733C14.2497 1.57631 14.4556 1.42914 14.7723 1.45584C14.7978 1.45994 14.8225 1.46653 14.8464 1.47561C14.9392 1.15823 15.1409 1.00227 15.4517 1.00775C15.6107 0.846233 15.8 0.789128 16.0199 0.836428C16.0829 0.725224 16.1694 0.641762 16.2793 0.586028C16.5056 0.328564 16.7629 0.286827 17.0513 0.460828C17.1517 0.419156 17.2567 0.399388 17.3663 0.401523C17.5049 0.265081 17.6676 0.214567 17.8542 0.249965C17.9218 0.195576 17.9897 0.140659 18.058 0.0852285C18.2512 -0.0284095 18.4448 -0.0284095 18.6386 0.0852285C18.742 0.1385 18.8265 0.21537 18.8918 0.31586C18.9552 0.305857 19.019 0.299268 19.0833 0.296091C19.3231 0.0900322 19.5702 0.0790489 19.8244 0.263144C20.035 0.21226 20.2161 0.271565 20.3679 0.44106C20.4834 0.480741 20.5986 0.520278 20.7138 0.55967C20.8563 0.645768 20.947 0.773169 20.9855 0.941859C21.0448 0.968691 21.1024 0.999438 21.1584 1.03411C21.2098 1.07794 21.255 1.12846 21.2943 1.18567C21.3456 1.21081 21.395 1.23937 21.4425 1.27133C21.5178 1.32522 21.5857 1.38891 21.6464 1.46243C21.8578 1.39734 22.0451 1.44566 22.2084 1.6074C22.2464 1.66309 22.2856 1.71581 22.3257 1.76554C22.5211 1.69592 22.7003 1.72668 22.8631 1.85779C22.9168 1.91352 22.9662 1.97282 23.0113 2.03571C23.3505 2.10324 23.5172 2.32069 23.5116 2.68807C23.4957 2.79148 23.4608 2.88594 23.4066 2.97141C23.5678 2.99363 23.7017 3.07052 23.808 3.20205C23.8543 3.28774 23.9037 3.3712 23.9562 3.45245C24.1152 3.60299 24.1831 3.79188 24.16 4.01914C24.2893 4.06238 24.3881 4.14804 24.4565 4.27613C24.4796 4.33471 24.4981 4.39401 24.5121 4.45404C24.5199 4.55668 24.5158 4.65772 24.4997 4.75716C24.6249 4.90196 24.6701 5.07328 24.6356 5.27114C24.6133 5.39146 24.5598 5.49249 24.475 5.57425C24.4758 5.63543 24.48 5.69694 24.4874 5.75876C24.5482 5.85348 24.581 5.95891 24.5862 6.07505C24.6171 6.1277 24.6376 6.18481 24.648 6.24638C24.7672 6.39413 24.8166 6.56545 24.7962 6.76036C24.7774 6.82741 24.761 6.89331 24.7468 6.95804C24.8787 7.05675 24.9631 7.18854 25 7.35341ZM18.5892 2.08184C18.642 2.11149 18.6956 2.14225 18.7498 2.17409C18.8367 2.31297 18.9562 2.40302 19.108 2.44426C19.2112 2.467 19.3143 2.48677 19.4168 2.50356C19.556 2.47927 19.6959 2.4573 19.8368 2.43767C19.9193 2.44427 20.0017 2.45306 20.0838 2.46403C20.1442 2.73281 20.3007 2.89755 20.5532 2.95824C20.6394 3.13837 20.7753 3.25259 20.9608 3.30089C21.0581 3.30123 21.1529 3.31661 21.2449 3.34701C21.3211 3.71087 21.5353 3.88879 21.8872 3.88076C21.9135 3.92201 21.9444 3.95935 21.9799 3.99278C22.0613 4.24877 22.224 4.41132 22.4678 4.4804C22.4614 4.63622 22.4901 4.78337 22.5543 4.9219C22.5318 5.05102 22.5421 5.17622 22.5851 5.2975C22.6685 5.4169 22.7508 5.53551 22.8322 5.65333C22.8643 5.68477 22.8952 5.71772 22.9248 5.75217C22.9725 5.77369 23.0157 5.80224 23.0545 5.83783C23.0754 5.95581 23.0383 6.04806 22.9433 6.11459C22.8538 6.24513 22.8187 6.3923 22.8384 6.55608C22.8405 6.62418 22.8424 6.69226 22.8445 6.76036C22.8968 6.89407 22.9462 7.03025 22.9928 7.1689C22.9769 7.26395 22.9729 7.36061 22.9804 7.45884C22.9944 7.56537 23.0334 7.65982 23.0978 7.74219C22.8999 7.9249 22.8381 8.14894 22.9125 8.41431C22.8627 8.48308 22.8318 8.55995 22.8198 8.64495C22.8027 8.73842 22.7923 8.83288 22.7889 8.92829C22.7933 9.06659 22.8118 9.20058 22.8445 9.33025C22.7557 9.4674 22.7166 9.62115 22.7272 9.79151C22.5902 9.95368 22.5449 10.1404 22.5913 10.3516C22.5231 10.42 22.4635 10.4969 22.4122 10.5822C22.3382 10.757 22.3094 10.9415 22.3257 11.1358C22.3425 11.1871 22.357 11.2398 22.369 11.2939C22.3187 11.402 22.2858 11.5162 22.2701 11.6366C22.2823 11.7521 22.3151 11.8597 22.369 11.9594C22.0836 12.0464 21.9189 12.2464 21.8749 12.5591C21.5983 12.6367 21.4501 12.8278 21.4302 13.1324C21.4325 13.2236 21.4532 13.3092 21.492 13.3894C21.4737 13.4766 21.4387 13.5557 21.387 13.6266C21.3647 13.7 21.3504 13.7747 21.3437 13.8506C21.0737 13.8862 20.907 14.0444 20.8435 14.3251C20.8422 14.4442 20.8401 14.5628 20.8373 14.6809C20.5841 14.811 20.4729 15.0262 20.5038 15.3267C20.3554 15.3587 20.2381 15.4421 20.1517 15.5771C20.1174 15.6459 20.0865 15.7161 20.0591 15.7879C19.7524 15.9152 19.6248 16.1525 19.6762 16.4996C19.4879 16.6444 19.4015 16.8421 19.4168 17.0926C19.3553 17.11 19.2977 17.1386 19.2438 17.1783C19.2018 17.2406 19.1482 17.289 19.0833 17.3233C19.0116 17.3864 18.9539 17.4611 18.9103 17.5473C18.7654 17.5992 18.6522 17.6937 18.5706 17.8307C18.5435 17.9503 18.5022 18.0646 18.4471 18.1733C18.2832 18.2737 18.1802 18.4231 18.1383 18.6214C18.0328 18.6988 17.967 18.8042 17.9407 18.9377C17.848 18.9859 17.7637 19.0475 17.6875 19.1222C17.6529 19.1832 17.6158 19.2425 17.5763 19.3001C17.5329 19.3254 17.4918 19.354 17.4528 19.3858C17.0842 19.4626 16.9195 19.6998 16.9587 20.0974C16.7177 20.121 16.5509 20.2528 16.4584 20.4928C16.4321 20.5876 16.4136 20.6842 16.4028 20.7827C16.0366 20.7157 15.804 20.8738 15.7049 21.2572C15.7016 21.3973 15.679 21.5334 15.637 21.6657C15.3954 21.6507 15.2039 21.7474 15.0626 21.9557C15.0363 22.0158 15.0137 22.0773 14.9947 22.1402C14.7328 22.0877 14.5332 22.1843 14.3956 22.4301C14.3626 22.4956 14.3441 22.5659 14.34 22.641C14.2832 22.6394 14.2357 22.6614 14.1979 22.7069C14.1196 22.4782 13.9693 22.3398 13.7471 22.2917C13.6579 22.29 13.5695 22.2878 13.4815 22.2851C13.3787 22.1428 13.245 22.0506 13.0801 22.0084C12.9964 21.8248 12.8606 21.7128 12.6724 21.6723C12.5476 21.6619 12.424 21.6663 12.3019 21.6855C12.2184 21.5598 12.1072 21.4762 11.9684 21.4351C11.8423 21.3024 11.6899 21.2365 11.5113 21.2374C11.4595 21.1776 11.4368 21.1051 11.4434 21.02C11.3931 20.751 11.2428 20.5862 10.9925 20.5258C10.9308 20.5169 10.869 20.5169 10.8072 20.5258C10.8008 20.5348 10.7925 20.5414 10.7825 20.5455C10.7032 20.4612 10.6085 20.4041 10.4984 20.3742C10.4758 20.3347 10.4531 20.2951 10.4305 20.2556C10.3497 20.165 10.2735 20.0706 10.202 19.9722C10.1526 19.9415 10.1032 19.9107 10.0538 19.88C9.97943 19.8622 9.90532 19.8447 9.83141 19.8273C9.71981 19.6271 9.55512 19.5128 9.33732 19.4846C9.20681 19.3755 9.05858 19.3271 8.89264 19.3396C8.88647 19.3462 8.88029 19.3528 8.87411 19.3594C8.8232 19.307 8.76349 19.2697 8.69501 19.2474C8.64074 19.1537 8.57487 19.0701 8.49737 18.997C8.46133 18.9745 8.42632 18.9503 8.39238 18.9245C8.31417 18.727 8.17625 18.6061 7.97857 18.5621C7.88485 18.5512 7.7922 18.5577 7.70065 18.5819C7.54675 18.5029 7.38824 18.4897 7.22509 18.5423C7.20919 18.3297 7.11448 18.1694 6.94098 18.0613C6.84806 18.0261 6.75335 17.9975 6.65688 17.9756C6.58731 17.6181 6.38145 17.4445 6.03927 17.4551C5.97414 17.4628 5.91237 17.4826 5.85399 17.5144C5.77326 17.2273 5.59209 17.0626 5.31049 17.0202C5.26341 16.9709 5.20989 16.9313 5.14991 16.9015C5.07277 16.7711 4.96777 16.6722 4.83492 16.605C4.77609 16.3621 4.63198 16.2128 4.40259 16.1569C4.37651 15.8217 4.20975 15.6174 3.90233 15.5441C3.8471 15.5345 3.79357 15.5411 3.74175 15.5639C3.73599 15.4516 3.70922 15.3462 3.66146 15.2476C3.62523 15.1804 3.57788 15.1233 3.51941 15.0763C3.49504 15.0067 3.46415 14.9408 3.42676 14.8786C3.35842 14.81 3.2946 14.7376 3.2353 14.6611C3.1998 14.6342 3.16275 14.6101 3.12413 14.5886C3.07208 14.4826 3.00002 14.3947 2.90797 14.3251C2.89763 14.2942 2.88115 14.2679 2.85856 14.246C2.86402 14.0793 2.82696 13.9255 2.74739 13.7847C2.72235 13.758 2.69765 13.7316 2.67328 13.7057C2.66306 13.4182 2.53336 13.2228 2.28418 13.1192C2.23914 13.1144 2.19591 13.1035 2.15448 13.0862C2.13709 13.0081 2.13504 12.929 2.1483 12.849C2.14956 12.6918 2.10016 12.5557 2.00008 12.4405C2.07062 12.3559 2.11797 12.2591 2.14213 12.1505C2.19985 11.909 2.15249 11.696 2.00008 11.5114C2.16717 11.3636 2.24333 11.1725 2.22859 10.9381C2.2049 10.8556 2.18431 10.7722 2.16683 10.6877C2.15123 10.6333 2.12859 10.5827 2.0989 10.5361C2.29798 10.3822 2.3762 10.1757 2.33359 9.91671C2.4227 9.77966 2.45358 9.62811 2.42623 9.46204C2.39688 9.33128 2.33717 9.21926 2.24712 9.12598C2.2803 9.05949 2.31118 8.99139 2.33976 8.9217C2.39996 8.8834 2.45966 8.84387 2.51887 8.80309C2.63789 8.71172 2.70994 8.58872 2.73504 8.43408C2.80154 8.35828 2.85919 8.27482 2.90797 8.18368C2.93676 8.04677 2.96559 7.91059 2.99444 7.77514C3.01506 7.63995 2.99653 7.51256 2.93885 7.39295C3.25093 7.22332 3.36621 6.95535 3.28471 6.58903C3.29857 6.50898 3.31504 6.42991 3.33412 6.35181C3.38457 6.35783 3.43192 6.34904 3.47617 6.32545C3.84878 6.38784 4.07523 6.2209 4.15555 5.82465C4.30947 5.70869 4.39594 5.55054 4.41495 5.35021C4.73076 5.43713 4.96751 5.32951 5.1252 5.02733C5.16409 4.99181 5.20938 4.97424 5.26108 4.97461C5.31926 4.94687 5.37484 4.91392 5.42783 4.87577C5.54535 4.96211 5.67505 4.99065 5.81693 4.96143C5.86309 4.95548 5.90632 4.94011 5.94663 4.91531C6.15223 5.02775 6.35399 5.01896 6.55189 4.88895C6.67704 4.95372 6.80879 4.97129 6.94716 4.94166C7.01985 4.90156 7.09603 4.89278 7.17568 4.91531C7.31302 4.91117 7.43243 4.86065 7.53389 4.76375C7.58742 4.73739 7.64095 4.73739 7.69447 4.76375C7.77384 4.82117 7.86236 4.84533 7.96005 4.83623C8.02444 4.83563 8.08826 4.82904 8.15151 4.81647C8.20222 4.791 8.25163 4.76244 8.29973 4.7308C8.46587 4.83307 8.64087 4.85065 8.82471 4.78352C8.88022 4.80326 8.9358 4.82303 8.99146 4.84282C9.08255 4.85636 9.17107 4.84977 9.25703 4.82305C9.31101 4.86734 9.36247 4.91785 9.41144 4.97461C9.56426 5.08686 9.72895 5.11542 9.90553 5.06028C9.95479 5.2205 10.0536 5.33253 10.202 5.39634C10.2473 5.44467 10.2926 5.49298 10.3379 5.54131C10.3872 5.57353 10.4408 5.5955 10.4984 5.6072C10.5697 5.75349 10.6767 5.85892 10.8196 5.9235C10.8652 5.93472 10.9105 5.9457 10.9555 5.95644C10.9492 6.23754 11.0666 6.43522 11.3075 6.54949C11.2998 6.61824 11.2937 6.68853 11.289 6.76036C11.2794 6.94221 11.3103 7.11354 11.3816 7.27434C11.5311 7.49116 11.7308 7.57023 11.9807 7.51156C12.0179 7.54004 12.057 7.56639 12.0981 7.59063C12.1006 7.72214 12.1294 7.84514 12.1845 7.95964C12.2353 8.33892 12.4391 8.51243 12.796 8.48021C13.0053 8.42698 13.1371 8.2886 13.1912 8.06507C13.2976 8.01087 13.3779 7.92739 13.4321 7.81467C13.527 7.74418 13.6094 7.66072 13.6791 7.56427C13.7836 7.31584 13.7466 7.09618 13.568 6.90533C13.5771 6.67902 13.505 6.49012 13.3518 6.33863C13.3984 6.30713 13.4478 6.27858 13.5 6.25297C13.597 6.17604 13.6649 6.0772 13.7039 5.95644C13.7244 5.82083 13.7408 5.68465 13.7533 5.5479C13.8355 5.44805 13.9261 5.3558 14.025 5.27114C14.1692 5.07792 14.1918 4.86925 14.0929 4.64514C14.2098 4.61085 14.3127 4.54934 14.4018 4.46063C14.4671 4.44851 14.5289 4.42655 14.587 4.39474C14.6503 4.33857 14.7202 4.29465 14.797 4.26295C14.8836 4.18555 14.9475 4.0911 14.9885 3.9796C15.0111 3.8218 15.0296 3.66365 15.0441 3.50516C15.1676 3.51382 15.2911 3.51602 15.4146 3.51175C15.4455 3.50681 15.4743 3.49583 15.5011 3.4788C15.7934 3.52588 16.0053 3.40727 16.1372 3.12297C16.2574 3.00658 16.3233 2.86161 16.3349 2.68807C16.37 2.66166 16.4091 2.65507 16.4522 2.6683C16.6249 2.77138 16.8019 2.78018 16.9834 2.69466C17.2497 2.72609 17.4514 2.62066 17.5886 2.37836C17.5967 2.35939 17.6007 2.33962 17.601 2.31906C17.6156 2.31617 17.6279 2.32056 17.638 2.33224C17.7092 2.44489 17.808 2.51078 17.9345 2.52992C18.1807 2.57646 18.3762 2.49299 18.5212 2.27952C18.5548 2.21792 18.5776 2.15203 18.5892 2.08184Z" fill="#ED3B3B"/>
<path d="M8.98326 8.1872C8.77771 8.01102 8.78694 7.86139 8.69349 7.64333C8.62703 7.48825 8.48632 7.32651 8.39926 7.1797C8.03989 6.5737 7.18037 6.52793 6.56257 6.74282C6.30875 6.8311 6.05167 6.97115 5.81363 7.08831C5.35512 7.31398 5.1721 7.52313 4.93094 7.9487C4.67219 8.40533 4.46393 9.00379 4.44948 9.53352C4.4365 10.0095 4.25908 10.4462 4.21767 10.9155C4.19204 11.2059 4.18696 11.5282 4.25779 11.8116C4.29701 11.9684 4.34986 12.0914 4.44948 12.2172C4.64414 12.4631 4.75829 12.7692 4.87968 13.0553C5.07159 13.5077 5.29442 13.9414 5.57512 14.3459C5.8519 14.7448 6.17943 15.0658 6.52691 15.4025C6.92683 15.7899 7.3962 16.0639 7.83755 16.3988C8.2225 16.691 8.53883 17.0837 8.96543 17.3172C9.2977 17.499 9.72475 17.6549 10.0041 17.9056C10.2275 18.1061 10.5159 18.227 10.762 18.396C10.9928 18.5545 11.2057 18.7708 11.4129 18.9599C11.6064 19.1367 11.8586 19.2695 12.0682 19.4303C12.3738 19.6647 12.6489 19.8662 12.9977 20.0232C13.1053 20.0716 13.2485 20.0948 13.3432 20.1658C13.4154 20.22 13.3876 20.3074 13.5081 20.2706C13.9332 20.1409 14.3426 19.843 14.6761 19.5595C15.0713 19.2236 15.4639 18.9022 15.8709 18.5788C16.7416 17.8867 16.9849 16.7804 17.605 15.8995C17.8982 15.483 18.3167 15.2344 18.7217 14.9388C19.025 14.7175 19.2041 14.4929 19.3615 14.1565C19.5448 13.7644 19.8132 13.3615 19.9187 12.9394C19.9739 12.7187 20.095 12.5163 20.204 12.3153C20.3744 12.001 20.4071 11.7341 20.5205 11.4014C20.597 11.177 20.6339 10.7509 20.8036 10.5811C21.02 10.3647 21.0363 10.1413 21.1023 9.83443C21.2353 9.21582 21.3981 8.55226 21.3809 7.91527C21.3728 7.6147 21.3436 7.29985 21.3096 7.00138C21.2701 6.65437 21.0837 6.3249 20.9975 5.98496C20.9462 5.78229 20.7553 5.70319 20.6186 5.56145C20.4374 5.37352 20.3294 5.16305 20.0792 5.0577C19.6861 4.89217 19.348 4.62016 18.9157 4.5584C18.3643 4.47964 17.8999 4.50803 17.449 4.86154C17.2368 5.02786 17.1415 5.12577 16.8739 5.20035C16.6198 5.27116 16.4537 5.40718 16.2542 5.59711C15.8621 5.97043 15.6109 6.30248 15.4696 6.8186C15.1393 8.02592 14.9642 9.24607 14.5446 10.4296C14.0443 11.8408 13.5957 13.2211 13.4613 14.7204C13.4291 15.0801 13.3827 15.4279 13.3209 15.7836C13.2699 16.0767 13.1616 16.4727 13.4791 15.904C14.3961 14.2617 15.361 12.6563 16.3991 11.0871C16.9617 10.2368 17.6275 9.40353 18.0553 8.47029C18.1054 8.3608 18.4459 7.51616 18.0865 8.34769C17.1895 10.4228 16.1547 12.4355 15.2512 14.5086C14.9591 15.1789 14.6908 15.9088 14.2927 16.5281C14.0681 16.8775 13.9656 16.6404 14.1367 16.2651C14.4086 15.6685 15.036 14.6076 15.3225 14.1163C15.9825 12.985 16.4899 12.1577 17.1414 11.0225C17.7679 9.93075 18.5032 8.78151 18.8488 7.55417C18.8662 7.49225 18.8752 7.32046 18.8265 7.36248C18.4652 7.67406 18.1608 8.04602 17.8235 8.38336C16.5049 9.70191 15.174 10.9986 13.9183 12.3777C13.1409 13.2314 12.2752 14.2793 11.1008 14.5889C9.74744 14.9457 8.95489 13.8055 8.45721 12.741C8.23981 12.276 8.09832 11.7802 7.8799 11.3167C7.77017 11.0839 7.54822 10.851 7.49652 10.5967C7.44933 10.3648 8.01613 10.0622 8.14738 9.95926C8.42187 9.74406 8.68041 9.50518 8.97211 9.31285C9.25468 9.12654 9.53039 8.99714 9.86371 8.94952C10.078 8.9189 10.1519 8.92483 10.1468 8.69542C10.1466 8.68588 10.122 8.54926 10.1156 8.60626C10.0756 8.96079 10.1193 9.36481 10.1557 9.7163C10.2134 10.2735 10.3857 10.7706 10.6907 11.2409C10.7592 11.3466 11.0026 11.8019 11.0986 11.524C11.3466 10.8056 11.5626 10.0011 11.589 9.23706C11.5976 8.98567 11.609 8.75485 11.3505 8.66867" stroke="#ED4141" stroke-width="5" stroke-linecap="round"/>
<path d="M9.98634 7.38475C9.88192 7.1253 9.79688 6.8959 9.74561 6.62244" stroke="#ED4141" stroke-width="5" stroke-linecap="round"/>
</svg>
