<svg width="25" height="25" fill="none" xmlns="http://www.w3.org/2000/svg"><path opacity=".978" fill-rule="evenodd" clip-rule="evenodd" d="M20.773.004a.697.697 0 0 1 .383.066.7.7 0 0 1 .507.084c.027.032.06.056.097.072.28-.052.544-.013.793.118.058.01.116.018.174.026.314-.113.588-.056.82.17.052.078.094.161.125.248.008.093.008.184 0 .275a.8.8 0 0 1 .59.457c.273.106.42.298.439.575.065.088.126.18.18.275.034.11.043.223.028.34a.557.557 0 0 1-.055.13.549.549 0 0 1-.202.419c.169.16.236.351.202.575a2.708 2.708 0 0 1-.09.32c.02.07.032.141.034.216.119.172.151.359.097.562a.688.688 0 0 1-.424.379.587.587 0 0 1-.173.366c.07.279-.017.507-.258.686a2.135 2.135 0 0 0-.11.059.47.47 0 0 0-.126.032.901.901 0 0 1-.153.007c-.055.127-.134.24-.236.34-.287.208-.572.208-.855 0-.27.206-.55.222-.841.046a1.561 1.561 0 0 1-.32-.072 3.052 3.052 0 0 0-.18.163.801.801 0 0 1-.661.046.73.73 0 0 1-.619.11 5.613 5.613 0 0 0-.292-.136.642.642 0 0 1-.25-.262 1.334 1.334 0 0 0-.111-.274.67.67 0 0 1-.167-.19c-.3-.013-.506-.15-.619-.411-.04-.165-.082-.33-.125-.497-.197.217-.44.278-.73.183a1.453 1.453 0 0 1-.236.059.676.676 0 0 1-.556.17.534.534 0 0 0-.105-.033.205.205 0 0 0-.048.04c-.04.44-.296.651-.765.633a.996.996 0 0 1-.118-.046c-.086.05-.177.09-.271.124a.629.629 0 0 1-.487.216c-.027.307-.198.5-.514.582a.949.949 0 0 1-.223 0 .94.94 0 0 0-.208-.053.772.772 0 0 1-.209.105c-.059.099-.128.19-.208.275a.613.613 0 0 1-.181.104c-.049.043-.095.09-.139.137a.742.742 0 0 1-.396.131 9.717 9.717 0 0 0-.556-.091.091.091 0 0 0-.084.052c-.052.354-.267.548-.646.581a.685.685 0 0 1-.39.053l-.02-.02a.712.712 0 0 1-.633.255 1.135 1.135 0 0 1-.257-.098c-.071.21-.194.392-.368.542a.75.75 0 0 1-.25.092.9.9 0 0 1-.154.006c.011.346-.16.564-.514.654a.712.712 0 0 1-.577-.157.608.608 0 0 1-.375.431 2.753 2.753 0 0 0-.383.112l-.208.013a.742.742 0 0 1-.327.294.482.482 0 0 1-.076.222c.108.286.039.528-.209.725a.435.435 0 0 0-.236.164l.027.222c.086.103.133.22.14.353.117.019.228.056.333.11.155.125.285.269.39.432.184.043.346.126.486.248.108.002.21.024.306.066.307-.018.53.102.667.36a.725.725 0 0 1 .237.287c.066.048.127.102.18.163a.976.976 0 0 1 .668.092.785.785 0 0 1 .292.411.827.827 0 0 1 .166.138c.28-.05.51.03.689.242.023.046.049.092.076.137.131.047.265.084.403.11a.67.67 0 0 1 .41.458c.407-.104.692.027.855.392.091.026.18.059.264.099a.831.831 0 0 1 .195.202.687.687 0 0 1 .584.373c.224.086.358.24.403.464.152 0 .282.05.39.15.115-.005.231-.005.347 0 .356.091.523.311.5.66a.62.62 0 0 1 .543.379.122.122 0 0 1 .014.078.732.732 0 0 1 .653.308c.18.002.333.063.459.183a.747.747 0 0 1 .361.209c.148.009.285.05.41.124.044.01.088.014.133.013a.1.1 0 0 1 .041-.078c.264-.256.558-.291.883-.105a.56.56 0 0 0 .125-.118c.017-.416.246-.636.688-.66a.47.47 0 0 1 .264-.11.651.651 0 0 1 .258 0 .513.513 0 0 1 .27-.125c.216-.04.402.01.557.15.34-.18.637-.131.89.144a.288.288 0 0 1 .062.13c.202-.11.41-.118.626-.025l.153.091c.305-.127.572-.08.8.144.244.08.4.237.465.47 0 .094.014.186.042.275.249.15.35.364.306.64a.666.666 0 0 0-.028.183 3.883 3.883 0 0 1-.049.131c.14.06.242.158.306.294.04.116.051.236.035.36-.027.093-.046.189-.056.287-.05.084-.099.17-.146.255a.636.636 0 0 1-.257.542l-.014.183c-.019.13-.06.252-.125.366a.294.294 0 0 0-.111.288.693.693 0 0 1-.112.235c-.06.34-.274.528-.64.562a1.459 1.459 0 0 1-.215-.02c-.199.236-.451.313-.757.23a.277.277 0 0 1-.132.071 1.998 1.998 0 0 1-.25.026.113.113 0 0 1-.056.027.683.683 0 0 1-.278.529.332.332 0 0 0-.181.144c-.2.229-.45.294-.75.196a.667.667 0 0 1-.223.006 4.551 4.551 0 0 1-.257-.085c-.299.118-.565.072-.8-.137a.778.778 0 0 1-.653-.222c-.313-.083-.48-.277-.5-.582-.444-.036-.66-.263-.647-.68a.118.118 0 0 1 .02-.032c-.328-.117-.48-.342-.451-.673a.783.783 0 0 0 .041-.144l.084-.13a.84.84 0 0 0-.02-.295c0-.027.004-.053.013-.078a.633.633 0 0 1-.202-.49c-.295.067-.526-.02-.695-.262a.104.104 0 0 1-.007-.052.559.559 0 0 1-.382-.353.468.468 0 0 1-.097-.091c-.332.044-.569-.078-.71-.366a.698.698 0 0 1-.229-.23l-.09-.28c-.355.085-.626-.02-.813-.314a.577.577 0 0 1-.181-.235.412.412 0 0 0-.098-.079.672.672 0 0 1-.639-.078.548.548 0 0 1-.209-.353.657.657 0 0 1-.556-.294.696.696 0 0 1-.43-.425.29.29 0 0 1-.112.033.8.8 0 0 1-.681-.229 2.37 2.37 0 0 0-.153-.078.61.61 0 0 0-.111-.105 1.833 1.833 0 0 0-.111-.15.606.606 0 0 1-.404-.248c-.286-.022-.48-.157-.583-.406-.342.01-.569-.136-.682-.438a.514.514 0 0 1-.153-.117.658.658 0 0 1-.438-.3.82.82 0 0 0-.048-.132.59.59 0 0 1-.529-.34.64.64 0 0 1-.57-.267.515.515 0 0 1-.236-.157c-.317.068-.565-.026-.744-.281a1.034 1.034 0 0 1-.076-.34 1.384 1.384 0 0 1-.695-.144 3.593 3.593 0 0 1-.334-.398c-.327.006-.556-.131-.688-.412a.422.422 0 0 1-.14-.17.667.667 0 0 1-.604.235c-.102.249-.297.375-.584.38A.64.64 0 0 1 3 13.714a.938.938 0 0 1-.077-.13.31.31 0 0 1-.083-.04.793.793 0 0 1-.32.15.99.99 0 0 1-.598-.091.985.985 0 0 1-.333-.091c-.322-.041-.518-.209-.591-.504a.985.985 0 0 1 .014-.287.773.773 0 0 1-.23-.223 1.2 1.2 0 0 1-.187-.182 1.776 1.776 0 0 0-.209-.419 3.084 3.084 0 0 0-.056-.235.77.77 0 0 1-.11-.327c-.241-.232-.283-.493-.126-.784a.426.426 0 0 1 .063-.065c.01-.178.064-.344.16-.497l.055-.052c.019-.062.042-.123.07-.183a6.537 6.537 0 0 0-.05-.275.723.723 0 0 1 .105-.326c.105-.136.216-.267.334-.393a.487.487 0 0 1 .146-.294c-.037-.322.102-.549.417-.68.07-.012.139-.023.208-.032.106.01.208.032.306.065a.3.3 0 0 1 .035-.078.291.291 0 0 0 .077-.072.916.916 0 0 1 .229-.137c.053-.263.217-.422.493-.477.07-.041.145-.076.223-.105l.403-.065a.748.748 0 0 1 .466.072.724.724 0 0 1 .73.045.732.732 0 0 1 .236.36.786.786 0 0 1 .39.15c.173-.022.34 0 .5.066.164-.009.321.013.473.065.142.062.267.147.375.255a.57.57 0 0 1 .056.62.087.087 0 0 1 .062.033.608.608 0 0 1 .34-.36c.09-.029.183-.048.279-.058a.76.76 0 0 1 .459-.065.801.801 0 0 1 .361-.118c0-.02.005-.04.014-.059a1.11 1.11 0 0 1 .445-.366L8.72 7.5c.074 0 .149.004.222.013a.133.133 0 0 0 .035-.02c.134-.277.363-.407.688-.392a.594.594 0 0 1 .348-.49.692.692 0 0 1 .556 0c.055.02.101.05.139.092l.222.013.021.02c.037-.249.178-.42.424-.517.18-.356.472-.473.876-.353.025.01.046.026.063.046a.907.907 0 0 1 .257-.078.519.519 0 0 1 .306-.34.79.79 0 0 1 .424-.04c.07-.101.156-.19.257-.267a.929.929 0 0 1 .472-.105.373.373 0 0 1 .14-.085l.034-.065c.072-.424.338-.623.8-.595a.503.503 0 0 1 .208-.15c.176-.277.43-.377.765-.3a.353.353 0 0 1 .07-.066l.389-.222a.674.674 0 0 1 .64-.21c.102.02.195.06.277.118a.83.83 0 0 0 .153-.124.726.726 0 0 1 .369-.111.363.363 0 0 1 .152.026c.025-.011.025-.024 0-.04-.029-.256.071-.456.3-.6.027-.1.07-.193.124-.282a.713.713 0 0 1-.062-.516.664.664 0 0 1 .153-.3c.105-.11.228-.198.368-.262.024-.074.045-.148.063-.222.125-.277.35-.417.674-.418a.701.701 0 0 1 .515-.242c.039-.05.09-.085.152-.105.06-.078.13-.148.209-.209.083-.038.167-.07.25-.098Zm.751 2.13.167.118a.641.641 0 0 0 .528.353c.072.075.16.128.264.157a.095.095 0 0 0 .028.033c-.05.319.082.543.396.673a3.86 3.86 0 0 0-.035.183c-.297.086-.45.275-.458.568-.003.1.02.194.07.281-.06.06-.119.12-.175.183a.602.602 0 0 0-.09.288.163.163 0 0 0-.097.026c-.288-.081-.534-.02-.737.183a.867.867 0 0 1-.084.118.755.755 0 0 0-.382-.419 1.108 1.108 0 0 0-.076-.143c-.08-.092-.161-.184-.244-.275a.663.663 0 0 0-.257-.366c.145-.272.104-.516-.125-.732a.669.669 0 0 0 .195-.392c.241-.123.362-.315.361-.575.1.005.193-.017.278-.065.14-.015.269-.054.39-.118a.351.351 0 0 0 .083-.078Zm-17.6 6.98c.19.228.435.307.736.236a.68.68 0 0 1 .202.065.535.535 0 0 0 .236.209c.01.017.01.035 0 .052a.752.752 0 0 0-.153.301c-.224.24-.245.498-.063.771a2.047 2.047 0 0 0-.02.222c-.334-.096-.598-.01-.793.262a8.25 8.25 0 0 0-.07.196.415.415 0 0 0 .022.228.618.618 0 0 0-.105.164 1.696 1.696 0 0 0-.313-.124 1.273 1.273 0 0 1-.18-.02.198.198 0 0 0-.042-.046.806.806 0 0 0-.598-.072.637.637 0 0 0-.104-.34.97.97 0 0 0-.292-.313c.014-.131.01-.262-.014-.392a.855.855 0 0 0-.118-.177.742.742 0 0 1 .083-.085.664.664 0 0 0 .348-.222.141.141 0 0 0 .042-.091.644.644 0 0 0 .43-.314c.059-.034.12-.064.181-.091a2.01 2.01 0 0 0 .14-.138.688.688 0 0 0 .444-.28Zm17.391 11.058c.087.018.175.031.265.04.06-.005.121-.014.18-.027.12.034.241.034.362 0 .093.038.19.062.292.072l.146.124c.017.113.066.21.146.294a.093.093 0 0 0-.035.046 3.93 3.93 0 0 1-.056.17.4.4 0 0 0 .021.222.659.659 0 0 0-.125.667.634.634 0 0 0-.5.352.739.739 0 0 0-.438.249c-.034.06-.069.118-.105.176-.118.023-.23.065-.333.125a.679.679 0 0 0-.508-.223.542.542 0 0 0-.153.026 28.592 28.592 0 0 1-.438-.156 1.692 1.692 0 0 0-.132-.118.668.668 0 0 0-.257-.451.871.871 0 0 0 .09-.15.719.719 0 0 0 .202-.288.68.68 0 0 0 .243-.287c.011-.23.039-.457.084-.68a.845.845 0 0 0 .39-.026.864.864 0 0 0 .402-.026c.09-.04.176-.084.257-.131Z" fill="#767676"/></svg>