<svg width="26" height="25" fill="none" xmlns="http://www.w3.org/2000/svg"><path d="M16.936.084a.816.816 0 0 1-.414.092c-.278-.009-.401.03-.775.261-.333.21-.583.54-.752 1.01-.104.288-.237.458-.46.602a.796.796 0 0 0-.196.24.66.66 0 0 1-.16.209 1.35 1.35 0 0 0-.172.143c-.06.057-.183.14-.274.183-.25.127-.547.384-.642.567-.05.087-.132.196-.187.244a1.15 1.15 0 0 0-.187.244c-.06.113-.123.165-.219.182-.173.035-.428.249-.524.445a.551.551 0 0 1-.2.213.887.887 0 0 0-.401.44c-.046.105-.237.323-.474.545-.219.204-.424.414-.451.461-.027.057-.11.1-.214.118-.25.04-.634.344-.766.614-.095.192-.15.244-.346.331-.283.127-.524.37-.588.597-.05.17-.241.349-.706.667-.401.274-.565.448-.624.67-.046.175-.078.214-.219.27a.859.859 0 0 0-.465.427.88.88 0 0 1-.127.214c-.064.074-.593.335-.67.335-.164 0-.61.562-.61.767 0 .1-.178.24-.429.34a.952.952 0 0 0-.292.191 1.96 1.96 0 0 1-.282.214 1.14 1.14 0 0 0-.296.313c-.078.127-.192.24-.265.27-.154.062-.328.253-.4.445-.037.096-.11.165-.233.226a.935.935 0 0 0-.492.54.515.515 0 0 1-.118.227.646.646 0 0 0-.133.174.29.29 0 0 1-.223.144c-.223.04-.67.335-.797.536a1.052 1.052 0 0 1-.25.252c-.147.092-.48.602-.484.732 0 .04-.059.179-.137.305-.164.279-.177.527-.045.81.118.249.118.54-.005.698a.787.787 0 0 0-.132.627c.023.1.018.274-.013.444-.032.192-.037.322-.005.423a.338.338 0 0 1-.01.274.96.96 0 0 0 .028.736c.087.166.087.17-.009.349a.92.92 0 0 0-.091.352c.018.954.082 1.647.196 2.122.036.152.036.248 0 .344-.027.078-.05.21-.05.292 0 .183.287.814.45.984.128.135.43.284.57.288.05 0 .178.043.288.091.291.135.628.1.91-.087.197-.135.224-.14.384-.096.227.066.815.11 1.002.075.087-.014.228-.07.314-.122.155-.088.483-.127 1.094-.118 1.449.022 1.421.022 1.7-.109.255-.118.273-.118.76-.091.483.03.506.03.752-.088.25-.113.255-.117.42-.043.232.104.806.074 1.02-.057.087-.052.264-.144.396-.204.133-.066.274-.166.32-.231.154-.223.628-.64.842-.74a.746.746 0 0 0 .32-.275.622.622 0 0 1 .204-.218.91.91 0 0 0 .233-.244c.073-.105.2-.235.282-.288a.727.727 0 0 0 .219-.235.512.512 0 0 1 .237-.205c.164-.07.615-.505.907-.875.086-.11.205-.244.264-.296.424-.384.51-.475.51-.523 0-.035.132-.161.296-.283.16-.127.328-.288.365-.357a.508.508 0 0 1 .228-.192 1.09 1.09 0 0 0 .282-.187 3.97 3.97 0 0 1 .424-.323c.164-.109.342-.265.396-.348.055-.083.128-.175.16-.2.651-.58.81-.767.81-.941 0-.035.042-.096.097-.144a.929.929 0 0 0 .182-.244c.096-.179.446-.418.747-.514.105-.035.3-.166.456-.305.15-.14.337-.279.41-.318.123-.061.592-.492 1.335-1.224.132-.13.26-.3.287-.37.036-.096.105-.162.237-.218.2-.083.387-.253.492-.445.155-.278.547-.727.66-.753.197-.048.607-.323.698-.462a.955.955 0 0 1 .287-.257c.205-.126.4-.37.4-.5 0-.04.019-.07.046-.07.069 0 .73-.62.802-.754a.586.586 0 0 1 .233-.192c.227-.087.738-.562.838-.775a.918.918 0 0 0 .087-.323c0-.078.045-.217.104-.305.091-.143.1-.209.096-.744 0-.353-.023-.654-.06-.75-.045-.13-.045-.213 0-.396a.806.806 0 0 0-.127-.667c-.05-.078-.05-.117.014-.26.155-.358.04-.816-.255-1.02-.114-.079-.137-.122-.137-.266a.878.878 0 0 0-.456-.758c-.077-.04-.132-.122-.168-.248a1.047 1.047 0 0 0-.447-.61c-.132-.092-.205-.17-.205-.23 0-.166-.255-.493-.465-.593a5.629 5.629 0 0 1-.469-.27c-.15-.1-.383-.231-.51-.292-.191-.087-.269-.161-.387-.349-.128-.2-.196-.261-.447-.379-.223-.104-.36-.14-.551-.143-.224 0-.27-.018-.388-.136a1.056 1.056 0 0 0-.747-.318c-.182-.004-.291-.03-.392-.1a1.384 1.384 0 0 0-.364-.148 8.319 8.319 0 0 1-.447-.109c-.282-.078-.396-.078-.61.005-.146.056-.224.06-.488.017-.61-.096-.76-.096-.957.004Zm1.65 2.165c.064.04.264.096.442.127.542.087.815.174 1.12.361.178.11.342.179.429.179.173 0 .205.022.355.244.128.191.338.34.552.387.072.018.173.1.232.183.06.083.26.28.442.436.187.161.364.349.401.414.068.135.232.274.456.392.127.065.14.096.14.274 0 .257.092.462.32.706.1.109.182.218.182.244 0 .026.064.179.141.335l.142.297-.119.209a.986.986 0 0 0-.118.366c0 .082-.028.244-.06.357-.045.174-.063.196-.127.152a.92.92 0 0 1-.173-.226c-.055-.096-.114-.205-.137-.24a1.878 1.878 0 0 1-.119-.27c-.095-.266-.369-.5-.615-.54-.16-.026-.2-.052-.282-.21-.05-.095-.26-.335-.465-.53-.2-.192-.492-.493-.642-.667-.424-.497-.63-.68-.857-.771-.178-.07-.21-.1-.232-.24-.037-.209-.196-.427-.424-.575-.141-.087-.233-.196-.333-.396a.957.957 0 0 0-.305-.388c-.237-.152-.697-.575-.697-.636 0-.074.214-.056.35.026Zm-2.124 1.394c.105.27.36.606.538.71.114.07.205.162.233.249.045.122.186.261.592.579l.141.109-.196.187c-.219.21-.442.366-.656.458a.758.758 0 0 0-.242.187 1.009 1.009 0 0 1-.223.192.577.577 0 0 0-.187.187.332.332 0 0 1-.173.14.359.359 0 0 0-.187.152c-.04.074-.1.13-.127.13-.027 0-.078.03-.11.066a.212.212 0 0 1-.132.065c-.04 0-.155.092-.255.2-.255.288-.583.584-.638.584-.027 0-.1.052-.168.118-.064.07-.183.165-.26.222-.077.057-.141.13-.141.161 0 .035-.046.087-.1.113-.192.096-.584.453-.584.527 0 .04-.054.11-.118.153-.205.14-.656.558-.656.614 0 .03-.05.074-.11.105-.063.026-.168.13-.237.23-.082.127-.164.197-.25.214a.276.276 0 0 0-.196.148.713.713 0 0 1-.205.214 1.838 1.838 0 0 0-.351.318c-.119.13-.255.26-.31.291a.92.92 0 0 0-.232.236c-.078.104-.2.217-.274.257a.486.486 0 0 0-.186.165c-.023.048-.16.188-.297.31-.136.117-.278.248-.314.283a9.24 9.24 0 0 1-.2.187c-.447.41-.68.645-.711.736-.023.057-.114.13-.2.166-.087.034-.17.104-.188.152-.013.052-.045.092-.063.092-.023 0-.096.082-.169.183-.173.24-1.235 1.254-1.312 1.254-.055 0-.178.118-.506.484a3.98 3.98 0 0 1-.241.226c-.082.066-.146.153-.146.196 0 .044-.105.161-.237.261a2.708 2.708 0 0 0-.365.358c-.077.096-.168.174-.21.174a.291.291 0 0 0-.15.07c-.077.065-.1.056-.323-.179s-.305-.379-.374-.688c-.036-.153-.305-.44-.483-.51l-.136-.052.154-.166c.082-.091.178-.24.21-.33.06-.184.342-.497.442-.497.114 0 .41-.17.529-.3a.98.98 0 0 0 .168-.288c.027-.083.073-.153.096-.153.023 0 .132-.083.241-.187.105-.105.26-.214.342-.244.146-.061.483-.388.56-.553.023-.048.11-.114.192-.14.205-.07.364-.244.547-.592.16-.305.268-.405.838-.81.232-.162.396-.323.542-.532.242-.34.752-.854.943-.95a.82.82 0 0 0 .228-.187c.05-.065.16-.196.237-.283.078-.087.164-.205.196-.257.032-.065.123-.118.25-.148.251-.061.502-.253.598-.466.059-.122.123-.183.278-.244.214-.083.414-.279.482-.47.028-.07.128-.166.242-.231.132-.074.25-.192.36-.366.123-.192.21-.275.337-.323.242-.091.465-.278.551-.466.082-.174.333-.405.493-.453.136-.039.414-.344.45-.492.019-.07.128-.205.251-.31.119-.1.228-.221.246-.265.014-.044.105-.1.205-.13a.947.947 0 0 0 .328-.197c.347-.335.625-.636.702-.749.11-.17.25-.322.3-.322.024 0 .06.052.087.117Zm2.511 2.505c.137.13.232.27.264.379.032.113.128.253.265.383.118.118.282.297.36.405.077.11.19.227.26.257a.867.867 0 0 1 .232.227c.063.091.168.2.237.244.205.122.255.23.118.23-.087 0-.424.275-.424.34 0 .044-.911.82-1.102.933a.449.449 0 0 0-.15.161c-.014.044-.074.096-.128.109a.807.807 0 0 0-.27.187c-.56.549-.687.662-.929.84a5.491 5.491 0 0 0-.387.315.497.497 0 0 1-.155.122c-.018 0-.169.122-.333.265a2.959 2.959 0 0 1-.396.31.703.703 0 0 0-.196.187c-.055.083-.123.152-.146.152-.086 0-.597.41-.688.553a1.06 1.06 0 0 1-.287.253 1.078 1.078 0 0 0-.296.244.624.624 0 0 1-.232.179.602.602 0 0 0-.246.2c-.069.087-.205.23-.31.314-.1.083-.264.226-.36.313-.096.092-.191.166-.21.166-.05.004-.606.51-.606.553 0 .018-.064.07-.136.109-.078.04-.137.1-.137.135 0 .061-.237.248-.315.248-.022 0-.223.188-.446.418-.219.231-.437.45-.483.488-.046.044-.169.162-.273.266-.105.105-.324.31-.483.457a9.25 9.25 0 0 0-.479.458c-.847.88-1.244 1.263-1.472 1.429-.082.06-.15.126-.15.143 0 .048-.241.305-.282.305-.087 0-.47.292-.547.423-.087.14-.096.144-.178.074-.045-.04-.114-.174-.15-.296-.082-.257-.114-.297-1.053-1.264a1.786 1.786 0 0 1-.291-.392.847.847 0 0 0-.183-.26c-.05-.049-.095-.097-.095-.114 0-.018.082-.087.182-.153a1.04 1.04 0 0 0 .26-.244.487.487 0 0 1 .205-.174c.068-.026.127-.06.127-.078 0-.07.383-.51.506-.58a.467.467 0 0 0 .178-.187c.023-.06.073-.109.11-.109.036 0 .113-.078.168-.174.059-.096.123-.174.14-.174.087 0 .735-.61.903-.841.064-.087.182-.2.264-.248a.52.52 0 0 0 .178-.162c.055-.156.825-.97.911-.97.023 0 .073-.058.119-.127a.36.36 0 0 1 .196-.153c.155-.039.779-.649 1.153-1.123.109-.14.241-.262.291-.28.128-.034.305-.191.305-.26 0-.031.037-.066.087-.083.105-.031.884-.75.957-.885a.784.784 0 0 1 .228-.2.894.894 0 0 0 .264-.27c.087-.161.137-.205.3-.253.046-.013.11-.087.137-.157.028-.074.078-.13.105-.13.032 0 .123-.07.21-.153.16-.165.319-.313.793-.75.16-.147.291-.287.291-.308 0-.022.11-.087.242-.153.25-.117.46-.3.505-.444.014-.048.128-.14.247-.205.123-.065.3-.196.4-.292.265-.252.292-.279.42-.41.068-.065.146-.117.173-.117.027 0 .223-.157.433-.348.21-.196.419-.349.469-.349.096 0 .255-.117.255-.187 0-.022.037-.07.082-.1.069-.053.087-.044.169.06.05.066.187.21.305.323Zm2.442 2.653c.041.048.233.244.42.431l.341.34-.123.144a.743.743 0 0 0-.155.287c-.023.113-.09.188-.332.357-.192.131-.337.27-.388.37-.095.197-.742.824-.943.915-.086.04-.319.223-.52.401-.2.183-.423.353-.5.375a.911.911 0 0 0-.52.44.705.705 0 0 1-.214.252c-.068.03-.26.2-.428.375-.174.174-.328.318-.356.318-.095 0-.424.275-.505.423a.495.495 0 0 1-.22.217c-.177.079-.815.676-1.093 1.028a.74.74 0 0 0-.127.292c-.028.148-.046.166-.2.192-.21.03-.53.283-.602.475a.408.408 0 0 1-.224.218c-.177.078-.515.405-.747.718a.655.655 0 0 1-.282.227.983.983 0 0 0-.296.187 3.322 3.322 0 0 1-.342.261c-.11.07-.242.214-.31.34a.7.7 0 0 1-.292.296c-.205.1-.369.27-.51.515a.943.943 0 0 1-.323.313.758.758 0 0 0-.402.588c-.022.14-.054.188-.186.253a1.962 1.962 0 0 0-.374.296c-.118.122-.241.218-.278.218-.132 0-.433.257-.533.453-.073.148-.123.2-.2.2-.06 0-.2.048-.32.105-.118.056-.255.096-.305.083-.05-.014-.182-.162-.3-.327a2.507 2.507 0 0 0-.365-.427c-.082-.07-.15-.161-.15-.205a1.445 1.445 0 0 0-.064-.244c-.06-.157-.06-.165.05-.24.064-.038.187-.139.269-.217.086-.074.196-.14.246-.14.1 0 .273-.195.273-.309 0-.048.028-.082.06-.082.031 0 .118-.062.19-.131.074-.074.156-.13.188-.13.027 0 .164-.123.296-.271.137-.148.278-.296.323-.331.224-.183.438-.405.56-.575.21-.296.53-.61.616-.61.073 0 .364-.305.364-.379 0-.022.069-.074.15-.122.197-.109.502-.405.593-.57a.588.588 0 0 1 .233-.21c.09-.039.423-.322.747-.627.319-.305.67-.61.774-.68.105-.07.192-.152.192-.182 0-.035.054-.092.127-.135a.807.807 0 0 0 .183-.157c.036-.044.145-.127.241-.188.1-.06.205-.152.233-.213a.262.262 0 0 1 .15-.126c.06-.013.196-.122.31-.244.114-.118.223-.218.241-.218.018 0 .192-.152.383-.34.424-.41.765-.697.875-.732.045-.013.155-.109.246-.217.09-.105.191-.192.223-.192.027 0 .119-.079.2-.174.087-.105.183-.175.242-.175.11 0 .264-.117.264-.2 0-.052.296-.322.36-.322.018 0 .169-.127.333-.283.168-.157.319-.284.342-.284.018 0 .136-.087.26-.196.118-.108.227-.196.236-.196.041 0 .565-.51.565-.548 0-.07.278-.323.356-.323.04 0 .15-.07.237-.157.086-.082.21-.2.268-.261.133-.126.165-.13.27-.013ZM2.852 17.914c.064.104.183.244.27.305.109.078.168.165.19.274.019.113.096.222.251.366.123.118.26.288.3.388.101.235.566.636.848.727.169.052.27.127.447.331.123.144.228.283.228.314 0 .03.059.14.136.235.073.1.137.231.137.292 0 .135.141.41.255.505.05.04.155.105.237.144.096.048.146.105.146.17 0 .052.041.161.091.24.05.078.091.152.091.16 0 .014-.191.023-.428.023s-.483.017-.547.043c-.082.03-.16.022-.282-.026-.105-.044-.274-.061-.465-.052-.232.008-.3-.005-.319-.053a1.638 1.638 0 0 0-.255-.291 5.907 5.907 0 0 1-.342-.362 1.51 1.51 0 0 0-.342-.279c-.223-.135-.232-.152-.241-.344-.014-.353-.269-.627-.647-.706l-.15-.03.031-.227c.05-.305.037-.483-.05-.644a.402.402 0 0 1-.04-.292c.017-.087.04-.296.045-.462.009-.196.045-.375.11-.5a.995.995 0 0 0 .095-.319c0-.17.064-.148.2.07Z" fill="#767676"/></svg>