<svg width="50" height="50" viewBox="0 0 50 50" fill="none" xmlns="http://www.w3.org/2000/svg">
<g filter="url(#filter0_d_168_755)">
<path opacity="0.933" fill-rule="evenodd" clip-rule="evenodd" d="M24.0215 0.0268342C29.7023 -0.239985 34.6687 1.48297 38.9215 5.19579C43.1265 9.19238 45.2611 14.1102 45.3251 19.9493C45.1765 26.6279 42.5678 32.1037 37.4984 36.377C32.4002 40.3757 26.6382 41.8544 20.2127 40.8135C14.8553 39.7462 10.6072 37.0048 7.46823 32.5892C4.35832 27.8346 3.33985 22.6589 4.4129 17.0614C5.7672 10.9957 9.06672 6.32903 14.3113 3.06124C17.3119 1.28672 20.5485 0.275279 24.0215 0.0268342Z" fill="#040505"/>
<path fill-rule="evenodd" clip-rule="evenodd" d="M24.0211 0.40387C26.9974 0.248634 29.8711 0.709027 32.6431 1.78505C32.9561 2.86961 33.1863 3.97175 33.3336 5.09151C33.383 5.78055 33.1809 6.38743 32.7268 6.91215C31.9466 7.49773 31.1371 8.04183 30.2992 8.54446C30.1038 8.72635 29.9573 8.94261 29.8598 9.19319C29.6702 9.64233 29.5166 10.1027 29.3994 10.5744C29.2705 10.9474 29.1169 11.3101 28.939 11.6626C28.6711 11.8823 28.3643 12.0218 28.0182 12.0811C27.6114 11.8664 27.1861 11.692 26.7416 11.5579C26.1712 11.4257 25.5995 11.3072 25.0256 11.2022C24.3198 11.2726 23.7966 11.6214 23.4561 12.2485C23.2174 12.9247 23.0848 13.6223 23.0585 14.3412C23.1529 15.609 23.2157 16.8786 23.2468 18.1499C23.2762 18.4069 23.332 18.658 23.4143 18.9033C23.6863 19.3917 23.9793 19.8659 24.2932 20.3263C24.7477 20.7671 25.1872 21.2203 25.6116 21.6866C26.1507 22.044 26.6253 22.4768 27.0346 22.9841C27.7809 23.6746 28.5276 24.3652 29.2738 25.0558C29.6471 25.569 30.0799 26.0294 30.5713 26.437C30.7806 26.7162 30.9898 26.9949 31.1991 27.2741C31.3004 27.4871 31.3632 27.7102 31.3874 27.9437C31.3021 28.5774 31.1836 29.2052 31.0317 29.8272C30.8659 30.9677 31.2916 31.7977 32.3082 32.3175C32.8933 32.5686 33.4793 32.5686 34.0661 32.3175C34.6843 32.0714 35.256 31.7504 35.7821 31.3548C36.5518 30.6044 37.1168 29.7184 37.4772 28.6971C37.7044 27.8575 37.8719 27.0062 37.9794 26.144C38.0045 25.8079 37.9903 25.4731 37.9376 25.1395C37.7923 24.4611 37.6806 23.7772 37.6027 23.0887C37.491 22.044 37.6027 21.0253 37.9376 20.0334C38.1736 19.5604 38.4875 19.1486 38.8793 18.7987C39.5192 18.6757 39.9587 18.9199 40.1977 19.5311C40.5124 21.1643 41.4403 21.6456 42.981 20.9751C43.4384 20.7683 43.8222 20.4686 44.132 20.0752C44.4187 19.6412 44.6836 19.1946 44.9272 18.7359C45.1352 25.3409 42.8403 30.8865 38.0422 35.3728C35.4908 37.6534 32.5472 39.2368 29.211 40.1232C27.6968 39.6344 27.048 38.6018 27.2648 37.026C27.3728 36.7682 27.5122 36.5309 27.6834 36.3145C28.032 35.9659 28.3811 35.6168 28.7297 35.2682C29.1575 34.6659 29.0804 34.1427 28.4995 33.6987C28.0429 33.4396 27.5549 33.2722 27.0346 33.1964C26.5048 33.1366 25.9745 33.0809 25.4442 33.029C24.3176 32.6979 23.5153 31.9931 23.0376 30.9154C22.8255 30.388 22.6721 29.8439 22.5772 29.2831C22.1712 27.7659 21.3969 26.4755 20.2543 25.4116C19.7808 24.9863 19.2367 24.6796 18.622 24.4908C17.4739 24.1999 16.4833 24.472 15.6504 25.307C15.4101 25.5681 15.1939 25.8469 15.0016 26.144C14.6029 26.8857 14.2262 27.6391 13.8716 28.4041C13.5957 28.9851 13.1423 29.3408 12.5113 29.4714C11.0399 29.3032 10.0982 29.9239 9.68618 31.3339C9.48038 32.2233 9.28509 33.1161 9.10023 34.0126C6.25604 30.6513 4.69351 26.7589 4.41259 22.3353C4.39166 21.5962 4.38467 20.8566 4.39166 20.1171C4.62642 20.1213 4.84963 20.0723 5.06132 19.9706C5.73806 19.6148 6.4356 19.308 7.15402 19.0498C7.62835 18.8126 8.10272 18.5755 8.57705 18.3383C9.1155 17.9923 9.63173 17.6156 10.1256 17.2082C10.7731 16.506 11.1288 15.6759 11.1929 14.7179C11.2095 14.2289 11.2373 13.7407 11.2766 13.253C11.3885 12.6315 11.6606 12.0944 12.0928 11.6416C12.9996 10.9444 13.8437 10.1701 14.6249 9.31876C15.2499 8.31045 15.4452 7.22225 15.2109 6.05415C15.0972 5.71764 14.9158 5.42467 14.6668 5.17522C14.4669 4.83139 14.3135 4.46864 14.2064 4.08701C14.1785 3.93354 14.1785 3.7801 14.2064 3.62662C17.2089 1.73524 20.4805 0.660978 24.0211 0.40387Z" fill="#93D8FE"/>
<path fill-rule="evenodd" clip-rule="evenodd" d="M31.4714 29.4086C31.5308 29.3244 31.5588 29.2265 31.5551 29.1156C31.661 28.6472 31.7095 28.1726 31.7016 27.6926C31.6266 27.333 31.473 27.0124 31.2412 26.7299C31.0717 26.5466 30.9185 26.3511 30.7808 26.144C30.2894 25.7363 29.8566 25.2759 29.4833 24.7628C28.8346 24.1697 28.1858 23.5771 27.5371 22.984C27.2148 22.6759 26.908 22.3549 26.6163 22.0213C26.3932 21.8539 26.1697 21.6865 25.9466 21.5191C25.5628 21.0796 25.1514 20.6682 24.712 20.2844C24.2891 19.76 23.9403 19.1878 23.6656 18.5684C23.6377 18.4289 23.6098 18.2894 23.5819 18.1499C23.5537 16.8922 23.4909 15.6366 23.3936 14.383C23.4139 13.6459 23.5604 12.9344 23.833 12.2485C24.1604 11.7673 24.614 11.5371 25.1933 11.5579C25.8935 11.6806 26.577 11.862 27.2441 12.102C27.9966 12.5461 28.6734 12.4415 29.274 11.7881C29.5415 11.2235 29.7507 10.6375 29.9018 10.0302C30.0395 9.67302 30.1927 9.32425 30.3622 8.98385C31.1784 8.41882 31.9945 7.8538 32.8107 7.28877C33.3447 6.77488 33.6377 6.14708 33.6896 5.40534C33.5762 4.23285 33.3527 3.08186 33.02 1.95239C37.1848 3.71838 40.3729 6.57842 42.5836 10.5324C43.8128 12.8194 44.5733 15.2539 44.8646 17.836C44.7148 18.271 44.5407 18.6965 44.3414 19.1125C44.1393 19.3774 43.9581 19.6562 43.7973 19.9496C43.0611 20.7536 42.1751 21.0114 41.1396 20.7239C41.0195 20.6176 40.9149 20.4991 40.8257 20.3681C40.6889 20.0274 40.5771 19.6784 40.4909 19.3218C40.1849 18.649 39.6618 18.3351 38.9214 18.3801C38.7606 18.4673 38.6075 18.5649 38.461 18.673C37.6808 19.4637 37.2832 20.4192 37.2681 21.54C37.2359 22.2386 37.2501 22.9363 37.31 23.6327C37.4129 24.1618 37.5109 24.692 37.603 25.2232C37.6662 26.6031 37.4288 27.9286 36.8914 29.1993C36.7069 29.5546 36.5114 29.9037 36.3055 30.2456C36.0334 30.5457 35.7614 30.8454 35.4893 31.1455C34.7937 31.6657 34.0194 32.0077 33.1664 32.1709C32.2235 32.0793 31.6237 31.577 31.3667 30.6642C31.3228 30.2373 31.3579 29.8187 31.4714 29.4086Z" fill="#AFFB93"/>
<path fill-rule="evenodd" clip-rule="evenodd" d="M24.0213 0.40387C26.9975 0.248634 29.8712 0.709027 32.6432 1.78505C32.9562 2.86961 33.1864 3.97175 33.3338 5.09151C33.3832 5.78055 33.181 6.38743 32.7269 6.91215C31.9467 7.49773 31.1373 8.04183 30.2994 8.54446C30.1039 8.72635 29.9574 8.94261 29.8599 9.19319C29.6703 9.64233 29.5167 10.1027 29.3995 10.5744C29.2706 10.9474 29.117 11.3101 28.9391 11.6626C28.6712 11.8823 28.3644 12.0218 28.0183 12.0811C27.6115 11.8664 27.1863 11.692 26.7418 11.5579C26.1713 11.4257 25.5996 11.3072 25.0258 11.2022C24.3199 11.2726 23.7968 11.6214 23.4562 12.2485C23.2175 12.9247 23.085 13.6223 23.0586 14.3412C23.1531 15.609 23.2158 16.8786 23.247 18.1499C23.2764 18.4069 23.3321 18.658 23.4144 18.9033C23.6864 19.3917 23.9794 19.8659 24.2933 20.3263C24.7479 20.7671 25.1873 21.2203 25.6117 21.6866C26.1508 22.044 26.6254 22.4768 27.0347 22.9841C27.781 23.6746 28.5277 24.3652 29.2739 25.0558C29.6473 25.569 30.08 26.0294 30.5714 26.437C30.7807 26.7162 30.9899 26.9949 31.1992 27.2741C31.3005 27.4871 31.3633 27.7102 31.3876 27.9437C31.3022 28.5774 31.1837 29.2052 31.0318 29.8272C30.8661 30.9677 31.2917 31.7977 32.3083 32.3175C32.8935 32.5686 33.4794 32.5686 34.0662 32.3175C34.6844 32.0714 35.2561 31.7504 35.7822 31.3548C36.5519 30.6044 37.1169 29.7184 37.4773 28.6971C37.7046 27.8575 37.872 27.0062 37.9795 26.144C38.0047 25.8079 37.9904 25.4731 37.9377 25.1395C37.7925 24.4611 37.6807 23.7772 37.6029 23.0887C37.4911 22.044 37.6029 21.0253 37.9377 20.0334C38.1738 19.5604 38.4877 19.1486 38.8794 18.7987C39.5194 18.6757 39.9588 18.9199 40.1978 19.5311C40.5125 21.1643 41.4404 21.6456 42.9811 20.9751C43.4386 20.7683 43.8224 20.4686 44.1321 20.0752C44.4188 19.6412 44.6837 19.1946 44.9273 18.7359C45.1353 25.3409 42.8405 30.8865 38.0423 35.3728C35.4909 37.6534 32.5473 39.2368 29.2112 40.1232C27.6969 39.6344 27.0481 38.6018 27.2649 37.026C27.3729 36.7682 27.5123 36.5309 27.6835 36.3145C28.0321 35.9659 28.3812 35.6168 28.7298 35.2682C29.1576 34.6659 29.0806 34.1427 28.4996 33.6987C28.043 33.4396 27.555 33.2722 27.0347 33.1964C26.5049 33.1366 25.9746 33.0809 25.4443 33.029C24.3177 32.6979 23.5155 31.9931 23.0377 30.9154C22.8257 30.388 22.6722 29.8439 22.5773 29.2831C22.1714 27.7659 21.3971 26.4755 20.2544 25.4116C19.7809 24.9863 19.2368 24.6796 18.6221 24.4908C17.474 24.1999 16.4835 24.472 15.6505 25.307C15.4102 25.5681 15.194 25.8469 15.0017 26.144C14.603 26.8857 14.2263 27.6391 13.8717 28.4041C13.5958 28.9851 13.1424 29.3408 12.5114 29.4714C11.04 29.3032 10.0983 29.9239 9.6863 31.3339C9.48051 32.2233 9.28522 33.1161 9.10035 34.0126C6.25616 30.6513 4.69363 26.7589 4.41271 22.3353C4.39178 21.5962 4.38479 20.8566 4.39178 20.1171C4.62654 20.1213 4.84975 20.0723 5.06144 19.9706C5.73818 19.6148 6.43572 19.308 7.15414 19.0498C7.62847 18.8126 8.10284 18.5755 8.57717 18.3383C9.11562 17.9923 9.63185 17.6156 10.1258 17.2082C10.7732 16.506 11.129 15.6759 11.193 14.7179C11.2096 14.2289 11.2375 13.7407 11.2768 13.253C11.3887 12.6315 11.6607 12.0944 12.0929 11.6416C12.9997 10.9444 13.8438 10.1701 14.6251 9.31876C15.25 8.31045 15.4453 7.22225 15.211 6.05415C15.0973 5.71764 14.9159 5.42467 14.6669 5.17522C14.4671 4.83139 14.3136 4.46864 14.2065 4.08701C14.1786 3.93354 14.1786 3.7801 14.2065 3.62662C17.209 1.73524 20.4806 0.660978 24.0213 0.40387Z" fill="#93D8FE"/>
<path fill-rule="evenodd" clip-rule="evenodd" d="M31.4714 29.4083C31.5308 29.3242 31.5588 29.2263 31.5551 29.1153C31.661 28.647 31.7095 28.1724 31.7016 27.6923C31.6266 27.3328 31.473 27.0122 31.2412 26.7297C31.0717 26.5463 30.9185 26.3509 30.7808 26.1437C30.2894 25.7361 29.8566 25.2757 29.4833 24.7625C28.8346 24.1695 28.1858 23.5768 27.5371 22.9837C27.2148 22.6757 26.908 22.3547 26.6163 22.0211C26.3932 21.8537 26.1697 21.6863 25.9466 21.5189C25.5628 21.0794 25.1514 20.668 24.712 20.2842C24.2891 19.7597 23.9403 19.1876 23.6656 18.5682C23.6377 18.4287 23.6098 18.2891 23.5819 18.1496C23.5537 16.8919 23.4909 15.6363 23.3936 14.3828C23.4139 13.6457 23.5604 12.9342 23.833 12.2482C24.1604 11.7671 24.614 11.5369 25.1933 11.5576C25.8935 11.6803 26.577 11.8617 27.2441 12.1017C27.9966 12.5459 28.6734 12.4412 29.274 11.7878C29.5415 11.2232 29.7507 10.6373 29.9018 10.03C30.0395 9.67277 30.1927 9.324 30.3622 8.98361C31.1784 8.41858 31.9945 7.85355 32.8107 7.28852C33.3447 6.77464 33.6377 6.14683 33.6896 5.4051C33.5762 4.2326 33.3527 3.08162 33.02 1.95215C37.1848 3.71813 40.3729 6.57818 42.5836 10.5322C43.8128 12.8191 44.5733 15.2536 44.8646 17.8357C44.7148 18.2708 44.5407 18.6963 44.3414 19.1123C44.1393 19.3772 43.9581 19.6559 43.7973 19.9493C43.0611 20.7533 42.1751 21.0112 41.1396 20.7236C41.0195 20.6173 40.9149 20.4989 40.8257 20.3679C40.6889 20.0272 40.5771 19.6781 40.4909 19.3215C40.1849 18.6487 39.6618 18.3348 38.9214 18.3798C38.7606 18.467 38.6075 18.5647 38.461 18.6728C37.6808 19.4634 37.2832 20.4189 37.2681 21.5398C37.2359 22.2383 37.2501 22.936 37.31 23.6325C37.4129 24.1615 37.5109 24.6918 37.603 25.2229C37.6662 26.6029 37.4288 27.9284 36.8914 29.1991C36.7069 29.5544 36.5114 29.9035 36.3055 30.2454C36.0334 30.5455 35.7614 30.8452 35.4893 31.1453C34.7937 31.6655 34.0194 32.0074 33.1664 32.1707C32.2235 32.079 31.6237 31.5768 31.3667 30.6639C31.3228 30.237 31.3579 29.8185 31.4714 29.4083Z" fill="#AFFB93"/>
<path fill-rule="evenodd" clip-rule="evenodd" d="M4.51717 18.9449C4.57183 18.7307 4.59974 18.5075 4.60087 18.2752C5.56766 12.4532 8.41373 7.80045 13.1391 4.31691C13.368 4.17866 13.5912 4.03218 13.8087 3.87744C13.9581 4.65036 14.286 5.33396 14.7923 5.92828C15.1114 7.03536 14.9719 8.08171 14.3738 9.06733C13.688 9.85301 12.9277 10.5576 12.0927 11.1809C11.4766 11.7087 11.0929 12.3714 10.9417 13.169C10.9011 13.7969 10.8592 14.4248 10.8162 15.0524C10.7057 15.7337 10.4267 16.3335 9.9791 16.8522C9.51666 17.2472 9.03534 17.6169 8.53514 17.9613C7.66165 18.4524 6.7548 18.8709 5.81464 19.2169C5.54296 19.3458 5.27786 19.4852 5.01941 19.6354C4.82952 19.7196 4.63419 19.7823 4.43346 19.8238C4.43137 19.5258 4.45924 19.2328 4.51717 18.9449Z" fill="#AFFA93"/>
<path fill-rule="evenodd" clip-rule="evenodd" d="M4.60153 18.2754C4.6004 18.5077 4.57248 18.7309 4.51782 18.9451C4.51263 18.712 4.54055 18.4888 4.60153 18.2754Z" fill="#7CB168"/>
<path fill-rule="evenodd" clip-rule="evenodd" d="M28.5839 34.305C28.6032 34.4297 28.6174 34.5552 28.6258 34.6816C28.6094 34.752 28.5885 34.8219 28.563 34.8909C28.4655 35.0165 28.3675 35.142 28.27 35.2676C27.8778 35.5899 27.5292 35.9527 27.2237 36.3558C26.7813 37.0711 26.7114 37.8245 27.0144 38.6159C27.3362 39.3563 27.8594 39.9075 28.5839 40.2691C22.7864 41.5285 17.4431 40.496 12.5539 37.1719C11.4267 36.3801 10.4012 35.466 9.4776 34.4305C9.44969 34.2074 9.44969 33.9839 9.4776 33.7609C9.61714 33.1188 9.75664 32.4772 9.89614 31.8356C10.031 31.3044 10.2543 30.8164 10.5658 30.3707C10.7907 30.1292 11.0627 29.9689 11.382 29.8894C11.7999 29.8521 12.2184 29.8245 12.6376 29.8057C12.9976 29.7303 13.3184 29.5767 13.6002 29.3453C13.8489 29.0686 14.0651 28.7689 14.2489 28.4454C14.5001 27.9151 14.7512 27.3852 15.0023 26.855C15.2901 26.2464 15.6877 25.7232 16.1952 25.2854C17.1732 24.5928 18.1917 24.5371 19.2505 25.118C20.5077 25.9291 21.3937 27.0383 21.9082 28.4454C22.2083 29.3319 22.4873 30.225 22.7453 31.1241C23.599 32.8246 24.987 33.6269 26.9098 33.5307C27.443 33.5767 27.9314 33.7441 28.3746 34.0329C28.4697 34.1066 28.5391 34.197 28.5839 34.305Z" fill="#AFFB93"/>
<path fill-rule="evenodd" clip-rule="evenodd" d="M31.5554 29.1156C31.5591 29.2265 31.5311 29.3245 31.4716 29.4086C31.4679 29.2977 31.4959 29.1997 31.5554 29.1156Z" fill="#72A460"/>
<path fill-rule="evenodd" clip-rule="evenodd" d="M28.5829 34.3051C28.6658 34.4252 28.6796 34.5507 28.6247 34.6817C28.6164 34.5553 28.6021 34.4298 28.5829 34.3051Z" fill="#71A15E"/>
</g>
<defs>
<filter id="filter0_d_168_755" x="0" y="0" width="49.3251" height="49.136" filterUnits="userSpaceOnUse" color-interpolation-filters="sRGB">
<feFlood flood-opacity="0" result="BackgroundImageFix"/>
<feColorMatrix in="SourceAlpha" type="matrix" values="0 0 0 0 0 0 0 0 0 0 0 0 0 0 0 0 0 0 127 0" result="hardAlpha"/>
<feOffset dy="4"/>
<feGaussianBlur stdDeviation="2"/>
<feComposite in2="hardAlpha" operator="out"/>
<feColorMatrix type="matrix" values="0 0 0 0 0 0 0 0 0 0 0 0 0 0 0 0 0 0 0.25 0"/>
<feBlend mode="normal" in2="BackgroundImageFix" result="effect1_dropShadow_168_755"/>
<feBlend mode="normal" in="SourceGraphic" in2="effect1_dropShadow_168_755" result="shape"/>
</filter>
</defs>
</svg>
