<svg width="23" height="25" fill="none" xmlns="http://www.w3.org/2000/svg"><g filter="url(#a)"><g filter="url(#b)"><path fill-rule="evenodd" clip-rule="evenodd" d="M16.593 6.354a.501.501 0 0 0 0-.708.498.498 0 0 0-.705 0l-4.634 4.647-4.633-4.647a.498.498 0 0 0-.705 0 .501.501 0 0 0 0 .708L10.55 11l-4.633 4.646a.501.501 0 0 0 0 .708c.195.195.51.195.705 0l4.633-4.647 4.634 4.647c.194.195.51.195.705 0a.501.501 0 0 0 0-.708L11.96 11l4.633-4.646Z" fill="#fff"/></g></g><defs><filter id="a" x="-3.714" y="0" width="29.938" height="30" filterUnits="userSpaceOnUse" color-interpolation-filters="sRGB"><feFlood flood-opacity="0" result="BackgroundImageFix"/><feColorMatrix in="SourceAlpha" values="0 0 0 0 0 0 0 0 0 0 0 0 0 0 0 0 0 0 127 0" result="hardAlpha"/><feOffset dy="4"/><feGaussianBlur stdDeviation="2"/><feComposite in2="hardAlpha" operator="out"/><feColorMatrix values="0 0 0 0 0 0 0 0 0 0 0 0 0 0 0 0 0 0 0.25 0"/><feBlend in2="BackgroundImageFix" result="effect1_dropShadow_125_20474"/><feBlend in="SourceGraphic" in2="effect1_dropShadow_125_20474" result="shape"/></filter><filter id="b" x="3.77" y="3.5" width="14.969" height="15" filterUnits="userSpaceOnUse" color-interpolation-filters="sRGB"><feFlood flood-opacity="0" result="BackgroundImageFix"/><feColorMatrix in="SourceAlpha" values="0 0 0 0 0 0 0 0 0 0 0 0 0 0 0 0 0 0 127 0" result="hardAlpha"/><feOffset/><feGaussianBlur stdDeviation="1"/><feComposite in2="hardAlpha" operator="out"/><feColorMatrix values="0 0 0 0 0 0 0 0 0 0 0 0 0 0 0 0 0 0 0.5 0"/><feBlend in2="BackgroundImageFix" result="effect1_dropShadow_125_20474"/><feBlend in="SourceGraphic" in2="effect1_dropShadow_125_20474" result="shape"/></filter></defs></svg>