<svg width="30" height="25" fill="none" xmlns="http://www.w3.org/2000/svg"><path d="M22.874.087c-.134.06-.344.108-.495.108-.14 0-.365.033-.49.076-.128.038-.332.098-.45.136-.124.032-.253.097-.291.14-.038.044-.15.082-.253.082-.339 0-.785.168-.978.363a1.667 1.667 0 0 1-.34.265c-.08.044-.209.174-.284.288a1.07 1.07 0 0 1-.188.25c-.033.015-.092.118-.13.216a.83.83 0 0 1-.295.32c-.29.19-.382.38-.382.824 0 .308-.021.4-.14.574-.118.173-.156.195-.242.146-.145-.075-1.322-.27-1.554-.254a.658.658 0 0 1-.338-.087c-.092-.065-.323-.12-.635-.152-.365-.032-.527-.076-.65-.168-.189-.14-.565-.157-.829-.038-.145.065-.193.06-.349-.01-.296-.142-.844-.174-1.172-.077l-.29.087-.221-.255a3.927 3.927 0 0 1-.35-.471 4.013 4.013 0 0 0-.338-.46c-.113-.13-.205-.256-.205-.283 0-.092-.37-.265-.57-.265-.204 0-.327-.07-.844-.45C9.367.846 8.845.726 8.507.753 8.259.775 8.173.76 7.996.65 7.765.51 7.544.488 7.302.596 7.173.65 7.12.65 7.006.591c-.21-.109-.403-.087-.78.092-.187.087-.381.163-.43.163-.048 0-.188.054-.311.119-.124.06-.339.146-.479.179-.166.048-.387.184-.656.4-.22.185-.44.331-.49.331-.16 0-.375.158-.617.456-.135.162-.312.325-.398.363a1.964 1.964 0 0 0-.382.265 3.97 3.97 0 0 1-.414.315.974.974 0 0 0-.29.32c-.054.108-.14.238-.183.287-.447.504-.527.672-.597 1.208-.038.304-.07.396-.183.483-.22.173-.473.726-.484 1.073-.01.184-.07.417-.161.623-.086.18-.15.396-.15.488-.006.38.07 1.263.118 1.431a.733.733 0 0 1 .026.314c-.053.201.124.591.355.792.113.097.226.244.248.33.048.212.355.504.57.548.096.016.306.097.467.173.253.13.312.136.5.087.183-.049.248-.043.388.038.242.14.855.179 1.097.076.236-.098.268-.109.806-.184.226-.033.462-.093.532-.136l.124-.081v.417c0 .363.022.472.161.748.21.423.21.531-.01.613-.205.07-1.355 1.235-1.415 1.425a.983.983 0 0 1-.193.282c-.086.087-.156.184-.156.217 0 .037-.06.184-.134.336a1.99 1.99 0 0 0-.135.325c0 .081-.263.569-.473.873-.091.14-.172.303-.172.357 0 .054-.065.2-.14.32-.204.325-.21.504-.048.943.123.33.14.428.113.759-.017.206-.006.515.021.677.07.353.07.363.022.553a.771.771 0 0 0 .188.683.706.706 0 0 1 .193.396c.033.2.086.282.371.536.178.163.474.445.651.63.398.4.737.671 1.032.828.124.06.253.163.285.223.033.054.172.184.312.276.14.098.307.238.371.32.15.19.334.255.78.293.204.016.44.075.564.14.22.12.42.136.635.055.108-.044.156-.033.247.06.172.173.355.216.796.178.36-.032.43-.021.608.087.183.108.274.12.833.108.667-.005 1.102.027 1.28.109.059.021.15.06.204.075.156.055.774-.064.968-.184.226-.14.366-.135.672.027.301.163.484.168.753.038.161-.081.317-.097.871-.086.371.005.952-.011 1.29-.038.34-.033.78-.06.98-.065.295-.011.38-.033.494-.141.113-.109.166-.12.37-.092.135.021.302.01.393-.028.086-.032.409-.06.715-.054.49 0 .581-.01.802-.13.14-.076.322-.135.403-.135.166 0 .333-.07.494-.217.07-.065.221-.109.43-.125a2.17 2.17 0 0 0 .485-.081c.091-.027.295-.098.457-.152.161-.049.381-.168.489-.26.194-.168.29-.233.887-.575.377-.216.543-.352.586-.482.016-.054.113-.125.215-.163.226-.08.382-.27.457-.552.033-.12.081-.212.102-.212.076 0 .382-.493.382-.607 0-.054.049-.168.108-.25.156-.21.473-1.593.414-1.766-.016-.033.01-.13.059-.222.113-.233.054-1.111-.097-1.366-.075-.136-.107-.282-.107-.537 0-.276-.033-.422-.162-.699-.086-.19-.182-.358-.21-.374a1.275 1.275 0 0 1-.166-.27.86.86 0 0 0-.747-.467c-.172 0-.172-.005-.135-.179.027-.092.038-.27.032-.385a.675.675 0 0 1 .076-.347c.048-.07.096-.282.113-.46.01-.206.059-.374.113-.434.07-.081.09-.195.086-.493-.022-1.138-.027-1.111.193-.878a.567.567 0 0 0 .274.168c.081.022.178.07.21.114a.787.787 0 0 0 .28.135c.172.043.263.038.478-.038.253-.092.264-.092.377.011.096.087.21.103.683.12.483.01.59-.006.747-.098a.772.772 0 0 1 .28-.109c.09 0 .3-.14.698-.471.103-.082.216-.233.259-.336a.76.76 0 0 1 .204-.282c.231-.184.258-.358.188-1.117-.032-.38-.054-.78-.043-.883.006-.103.01-.412 0-.688-.01-.423-.038-.548-.172-.84-.091-.19-.161-.434-.161-.543a.54.54 0 0 0-.135-.357.605.605 0 0 1-.134-.32c0-.087-.049-.25-.108-.369a1.025 1.025 0 0 1-.107-.325c0-.12-.124-.336-.258-.444-.054-.044-.086-.18-.097-.39-.01-.37-.065-.483-.296-.678a.797.797 0 0 1-.22-.342c-.06-.21-.21-.4-.882-1.073-.237-.238-.506-.542-.592-.672a1.258 1.258 0 0 0-.29-.325.839.839 0 0 1-.215-.195c-.242-.336-.414-.466-.71-.548a2.317 2.317 0 0 1-.494-.19c-.14-.08-.323-.118-.683-.14-.409-.022-.533-.054-.694-.157-.28-.19-.516-.212-.801-.076Zm.817 2.124c.086.033.296.044.516.022l.371-.038.328.33c.183.18.355.326.382.326.022 0 .06.098.08.217.044.265.318.607.678.856.146.098.296.244.339.325.043.082.13.19.188.239.06.049.135.184.162.303a.796.796 0 0 0 .166.31c.06.054.108.135.108.184 0 .048.037.14.08.211.065.087.076.184.049.39-.032.239-.016.315.166.678.108.222.221.406.248.406.027 0 .048.065.048.147 0 .216.145.672.264.829.086.12.096.244.102.791 0 .412.027.732.07.857.064.178.059.222-.033.4-.128.245-.306.283-.596.125a.908.908 0 0 0-.366-.114c-.167 0-.484-.086-.624-.168-.247-.146-.688-.325-.882-.357a2.482 2.482 0 0 1-.5-.157c-.15-.07-.311-.13-.35-.13-.117 0-.435-.13-.634-.26a.78.78 0 0 0-.457-.12c-.145 0-.387-.01-.537-.027-.42-.049-.748.206-.818.64-.021.151.017.287.215.699.135.276.264.607.28.731.022.125.086.293.14.364.091.113.097.168.054.33-.06.222 0 .493.156.694.118.152.091.309-.113.7-.06.108-.119.351-.135.541a2.26 2.26 0 0 1-.156.618c-.075.152-.145.38-.166.499-.07.428-.006.515 1.263 1.767.403.4.49.515.49.645 0 .092.026.244.059.336.048.13.048.287 0 .655a9.447 9.447 0 0 0-.081.754c-.01.163-.06.347-.129.46a.864.864 0 0 0-.118.38c0 .108-.049.282-.103.396-.155.303-.677.85-.817.85-.172 0-.457.196-.586.413-.064.097-.145.184-.183.184a1.14 1.14 0 0 0-.274.108c-.118.06-.285.109-.37.109-.21 0-.824.249-1.017.412-.194.168-.516.249-.785.205-.167-.027-.274-.005-.473.093a1.35 1.35 0 0 1-.581.135 6.314 6.314 0 0 0-1.29.195 2.049 2.049 0 0 1-.35.054 19.667 19.667 0 0 1-1.619-.092c-.247-.032-.333-.021-.521.076a1.106 1.106 0 0 1-.43.114 5.29 5.29 0 0 0-.414 0c-.119.006-.307.01-.414.006-.71-.028-1.377 0-2.049.075-.263.027-.328.017-.446-.075a.742.742 0 0 0-.678-.12c-.15.049-.215.044-.36-.027-.129-.065-.258-.081-.479-.06-.236.028-.338.011-.51-.08-.172-.087-.29-.104-.57-.087-.312.021-.382.005-.565-.114-.172-.114-.274-.141-.532-.136-.307.006-.328 0-.506-.2a.745.745 0 0 0-.462-.266c-.414-.092-.63-.217-.812-.477a3.519 3.519 0 0 0-.49-.51c-.182-.157-.343-.346-.376-.45a1.806 1.806 0 0 0-.215-.368c-.123-.152-.156-.255-.166-.51-.011-.173-.033-.558-.049-.856a8.595 8.595 0 0 1-.032-.623c0-.163.14-.575.253-.732.059-.092.15-.27.199-.412.15-.4.29-.64.44-.764a.84.84 0 0 0 .22-.293c.044-.097.12-.19.178-.211.13-.038.253-.222.36-.553.119-.352.264-.547.48-.634a.724.724 0 0 0 .268-.217c.054-.076.134-.14.183-.14.145 0 .425-.201.516-.375a.96.96 0 0 0 .08-.341c0-.174.011-.179.232-.19.317-.022.828-.217 1.108-.433.129-.098.268-.18.306-.18.038 0 .188-.118.339-.265.15-.146.35-.282.44-.303.178-.038.533-.364.533-.488 0-.044.086-.103.194-.13a.856.856 0 0 0 .29-.141c.054-.049.177-.13.28-.18a1.06 1.06 0 0 0 .3-.28.987.987 0 0 1 .34-.294c.225-.103.817-.742.881-.948.016-.06.183-.222.366-.358.344-.265.591-.574.812-1.03.075-.151.204-.314.285-.363.15-.087.5-.666.5-.818 0-.044.038-.114.091-.152.156-.13.296-.531.264-.726a.609.609 0 0 1 .059-.38l.091-.195.355.033c.194.021.457.086.586.151.14.066.355.114.516.114.194.006.312.038.42.125.183.14.414.2.624.152.129-.027.172-.011.22.076.124.233.866.51 1.382.515.425.005.688-.32.747-.933.032-.27.016-.357-.07-.515-.22-.374-.29-.731-.177-.878.021-.032.07-.184.113-.347a.995.995 0 0 1 .247-.466c.097-.097.194-.249.21-.336.021-.114.102-.206.28-.32.134-.086.306-.2.381-.249a.63.63 0 0 1 .28-.092c.075-.005.258-.07.403-.152.145-.076.36-.157.479-.179.285-.048 1.145-.005 1.333.065Zm-15.598.542c.247.038.575.065.736.06.264-.005.301.01.447.173.086.103.198.201.252.217.054.017.15.13.215.25.07.124.21.27.307.33.172.103.183.125.183.418 0 .168-.022.39-.054.493-.086.293.01.542.306.797.328.276.457.341.662.341.247 0 .451-.13.65-.406.097-.136.205-.244.242-.244.043 0 .178-.055.312-.114l.237-.12.382.125c.21.07.381.147.381.168 0 .027-.059.136-.134.244-.075.109-.135.239-.135.287 0 .055-.059.174-.134.277-.075.103-.134.217-.134.255 0 .103-.436.959-.5.986-.13.049-.544.542-.662.797-.086.184-.22.347-.403.488-.15.113-.366.292-.473.384-.113.098-.29.196-.387.212-.264.049-.673.325-.807.542-.06.103-.134.184-.156.184-.027 0-.156.108-.28.239-.129.13-.322.265-.435.303a.865.865 0 0 0-.371.277c-.091.113-.204.21-.253.21-.048 0-.231.071-.408.158-.178.087-.334.136-.34.109-.01-.028.033-.152.092-.282.076-.163.119-.38.135-.76.016-.292.053-.574.086-.633a.842.842 0 0 0 .053-.298c0-.125.049-.26.135-.374.183-.244.215-.456.113-.813-.113-.38-.355-.591-.694-.597-.382-.005-1.269.407-1.565.727-.198.216-.892.731-1.043.78-.166.054-.43.293-.521.466-.097.185-.264.228-.914.239-.382.005-.522-.017-.662-.092-.091-.06-.172-.136-.172-.18 0-.037-.107-.189-.236-.335l-.232-.266.027-.428c.022-.32.054-.466.14-.58.08-.114.113-.238.113-.46a1 1 0 0 1 .145-.554c.2-.336.312-.623.312-.78 0-.266.339-.786.516-.791.108 0 .603-.52.64-.667.027-.103.102-.173.269-.25a.67.67 0 0 0 .328-.287c.145-.287.333-.482.575-.607a.923.923 0 0 0 .334-.287c.204-.32.484-.401 1.054-.314.172.027.29.016.376-.033.161-.092.688-.152.812-.092.054.027.296.076.538.108Z" fill="#767676"/><path d="M9.975 13.268c-.173.076-.259.157-.318.298-.07.18-.07.223.022.5.097.303.097.303.398.378.36.093.505.06.736-.162.162-.152.172-.19.15-.418-.02-.292-.155-.585-.3-.66-.15-.082-.43-.06-.688.064ZM15.421 13.48c-.247.07-.451.422-.419.715.06.444.505.748.914.607.167-.054.231-.125.355-.358.08-.157.145-.341.145-.4 0-.163-.193-.548-.296-.591-.123-.044-.505-.033-.699.027ZM12.33 15.588a1.343 1.343 0 0 1-.307.049c-.333.01-.505.363-.306.645a.85.85 0 0 0 .306.222c.382.179.468.309.441.683-.113 1.507-.091 1.664.21 1.664.3.005.425-.26.516-1.068.021-.233.032-.526.021-.645-.021-.222.043-.368.253-.58.054-.054.102-.13.102-.157 0-.032.054-.13.119-.217.096-.135.107-.184.053-.292a.532.532 0 0 0-.182-.212c-.14-.092-1.017-.152-1.226-.092Z" fill="#767676"/></svg>