<svg width="24" height="23" viewBox="0 0 24 23" fill="none" xmlns="http://www.w3.org/2000/svg">
<path d="M12 12.4404C12.5523 12.4404 13 12.0205 13 11.5026C13 10.9846 12.5523 10.5647 12 10.5647C11.4477 10.5647 11 10.9846 11 11.5026C11 12.0205 11.4477 12.4404 12 12.4404Z" fill="#767676" stroke="#767676" stroke-linecap="round" stroke-linejoin="round"/>
<path d="M12 5.87547C12.5523 5.87547 13 5.45557 13 4.93761C13 4.41965 12.5523 3.99976 12 3.99976C11.4477 3.99976 11 4.41965 11 4.93761C11 5.45557 11.4477 5.87547 12 5.87547Z" fill="#767676" stroke="#767676" stroke-linecap="round" stroke-linejoin="round"/>
<path d="M12 19.0053C12.5523 19.0053 13 18.5855 13 18.0675C13 17.5495 12.5523 17.1296 12 17.1296C11.4477 17.1296 11 17.5495 11 18.0675C11 18.5855 11.4477 19.0053 12 19.0053Z" fill="#767676" stroke="#767676" stroke-linecap="round" stroke-linejoin="round"/>
</svg>
