<svg width="25" height="25" viewBox="0 0 25 25" fill="none" xmlns="http://www.w3.org/2000/svg">
<path d="M18.8036 0.020607C18.7724 0.0317764 18.6939 0.0443401 18.629 0.0485287C18.5081 0.0569057 18.4857 0.0569057 18.265 0.051321C18.1104 0.0471325 18.0431 0.0694695 17.921 0.161612C17.8387 0.224438 17.8387 0.225832 17.7776 0.20908C17.6791 0.18395 17.5407 0.189535 17.4535 0.223042C17.3949 0.245378 17.3425 0.253756 17.2328 0.255152C17.1081 0.257942 17.0795 0.262131 17.0109 0.294241C16.9673 0.315184 16.9062 0.352877 16.8738 0.379404L16.8152 0.42687L16.6818 0.419889C16.5659 0.414305 16.5359 0.417097 16.4586 0.445021C16.41 0.463169 16.3365 0.50226 16.2953 0.53437C16.2018 0.60557 16.1856 0.615343 16.0921 0.662811C16.041 0.687941 15.9899 0.732615 15.9326 0.798231L15.8465 0.894562L15.7393 0.914108C15.6321 0.932257 15.5424 0.962971 15.4938 0.997873C15.4788 1.00765 15.4239 1.01463 15.3504 1.01323C15.2008 1.01184 15.1247 1.03976 14.8704 1.18355C14.7121 1.2729 14.671 1.30362 14.6024 1.3804C14.5563 1.43206 14.5089 1.50326 14.4915 1.54375C14.4565 1.62751 14.4366 1.63868 14.297 1.64985C14.1362 1.66381 13.9666 1.76573 13.8794 1.90254C13.8557 1.93884 13.8282 1.96676 13.8145 1.96676C13.7709 1.96676 13.64 2.024 13.5727 2.07147C13.5365 2.098 13.4655 2.16222 13.4156 2.21527C13.3657 2.26832 13.2947 2.32975 13.2573 2.35209C13.1663 2.40653 13.069 2.51962 13.0154 2.6341C12.9419 2.78906 12.8833 2.86306 12.806 2.89377C12.6739 2.94543 12.5604 3.05153 12.4881 3.18974C12.4682 3.22744 12.4258 3.28887 12.3921 3.32656C12.3572 3.36705 12.3136 3.43964 12.2874 3.50107C12.2625 3.55971 12.2213 3.6337 12.1951 3.66581C12.1029 3.77889 12.0468 3.95061 12.0468 4.11675V4.20889L11.9782 4.2759C11.9184 4.33315 11.9084 4.33873 11.9022 4.31639C11.8511 4.14188 11.7401 3.99669 11.5968 3.91571C11.5456 3.88779 11.4746 3.83055 11.4334 3.78727C11.3537 3.70211 11.2627 3.64906 11.1517 3.62393C11.0956 3.61136 11.0657 3.59321 11.0183 3.54714C10.9074 3.43685 10.7303 3.36286 10.5795 3.36286C10.5508 3.36286 10.5159 3.34471 10.4661 3.30283C10.4274 3.27072 10.3713 3.23162 10.3414 3.21766C10.3065 3.19951 10.2791 3.17299 10.2591 3.1325C10.2417 3.10179 10.2055 3.04874 10.1768 3.01663C10.1444 2.97893 10.1157 2.92448 10.097 2.86864C10.0434 2.70111 9.93873 2.57686 9.78539 2.49588C9.71682 2.45959 9.67693 2.44981 9.58094 2.44143C9.51362 2.43585 9.43882 2.42049 9.41389 2.40793C9.38771 2.39536 9.33785 2.37861 9.30169 2.37024C9.26554 2.36186 9.18451 2.32696 9.12093 2.29205C9.01247 2.23063 9.00125 2.22783 8.87784 2.22085L8.74943 2.21527L8.6684 2.12731C8.56867 2.02121 8.49512 1.97793 8.32932 1.93047C8.22086 1.89836 8.18595 1.89417 8.09121 1.90115C7.99771 1.90813 7.97028 1.90533 7.91668 1.8816C7.88053 1.86625 7.82193 1.8467 7.78329 1.83972C7.74589 1.83134 7.66984 1.80063 7.61499 1.76991C7.45168 1.67917 7.32452 1.668 7.13753 1.72803C6.94181 1.78946 6.9443 1.78946 6.86077 1.74478C6.74858 1.68475 6.64012 1.668 6.47806 1.68475C6.40326 1.69313 6.31973 1.70849 6.29106 1.71965C6.2412 1.7392 6.23745 1.7378 6.17886 1.69732C6.14645 1.67358 6.07165 1.6317 6.01306 1.60518C5.91333 1.55771 5.89962 1.55491 5.76997 1.55491C5.64779 1.55631 5.62411 1.5605 5.55554 1.59401C5.4982 1.62193 5.45706 1.6317 5.39847 1.6317C5.35483 1.6317 5.28876 1.64147 5.25136 1.65404C5.18903 1.67498 5.17532 1.67498 5.06935 1.65264C4.9397 1.62472 4.86615 1.6303 4.74772 1.67498C4.67666 1.70151 4.62804 1.73501 4.47595 1.86485C4.39492 1.93326 4.24159 2.00306 4.13687 2.01702C4.00098 2.03517 3.85637 2.10777 3.78158 2.19712C3.75664 2.22644 3.74168 2.23202 3.67437 2.23202C3.53723 2.23202 3.38639 2.30183 3.26671 2.42189C3.24178 2.44842 3.2156 2.46936 3.20937 2.46936C3.20314 2.46936 3.17072 2.4917 3.13831 2.51962C3.10714 2.54754 3.05105 2.57965 3.01614 2.59082C2.98123 2.60199 2.93261 2.62293 2.90768 2.63828C2.88275 2.65225 2.81668 2.67039 2.76183 2.67738C2.56112 2.7053 2.419 2.81559 2.2881 3.04176C2.2507 3.10737 2.18962 3.19114 2.15347 3.22744C2.11607 3.26513 2.06869 3.32377 2.0475 3.35727C2.02755 3.39078 2.00138 3.4187 1.99016 3.4187C1.97894 3.4187 1.93032 3.43964 1.8817 3.46617C1.71964 3.55412 1.59372 3.7426 1.56131 3.94503C1.55009 4.01902 1.54386 4.03019 1.50521 4.05392C1.43041 4.0986 1.32819 4.23263 1.27957 4.3499C1.25464 4.40993 1.20851 4.48951 1.1761 4.5286C1.10754 4.61097 1.04645 4.74779 1.029 4.85668C1.00282 5.01583 0.966665 5.09402 0.868181 5.2057C0.76097 5.32716 0.696144 5.457 0.676198 5.59661C0.668718 5.64687 0.652512 5.71528 0.640046 5.75018C0.627579 5.78508 0.611373 5.8507 0.602647 5.89537C0.59392 5.94145 0.570234 6.01544 0.550288 6.06011C0.530341 6.10619 0.504162 6.19414 0.494189 6.25696C0.482969 6.31979 0.461776 6.40216 0.446817 6.44125C0.404431 6.54596 0.385731 6.67021 0.394458 6.79865L0.401938 6.90894L0.353319 6.98293C0.294727 7.06809 0.258574 7.16722 0.234888 7.31241C0.224915 7.37105 0.209955 7.45342 0.202475 7.4953C0.183776 7.59721 0.197489 7.7452 0.234888 7.84851L0.264807 7.93228L0.233641 8.00208C0.216188 8.03978 0.193749 8.11517 0.183776 8.16822C0.173803 8.22267 0.155103 8.28968 0.142637 8.3176C0.13017 8.34552 0.0952644 8.43348 0.0665917 8.51445C-0.0244129 8.76714 -0.0156865 8.9598 0.0940178 9.16503C0.138897 9.2488 0.142637 9.26276 0.13765 9.33535C0.135157 9.38003 0.116457 9.45542 0.0977577 9.50568C0.0578652 9.61038 0.0416589 9.79746 0.0354257 10.2121C0.0341791 10.3447 0.0291925 10.4578 0.024206 10.4662C0.0204661 10.4732 0.0117396 10.5206 0.00550641 10.5723C-0.0156865 10.7356 0.0254526 10.9255 0.108977 11.0484C0.125184 11.0721 0.142637 11.1196 0.147623 11.1531C0.15261 11.188 0.167569 11.2466 0.180036 11.2857C0.198735 11.3387 0.202475 11.375 0.196242 11.4393C0.191256 11.4951 0.196242 11.5579 0.209955 11.6277C0.261067 11.8846 0.264807 11.9237 0.246108 12.0131C0.213695 12.1666 0.232395 12.323 0.303453 12.4794C0.323399 12.5254 0.340852 12.5715 0.340852 12.5827C0.340852 12.6706 0.512888 13.1439 0.5827 13.2458C0.611373 13.2891 0.615113 13.3072 0.615113 13.4078C0.615113 13.5348 0.637552 13.6479 0.682431 13.747C0.698638 13.7833 0.716091 13.8447 0.721077 13.8824C0.743517 14.0556 0.827042 14.2203 0.942979 14.3208C1.0477 14.4116 1.06764 14.4618 1.07014 14.6433C1.07388 14.8429 1.10504 14.9393 1.21475 15.0901C1.23968 15.125 1.26461 15.1752 1.26835 15.2017C1.3045 15.4 1.37806 15.5633 1.47903 15.6722C1.5476 15.7448 1.55757 15.763 1.57876 15.8509C1.60494 15.9654 1.64608 16.0492 1.71839 16.1371C1.78321 16.2167 1.85926 16.3368 1.87547 16.3856C1.89042 16.4303 2.00262 16.6258 2.09612 16.7696C2.13103 16.824 2.16095 16.8799 2.16095 16.8924C2.16095 16.905 2.18089 16.9594 2.20458 17.0125C2.26068 17.1367 2.36664 17.2526 2.48008 17.3126C2.52621 17.3364 2.59976 17.3866 2.64339 17.4229C2.68578 17.4592 2.7531 17.5011 2.79174 17.5151C2.85034 17.536 2.8653 17.5472 2.88649 17.5933C2.91392 17.6547 3.10714 17.885 3.1595 17.9199C3.18444 17.9367 3.19815 17.9632 3.21311 18.0274C3.22558 18.0749 3.25175 18.1433 3.27295 18.1824C3.33403 18.2927 3.46742 18.4505 3.55219 18.5119C3.61328 18.5566 3.63946 18.5873 3.67811 18.6599C3.70428 18.7101 3.75664 18.7827 3.79404 18.8218C3.86011 18.8888 3.99101 18.9712 4.03215 18.9712C4.04462 18.9712 4.06955 19.0103 4.09698 19.0745C4.15307 19.2002 4.2553 19.3188 4.36002 19.3761C4.39991 19.3998 4.44105 19.418 4.44977 19.418C4.4585 19.418 4.48219 19.4431 4.50213 19.4752C4.57693 19.5883 4.6991 19.6818 4.82127 19.7167C4.86117 19.7293 4.89607 19.7404 4.89732 19.7418C4.89856 19.7446 4.91726 19.774 4.93721 19.8089C4.98334 19.8856 5.07185 19.9792 5.12919 20.0127C5.15288 20.0253 5.20274 20.0685 5.24139 20.1076C5.36231 20.2319 5.50318 20.2975 5.65777 20.2975C5.75376 20.2989 5.77994 20.3226 5.8485 20.4818C5.90211 20.6046 5.89588 20.599 6.13149 20.8308C6.29106 20.9872 6.47058 21.0542 6.64885 21.0221C6.69871 21.0137 6.73985 21.0095 6.7411 21.0123C6.74234 21.0137 6.76478 21.0667 6.79221 21.1282C6.87324 21.3166 7.02034 21.4451 7.19986 21.487C7.26967 21.5037 7.27591 21.5079 7.32951 21.5903C7.44545 21.7662 7.58507 21.8458 7.79575 21.8583L7.92665 21.8653L7.98774 21.9253C8.0214 21.9588 8.08622 22.0049 8.1311 22.03C8.17598 22.0552 8.2433 22.104 8.28194 22.1375C8.31934 22.1724 8.38167 22.2157 8.41907 22.2339C8.45647 22.2534 8.51382 22.2813 8.54623 22.2967C8.58363 22.3162 8.62851 22.3553 8.66715 22.4056C8.70206 22.4503 8.75816 22.5061 8.79307 22.5312C8.8928 22.6024 9.07231 22.6722 9.17952 22.6806L9.27302 22.689L9.37649 22.7979C9.52858 22.9584 9.67943 23.0338 9.85146 23.0338C9.88387 23.0338 9.94371 23.0464 9.98485 23.0618C10.0472 23.0855 10.0721 23.105 10.1207 23.1693C10.1943 23.2628 10.3077 23.348 10.4012 23.3773C10.4386 23.3898 10.4947 23.4178 10.5259 23.4387C10.5982 23.4904 10.7278 23.556 10.8213 23.5867C10.8675 23.6034 10.9148 23.6328 10.9547 23.6719C11.0295 23.7472 11.143 23.8073 11.2489 23.831C11.2951 23.8408 11.3512 23.8645 11.3823 23.8896C11.4123 23.912 11.4684 23.9427 11.507 23.9581C11.5619 23.979 11.5968 24.0069 11.6591 24.0781C11.8187 24.2596 12.0206 24.328 12.2276 24.268C12.2687 24.2568 12.3148 24.2429 12.3285 24.2387C12.3747 24.2261 12.4831 24.3196 12.5442 24.4243C12.5741 24.4746 12.629 24.543 12.6676 24.5779C12.7374 24.6393 12.8721 24.7092 12.9194 24.7092C12.9332 24.7092 12.9743 24.7399 13.0117 24.7776C13.1713 24.9395 13.2523 24.9674 13.6437 24.9967C13.7547 25.0065 13.7883 24.9981 14.0277 24.9172C14.1125 24.8879 14.2135 24.8208 14.2696 24.7538C14.3007 24.7175 14.3119 24.7133 14.3518 24.7189C14.4304 24.7315 14.7308 24.6966 14.8069 24.6673C14.8455 24.6533 14.9066 24.6184 14.944 24.5905C14.9801 24.564 15.0412 24.5291 15.0786 24.5151C15.1696 24.4802 15.2419 24.4383 15.2905 24.3908C15.3205 24.3615 15.3554 24.3462 15.4227 24.3336C15.576 24.3029 15.7219 24.2024 15.8042 24.0683C15.8241 24.0362 15.8503 24.0111 15.8615 24.0111C15.874 24.0111 15.9226 23.9888 15.9712 23.9622C16.0872 23.8966 16.1856 23.7863 16.243 23.6551L16.2879 23.5546L16.3639 23.5462C16.4686 23.5364 16.5708 23.4904 16.6631 23.4122C16.7055 23.3759 16.7653 23.3298 16.7965 23.3103C16.8688 23.2628 16.9586 23.1567 17.0084 23.0576C17.0346 23.0031 17.0658 22.9668 17.1081 22.9361C17.168 22.8928 17.3076 22.7365 17.3076 22.7127C17.3076 22.7058 17.3487 22.6778 17.3999 22.6513C17.4684 22.6136 17.5308 22.5634 17.6342 22.4559C17.7128 22.3763 17.7901 22.2883 17.8075 22.2604C17.8237 22.2325 17.8686 22.1822 17.9072 22.1487C17.9459 22.1152 17.992 22.0636 18.0107 22.0342C18.0942 21.9016 18.2052 21.702 18.2052 21.688C18.2052 21.6475 18.2563 21.6098 18.3087 21.6098C18.4695 21.6098 18.659 21.4981 18.755 21.3474C18.7774 21.3111 18.8073 21.2734 18.8223 21.2622C18.836 21.2524 18.8871 21.198 18.9345 21.1435C18.9831 21.0891 19.0504 21.0235 19.0866 20.9983C19.1539 20.9495 19.2449 20.8489 19.2823 20.7791C19.2948 20.7554 19.3322 20.7149 19.3646 20.6856C19.397 20.6577 19.4506 20.5893 19.483 20.532C19.5167 20.4762 19.5678 20.4008 19.5977 20.3631C19.6463 20.3059 19.6825 20.2305 19.7361 20.0839C19.7435 20.0629 19.7573 20.0462 19.766 20.0462C19.7747 20.0462 19.8171 20.028 19.8607 20.0043C20.0228 19.9191 20.1499 19.7237 20.1786 19.5171C20.1911 19.4207 20.1936 19.4166 20.2447 19.383C20.307 19.3426 20.4043 19.2253 20.4392 19.1471C20.4541 19.115 20.4753 19.055 20.4865 19.0131C20.5077 18.9391 20.5115 18.9349 20.5987 18.886C20.7558 18.7967 20.8668 18.6459 20.9166 18.4519C20.9279 18.4072 20.9416 18.3681 20.949 18.3639C20.9553 18.3597 20.9827 18.3122 21.0114 18.2592C21.055 18.1754 21.0675 18.1615 21.0974 18.1615C21.1173 18.1615 21.1672 18.1489 21.2083 18.1349C21.4514 18.0498 21.621 17.7887 21.621 17.4969C21.621 17.4229 21.6272 17.3992 21.6646 17.3308C21.6883 17.2861 21.7182 17.2121 21.7332 17.1647C21.7581 17.0823 21.7606 17.0781 21.8279 17.046C21.9788 16.972 22.0972 16.8254 22.1471 16.6495C22.1658 16.5825 22.1932 16.5238 22.2306 16.4722C22.3141 16.3549 22.369 16.193 22.369 16.0617C22.369 16.0199 22.3764 16.0087 22.4313 15.9696C22.4662 15.9445 22.5198 15.8928 22.551 15.8537C22.6208 15.7672 22.7604 15.4516 22.7891 15.3176C22.809 15.2269 22.8128 15.2199 22.8813 15.1627C22.9611 15.097 23.0384 14.9784 23.0808 14.8555C23.1045 14.7913 23.1095 14.748 23.1095 14.6293L23.1107 14.4814L23.1581 14.4199C23.1843 14.385 23.2154 14.339 23.2254 14.3166C23.2354 14.2943 23.2902 14.2273 23.3463 14.1658C23.4012 14.1058 23.476 14.0248 23.5121 13.9857C23.6131 13.8769 23.6779 13.7023 23.6779 13.5376C23.6779 13.4678 23.6842 13.4482 23.7191 13.3966C23.7415 13.3631 23.7727 13.3045 23.7876 13.264C23.8188 13.183 23.8525 12.9624 23.8525 12.834C23.8525 12.76 23.8587 12.7362 23.8961 12.6664C23.921 12.6218 23.9497 12.5785 23.9622 12.5715C24.0145 12.5394 24.103 12.4445 24.1429 12.3774C24.2202 12.2448 24.2414 12.1597 24.2477 11.9419C24.2589 11.6249 24.2564 11.5258 24.2414 11.477C24.2277 11.4309 24.2277 11.4295 24.305 11.3485C24.3997 11.2508 24.5182 11.0679 24.5543 10.9688C24.5917 10.8641 24.593 10.6212 24.5568 10.5109C24.5331 10.4411 24.5319 10.4271 24.5468 10.3503C24.5643 10.2624 24.5593 10.1381 24.5356 10.0474C24.5219 9.9971 24.5244 9.99291 24.5718 9.93428C24.6378 9.8547 24.6765 9.77792 24.7326 9.61736C24.775 9.4959 24.78 9.47357 24.78 9.34513C24.78 9.23623 24.7737 9.18737 24.7538 9.12594C24.7276 9.04636 24.7276 9.04496 24.7513 9.01146C24.7937 8.95143 24.8473 8.80344 24.8622 8.7099C24.871 8.65406 24.8909 8.59403 24.9146 8.55214C25.0293 8.35111 25.028 8.04815 24.9134 7.84712C24.8585 7.75079 24.851 7.65166 24.8884 7.53579C24.9283 7.41153 24.9296 7.20072 24.8909 7.09183C24.8672 7.029 24.8647 6.99969 24.871 6.90335C24.8772 6.80563 24.8722 6.76654 24.8386 6.61716C24.7887 6.39518 24.7887 6.32537 24.8373 6.22206C24.9321 6.02242 24.937 5.80602 24.8523 5.59103C24.8348 5.55054 24.8248 5.4947 24.8248 5.45002C24.8248 5.33414 24.7687 5.04515 24.7313 4.97116C24.7126 4.93486 24.6765 4.84272 24.6491 4.76593C24.573 4.54954 24.5419 4.48811 24.4571 4.39178C24.3923 4.31779 24.3785 4.29266 24.3711 4.241C24.3611 4.1698 24.3062 4.04136 24.2514 3.96318C24.2302 3.93386 24.2053 3.87383 24.1953 3.83055C24.1666 3.7063 24.1043 3.58623 24.027 3.50107C23.9871 3.45779 23.951 3.40753 23.946 3.38938C23.9086 3.25396 23.7976 3.10319 23.6804 3.0278C23.6181 2.98731 23.5994 2.96637 23.5757 2.90913C23.5283 2.79604 23.4112 2.67319 23.2865 2.60757C23.2279 2.57686 23.1793 2.54614 23.1793 2.54056C23.1793 2.53497 23.1406 2.48332 23.0945 2.42608C22.9923 2.30043 22.9636 2.24878 22.9374 2.14826C22.9125 2.04774 22.8377 1.9193 22.7617 1.84391C22.7018 1.78387 22.5647 1.70151 22.526 1.70151C22.5148 1.70151 22.4762 1.67079 22.4375 1.6317C22.364 1.55771 22.3104 1.5228 22.2119 1.48651C22.157 1.46696 22.1446 1.45579 22.1246 1.40414C22.1109 1.37203 22.0673 1.30781 22.0261 1.26034C21.904 1.12073 21.7245 1.04674 21.5562 1.06349L21.4789 1.07047L21.3966 0.985308C21.3517 0.937841 21.2869 0.883394 21.2532 0.865244C21.1547 0.812193 21.0774 0.742388 21.0438 0.678167C20.9914 0.579044 20.8929 0.478525 20.7945 0.425474C20.6835 0.364046 20.6075 0.347294 20.4304 0.345898L20.2933 0.344501L20.1686 0.276093C20.049 0.210476 19.9019 0.168592 19.857 0.188139C19.8483 0.192327 19.8084 0.185347 19.7685 0.172781C19.7248 0.158821 19.6201 0.146255 19.5154 0.142067C19.3396 0.13369 19.3359 0.13369 19.2661 0.0862236C19.2274 0.0610943 19.1688 0.0303802 19.1352 0.0192108C19.0566 -0.00731468 18.8771 -0.0059185 18.8036 0.020607ZM19.0267 1.77131C19.0691 1.79365 19.1352 1.82297 19.1738 1.83414C19.2524 1.85787 19.4668 1.86206 19.5441 1.84251C19.5827 1.83134 19.6064 1.83553 19.675 1.86625C19.7448 1.89696 19.7797 1.90254 19.9093 1.90533C20.1026 1.90952 20.1325 1.9165 20.1774 1.97514C20.2322 2.04494 20.3519 2.12731 20.4392 2.15384C20.5775 2.19712 20.5888 2.20689 20.6411 2.31439C20.7022 2.43864 20.8082 2.55452 20.9129 2.60897C20.9565 2.6327 20.9989 2.65085 21.0089 2.65085C21.0176 2.65085 21.0612 2.68855 21.1049 2.73462C21.1498 2.78069 21.2009 2.82676 21.2208 2.83932C21.2408 2.85049 21.2732 2.89237 21.2944 2.93286C21.3367 3.01802 21.4278 3.11854 21.5088 3.1702C21.5587 3.20231 21.7868 3.29166 21.8728 3.3126C21.8903 3.31679 21.9227 3.33773 21.9439 3.35727C21.9738 3.3852 21.9825 3.40474 21.9825 3.44383C21.9838 3.64487 22.1259 3.88919 22.3016 3.98831C22.3503 4.01623 22.3839 4.04555 22.3989 4.07766C22.4126 4.10279 22.455 4.16142 22.4936 4.2075C22.5323 4.25357 22.5821 4.32337 22.6046 4.36386C22.6482 4.44204 22.7143 4.51464 22.7903 4.56908C22.8389 4.60259 22.8389 4.60399 22.8464 4.71288C22.8601 4.90275 22.9337 5.07726 23.0471 5.18616L23.0982 5.23502V5.41233C23.0995 5.61755 23.1182 5.68875 23.2067 5.82836C23.2591 5.91073 23.2603 5.91073 23.2616 6.04336C23.2628 6.14248 23.2703 6.19693 23.2915 6.25976C23.3127 6.32537 23.3214 6.39099 23.3289 6.55992C23.3351 6.70511 23.3451 6.79865 23.36 6.84332C23.3837 6.91592 23.3825 6.9243 23.3339 7.07647C23.3052 7.16861 23.3015 7.19654 23.3064 7.30822C23.3114 7.40595 23.3202 7.45342 23.3463 7.51624L23.38 7.59861L23.3463 7.68098C23.2765 7.85549 23.2803 8.05793 23.3563 8.23802C23.3912 8.32179 23.3925 8.33156 23.385 8.44464C23.3812 8.51026 23.3688 8.61217 23.3575 8.6736C23.3463 8.73782 23.3413 8.80902 23.3463 8.84672C23.3538 8.90815 23.3526 8.91094 23.2865 8.98912C23.1668 9.12873 23.107 9.3172 23.1244 9.50568C23.1307 9.58665 23.1282 9.6062 23.102 9.66762C23.0658 9.7472 23.0584 9.77792 23.0359 9.93149C23.0272 9.99291 23.0072 10.0809 22.991 10.1269C22.9698 10.1912 22.9624 10.2414 22.9624 10.3447C22.9599 10.4774 22.9599 10.4788 22.9137 10.5388C22.8028 10.6854 22.7504 10.9283 22.7941 11.1028C22.804 11.1447 22.8028 11.1754 22.7891 11.2354C22.7791 11.2787 22.7629 11.3792 22.7542 11.4602C22.7392 11.604 22.738 11.6082 22.6856 11.671C22.6569 11.7073 22.6158 11.7729 22.5959 11.819C22.5747 11.8637 22.5373 11.9293 22.5123 11.9628C22.4575 12.0368 22.4413 12.0703 22.4089 12.1792C22.3964 12.2253 22.3677 12.2937 22.3453 12.3328C22.2892 12.4319 22.2605 12.5282 22.2368 12.6916C22.2156 12.8465 22.2194 12.9415 22.2518 13.0615L22.2717 13.1341L22.2293 13.1942C22.1583 13.2933 22.1321 13.3519 22.0885 13.5055C22.0498 13.6451 22.0436 13.6563 21.9675 13.7414C21.8965 13.8196 21.8728 13.8615 21.7818 14.0653L21.6771 14.2985L21.5686 14.3599C21.3617 14.4772 21.2345 14.7005 21.2345 14.9477C21.2345 15.0161 21.2295 15.0286 21.1847 15.0859C21.1036 15.1906 21.0475 15.3483 21.0475 15.4824C21.0475 15.5173 21.0363 15.5829 21.0226 15.6289C20.9989 15.7057 20.9927 15.7141 20.9266 15.7532C20.888 15.7755 20.8231 15.8286 20.782 15.8705C20.7234 15.9319 20.6972 15.9738 20.6499 16.0869C20.6162 16.165 20.5775 16.2656 20.5626 16.3116C20.5364 16.3954 20.5339 16.3982 20.4329 16.4582C20.2085 16.595 20.0751 16.8268 20.0751 17.0795C20.0751 17.1298 20.034 17.18 19.9567 17.2233C19.8719 17.2708 19.6987 17.4536 19.5877 17.6114C19.5304 17.6952 19.4518 17.7999 19.4132 17.8473C19.3745 17.8934 19.3284 17.9576 19.311 17.9883C19.2935 18.0205 19.2461 18.0777 19.2062 18.114C19.0704 18.2424 18.9906 18.3611 18.8946 18.5817C18.8485 18.6864 18.846 18.6892 18.7687 18.7269C18.6714 18.7744 18.5817 18.8525 18.5343 18.9293C18.5144 18.9614 18.4682 19.027 18.4308 19.0731C18.361 19.1639 18.3161 19.2518 18.28 19.3705C18.2675 19.4096 18.2426 19.4682 18.2251 19.4989C18.2077 19.531 18.1828 19.5911 18.1703 19.6343L18.1491 19.7111H18.0681C17.795 19.7111 17.5644 19.9052 17.4934 20.1942C17.4809 20.2458 17.4647 20.2947 17.4572 20.3045C17.4497 20.3142 17.4073 20.3464 17.3612 20.3757C17.2228 20.4664 17.1144 20.6326 17.082 20.8001C17.0707 20.8573 17.062 20.8741 17.0296 20.8922C17.0072 20.9048 16.9536 20.9439 16.9087 20.9788C16.8638 21.0137 16.784 21.0667 16.7317 21.0961C16.6232 21.1575 16.5073 21.2845 16.4611 21.392C16.4287 21.466 16.3489 21.5442 16.2567 21.5917C16.2205 21.6112 16.1619 21.6503 16.1258 21.681C16.0896 21.7117 16.0024 21.7676 15.9326 21.8053C15.8628 21.8416 15.7867 21.889 15.763 21.9086C15.7393 21.9281 15.7132 21.9449 15.7069 21.9449C15.6994 21.9449 15.6583 21.963 15.6159 21.9868C15.5187 22.037 15.4252 22.1334 15.3566 22.252C15.2681 22.4042 15.2282 22.4461 15.1497 22.4684C15.111 22.4782 15.0051 22.5298 14.9128 22.5829C14.7832 22.6569 14.7296 22.696 14.671 22.7602C14.6298 22.8049 14.5775 22.8509 14.5525 22.8635C14.5289 22.8747 14.484 22.9026 14.4541 22.9249C14.4241 22.9473 14.3693 22.978 14.3344 22.9934C14.2284 23.038 14.024 23.1832 13.9616 23.2572C13.9292 23.2963 13.8981 23.327 13.8918 23.327C13.8781 23.327 13.7298 23.2014 13.6487 23.1204C13.6151 23.0855 13.5465 23.0352 13.4966 23.0101C13.3882 22.9515 13.2548 22.9347 13.1189 22.964L13.0329 22.9822L12.973 22.9221C12.912 22.8621 12.8122 22.7993 12.7287 22.77C12.6714 22.7476 12.5691 22.6806 12.4956 22.6136C12.3896 22.5173 12.26 22.4614 12.1403 22.4614C12.0817 22.4614 12.073 22.4573 12.0219 22.3972C11.9134 22.2744 11.7875 22.2073 11.6279 22.1892C11.5643 22.1808 11.5319 22.1697 11.5058 22.1445C11.4434 22.0859 11.3474 22.0398 11.2365 22.0147L11.1305 21.991L11.0769 21.8695C10.9847 21.6545 10.8463 21.533 10.6406 21.4842C10.5807 21.4702 10.4997 21.4451 10.4611 21.4297C10.4224 21.4144 10.3514 21.3962 10.304 21.392C10.2242 21.3837 10.2167 21.3795 10.1893 21.3348C10.0858 21.1673 9.87889 21.0514 9.67569 21.0514C9.63829 21.0514 9.62457 21.043 9.60089 21.0067C9.58593 20.9816 9.51736 20.8936 9.45004 20.8113C9.34782 20.6842 9.31416 20.6535 9.23812 20.6116C9.13215 20.5544 9.05112 20.5348 8.909 20.5348H8.80553L8.73697 20.4608C8.66591 20.3827 8.54498 20.3059 8.4652 20.2905C8.43528 20.2835 8.39289 20.257 8.35549 20.2207C8.29316 20.1607 8.0214 20.0015 7.90172 19.9541C7.86557 19.9401 7.82692 19.9122 7.80822 19.887C7.69228 19.7279 7.56513 19.6302 7.43423 19.598C7.38062 19.5855 7.36566 19.5743 7.3345 19.5227C7.25347 19.3914 7.11135 19.2867 6.963 19.2518C6.91687 19.2406 6.87823 19.2183 6.82961 19.1736C6.79096 19.1401 6.74359 19.101 6.7224 19.0899C6.70245 19.0773 6.6476 19.0256 6.60147 18.9726C6.54413 18.9084 6.49426 18.8665 6.44315 18.84C6.35963 18.7981 6.34217 18.7883 6.25491 18.7227C6.20878 18.6892 6.18385 18.6571 6.15144 18.5873C6.10032 18.4756 5.98563 18.3527 5.88216 18.2997C5.8136 18.2648 5.69143 18.2313 5.5518 18.2103C5.49944 18.2033 5.48947 18.195 5.43961 18.1182C5.35359 17.987 5.26632 17.9241 5.03694 17.8334C4.98334 17.8124 4.93721 17.7873 4.93472 17.7789C4.93347 17.7706 4.92474 17.7161 4.91726 17.6589C4.88859 17.4439 4.76642 17.2582 4.59314 17.1647C4.54577 17.1395 4.4959 17.1144 4.48219 17.1116C4.46972 17.1074 4.44105 17.0669 4.41736 17.0223C4.36625 16.9189 4.26777 16.8114 4.17801 16.7584C4.13687 16.7347 4.09822 16.6998 4.08576 16.6746C4.07329 16.6523 4.03464 16.5978 3.99974 16.556C3.96483 16.5141 3.92743 16.4568 3.91871 16.4303C3.89502 16.3633 3.82895 16.2502 3.78282 16.2013C3.76163 16.1776 3.72174 16.1078 3.69431 16.0464C3.63198 15.8998 3.54596 15.809 3.36645 15.7002C3.21436 15.608 3.1246 15.527 3.0498 15.414C2.99869 15.3386 2.99619 15.3302 2.99619 15.2366C2.99495 15.0496 2.92514 14.8918 2.7718 14.7396C2.68453 14.6531 2.68453 14.6531 2.68453 14.5805C2.68453 14.3976 2.6247 14.2273 2.51624 14.1002C2.45141 14.0248 2.44767 14.0151 2.44767 13.9508C2.44767 13.7847 2.37786 13.613 2.26317 13.4929C2.11108 13.3366 2.08615 13.3031 2.08615 13.264C2.08615 13.243 2.07617 13.1872 2.06495 13.1425C2.05124 13.0853 2.04376 13.0015 2.04251 12.8772C2.04127 12.6734 2.02132 12.5855 1.94403 12.4584C1.89167 12.3705 1.87671 12.2574 1.90538 12.1527C1.94902 11.9907 1.91785 11.7618 1.83059 11.618C1.8069 11.5789 1.78197 11.5174 1.77449 11.4812C1.75454 11.3806 1.69096 11.2522 1.61741 11.167C1.58001 11.1238 1.55009 11.0777 1.55009 11.0665C1.55009 11.0539 1.56381 11.0163 1.58126 10.9841C1.65855 10.8334 1.68224 10.6337 1.64234 10.4815C1.63112 10.4411 1.59746 10.3517 1.56755 10.2833C1.53638 10.2163 1.49898 10.1186 1.48153 10.0683L1.45161 9.97616L1.47654 9.90775C1.49025 9.86866 1.50397 9.79886 1.50771 9.75139C1.51145 9.69694 1.53015 9.62853 1.55757 9.56152C1.66728 9.29068 1.6411 9.07568 1.46781 8.81042C1.44787 8.77971 1.44911 8.77831 1.52765 8.69734C1.60744 8.61497 1.66728 8.51026 1.69969 8.39578C1.70842 8.36507 1.72961 8.3176 1.74457 8.29107C1.80939 8.18078 1.82809 8.09004 1.82934 7.86526C1.83059 7.66842 1.83308 7.65027 1.86549 7.55952C1.92533 7.39757 1.93281 7.23842 1.88668 7.08206C1.87547 7.04576 1.87796 7.01923 1.89416 6.95501C1.92159 6.85449 1.92159 6.66043 1.89541 6.57946C1.87796 6.52501 1.87796 6.51524 1.90663 6.42589C1.92408 6.37424 1.94154 6.29187 1.94528 6.2444C1.95276 6.15784 1.95276 6.15784 1.99764 6.14807C2.18338 6.10898 2.36664 5.91213 2.42399 5.68875C2.46139 5.54077 2.52247 5.40255 2.56735 5.36346C2.58979 5.34531 2.6222 5.30483 2.64215 5.27411C2.66334 5.23921 2.70199 5.20291 2.73939 5.18197C2.83288 5.12892 2.93885 5.00187 2.98996 4.88321C3.01365 4.82597 3.03359 4.77291 3.03359 4.76314C3.03359 4.75337 3.05728 4.72824 3.0872 4.7059C3.16948 4.64168 3.25549 4.52999 3.29539 4.43366C3.31658 4.3862 3.33279 4.33594 3.33279 4.32337C3.33279 4.30941 3.36645 4.25636 3.40883 4.2047L3.48488 4.11117L3.57463 4.11396C3.73919 4.12094 3.90624 4.04555 4.01844 3.91292L4.08202 3.83753H4.16554C4.3089 3.83753 4.46473 3.7775 4.55823 3.68396C4.59812 3.64487 4.60934 3.64208 4.69412 3.64208C4.85119 3.64208 4.99082 3.58623 5.10301 3.47873C5.14415 3.43825 5.17407 3.42568 5.27006 3.40335C5.33489 3.38938 5.41467 3.36286 5.44833 3.3475C5.52064 3.3126 5.58546 3.31818 5.67273 3.36844C5.84476 3.46477 6.04797 3.47175 6.19507 3.38659C6.23372 3.36425 6.2387 3.36565 6.3135 3.40055C6.43442 3.4564 6.60895 3.46198 6.73611 3.41451C6.82462 3.38101 6.83335 3.37961 6.89817 3.39916C6.93557 3.41033 6.99416 3.4187 7.02907 3.4187C7.06273 3.4187 7.12008 3.42847 7.15373 3.44104C7.19737 3.455 7.25471 3.46058 7.34322 3.45779L7.46913 3.4536L7.56263 3.52062C7.68605 3.60718 7.75087 3.63789 7.83315 3.64906C7.9254 3.66023 8.06503 3.72165 8.12611 3.77471C8.19592 3.83753 8.31311 3.90035 8.39165 3.9199C8.4278 3.92828 8.48515 3.95061 8.5188 3.97016C8.60233 4.01763 8.70829 4.04695 8.79681 4.04695C8.86412 4.04695 8.87534 4.05113 8.91898 4.09581C8.97258 4.15026 9.05985 4.20191 9.14088 4.22983C9.18326 4.24379 9.2057 4.26334 9.2431 4.32198C9.3553 4.4923 9.49742 4.59421 9.65574 4.61795C9.76046 4.6347 9.81157 4.67519 9.88013 4.79665C9.95867 4.93626 10.102 5.05632 10.2242 5.08704C10.2479 5.09262 10.284 5.11496 10.3065 5.13729C10.3289 5.15963 10.3701 5.19174 10.3987 5.20989C10.4311 5.22944 10.4685 5.27411 10.5022 5.32996C10.5907 5.47794 10.7303 5.58125 10.8887 5.61336C10.9298 5.62314 10.9672 5.6371 10.9685 5.64408C11.0058 5.78788 11.0221 5.83115 11.0532 5.887L11.0906 5.95261L11.0744 6.08664C11.0582 6.23044 11.0644 6.3142 11.1006 6.43008C11.118 6.48732 11.1193 6.51385 11.1093 6.56271C11.1031 6.59482 11.0993 6.6716 11.1031 6.73024C11.1118 6.87683 11.1604 6.99271 11.2652 7.11556C11.3088 7.16722 11.3624 7.23702 11.3823 7.27192C11.5643 7.57488 11.9134 7.63351 12.1652 7.40455C12.1926 7.38082 12.2375 7.3515 12.265 7.34173C12.3896 7.29705 12.5155 7.17699 12.5741 7.04576C12.5928 7.00527 12.6227 6.90894 12.6402 6.83216C12.6676 6.71209 12.6714 6.6744 12.6651 6.56271L12.6576 6.43287L12.7013 6.37563C12.7761 6.27651 12.8322 6.10758 12.8322 5.97775C12.8322 5.93586 12.8421 5.90096 12.8683 5.85908C12.887 5.82557 12.9157 5.76274 12.9294 5.71947C12.9444 5.67619 12.9818 5.6008 13.0129 5.55333C13.1064 5.41093 13.1388 5.24061 13.1152 5.02142L13.1052 4.92928L13.1675 4.85249C13.2012 4.80921 13.2348 4.76175 13.2423 4.74639C13.251 4.73103 13.2797 4.71149 13.3096 4.70171C13.443 4.66123 13.5839 4.53977 13.6587 4.40016C13.6799 4.35967 13.7036 4.32616 13.7111 4.32616C13.7435 4.32616 13.903 4.22704 13.9566 4.17399C13.9878 4.14188 14.0377 4.07626 14.0651 4.026C14.0925 3.97714 14.1287 3.92967 14.1436 3.9199C14.1598 3.91152 14.1948 3.8836 14.2222 3.85847C14.2496 3.83474 14.3057 3.79704 14.3468 3.7761C14.459 3.71886 14.5438 3.63929 14.6049 3.53597C14.646 3.46477 14.6722 3.43546 14.7208 3.40893C14.8118 3.35727 14.8904 3.28887 14.9328 3.22604C14.9639 3.17857 14.9826 3.16601 15.0475 3.14646C15.1472 3.11575 15.2245 3.0613 15.3255 2.95101C15.3703 2.90215 15.4377 2.83095 15.4751 2.79325L15.5436 2.72345L15.6384 2.73043C15.8079 2.74299 15.9089 2.70111 16.1171 2.53218C16.238 2.43306 16.243 2.43027 16.3003 2.43725C16.3826 2.44842 16.5272 2.40793 16.6157 2.35069C16.7254 2.27949 16.7915 2.24598 16.89 2.21527C16.9386 2.20131 17.0147 2.16361 17.0608 2.13429C17.1057 2.10358 17.173 2.07147 17.2091 2.06309C17.2465 2.05472 17.3001 2.03517 17.3313 2.01982C17.3812 1.99608 17.4061 1.99469 17.5682 2.00306C17.7352 2.01144 17.7564 2.01004 17.83 1.98072C17.8748 1.96397 17.921 1.94303 17.9334 1.93186C17.9496 1.9193 17.982 1.9165 18.0369 1.92209C18.1416 1.93047 18.2526 1.90533 18.361 1.84809C18.4321 1.8104 18.4732 1.79923 18.5916 1.78667C18.6727 1.77689 18.7687 1.75595 18.816 1.7378C18.9046 1.7029 18.9083 1.7029 19.0267 1.77131Z" fill="#767676"/>
</svg>
