<svg width="25" height="25" fill="none" xmlns="http://www.w3.org/2000/svg"><path d="M12.217.204c-.178.106-.399.235-.485.284a1.421 1.421 0 0 0-.303.27 1.03 1.03 0 0 1-.274.245c-.069.04-.26.19-.42.346-.234.222-.299.32-.346.489-.04.155-.091.235-.187.297a.753.753 0 0 0-.195.195c-.03.063-.16.165-.286.227a.848.848 0 0 0-.316.257c-.048.08-.156.2-.243.267-.169.137-.325.413-.325.581 0 .085-.034.12-.156.16-.22.076-.437.289-.567.55-.061.125-.143.245-.182.267-.165.098-.572.542-.655.715a.477.477 0 0 1-.264.266c-.169.08-.277.191-.529.542-.065.093-.177.244-.247.342-.073.093-.13.2-.13.23 0 .032-.065.094-.138.134-.191.093-.585.528-.65.71-.03.085-.065.151-.087.151-.065 0-.33.271-.377.39a.335.335 0 0 1-.2.178c-.26.098-.54.511-.54.795 0 .027-.07.076-.153.102-.23.08-.398.249-.541.542-.165.333-.403.577-.633.648a.925.925 0 0 0-.537.528c-.065.21-.143.302-.356.427a.757.757 0 0 0-.26.253c-.047.084-.225.288-.39.453-.195.195-.303.346-.324.435-.018.102-.07.16-.187.222-.255.133-.342.275-.48.755-.031.11-.1.293-.157.408-.173.36-.108.835.143 1.061a.882.882 0 0 0 1.01.107.745.745 0 0 1 .303-.111c.17-.005.446-.147.572-.298a.777.777 0 0 1 .208-.186c.165-.094.347-.4.377-.63.017-.12.043-.218.065-.218.091 0 .602-.55.65-.702a.823.823 0 0 1 .139-.262l.086-.097.126.204.126.204-.104.116c-.217.24-.269.475-.19.892.047.235.047.32.003.422-.078.186-.073.537.013.719.061.138.065.19.018.44-.03.155-.044.315-.03.355a.698.698 0 0 1-.022.266.729.729 0 0 0 .004.409c.03.115.07.36.087.541.017.182.056.395.09.475.048.12.044.165-.025.32-.065.146-.074.244-.048.546.017.266.009.435-.039.613-.082.31-.09 1.447-.013 1.63.035.079.056.425.065 1.011.004.489.013.96.017 1.044.005.084-.008.24-.026.346-.039.218.044.568.234.999.135.297.3.484.494.56.148.057.464.062.603.008.069-.022.23-.004.511.071.407.107.416.107.823.036.226-.04.499-.098.607-.129.16-.044.221-.044.342.009.234.098 1.89.071 2.076-.031.16-.089.342-.053.555.093.177.129.23.147.494.147.242 0 .32-.018.433-.102l.134-.103.234.116c.251.129.217.129.953.026.594-.08.69-.088.88-.044a.733.733 0 0 0 .325.005.373.373 0 0 1 .269.017.937.937 0 0 0 .641 0 .913.913 0 0 1 .386-.035c.13.009.312-.005.394-.031.243-.085.646-.076.784.017.096.067.234.08.793.094.598.013.728.004 1.075-.09l.394-.101.148.102c.199.142.628.284.858.284.25 0 .437-.098.654-.337.165-.187.19-.2.32-.165.213.054.473.036.637-.053.2-.102.685-.63.733-.8.021-.07.052-.337.07-.58.02-.356.012-.485-.04-.613-.06-.147-.06-.183-.008-.289.1-.19.125-.426.078-.657-.113-.51-.152-.728-.148-.782 0-.03.018-.341.03-.697.014-.355.044-.706.066-.777.065-.2.069-1.03.013-1.323a1.84 1.84 0 0 0-.126-.381c-.074-.125-.07-.13.117-.4l.19-.275.013-.586c.013-.458 0-.63-.056-.786-.052-.147-.065-.32-.056-.666.021-.848-.009-1.292-.096-1.5-.078-.183-.082-.2-.013-.312.04-.066.079-.124.083-.133a.385.385 0 0 1 .125.045c.061.026.152.128.2.222.043.088.147.235.225.315.074.084.204.235.282.333a.836.836 0 0 0 .281.235.54.54 0 0 1 .239.2c.117.182.416.395.637.453.546.146.862.106 1.135-.138a.773.773 0 0 0 .273-.626c0-.257-.048-.382-.234-.59a.79.79 0 0 1-.195-.427c-.074-.417-.29-.652-.685-.745-.177-.045-.23-.08-.299-.205a.83.83 0 0 0-.173-.23 3.425 3.425 0 0 1-.325-.387 4.134 4.134 0 0 0-.373-.444c-.078-.08-.143-.168-.143-.204 0-.084-.273-.377-.39-.413-.056-.018-.134-.138-.212-.31-.087-.196-.173-.316-.282-.387-.082-.058-.164-.146-.177-.2-.04-.16-.213-.333-.533-.546-.243-.155-.316-.23-.338-.333a.88.88 0 0 0-.46-.617 1.15 1.15 0 0 0-.299-.115c-.047 0-.112-.08-.173-.205a.726.726 0 0 0-.282-.324c-.108-.066-.19-.15-.19-.195 0-.151-.126-.329-.394-.568-.148-.13-.295-.307-.33-.391-.065-.16-.507-.64-.715-.777-.07-.044-.121-.107-.121-.133 0-.08-.23-.32-.381-.4-.078-.04-.14-.098-.14-.129 0-.093-.19-.333-.376-.47a1.03 1.03 0 0 1-.273-.338.848.848 0 0 0-.2-.275 1.205 1.205 0 0 1-.246-.275 1.215 1.215 0 0 0-.412-.35c-.2-.112-.29-.192-.355-.316-.044-.093-.2-.275-.347-.404-.147-.129-.303-.31-.347-.404-.082-.16-.329-.395-.416-.395-.069 0-.364-.391-.364-.48 0-.31-.22-.626-.567-.803-.399-.205-.62-.191-1.036.062Zm.494 2.77c.091.076.247.164.355.209.17.066.213.11.351.382.104.204.213.346.317.417a.972.972 0 0 1 .23.235.794.794 0 0 0 .225.227c.082.053.151.115.151.142 0 .022.04.102.091.173.048.071.109.204.135.289.052.195.281.461.498.577.277.142.355.222.494.488.173.342.225.395.503.528.125.063.26.16.294.214a.83.83 0 0 0 .239.204c.203.115.346.306.346.462 0 .177.078.346.295.63.234.31.286.36.468.444.095.044.169.138.251.306.07.151.174.28.256.333.078.05.182.147.238.222a.86.86 0 0 0 .269.227.486.486 0 0 1 .238.248.992.992 0 0 0 .204.293c.2.187.268.48.182.742a.764.764 0 0 0-.035.377c.017.102.035.422.035.715.004.44.017.56.082.657.065.102.07.151.035.267-.078.248-.056 1.043.039 1.256.065.155.073.257.056.56-.017.204-.052.412-.087.466-.09.142-.164.95-.104 1.132.03.08.066.546.079 1.034.021.8.017.906-.052 1.044-.113.221-.104.559.017.799.095.186.095.208.043.541-.039.262-.043.382-.004.51.039.143.035.232-.035.52-.104.418-.104.484-.021.808.052.21.056.302.012.533-.047.258-.06.28-.186.306l-.247.05a.585.585 0 0 1-.299-.045c-.143-.058-.26-.071-.554-.049-.204.018-.425.049-.486.076-.086.03-.195.022-.407-.032a1.736 1.736 0 0 0-.46-.057l-.177.018.035-.205c.017-.11.034-.27.043-.355.004-.084.035-.253.06-.368a.668.668 0 0 0-.008-.422c-.043-.138-.056-.324-.043-.542.021-.328.021-.63.008-.932-.008-.191.057-.675.148-1.084.052-.24.056-.346.021-.51-.026-.111-.047-.444-.047-.737.004-.67-.052-1.008-.208-1.288-.174-.306-.273-.395-.65-.555-.425-.182-.68-.208-1.092-.11-.317.07-.338.07-.624-.014-.75-.217-1.049-.257-1.34-.164a.698.698 0 0 1-.39.022c-.16-.036-.28-.022-.575.071-.07.018-.148-.004-.265-.084-.234-.16-.438-.205-.819-.182-.446.03-.485.04-.684.177-.156.111-.182.116-.356.067-.411-.111-.767-.013-.975.27-.247.338-.381.649-.407.933-.052.644-.04.866.056.999.148.204.165.31.065.448-.134.2-.195.498-.134.702.121.426.169.733.13.844a.844.844 0 0 0 .004.537c.065.168.06 1.065-.004 1.234-.06.164-.017.954.07 1.172.051.124.051.16.008.191-.078.049-.2.044-.23-.009a.765.765 0 0 0-.195-.133.886.886 0 0 0-.75-.005c-.155.08-.16.08-.359-.022a.777.777 0 0 0-.698-.04c-.329.142-.576.058-.49-.173.022-.066.053-.35.061-.64.022-.483.013-.536-.09-.772-.1-.226-.105-.266-.057-.4.035-.084.065-.421.074-.79.026-.91.026-1.1-.009-1.376a1.773 1.773 0 0 1 .039-.586c.095-.475.087-.648-.048-.919l-.112-.24.082-.226c.06-.182.082-.386.091-1.004.009-.426.026-.98.039-1.23.013-.359.004-.488-.056-.643-.061-.155-.074-.302-.061-.755.004-.337-.009-.595-.035-.648-.034-.067-.03-.138.022-.284.074-.209.052-.573-.048-.813-.047-.124-.039-.155.07-.36.069-.124.203-.288.299-.368.095-.08.22-.235.277-.355a.838.838 0 0 1 .32-.346.747.747 0 0 0 .295-.316c.048-.106.13-.204.195-.23.16-.072.325-.258.408-.467.039-.097.13-.24.195-.31.069-.076.156-.205.19-.289.109-.258.217-.395.43-.533.125-.08.233-.2.294-.32.16-.32.511-.688.823-.86.13-.076.286-.218.395-.37.103-.137.216-.266.25-.288.1-.066.304-.31.304-.364 0-.084.208-.32.416-.466a.9.9 0 0 0 .256-.262.495.495 0 0 1 .23-.2c.086-.04.207-.115.264-.169.134-.128.264-.417.264-.594 0-.125.03-.165.234-.298.13-.084.247-.173.26-.2.048-.075.087-.062.26.08Zm.672 14.46c.173.09.745.165.988.134l.182-.027v.258c0 .137-.022.43-.048.652-.039.333-.035.431.022.595.065.182.06.2-.044.4-.112.217-.112.266-.034 1.048.047.466.034.879-.052 1.727l-.026.262-.395-.031c-.23-.014-.459-.01-.554.017-.13.04-.19.036-.29-.022-.196-.102-.794-.066-1.136.071-.082.031-.19.022-.446-.049a1.902 1.902 0 0 0-.56-.08c-.22.014-.229.01-.303-.142-.086-.173-.073-.408.04-.63.051-.107.064-.271.06-.764-.004-.373.013-.71.048-.835.043-.173.039-.235-.022-.421-.052-.151-.074-.355-.074-.702 0-.333-.021-.555-.069-.692-.06-.182-.06-.244-.013-.475.043-.213.074-.271.148-.289.16-.04 1.17.005 1.295.053a.77.77 0 0 0 .537-.004c.065-.027.23-.062.36-.08a2.36 2.36 0 0 0 .243-.04s.065.027.143.067Z" fill="#767676"/></svg>