<svg width="85" height="129" fill="none" xmlns="http://www.w3.org/2000/svg"><path d="M31.733.939c-6.933 1.733-18 8.533-22 13.333C2.133 23.472 0 30.005 0 43.072c0 13.733 2.667 23.6 11.6 41.333 5.733 11.734 18.267 30.534 25.6 38.8l4.667 5.2 4.8-5.333c14.266-16 30.533-45.733 35.466-64.933C88.133 34.405 80.8 15.205 62 5.205 53.333.672 40.133-1.328 31.733.94Zm21.334 33.333c3.466 3.6 4.133 5.2 4.133 10.8 0 5.733-.667 7.2-4.4 10.933-3.733 3.734-5.2 4.4-10.933 4.4-5.734 0-7.2-.666-10.934-4.4-3.733-3.733-4.4-5.2-4.4-10.8 0-6.933 3.334-12.266 9.334-14.933 4.933-2.133 12.8-.4 17.2 4Z" fill="#767676"/></svg>