<svg width="39" height="39" viewBox="0 0 39 39" fill="none" xmlns="http://www.w3.org/2000/svg">
<rect x="0.5" y="0.5" width="37.3721" height="37.3721" rx="18.686" fill="white" stroke="white"/>
<path d="M27.0346 19.3666C27.0346 18.8386 26.9878 18.3374 26.9077 17.8496H19.3562V20.8635H23.6799C23.4861 21.8525 22.9181 22.6879 22.0761 23.2559V25.2607H24.6556C26.1659 23.864 27.0346 21.8058 27.0346 19.3666Z" fill="#4285F4"/>
<path d="M19.3561 27.2053C21.5213 27.2053 23.3324 26.4836 24.6555 25.2607L22.076 23.2559C21.3543 23.737 20.4387 24.0311 19.3561 24.0311C17.2645 24.0311 15.4935 22.621 14.8587 20.7164H12.199V22.7814C13.5155 25.401 16.222 27.2053 19.3561 27.2053Z" fill="#34A853"/>
<path d="M14.8587 20.7165C14.6916 20.2353 14.6048 19.7207 14.6048 19.1861C14.6048 18.6515 14.6983 18.1369 14.8587 17.6558V15.5908H12.199C11.651 16.6734 11.3369 17.8897 11.3369 19.1861C11.3369 20.4826 11.651 21.6988 12.199 22.7814L14.8587 20.7165Z" fill="#FBBC05"/>
<path d="M19.3561 14.3412C20.539 14.3412 21.5949 14.7488 22.4302 15.544L24.7157 13.2586C23.3324 11.9621 21.5213 11.1669 19.3561 11.1669C16.222 11.1669 13.5155 12.9712 12.199 15.5908L14.8587 17.6558C15.4935 15.7512 17.2645 14.3412 19.3561 14.3412Z" fill="#EA4335"/>
</svg>
