<svg width="25" height="25" viewBox="0 0 25 25" fill="none" xmlns="http://www.w3.org/2000/svg">
<path d="M11.4771 0.0440903C11.2754 0.0683231 10.9931 0.14102 10.8497 0.204023L10.5897 0.315491L10.3701 0.19433C10.1147 0.0537834 9.79649 0.0392437 9.58137 0.155558C9.5007 0.199177 9.38418 0.233101 9.31247 0.233101C9.24525 0.233101 9.05254 0.305798 8.88672 0.397879C8.54163 0.577196 8.29963 0.654739 7.91421 0.717743C7.66772 0.756514 7.30022 0.955217 7.30022 1.05215C7.30022 1.07638 7.20611 1.12 7.08959 1.14907C6.97755 1.183 6.81173 1.246 6.72209 1.29447C6.63246 1.34293 6.39045 1.47863 6.17982 1.5901C5.96918 1.70641 5.74958 1.83727 5.68684 1.88088C5.61513 1.93419 5.45827 1.97297 5.2566 1.9875C5.00115 2.00204 4.90703 2.03112 4.78603 2.12805C4.70088 2.1959 4.5485 2.30252 4.44543 2.36552C4.26168 2.47699 4.06897 2.72416 4.01071 2.92286C3.99278 2.97617 3.84489 3.11672 3.67907 3.23788C3.3788 3.46082 3.34743 3.49959 2.99338 4.23624C2.96649 4.2944 2.86341 4.38163 2.7693 4.4301C2.67518 4.47372 2.49144 4.63365 2.37043 4.78389C2.24495 4.93413 2.08361 5.12798 2.0119 5.21522C1.9402 5.30245 1.8416 5.45269 1.7923 5.55447C1.743 5.65624 1.6713 5.76771 1.63096 5.80648C1.501 5.92279 1.38447 6.23297 1.38447 6.4559C1.38447 6.61583 1.34862 6.73699 1.25003 6.90662C1.17832 7.03262 1.11558 7.16832 1.11558 7.21679C1.11558 7.26041 1.07524 7.35249 1.02594 7.42034C0.976646 7.48819 0.895977 7.63843 0.842197 7.74989C0.792899 7.86621 0.71223 8.04068 0.662932 8.13276C0.604671 8.24907 0.577781 8.38962 0.577781 8.56894C0.586744 8.99058 0.528483 9.34437 0.416442 9.55761C0.281994 9.80962 0.277512 10.1489 0.398516 10.4106C0.470222 10.556 0.479185 10.6287 0.443332 10.7256C0.376108 10.9146 0.389553 11.2878 0.46574 11.4477C0.501593 11.5204 0.532965 11.6658 0.532965 11.7627C0.532965 11.8645 0.582263 12.0535 0.645005 12.1844C0.721193 12.3395 0.748083 12.4655 0.734638 12.5382C0.707748 12.6545 0.757046 13.0519 0.85116 13.5123C0.87805 13.6286 0.945274 13.7982 1.00802 13.8855C1.09317 14.0115 1.11558 14.0939 1.11558 14.3459C1.11558 14.7045 1.22314 14.9953 1.41585 15.1649C1.51892 15.2521 1.56374 15.3491 1.60407 15.572C1.67578 15.9258 1.90434 16.5946 2.0119 16.7642C2.05672 16.8321 2.16876 16.929 2.25391 16.9775C2.34354 17.0308 2.41525 17.0938 2.41525 17.1229C2.41525 17.1471 2.43766 17.2537 2.46455 17.3555C2.50936 17.53 2.59451 17.6414 3.1592 18.2812C3.3295 18.475 3.33846 18.4992 3.28468 18.6059C3.25331 18.6689 3.21298 18.8094 3.19953 18.916C3.17264 19.0808 3.14575 19.1244 2.99338 19.202C2.83204 19.2795 2.69311 19.4443 2.33458 19.9774C2.27632 20.0646 2.17324 20.1422 2.08809 20.1664C1.77886 20.2488 1.3038 20.5444 1.1828 20.7383C1.05283 20.9321 0.922866 21.0485 0.667414 21.1745C0.268549 21.3732 0.0534306 21.7076 0.0086143 22.2019C-0.0137938 22.4539 0.00413267 22.5702 0.102728 22.8853C0.228214 23.2778 0.452295 23.6946 0.627079 23.8642C0.748083 23.9757 1.36207 24.3198 1.44274 24.3198C1.47411 24.3198 1.57718 24.3779 1.6713 24.4458C1.8909 24.6057 2.3301 24.756 2.59003 24.756C2.70207 24.756 2.87686 24.7124 2.98442 24.6542C3.19953 24.5427 3.30261 24.5573 3.75077 24.7899C3.93452 24.8868 4.02863 24.9062 4.19445 24.8868C4.31994 24.8723 4.45887 24.8917 4.5485 24.9304C4.84429 25.0661 5.20282 24.9983 5.4269 24.7705C5.50757 24.6833 5.58824 24.6542 5.6958 24.659C5.88403 24.6687 6.26048 24.6639 6.80724 24.6493C7.25541 24.6348 7.34952 24.6009 7.60497 24.3634C7.68564 24.2859 7.78872 24.2229 7.82905 24.2229C7.87387 24.2229 8.00832 24.155 8.12932 24.0726C8.29514 23.9612 8.38029 23.9321 8.47889 23.9515C8.65367 23.9902 8.90913 23.9127 9.09735 23.7625C9.18251 23.6995 9.29903 23.6219 9.35729 23.5928C9.41555 23.5638 9.55 23.4814 9.65308 23.4038C9.75615 23.3311 9.95335 23.21 10.0923 23.1421C10.2312 23.0743 10.4374 22.9143 10.5494 22.7883L10.7556 22.5605L10.9214 22.6381C11.2037 22.7689 11.2844 22.7786 11.513 22.7205C11.7863 22.6478 12.2972 22.7253 12.5617 22.8756C12.7544 22.987 13.1398 23.0113 13.2877 22.924C13.3415 22.8949 13.4849 22.8804 13.6283 22.8998C13.7717 22.9143 13.942 22.9046 14.0361 22.8707C14.1661 22.8223 14.2333 22.8271 14.4215 22.8949C14.7352 23.0016 15.0445 22.924 15.273 22.6769L15.4344 22.5024L15.8736 22.5412C16.2635 22.5751 16.3307 22.5702 16.5144 22.4782C16.631 22.4248 16.8192 22.3812 16.9447 22.3812C17.1957 22.3812 17.4287 22.2891 17.5766 22.1292C17.6393 22.0614 17.7827 21.9935 17.9441 21.9596C18.092 21.9257 18.3116 21.8578 18.4371 21.8045C18.7687 21.6736 18.948 21.6058 19.1855 21.5331C19.4678 21.4507 19.6964 21.2908 19.7905 21.1212C19.8309 21.0436 19.9205 20.9564 19.9922 20.9225C20.0594 20.8934 20.1804 20.7868 20.2611 20.6898C20.4852 20.4136 20.6062 20.3312 20.8482 20.2924C21.2022 20.2294 21.5159 19.9774 21.6773 19.6188C21.7893 19.3668 21.8341 19.3086 22.0403 19.202C22.224 19.1002 22.3002 19.0227 22.4078 18.8191C22.484 18.6689 22.6139 18.5089 22.717 18.4362C22.8156 18.3684 22.8963 18.2909 22.8963 18.2715C22.8963 18.2521 22.968 18.1842 23.0531 18.1212C23.1383 18.0631 23.2548 17.908 23.3131 17.782C23.3669 17.6608 23.4789 17.4621 23.5596 17.3458C23.6402 17.2295 23.703 17.1132 23.703 17.0889C23.703 17.0308 23.9181 16.6721 24.0884 16.4541C24.2497 16.2457 24.3483 15.8919 24.308 15.6835C24.2721 15.5187 24.3349 15.3297 24.5366 14.9904C24.7158 14.6948 24.8099 14.278 24.8458 13.6189C24.8682 13.1924 24.8592 13.0955 24.7831 12.9113C24.6979 12.6981 24.6979 12.6932 24.7875 12.606C24.9937 12.4073 25.0609 12.0002 24.9399 11.6416C24.9085 11.5349 24.8637 11.2442 24.8458 10.9921C24.8099 10.4397 24.7606 10.2216 24.6441 10.0568C24.5769 9.96471 24.5545 9.86293 24.5545 9.6303C24.5545 9.39768 24.5231 9.26198 24.42 9.01966C24.3259 8.80641 24.2856 8.64163 24.2856 8.47201C24.2856 8.18607 24.0974 7.64812 23.9226 7.44942C23.8598 7.37187 23.7792 7.24587 23.7478 7.16348C23.6582 6.9357 23.5327 6.78061 23.34 6.67883C23.1786 6.58675 23.1652 6.56252 23.1652 6.37836C23.1652 6.10696 23.0173 5.79679 22.8156 5.6417C22.6543 5.52054 22.5288 5.32184 22.4705 5.07952C22.3854 4.74512 22.0941 4.46402 21.7535 4.37679C21.5025 4.31378 21.3277 4.1587 21.2202 3.89699C21.0454 3.47535 20.6196 3.14095 20.2521 3.14095C20.1625 3.14095 20.1177 3.09249 20.028 2.90832C19.9474 2.74839 19.8577 2.64662 19.7099 2.55938C19.5978 2.49153 19.4499 2.38976 19.3827 2.3316C19.3155 2.27344 19.1855 2.20075 19.0959 2.16682C19.0062 2.1329 18.7822 1.9875 18.5984 1.83727C18.2757 1.5804 18.2488 1.56587 17.9486 1.54648C17.6752 1.53194 17.608 1.50771 17.4825 1.3914C17.4018 1.31385 17.2718 1.21692 17.1912 1.17331C17.1105 1.13453 16.9761 1.05699 16.8909 1.00368C16.8058 0.955217 16.6623 0.9116 16.5682 0.9116C16.4786 0.9116 16.2769 0.848597 16.1201 0.766207C15.8153 0.611122 15.6674 0.591736 15.3985 0.674126C15.2282 0.722589 15.2193 0.722589 15.0624 0.519039C14.8338 0.233101 14.6187 0.136173 14.1795 0.136173C13.9823 0.136173 13.7358 0.160404 13.6283 0.184637C13.4849 0.223408 13.3818 0.218561 13.2249 0.165251C12.6737 -0.00922012 12.2345 -0.0382977 11.4771 0.0440903ZM12.7051 2.5303C12.8843 2.666 13.1532 2.71447 13.4311 2.65146C13.6776 2.59815 13.6955 2.59815 13.933 2.73385C14.1571 2.85986 14.2243 2.8744 14.6277 2.87925C15.0265 2.87925 15.0938 2.89378 15.2551 3.00525C15.5912 3.23303 15.8108 3.2718 16.1559 3.16518C16.2321 3.14095 16.3083 3.19426 16.5189 3.42204C16.8192 3.7516 17.0343 3.84853 17.6259 3.91638C17.8948 3.9503 18.0158 3.98907 18.1547 4.0957C18.2533 4.16839 18.343 4.26047 18.3564 4.30409C18.4595 4.68211 18.7463 4.9632 19.0824 5.01167C19.2886 5.04075 19.2975 5.04559 19.3513 5.26368C19.423 5.55447 19.665 5.80163 19.9967 5.92279C20.158 5.98095 20.279 6.05849 20.3238 6.13604C20.3642 6.20389 20.5479 6.41713 20.7272 6.60614C20.9647 6.85815 21.0633 7.00839 21.0992 7.14894C21.126 7.25556 21.1888 7.40095 21.2381 7.4688C21.2874 7.53665 21.3277 7.64327 21.3277 7.70628C21.3277 7.76443 21.3681 7.89529 21.4129 7.98737C21.4622 8.07945 21.5608 8.28785 21.6369 8.44778C21.7131 8.60771 21.8655 8.85972 21.9731 9.00512C22.0851 9.15051 22.1747 9.32013 22.1792 9.37344C22.1792 9.4316 22.2465 9.58669 22.3271 9.71269C22.4661 9.94047 22.4705 9.95986 22.4392 10.2894C22.4212 10.4978 22.4257 10.7014 22.4571 10.8225C22.484 10.9291 22.5064 11.1569 22.5019 11.3314C22.4929 11.5301 22.5198 11.7385 22.5736 11.8936C22.6319 12.0681 22.6453 12.1795 22.6139 12.2571C22.5915 12.3201 22.5826 12.5672 22.5871 12.8096C22.5915 13.0567 22.5736 13.3378 22.5422 13.459C22.5109 13.5801 22.4974 13.7401 22.5109 13.8176C22.5333 13.9242 22.5109 13.9921 22.4168 14.1132C22.2778 14.2926 22.1389 14.6124 22.1344 14.753C22.1344 14.8063 22.0941 14.8935 22.0403 14.9468C21.8879 15.0922 21.8162 15.2909 21.7983 15.6011C21.7848 15.8628 21.7624 15.9161 21.6011 16.1051C21.5025 16.2214 21.3994 16.4007 21.3725 16.5025C21.3277 16.6528 21.2874 16.7061 21.1709 16.7545C21.0902 16.7836 20.8885 16.9484 20.7272 17.1132C20.4762 17.3652 20.4135 17.4621 20.3283 17.7287C20.2432 18.0001 20.2118 18.0437 20.0953 18.0679C19.9205 18.1067 19.7726 18.1939 19.5888 18.3635C19.5082 18.4411 19.4006 18.5041 19.3513 18.5041C19.2124 18.5041 18.9614 18.6446 18.809 18.8143C18.7329 18.8967 18.5939 18.9887 18.5043 19.0178C18.4102 19.0469 18.204 19.1729 18.0472 19.2989C17.8634 19.4395 17.7066 19.5218 17.6259 19.5218C17.5542 19.5218 17.3973 19.5752 17.2718 19.6382C16.5817 19.9871 16.492 20.021 16.1873 20.0307C15.8019 20.0404 15.3179 20.1325 15.031 20.2536C14.9055 20.3021 14.7128 20.3457 14.6008 20.3457C14.4888 20.3457 14.3229 20.3893 14.2243 20.4427C14.0764 20.525 14.0227 20.5299 13.8703 20.4863C13.6597 20.4233 12.8261 20.4669 12.602 20.5493C12.472 20.6026 12.4496 20.5929 12.2838 20.433C12.0597 20.2149 11.8311 20.1325 11.5623 20.1713C11.2261 20.2246 11.0693 20.2052 10.8317 20.0743C10.5673 19.9289 10.0251 19.8514 9.50518 19.8805C9.07495 19.9047 8.88224 19.9871 8.70745 20.2197C8.53715 20.4378 8.37133 21.0242 8.38478 21.3441L8.39822 21.5816L7.97247 21.5864C7.53327 21.5913 7.43019 21.6203 7.19714 21.8287C7.12544 21.8917 7.04477 21.945 7.01788 21.945C6.98651 21.945 6.90584 21.9838 6.82965 22.0274C6.74898 22.0759 6.57868 22.1098 6.42182 22.1147C6.22015 22.1195 6.08122 22.1583 5.91988 22.2504C5.62409 22.4152 5.47172 22.4394 4.6471 22.4491C4.1586 22.4539 3.92108 22.4733 3.818 22.5218C3.68355 22.5896 3.6701 22.5848 3.51773 22.4394C3.4281 22.357 3.30261 22.2698 3.24435 22.2552C3.14127 22.2261 3.08301 22.1389 3.17264 22.1389C3.19505 22.1389 3.29365 22.0517 3.39224 21.9499C3.53117 21.8045 3.62977 21.7463 3.83144 21.7027C4.06449 21.6494 4.12723 21.6058 4.41854 21.3005C4.65606 21.0533 4.75914 20.9031 4.79947 20.7625C4.82636 20.6511 4.90703 20.496 4.97426 20.4184C5.16697 20.1858 5.32831 19.7932 5.32831 19.5558C5.32831 19.3668 5.34623 19.3231 5.4762 19.2165C5.55687 19.1487 5.70028 18.9597 5.79888 18.79C5.94229 18.538 5.97814 18.4266 5.99159 18.1891C6.00503 17.845 5.88851 17.5687 5.6465 17.4136C5.56583 17.3603 5.40449 17.2295 5.28797 17.1229C5.16697 17.0162 5.01011 16.8902 4.92944 16.8466C4.85325 16.803 4.7681 16.7012 4.74121 16.6285C4.56643 16.1487 4.49921 16.0324 4.13619 15.6156C4.01967 15.4848 3.939 15.3345 3.92108 15.2279C3.88522 15.0244 3.63425 14.7142 3.44154 14.627C3.26228 14.5446 3.16816 14.3362 3.12783 13.9242C3.08749 13.5074 2.97097 12.9598 2.88582 12.7756C2.841 12.6787 2.83204 12.5382 2.84997 12.3104C2.87237 12.005 2.86341 11.9663 2.70655 11.6464C2.52281 11.2781 2.47351 10.9049 2.57659 10.6287C2.60348 10.5463 2.64381 10.3088 2.66174 10.0956C2.70655 9.57699 2.70655 9.58669 2.76033 9.39283C2.78722 9.30075 2.82756 9.04873 2.841 8.83549C2.87237 8.47201 2.88134 8.44293 3.04268 8.26846C3.14575 8.16184 3.23987 8.00675 3.27124 7.88075C3.30261 7.76443 3.36535 7.61904 3.41017 7.55119C3.58495 7.30402 3.72837 7.03747 3.77318 6.89692C3.79559 6.81938 3.92108 6.63037 4.05104 6.48498C4.18101 6.33959 4.3289 6.1118 4.38716 5.9858C4.44991 5.83556 4.5485 5.70955 4.65606 5.63686C4.83085 5.5157 5.05941 5.2346 5.05941 5.13767C5.05941 5.1086 5.16697 5.0359 5.29693 4.96805C5.44035 4.89535 5.59272 4.77419 5.67787 4.65303C5.75854 4.54641 5.87058 4.43979 5.92436 4.4204C5.97814 4.40102 6.07674 4.34771 6.14396 4.29925C6.20671 4.24593 6.29186 4.20716 6.33219 4.20716C6.36804 4.20716 6.53386 4.0957 6.6952 3.96484C6.85654 3.82914 7.02236 3.72252 7.0627 3.72252C7.16129 3.72252 7.50638 3.49959 7.53775 3.4172C7.55119 3.37843 7.66323 3.33481 7.81561 3.31542C8.08451 3.2815 8.27722 3.19911 8.37581 3.06825C8.42063 3.0101 8.47889 3.0004 8.6223 3.01979C8.86879 3.06341 9.15113 2.97617 9.33488 2.8017C9.48277 2.65631 9.48726 2.65631 9.65756 2.73385C9.89957 2.84532 10.2581 2.80655 10.4643 2.64662C10.6211 2.52546 10.6301 2.52061 10.8273 2.59331C11.002 2.65631 11.0738 2.66116 11.3292 2.60785C11.4905 2.57392 11.8267 2.5303 12.0732 2.51092C12.3196 2.49638 12.5437 2.47699 12.5661 2.47215C12.593 2.4673 12.6558 2.49153 12.7051 2.5303Z" fill="#767676"/>
</svg>
