<svg width="25" height="25" viewBox="0 0 25 25" fill="none" xmlns="http://www.w3.org/2000/svg">
<path opacity="0.978" fill-rule="evenodd" clip-rule="evenodd" d="M20.7732 0.00416532C20.9085 -0.00995603 21.036 0.0118285 21.1556 0.0695178C21.3378 0.0338013 21.507 0.0621199 21.663 0.154476C21.6898 0.186342 21.7222 0.210313 21.7603 0.226364C22.0403 0.174031 22.3045 0.213241 22.5528 0.343998C22.6113 0.353082 22.6693 0.361787 22.7266 0.370139C23.0412 0.257262 23.3146 0.313897 23.5468 0.540055C23.5992 0.618217 23.6409 0.700992 23.6719 0.788394C23.6801 0.880907 23.6801 0.972401 23.6719 1.06287C23.9508 1.12245 24.1477 1.27494 24.2628 1.52034C24.5352 1.62619 24.6811 1.81789 24.7007 2.09544C24.7664 2.18341 24.8266 2.2749 24.8815 2.36992C24.915 2.48019 24.9243 2.59347 24.9093 2.70976C24.8965 2.75529 24.878 2.79886 24.8537 2.84046C24.8494 3.00761 24.7822 3.14703 24.6521 3.25872C24.821 3.41842 24.8881 3.61012 24.8537 3.83382C24.8302 3.94211 24.8001 4.04885 24.7633 4.15404C24.784 4.22345 24.7956 4.29534 24.7981 4.36971C24.9166 4.54158 24.949 4.72892 24.8954 4.93174C24.8129 5.11552 24.6715 5.24188 24.4713 5.31078C24.4577 5.45141 24.3999 5.57339 24.2976 5.67676C24.3671 5.95569 24.2813 6.18443 24.0404 6.36296C24.0028 6.38143 23.9657 6.40103 23.9291 6.42177C23.8849 6.42717 23.8432 6.43806 23.804 6.45445C23.7533 6.46097 23.7022 6.46314 23.6511 6.46099C23.5962 6.58846 23.5175 6.70174 23.4147 6.80082C23.1277 7.00949 22.8426 7.00949 22.5597 6.80082C22.2897 7.00745 22.0093 7.0227 21.7186 6.84656C21.6095 6.83379 21.5028 6.80984 21.3989 6.77468C21.3364 6.82676 21.2762 6.88121 21.2181 6.93806C21.005 7.04844 20.7849 7.06368 20.5577 6.9838C20.373 7.1132 20.1667 7.15023 19.9391 7.0949C19.8436 7.04658 19.7462 7.00084 19.6471 6.95766C19.5371 6.89291 19.4537 6.80577 19.3969 6.69625C19.37 6.60053 19.3329 6.50903 19.2857 6.42177C19.2174 6.36845 19.1618 6.30528 19.1188 6.23225C18.8189 6.21878 18.6128 6.08154 18.5001 5.82053C18.4593 5.65592 18.4176 5.49036 18.375 5.32385C18.1776 5.54099 17.9343 5.60198 17.6451 5.50684C17.5691 5.53277 17.4904 5.55238 17.4088 5.56566C17.2528 5.70492 17.0673 5.76157 16.8527 5.73557C16.8195 5.72125 16.7847 5.71036 16.7484 5.7029C16.7302 5.71352 16.7139 5.72659 16.6998 5.74211C16.6594 6.18312 16.4045 6.39442 15.9351 6.37603C15.8952 6.36349 15.8559 6.34824 15.8169 6.33028C15.7306 6.37913 15.6402 6.42052 15.5458 6.45445C15.4195 6.59663 15.2572 6.66852 15.0592 6.67011C15.0321 6.97667 14.8606 7.17056 14.5448 7.25175C14.4707 7.26047 14.3965 7.26047 14.3224 7.25175C14.2541 7.22616 14.1846 7.20872 14.1139 7.19947C14.0505 7.2445 13.9809 7.27935 13.9053 7.30403C13.8462 7.40256 13.7767 7.49405 13.6968 7.57851C13.6431 7.62337 13.5828 7.65823 13.516 7.68308C13.4675 7.7265 13.4212 7.77224 13.377 7.82032C13.2595 7.90109 13.1275 7.94465 12.9808 7.95102C12.7985 7.91551 12.6131 7.885 12.4247 7.85953C12.3857 7.86137 12.3579 7.87879 12.3413 7.91181C12.2891 8.26586 12.0736 8.45974 11.6948 8.49345C11.5728 8.54852 11.4431 8.56596 11.3055 8.54573C11.2986 8.53919 11.2916 8.53266 11.2847 8.52612C11.1235 8.71617 10.9126 8.80112 10.6521 8.781C10.5616 8.75846 10.4759 8.72579 10.3949 8.68297C10.324 8.8937 10.2012 9.07451 10.0265 9.22539C9.94849 9.27083 9.86508 9.30132 9.77623 9.31689C9.72545 9.32341 9.67449 9.32558 9.6233 9.32342C9.63413 9.66932 9.46267 9.88716 9.1089 9.97695C8.89065 10.0085 8.69834 9.9562 8.53194 9.8201C8.48251 10.0219 8.35739 10.1656 8.15657 10.2514C8.02514 10.2796 7.8977 10.3166 7.77424 10.3625C7.70473 10.3669 7.63522 10.3712 7.5657 10.3756C7.48864 10.5047 7.37974 10.6027 7.23899 10.6697C7.23168 10.7505 7.20618 10.8246 7.16253 10.8919C7.27123 11.1778 7.20172 11.4196 6.95399 11.6173C6.85472 11.6464 6.77593 11.7009 6.71764 11.7807C6.72633 11.8545 6.7356 11.9285 6.74545 12.0029C6.83148 12.1059 6.87781 12.2235 6.88447 12.3558C7.00226 12.375 7.11348 12.412 7.21814 12.4669C7.37337 12.591 7.50313 12.7348 7.60741 12.8982C7.79157 12.9415 7.95377 13.0243 8.094 13.1465C8.20178 13.1484 8.30373 13.1701 8.39986 13.2119C8.70714 13.1941 8.92958 13.3138 9.06719 13.5713C9.17264 13.6486 9.25143 13.7444 9.30354 13.8589C9.37048 13.9066 9.43072 13.961 9.48427 14.0223C9.72032 13.974 9.94277 14.0045 10.1516 14.1138C10.2956 14.2208 10.3929 14.358 10.4436 14.5255C10.5058 14.5644 10.5614 14.6102 10.6104 14.6627C10.89 14.6121 11.1194 14.6926 11.2986 14.9045C11.3223 14.9513 11.3478 14.9971 11.375 15.0418C11.5061 15.0889 11.6405 15.1259 11.7782 15.1529C11.9935 15.2441 12.1302 15.3965 12.1883 15.6103C12.595 15.5064 12.88 15.6371 13.0434 16.0024C13.1344 16.0278 13.2224 16.0605 13.3075 16.1005C13.3845 16.1577 13.4494 16.2252 13.5021 16.3031C13.7696 16.3257 13.9643 16.4498 14.0861 16.6756C14.3097 16.7617 14.444 16.9163 14.4892 17.1396C14.6412 17.14 14.771 17.19 14.8785 17.2899C14.994 17.2845 15.11 17.2845 15.2261 17.2899C15.582 17.3814 15.7488 17.6014 15.7266 17.9499C15.9854 17.9753 16.1662 18.1017 16.2688 18.329C16.2823 18.3538 16.2868 18.38 16.2827 18.4074C16.5621 18.3985 16.7798 18.501 16.9361 18.7146C17.116 18.7172 17.2689 18.7782 17.3949 18.8976C17.5367 18.9338 17.6572 19.0034 17.7564 19.1067C17.9041 19.1157 18.0408 19.1571 18.1665 19.2309C18.2099 19.2408 18.2539 19.2451 18.2986 19.2439C18.2997 19.2122 18.3136 19.186 18.3403 19.1655C18.6036 18.9096 18.8979 18.8747 19.2231 19.0609C19.2715 19.0275 19.3132 18.9883 19.3482 18.9433C19.3646 18.5266 19.594 18.3066 20.0364 18.2832C20.1115 18.2193 20.1995 18.1823 20.3005 18.1721C20.387 18.155 20.4728 18.155 20.5577 18.1721C20.6343 18.1046 20.7247 18.0631 20.8288 18.048C21.0443 18.0081 21.2297 18.0583 21.385 18.1983C21.7256 18.0188 22.0221 18.0668 22.2747 18.3421C22.3068 18.3806 22.3277 18.4241 22.3373 18.4728C22.539 18.3622 22.7476 18.3536 22.9629 18.4466C23.0143 18.4779 23.0654 18.5083 23.1158 18.5381C23.4214 18.4108 23.6879 18.4588 23.9152 18.6819C24.1601 18.7616 24.3152 18.9185 24.381 19.1524C24.3811 19.2463 24.395 19.3378 24.4227 19.4269C24.6718 19.5773 24.7737 19.7908 24.7285 20.0674C24.7109 20.126 24.7016 20.187 24.7007 20.2503C24.6852 20.2945 24.6689 20.3382 24.6521 20.3811C24.7922 20.441 24.8943 20.5391 24.9579 20.6751C24.9977 20.7912 25.0092 20.9111 24.9927 21.0346C24.9659 21.1279 24.9474 21.2237 24.9371 21.3221C24.8866 21.4063 24.838 21.4913 24.7911 21.577C24.7976 21.7976 24.7119 21.9785 24.5339 22.1194C24.5293 22.1805 24.5246 22.2414 24.52 22.3024C24.501 22.4316 24.4592 22.5535 24.3949 22.6684C24.3031 22.7442 24.266 22.8401 24.2837 22.9559C24.2618 23.0406 24.2247 23.1191 24.1724 23.1912C24.1113 23.5318 23.8981 23.7193 23.5329 23.7532C23.4585 23.7518 23.3868 23.7453 23.3174 23.7336C23.1182 23.9692 22.8656 24.0455 22.5597 23.9624C22.5234 23.9979 22.4794 24.022 22.4277 24.0343C22.3449 24.0482 22.2615 24.057 22.1774 24.0604C22.1618 24.074 22.1432 24.0827 22.1218 24.0865C22.1128 24.3014 22.02 24.4779 21.8437 24.6159C21.7641 24.6439 21.7039 24.6918 21.663 24.7597C21.4624 24.9887 21.2121 25.054 20.9123 24.9557C20.8389 24.9704 20.7648 24.9725 20.6898 24.9623C20.6031 24.9365 20.5173 24.9081 20.4326 24.8773C20.1345 24.9948 19.868 24.9491 19.6332 24.7401C19.3737 24.7655 19.1559 24.6914 18.9798 24.5179C18.6668 24.435 18.5 24.241 18.4793 23.9362C18.0361 23.8999 17.8206 23.6734 17.8328 23.2566C17.838 23.2445 17.8449 23.2337 17.8537 23.2239C17.5246 23.1065 17.3739 22.8822 17.4018 22.5508C17.4201 22.5049 17.434 22.4569 17.4435 22.407C17.4709 22.3637 17.4987 22.3201 17.527 22.2763C17.5374 22.1769 17.5304 22.0789 17.5061 21.9822C17.5067 21.9549 17.5113 21.9287 17.52 21.9038C17.38 21.7674 17.3129 21.6041 17.3184 21.4136C17.0233 21.4808 16.7917 21.3936 16.6233 21.1522C16.6165 21.1354 16.6141 21.1178 16.6163 21.0999C16.428 21.0426 16.3005 20.9249 16.234 20.747C16.1969 20.7209 16.1645 20.6904 16.1367 20.6555C15.8047 20.7002 15.5684 20.5783 15.4277 20.2896C15.3326 20.2306 15.2561 20.1544 15.1983 20.0608C15.1688 19.9659 15.1388 19.8722 15.1079 19.7798C14.7534 19.8648 14.4823 19.7602 14.2946 19.4661C14.2133 19.4026 14.1529 19.3242 14.1139 19.2309C14.0859 19.2001 14.0534 19.174 14.0165 19.1524C13.7884 19.235 13.5753 19.2089 13.377 19.074C13.26 18.9802 13.1904 18.8625 13.1685 18.7211C12.9277 18.7147 12.7424 18.6167 12.6124 18.427C12.3998 18.347 12.2562 18.2055 12.1814 18.0022C12.1469 18.0205 12.1098 18.0314 12.0702 18.0349C11.8015 18.0644 11.5744 17.9882 11.3889 17.8062C11.3387 17.7781 11.2877 17.7519 11.236 17.7277C11.2036 17.6885 11.1665 17.6536 11.1248 17.6232C11.0903 17.5712 11.0532 17.5211 11.0136 17.4729C10.8428 17.4432 10.7084 17.3603 10.6104 17.2245C10.3239 17.2032 10.1293 17.0682 10.0265 16.8193C9.68512 16.8289 9.45804 16.683 9.34524 16.3815C9.28639 16.3516 9.23541 16.3123 9.19231 16.2638C9.00054 16.2227 8.85456 16.1226 8.75438 15.9632C8.74172 15.9179 8.72549 15.8742 8.70572 15.8325C8.45784 15.8163 8.28173 15.703 8.17742 15.4927C7.93601 15.5012 7.74601 15.4119 7.60741 15.2247C7.51261 15.1936 7.43382 15.1414 7.37107 15.0679C7.0539 15.1355 6.80598 15.0419 6.62727 14.7869C6.58231 14.6768 6.55683 14.5636 6.55081 14.4471C6.30337 14.4589 6.07165 14.411 5.85568 14.3033C5.73436 14.1779 5.62314 14.045 5.52201 13.9046C5.19499 13.911 4.9656 13.7738 4.83383 13.4929C4.77184 13.4477 4.7255 13.3911 4.6948 13.323C4.53872 13.5041 4.33713 13.5826 4.09004 13.5583C3.98796 13.807 3.79333 13.9333 3.50612 13.9373C3.29995 13.9389 3.13081 13.8648 2.99868 13.7151C2.96945 13.6733 2.94397 13.6296 2.92221 13.5844C2.89202 13.5753 2.86421 13.5622 2.8388 13.5452C2.74422 13.619 2.63764 13.6691 2.51904 13.6955C2.30731 13.7269 2.10805 13.6963 1.92122 13.604C1.80356 13.5929 1.69234 13.5624 1.58756 13.5125C1.2665 13.472 1.06956 13.3043 0.996694 13.0093C0.987324 12.911 0.991967 12.8152 1.0106 12.7217C0.917504 12.6625 0.84104 12.5884 0.781203 12.4995C0.711439 12.4449 0.648877 12.3839 0.593517 12.3166C0.54255 12.1682 0.473036 12.0288 0.384977 11.8983C0.369295 11.8182 0.350762 11.7398 0.329366 11.663C0.267374 11.562 0.230296 11.4531 0.218145 11.3363C-0.0222517 11.1042 -0.0639597 10.8428 0.0930208 10.552C0.111303 10.5283 0.132157 10.5065 0.155583 10.4867C0.166246 10.3085 0.219549 10.143 0.315463 9.99002C0.333996 9.97259 0.352542 9.95516 0.371074 9.93773C0.389954 9.87551 0.41313 9.81451 0.440587 9.75475C0.426268 9.66265 0.410057 9.57116 0.391928 9.48027C0.4002 9.36385 0.434957 9.25492 0.496198 9.15351C0.600802 9.01783 0.712023 8.88713 0.829862 8.76139C0.84382 8.64787 0.89248 8.54984 0.97584 8.4673C0.938734 8.14492 1.07776 7.91837 1.39292 7.78764C1.46213 7.77463 1.53164 7.76375 1.60146 7.75496C1.70725 7.76567 1.80919 7.78746 1.90732 7.82032C1.91488 7.79313 1.92648 7.76699 1.94208 7.74189C1.9722 7.72229 1.99769 7.69833 2.01854 7.67C2.08814 7.61312 2.1646 7.56738 2.24793 7.53276C2.30067 7.26973 2.46518 7.11071 2.74148 7.05569C2.8118 7.01459 2.88595 6.97973 2.96392 6.95113C3.09957 6.92941 3.23395 6.90762 3.3671 6.88578C3.53336 6.86007 3.68861 6.88402 3.83284 6.95766C4.08666 6.84105 4.32996 6.8563 4.56273 7.00341C4.67888 7.10167 4.75767 7.22149 4.79907 7.36285C4.94401 7.37849 5.07376 7.42859 5.18835 7.51316C5.36228 7.49114 5.52912 7.51291 5.68884 7.57851C5.85284 7.5703 6.0104 7.59209 6.16153 7.64386C6.30417 7.70639 6.4293 7.79135 6.53691 7.89874C6.67884 8.09604 6.69737 8.30298 6.59252 8.51959C6.61896 8.52219 6.63981 8.53309 6.65508 8.55226C6.71461 8.38737 6.82815 8.26755 6.99569 8.19282C7.08542 8.16332 7.17811 8.14372 7.27375 8.13401C7.41881 8.06463 7.57174 8.04284 7.73253 8.06866C7.84313 8.0006 7.96362 7.96139 8.094 7.95102C8.09427 7.93063 8.0989 7.91102 8.10791 7.8922C8.22169 7.73295 8.36997 7.61095 8.55279 7.52623C8.6084 7.51751 8.66401 7.50881 8.71962 7.50009C8.79445 7.49938 8.86859 7.50375 8.94207 7.51316C8.9548 7.50827 8.9664 7.50174 8.97682 7.49355C9.11098 7.21634 9.34038 7.08564 9.665 7.10144C9.68896 6.87983 9.80481 6.71645 10.0126 6.6113C10.1959 6.53359 10.3813 6.53359 10.5687 6.6113C10.6242 6.63005 10.6705 6.66055 10.7077 6.70279C10.7818 6.70714 10.856 6.71151 10.9301 6.71586C10.9371 6.72239 10.944 6.72893 10.951 6.73547C10.9878 6.48739 11.1292 6.31529 11.375 6.21918C11.5554 5.86334 11.8473 5.7457 12.2509 5.86628C12.2757 5.87692 12.2965 5.89217 12.3135 5.91202C12.3944 5.87339 12.4801 5.84725 12.5707 5.8336C12.6158 5.67762 12.7179 5.56435 12.8765 5.49377C13.0133 5.44195 13.1547 5.42887 13.3006 5.45456C13.3717 5.35279 13.4575 5.26348 13.5578 5.18661C13.7041 5.11041 13.8618 5.07555 14.0304 5.08205C14.0698 5.04392 14.1161 5.0156 14.1695 4.99709C14.181 4.9753 14.1927 4.95353 14.2042 4.93174C14.2758 4.50758 14.5423 4.30934 15.0036 4.33703C15.0591 4.2696 15.1286 4.21949 15.2122 4.18672C15.3879 3.91025 15.6429 3.81004 15.9768 3.8861C15.9967 3.86145 16.0199 3.83966 16.0463 3.82075C16.1762 3.74661 16.3059 3.67254 16.4356 3.59855C16.6045 3.41704 16.8178 3.34732 17.0751 3.38942C17.178 3.40901 17.2707 3.44823 17.3532 3.50706C17.4088 3.47197 17.4598 3.43059 17.5061 3.38289C17.6176 3.31312 17.7404 3.27609 17.8745 3.27179C17.9281 3.26958 17.9789 3.2783 18.0275 3.29793C18.0522 3.28704 18.0522 3.27397 18.0275 3.25872C17.9984 3.00196 18.0981 2.80155 18.3264 2.65747C18.3544 2.55866 18.3962 2.46498 18.4515 2.37646C18.3657 2.213 18.3449 2.0409 18.3889 1.86017C18.4131 1.74859 18.4641 1.64839 18.5419 1.55955C18.6472 1.44941 18.77 1.36228 18.9103 1.29814C18.9339 1.22393 18.9548 1.14986 18.9728 1.07595C19.0978 0.798668 19.3226 0.659245 19.6471 0.65769C19.7809 0.506137 19.9523 0.425532 20.1615 0.415886C20.2007 0.365904 20.2517 0.331045 20.3144 0.311322C20.3745 0.233043 20.444 0.163334 20.523 0.102194C20.6064 0.0640268 20.6898 0.0313506 20.7732 0.00416532ZM21.524 2.13465C21.579 2.17323 21.6346 2.21244 21.6908 2.25229C21.7983 2.45905 21.9744 2.57669 22.2191 2.60519C22.2908 2.6804 22.379 2.73268 22.4833 2.76204C22.4899 2.77482 22.4991 2.78571 22.5111 2.79471C22.4605 3.11376 22.5925 3.33813 22.9073 3.46784C22.8945 3.52687 22.883 3.58786 22.8725 3.65083C22.575 3.73672 22.4221 3.92624 22.4137 4.2194C22.411 4.31967 22.4342 4.41335 22.4833 4.50041C22.4232 4.55912 22.3652 4.62013 22.3095 4.6834C22.2548 4.77207 22.2247 4.86792 22.2191 4.97095C22.1831 4.96959 22.1507 4.97831 22.1218 4.99709C21.8341 4.91601 21.5885 4.97701 21.385 5.18008C21.3606 5.22135 21.3328 5.26057 21.3015 5.29771C21.2316 5.11215 21.1041 4.97273 20.9192 4.87946C20.8975 4.83026 20.8721 4.78234 20.8427 4.73568C20.7627 4.64351 20.6816 4.55201 20.5995 4.4612C20.5582 4.31229 20.4724 4.1903 20.3423 4.09523C20.4874 3.82266 20.4457 3.57867 20.2171 3.36328C20.3268 3.25276 20.3917 3.12205 20.4118 2.97117C20.6534 2.84769 20.7739 2.65598 20.7732 2.39606C20.8733 2.4008 20.9659 2.37901 21.0513 2.33071C21.1902 2.31629 21.3199 2.27708 21.4406 2.21308C21.4732 2.19101 21.501 2.16487 21.524 2.13465ZM3.9232 9.11429C4.1138 9.3425 4.35941 9.42093 4.66005 9.34956C4.73139 9.36105 4.7986 9.38284 4.86163 9.41492C4.91797 9.50709 4.99675 9.57681 5.09798 9.62404C5.10725 9.64147 5.10725 9.6589 5.09798 9.67632C5.02386 9.76569 4.9729 9.8659 4.94505 9.97695C4.72097 10.2178 4.70011 10.4749 4.88249 10.7481C4.87152 10.8215 4.86457 10.8956 4.86163 10.9703C4.52794 10.8736 4.26379 10.9607 4.06918 11.2317C4.04491 11.2976 4.02173 11.3629 3.99967 11.4278C3.98518 11.507 3.99213 11.5833 4.02052 11.6565C3.9768 11.7061 3.94204 11.7605 3.91625 11.8199C3.81678 11.7684 3.71251 11.727 3.60344 11.6957C3.54268 11.6935 3.48243 11.6869 3.42271 11.6761C3.41141 11.6589 3.3975 11.6437 3.381 11.6304C3.19309 11.5295 2.99381 11.5055 2.78319 11.5585C2.78073 11.4353 2.74597 11.3221 2.67892 11.2186C2.60615 11.0936 2.50883 10.989 2.38696 10.905C2.40085 10.774 2.39622 10.6433 2.37306 10.5128C2.34117 10.4494 2.30178 10.3905 2.25488 10.3364C2.28013 10.3061 2.30794 10.2778 2.3383 10.2514C2.4798 10.2129 2.59565 10.1388 2.68587 10.0292C2.71127 10.0033 2.72517 9.97275 2.72758 9.93773C2.91978 9.89302 3.06344 9.78846 3.15856 9.62404C3.21698 9.59005 3.27722 9.55955 3.33929 9.53255C3.38779 9.48913 3.43412 9.44338 3.47832 9.39531C3.66859 9.35763 3.81689 9.26395 3.9232 9.11429ZM21.3154 20.1719C21.4023 20.1904 21.4903 20.2034 21.5796 20.2111C21.6406 20.2072 21.701 20.1985 21.7603 20.185C21.8809 20.2194 22.0014 20.2194 22.1218 20.185C22.2151 20.2233 22.3124 20.2472 22.4137 20.2569C22.4624 20.2983 22.5111 20.3396 22.5597 20.3811C22.577 20.4935 22.6256 20.5915 22.7057 20.6751C22.689 20.6869 22.6775 20.7022 22.6709 20.7209C22.6534 20.7787 22.6349 20.8353 22.6153 20.8908C22.6013 20.9678 22.6082 21.0419 22.6362 21.113C22.4708 21.3149 22.429 21.5371 22.5111 21.7796C22.2792 21.8146 22.1123 21.9323 22.0106 22.1325C21.8322 22.1658 21.6862 22.2487 21.5726 22.3808C21.5389 22.4404 21.5041 22.4993 21.4684 22.5573C21.3499 22.5803 21.2387 22.6216 21.1347 22.6815C21.0017 22.5372 20.8325 22.4632 20.6273 22.4593C20.5741 22.4608 20.5233 22.4695 20.4743 22.4854C20.3281 22.4344 20.1821 22.3821 20.0364 22.3286C19.9948 22.2874 19.9508 22.2482 19.9043 22.2109C19.8811 22.029 19.7953 21.8787 19.6471 21.76C19.6824 21.7127 19.7126 21.6626 19.7375 21.6097C19.829 21.5297 19.8963 21.4338 19.9391 21.3221C20.0488 21.2474 20.13 21.1514 20.1824 21.0346C20.1932 20.8047 20.221 20.578 20.2658 20.3549C20.3972 20.3766 20.527 20.3679 20.6551 20.3288C20.7923 20.3519 20.9267 20.3431 21.0582 20.3026C21.1478 20.2625 21.2336 20.219 21.3154 20.1719Z" fill="#767676"/>
</svg>
