<svg width="24" height="25" viewBox="0 0 24 25" fill="none" xmlns="http://www.w3.org/2000/svg">
<path d="M12 13.5401C12.5523 13.5401 13 13.0738 13 12.4986C13 11.9233 12.5523 11.457 12 11.457C11.4477 11.457 11 11.9233 11 12.4986C11 13.0738 11.4477 13.5401 12 13.5401Z" fill="#767676" stroke="#767676" stroke-linecap="round" stroke-linejoin="round"/>
<path d="M12 6.24922C12.5523 6.24922 13 5.78291 13 5.20768C13 4.63245 12.5523 4.16614 12 4.16614C11.4477 4.16614 11 4.63245 11 5.20768C11 5.78291 11.4477 6.24922 12 6.24922Z" fill="#767676" stroke="#767676" stroke-linecap="round" stroke-linejoin="round"/>
<path d="M12 20.8309C12.5523 20.8309 13 20.3646 13 19.7893C13 19.2141 12.5523 18.7478 12 18.7478C11.4477 18.7478 11 19.2141 11 19.7893C11 20.3646 11.4477 20.8309 12 20.8309Z" fill="#767676" stroke="#767676" stroke-linecap="round" stroke-linejoin="round"/>
</svg>
