<svg width="25" height="25" fill="none" xmlns="http://www.w3.org/2000/svg"><path opacity=".968" fill-rule="evenodd" clip-rule="evenodd" d="M11.377 0a.575.575 0 0 1 .317.087.204.204 0 0 0 .046.043c.238-.133.456-.101.655.094.049.067.1.131.151.194a.327.327 0 0 1 .179-.079c.103-.016.206-.028.31-.036.067.005.13.022.192.05.077.048.151.099.225.152a.531.531 0 0 1 .185-.08c.122-.01.245 0 .37.03.085.04.174.071.264.093.233-.32.51-.375.832-.166.102.09.168.203.199.34a.562.562 0 0 1 .482.086.504.504 0 0 1 .297.043.566.566 0 0 1 .648.036c.048.04.088.088.119.145a.58.58 0 0 1 .515.317.592.592 0 0 1 .489.187.58.58 0 0 1 .357.202.583.583 0 0 1 .495.282.23.23 0 0 1 .04.086.503.503 0 0 0 .086.065.62.62 0 0 1 .62.152.432.432 0 0 1 .106.173c.26.03.437.178.529.447-.018.017-.016.031.006.043.004.08.01.16.02.238l.1.108c.272-.04.474.07.607.332.055.048.11.093.165.137l.053.072c.401.017.613.246.634.686a.776.776 0 0 1 .172.288c.32-.054.546.08.68.404.03.031.057.065.08.101l.172.346a.654.654 0 0 1-.046.483.31.31 0 0 0 .105.044.826.826 0 0 1 .225.043c.109.078.217.157.324.238.1.124.162.268.185.433.222.178.308.414.257.707a.039.039 0 0 1 .04.014.758.758 0 0 1 .165.39.593.593 0 0 1 .159.26c.156.173.216.38.178.62.013.042.024.085.033.13a.655.655 0 0 1 .264.447.915.915 0 0 1 .172.634.694.694 0 0 1 .053.707.449.449 0 0 1-.112.144 1.088 1.088 0 0 0-.033.375c.207.176.28.402.218.678a.88.88 0 0 1 0 .52c.048.183.046.365-.007.548-.056.11-.1.225-.132.346-.097.13-.19.265-.277.404a.866.866 0 0 1-.1.31l.02.022c.019.175.036.353.053.534a.137.137 0 0 0 .02.036c-.01.052-.019.105-.026.158.172.377.097.678-.225.902a.314.314 0 0 0-.066.296c-.01.25-.116.436-.317.555a.708.708 0 0 1-.317.599 1.09 1.09 0 0 1-.133.043.667.667 0 0 0-.092.202.871.871 0 0 1 .033.57.881.881 0 0 1-.139.296 1.76 1.76 0 0 1-.198.173.604.604 0 0 1-.238.064.68.68 0 0 1-.139.62 4.364 4.364 0 0 0-.403.34.556.556 0 0 1-.43.036l-.058.014a.755.755 0 0 1-.16.39.596.596 0 0 1-.237.166.39.39 0 0 1-.132.108.825.825 0 0 1-.218.274.592.592 0 0 1-.35.425.625.625 0 0 1-.595.239.725.725 0 0 1-.568.353c-.127.24-.316.355-.568.346a.686.686 0 0 1-.33.115.618.618 0 0 1-.53.332.51.51 0 0 1-.409-.115.152.152 0 0 0-.092 0c-.11.212-.277.32-.502.325a.52.52 0 0 1-.199.223.514.514 0 0 1-.535-.007.833.833 0 0 1-.244.195c-.151.04-.301.089-.45.144a.638.638 0 0 1-.469-.094c-.215.204-.45.238-.707.101a.551.551 0 0 1-.568.08 7.261 7.261 0 0 0-.357-.246 4.362 4.362 0 0 0-.125-.036.706.706 0 0 1-.337.065c-.205.193-.43.226-.674.101a.63.63 0 0 1-.158-.151.59.59 0 0 0-.225-.008c-.159.181-.348.248-.568.202-.211-.063-.348-.21-.41-.44a1.028 1.028 0 0 1-.238.094c-.227.032-.408-.052-.542-.252a.039.039 0 0 0-.04-.015c-.002.477-.223.696-.66.657a.356.356 0 0 1-.119-.05.145.145 0 0 1-.033.014c-.043.05-.09.098-.139.144-.05.386-.252.593-.607.62a.933.933 0 0 1-.436.368l-.172.014a.552.552 0 0 1-.37.303.509.509 0 0 1-.364-.065.456.456 0 0 0-.178-.115.556.556 0 0 1-.542.08.196.196 0 0 0-.105 0 .158.158 0 0 1-.08.028.565.565 0 0 1-.423.173c-.18.203-.39.25-.634.145a3.029 3.029 0 0 1-.244-.022 1.855 1.855 0 0 1-.212-.116.659.659 0 0 1-.568-.014.841.841 0 0 1-.218.08.464.464 0 0 1-.416.209.51.51 0 0 1-.463-.274c-.27.109-.501.044-.693-.195-.225.005-.45.005-.674 0a.38.38 0 0 1-.231.05.344.344 0 0 1-.238-.058c-.06.03-.12.06-.179.094-.265.085-.483.01-.654-.223a.688.688 0 0 1-.072-.217.583.583 0 0 1-.33-.216.763.763 0 0 1-.199-.476c.007-.068.018-.135.033-.202.038-.092.084-.179.139-.26-.166-.322-.122-.604.132-.844a.63.63 0 0 1 .317-.108c.136-.218.323-.304.562-.26.023-.03.047-.059.072-.086a.686.686 0 0 1 .397-.418.61.61 0 0 1 .33-.375c.09-.091.162-.197.218-.318a1.4 1.4 0 0 1 .165-.159c.038-.13.087-.254.146-.374l.145-.145c.114-.05.228-.098.344-.144a.6.6 0 0 1 .099-.159 3.238 3.238 0 0 1 0-.331c.023-.087.052-.17.086-.253a.55.55 0 0 1 .052-.447.66.66 0 0 1-.171-.685.878.878 0 0 1-.159-.318.706.706 0 0 1-.377-.562 2.257 2.257 0 0 1-.132-.188 1.046 1.046 0 0 1-.41-.346.94.94 0 0 0-.118-.26 1.373 1.373 0 0 1-.047-.23.052.052 0 0 1 .014-.022.683.683 0 0 1-.357-.31.996.996 0 0 1-.066-.419.59.59 0 0 1-.31-.505c-.001-.093.001-.185.006-.274a.508.508 0 0 1-.066-.173.672.672 0 0 1-.284-.707.074.074 0 0 0 .033-.072l-.02-.13a.891.891 0 0 1-.139-.31.133.133 0 0 0-.013-.108.726.726 0 0 1 .185-.454.706.706 0 0 1-.297-.556.447.447 0 0 1-.126-.332.097.097 0 0 1-.026-.072l.02-.158a.95.95 0 0 0 .079-.375.884.884 0 0 1 .152-.303.802.802 0 0 1-.264-.534.94.94 0 0 1 .059-.26c.084-.136.155-.28.211-.432a.903.903 0 0 1 .166-.202.657.657 0 0 1 .013-.318.66.66 0 0 1-.027-.469.694.694 0 0 1 .047-.8.76.76 0 0 1 .171-.39c.068-.222.206-.36.417-.41a.87.87 0 0 1 .105-.08 1.03 1.03 0 0 1 .14-.202.751.751 0 0 1 .092-.289.7.7 0 0 1 .066-.331 1.35 1.35 0 0 0-.02-.31.672.672 0 0 1 .264-.47c.018-.07.03-.142.033-.216.077-.264.242-.418.496-.461-.044-.301.053-.53.29-.686a1.31 1.31 0 0 0 .146-.173.699.699 0 0 1 .198-.115c.103-.017.204-.04.304-.072a.542.542 0 0 1 .119-.087c.046-.074.096-.144.152-.209.016-.359.183-.566.502-.62.11-.242.29-.362.535-.36.093.01.18.031.264.064.103-.324.31-.473.621-.447a.485.485 0 0 1 .14.036c.04-.026.082-.05.125-.072a.599.599 0 0 1 .304-.202c.014-.326.164-.535.449-.628a.943.943 0 0 1 .396.044.093.093 0 0 1 .046.036.195.195 0 0 1 .1-.065c.078-.025.157-.044.237-.058.179-.348.439-.45.78-.31a.709.709 0 0 0 .093-.036c.154-.231.361-.332.62-.303A.698.698 0 0 1 9.17.253a.53.53 0 0 1 .516-.037C9.784.198 9.878.17 9.97.13a.589.589 0 0 1 .541.245.446.446 0 0 1 .318-.144 1.96 1.96 0 0 0 .165-.029.69.69 0 0 1 .383-.202Zm.542 2.193c.06.086.127.167.198.245.279.19.536.162.773-.087.2.25.44.31.72.18a.418.418 0 0 0 .159-.129l.04-.007c.092.033.184.065.277.094a1.2 1.2 0 0 0 .244.021.739.739 0 0 1 .165-.043c.061.036.123.067.186.094.087.016.175.023.264.021a.58.58 0 0 0 .396.455.645.645 0 0 0 .37-.022c.066.023.132.045.198.065.05.094.106.183.172.267.218.202.451.233.7.094a.734.734 0 0 1 .073-.065.71.71 0 0 0 .251.39c.163.272.39.365.68.28a.82.82 0 0 0 .172-.108c.15.248.361.378.635.39.018.048.038.096.06.144.021.284.16.464.415.541.05.006.097.013.146.022.027 0 .052-.01.072-.03.038.007.075.012.113.015a.892.892 0 0 0 .185.188c-.04.404.123.644.489.721.041.062.085.122.132.18a.528.528 0 0 0 .158.094c.038.25.166.421.384.512.119.027.238.027.356 0a.239.239 0 0 0 .086-.05l.12.49c.086.136.186.261.297.375l.052.101a.639.639 0 0 0 .093.419c.009.154.02.308.033.461.03.121.084.227.165.318.093.066.188.129.284.187a.913.913 0 0 0 .192.325.604.604 0 0 0 .152.425.82.82 0 0 0 .204.476 1.991 1.991 0 0 0-.118.419c.025.034.029.07.013.108.02.038.036.079.046.122a.87.87 0 0 0 .145.505c.037.049.08.087.133.116.016.073.042.14.079.202a.566.566 0 0 0 .033.18l-.027.195c.01.134.02.269.027.404a.606.606 0 0 0-.37.418.664.664 0 0 0 .185.628c-.272.155-.378.393-.317.713a.593.593 0 0 1-.047.116c-.018.157-.044.31-.079.462a.742.742 0 0 0-.125.72l-.014.29a.667.667 0 0 0-.482.331.314.314 0 0 0-.04.116.804.804 0 0 0-.244.512.382.382 0 0 1 0 .13.492.492 0 0 1 .046.18.723.723 0 0 0-.297.26c-.373.044-.574.27-.601.678a.96.96 0 0 0-.139.136c-.353.076-.524.31-.515.7-.105.004-.211.006-.317.007-.242.07-.392.236-.45.498a.67.67 0 0 0-.343.18.589.589 0 0 1-.12.152c-.375-.189-.657-.083-.845.317-.252-.035-.446.064-.581.296a1.502 1.502 0 0 1-.324.08.425.425 0 0 0-.31.122 3.873 3.873 0 0 1-.265-.022.561.561 0 0 0-.423.202.812.812 0 0 0-.224-.122c-.243-.055-.443.02-.601.223a.527.527 0 0 0-.503.029.554.554 0 0 0-.574-.08.65.65 0 0 0-.252.224.387.387 0 0 0-.171.094.824.824 0 0 0-.364.123c-.189-.1-.38-.194-.574-.282a.47.47 0 0 0-.423.065c-.163-.188-.36-.256-.588-.202a.8.8 0 0 0-.265.173.661.661 0 0 0-.23-.079.661.661 0 0 0-.424-.173.534.534 0 0 0-.528-.23c-.142-.307-.367-.432-.674-.376a.583.583 0 0 0-.397.411c-.09.08-.182.158-.277.231a1.287 1.287 0 0 1-.198.245 1.572 1.572 0 0 0-.093.238c-.281.014-.462.168-.541.462a.4.4 0 0 0-.225.094 2.414 2.414 0 0 0-.383.425.358.358 0 0 0-.192.123c-.265-.19-.514-.169-.746.065l-.212.057a.161.161 0 0 0-.06.051c-.22-.055-.405.012-.554.202-.05.03-.1.06-.152.087a.676.676 0 0 0-.278 0 .94.94 0 0 0-.317-.051.502.502 0 0 0-.581-.101.634.634 0 0 0-.317.426c-.087-.247-.246-.403-.476-.47a.518.518 0 0 0-.304.044.163.163 0 0 0-.06.05.28.28 0 0 0-.046-.057c.042-.043.086-.084.132-.123a.522.522 0 0 0 .423-.252.703.703 0 0 0 .1-.433.646.646 0 0 0 .151-.404.345.345 0 0 0 .172-.065.724.724 0 0 0 .211-.31c.214-.153.308-.37.285-.65a.613.613 0 0 0-.073-.201c.06-.1.094-.211.099-.332a.522.522 0 0 1 .27-.094c.365-.156.489-.44.37-.85a.826.826 0 0 0 .054-.563c.136-.25.139-.493.006-.729a3.36 3.36 0 0 0-.138-.151 1.51 1.51 0 0 0-.265-.116.56.56 0 0 0-.317-.151.783.783 0 0 0-.224-.36.74.74 0 0 0-.265-.325.732.732 0 0 0 .06-.527c-.103-.263-.286-.408-.549-.433a.065.065 0 0 0-.02-.029.722.722 0 0 0-.244-.714.612.612 0 0 0-.205-.353c.083-.467-.088-.75-.515-.851-.038.024-.067.014-.086-.029.258-.22.318-.493.178-.822a.687.687 0 0 0-.198-.202 18.162 18.162 0 0 0-.02-.043.659.659 0 0 0-.125-.62 1.714 1.714 0 0 0-.112-.347.71.71 0 0 0 .198-.67.617.617 0 0 0-.357-.405.834.834 0 0 0 .126-.296.68.68 0 0 0 .21-.605c.24-.236.285-.51.133-.823a.267.267 0 0 0-.06-.079l.014-.014c-.011-.04-.02-.081-.027-.123.036-.06.069-.123.1-.188a.697.697 0 0 0 .052-.201.588.588 0 0 0 .126-.476c.074-.045.15-.09.225-.138a.882.882 0 0 0 .257-.367c.01-.043.016-.087.02-.13a.535.535 0 0 0 .264-.152c.06-.08.115-.165.165-.252.033-.108.05-.218.053-.332a.776.776 0 0 0 .093-.476.417.417 0 0 1 .145-.202 2.6 2.6 0 0 1 .106-.187.648.648 0 0 0 .522-.325c.287-.146.43-.393.43-.743a.1.1 0 0 1 .032-.05.79.79 0 0 0 .383-.044l.067-.043c.21.012.379-.072.508-.252.028-.057.053-.115.073-.174.053-.003.103-.003.152 0a.158.158 0 0 1 .139-.028.606.606 0 0 0 .456-.274c.042-.077.075-.158.099-.246.311.157.57.08.773-.23.013-.042.029-.083.046-.123a.476.476 0 0 0 .37-.13.643.643 0 0 0 .43-.21c.207.171.425.185.653.044.319.155.598.092.84-.187a.433.433 0 0 1 .033-.065c.072.005.142.007.21.007a.283.283 0 0 1 .278-.029c.212.275.467.33.767.166.05-.045.1-.093.145-.144.08-.049.155-.104.225-.166Z" fill="#767676"/></svg>