<svg width="25" height="25" viewBox="0 0 25 25" fill="none" xmlns="http://www.w3.org/2000/svg">
<path opacity="0.968" fill-rule="evenodd" clip-rule="evenodd" d="M11.377 0.000116155C11.4905 -0.00207653 11.5962 0.0267745 11.6942 0.0866694C11.7076 0.103792 11.7231 0.118218 11.7404 0.129946C11.9784 -0.00263912 12.1964 0.0286066 12.3945 0.223712C12.4436 0.290545 12.4944 0.35546 12.5464 0.418457C12.5985 0.373521 12.658 0.347079 12.7248 0.339116C12.8279 0.322729 12.9314 0.310712 13.0354 0.303052C13.1018 0.308 13.1656 0.324835 13.227 0.353542C13.3036 0.401117 13.3784 0.451607 13.4516 0.50501C13.5091 0.466436 13.5706 0.43998 13.6366 0.425669C13.7587 0.41573 13.882 0.425352 14.0066 0.454521C14.0925 0.494768 14.1806 0.526028 14.2708 0.548286C14.5045 0.228544 14.7819 0.173237 15.1033 0.382393C15.2047 0.471687 15.2707 0.584682 15.3015 0.721393C15.4736 0.676154 15.6342 0.705005 15.7838 0.807946C15.8857 0.79189 15.9848 0.806316 16.0811 0.851223C16.3043 0.727307 16.5201 0.739338 16.7286 0.887287C16.7774 0.926611 16.817 0.974705 16.8475 1.03154C17.0723 1.03637 17.2441 1.14216 17.3629 1.3489C17.5523 1.33433 17.7153 1.39684 17.8518 1.53644C17.9909 1.55789 18.1098 1.62521 18.2085 1.73839C18.4168 1.74269 18.582 1.83646 18.704 2.01969C18.7231 2.0453 18.7363 2.07415 18.7437 2.10624C18.7704 2.13127 18.7991 2.15291 18.8296 2.17116C19.06 2.10542 19.2671 2.15591 19.4506 2.32263C19.4994 2.37154 19.5345 2.42925 19.5563 2.49573C19.8168 2.52506 19.9929 2.67412 20.0849 2.94293C20.067 2.95988 20.0692 2.9743 20.0915 2.9862C20.0947 3.06609 20.1013 3.14543 20.1113 3.22422C20.1441 3.25997 20.1771 3.29603 20.2104 3.33241C20.4826 3.29198 20.6853 3.40258 20.8182 3.6642C20.8727 3.71179 20.9277 3.75748 20.9834 3.80124C21.001 3.82529 21.0187 3.84932 21.0363 3.87337C21.4372 3.89032 21.6486 4.11872 21.6705 4.55859C21.7476 4.64013 21.8048 4.73629 21.8423 4.8471C22.1613 4.79273 22.388 4.92736 22.5228 5.25101C22.5524 5.28198 22.5788 5.31564 22.6021 5.35199C22.6596 5.468 22.7169 5.5834 22.7739 5.6982C22.8203 5.86721 22.8049 6.02829 22.7276 6.18146C22.7603 6.20252 22.7956 6.21694 22.8333 6.22473C22.91 6.22869 22.9848 6.24311 23.058 6.26801C23.167 6.34553 23.2748 6.42487 23.3817 6.50603C23.482 6.62964 23.5437 6.7739 23.5667 6.9388C23.7891 7.117 23.875 7.35261 23.8244 7.64565C23.84 7.64249 23.8532 7.64729 23.864 7.66008C23.9562 7.77459 24.0112 7.90441 24.0292 8.04956C24.1041 8.12145 24.157 8.208 24.1878 8.30922C24.3442 8.48268 24.4037 8.68944 24.3661 8.92952C24.3792 8.97208 24.3902 9.01535 24.3992 9.05935C24.5458 9.16665 24.6338 9.31572 24.6634 9.50654C24.7984 9.69343 24.8556 9.90501 24.8352 10.1413C24.9816 10.3601 24.9993 10.5957 24.8881 10.8481C24.8599 10.9048 24.8224 10.9529 24.7758 10.9924C24.743 11.115 24.732 11.24 24.7427 11.3674C24.9497 11.5426 25.0223 11.7686 24.9608 12.0454C25.0131 12.2199 25.0131 12.393 24.9608 12.5648C25.0093 12.7476 25.007 12.9303 24.9541 13.1129C24.8981 13.2224 24.8541 13.3378 24.822 13.4591C24.7252 13.5891 24.6327 13.7237 24.5445 13.8631C24.5306 13.9741 24.4976 14.0776 24.4454 14.1732C24.452 14.1804 24.4586 14.1876 24.4652 14.1948C24.4839 14.3705 24.5014 14.5484 24.5181 14.7286C24.523 14.7419 24.5296 14.7538 24.5379 14.7647C24.5281 14.8169 24.5194 14.8697 24.5115 14.9233C24.6841 15.3 24.6093 15.6005 24.2869 15.8249C24.2147 15.9097 24.1926 16.0084 24.2208 16.1207C24.2105 16.3718 24.1048 16.5569 23.9037 16.676C23.8947 16.9387 23.789 17.1382 23.5865 17.2747C23.5433 17.292 23.4992 17.3064 23.4544 17.318C23.4129 17.3787 23.3821 17.4461 23.3619 17.5199C23.4368 17.705 23.4478 17.895 23.3949 18.0897C23.3661 18.1991 23.3199 18.2976 23.2562 18.3855C23.1939 18.4486 23.1279 18.5063 23.058 18.5586C22.9825 18.5968 22.9032 18.6184 22.8201 18.6235C22.8754 18.8585 22.8291 19.0652 22.6814 19.2438C22.5401 19.3488 22.4059 19.4617 22.2784 19.5828C22.1392 19.6526 21.9961 19.6646 21.8489 19.6188C21.8291 19.6236 21.8093 19.6285 21.7895 19.6333C21.7721 19.7816 21.7193 19.9114 21.6309 20.0228C21.5635 20.0989 21.4842 20.1542 21.393 20.1887C21.356 20.2352 21.312 20.2713 21.2609 20.2968C21.2069 20.405 21.1342 20.4963 21.0429 20.5709C20.9906 20.7771 20.8739 20.9189 20.6927 20.9965C20.5299 21.1885 20.3317 21.2678 20.0981 21.2345C19.9561 21.4513 19.7667 21.569 19.5299 21.5879C19.4033 21.8277 19.214 21.9431 18.9617 21.9341C18.8608 22.0014 18.7506 22.0399 18.6314 22.0495C18.5093 22.2594 18.3331 22.3699 18.1028 22.3813C17.9514 22.4031 17.8149 22.3646 17.6932 22.2659C17.6624 22.2563 17.6315 22.2563 17.6007 22.2659C17.4917 22.4781 17.3243 22.5863 17.0986 22.5905C17.0535 22.6854 16.9875 22.76 16.9004 22.8141C16.7207 22.9119 16.5423 22.9096 16.3652 22.8069C16.2953 22.8878 16.2138 22.9527 16.1208 23.0016C15.9696 23.0427 15.8199 23.0909 15.6715 23.1459C15.5049 23.1759 15.3486 23.1446 15.2024 23.0521C14.9874 23.256 14.7518 23.2896 14.4955 23.1531C14.3196 23.2861 14.1302 23.3125 13.9273 23.2324C13.811 23.1473 13.6921 23.0655 13.5705 22.9872C13.5284 22.9744 13.4866 22.9624 13.445 22.9511C13.3381 23.0005 13.2258 23.0221 13.108 23.0161C12.9032 23.2088 12.6786 23.2424 12.4341 23.117C12.3733 23.0766 12.3205 23.0262 12.2756 22.9656C12.201 22.9488 12.1262 22.9464 12.0509 22.9584C11.8924 23.1391 11.703 23.2065 11.4827 23.1603C11.2718 23.0966 11.1352 22.9498 11.0731 22.7203C10.9982 22.7613 10.919 22.7925 10.8353 22.8141C10.6076 22.846 10.427 22.7619 10.2935 22.5617C10.2826 22.5488 10.2694 22.5441 10.2539 22.5472C10.2507 23.0243 10.0305 23.243 9.59318 23.2036C9.55083 23.1942 9.51118 23.1773 9.47425 23.1531C9.46377 23.1593 9.45275 23.1641 9.44122 23.1675C9.3976 23.2176 9.35135 23.2656 9.30247 23.3118C9.25266 23.698 9.05005 23.9047 8.69464 23.9321C8.58443 24.103 8.43907 24.2256 8.25859 24.2999C8.20133 24.3047 8.14406 24.3096 8.08681 24.3144C8.0059 24.4745 7.88258 24.5755 7.71682 24.6173C7.58787 24.6412 7.46674 24.6196 7.35345 24.5524C7.30265 24.4996 7.24319 24.4612 7.17506 24.437C7.00684 24.5587 6.82626 24.5851 6.6333 24.5163C6.59806 24.5066 6.56283 24.5066 6.52759 24.5163C6.504 24.533 6.47757 24.5427 6.44831 24.5452C6.32862 24.6637 6.18766 24.7214 6.02547 24.7183C5.84575 24.9208 5.63433 24.9688 5.39121 24.8625C5.3094 24.8586 5.22792 24.8514 5.14675 24.8409C5.0739 24.8071 5.00344 24.7686 4.93533 24.7255C4.74379 24.8066 4.55438 24.8018 4.36714 24.7111C4.29762 24.7478 4.22495 24.7742 4.14911 24.7904C4.04481 24.9364 3.90606 25.0062 3.73288 24.9996C3.5329 24.9999 3.37875 24.9085 3.2704 24.7255C3.00003 24.8347 2.76879 24.7698 2.57668 24.5307C2.35216 24.5364 2.12753 24.5364 1.90278 24.5307C1.83101 24.5721 1.75394 24.589 1.67154 24.5812C1.58531 24.5912 1.50602 24.5719 1.43369 24.5235C1.37439 24.5522 1.31493 24.5835 1.25531 24.6173C0.989987 24.7018 0.77196 24.6272 0.601225 24.3937C0.56535 24.3268 0.541116 24.2546 0.52855 24.1773C0.395659 24.1451 0.285536 24.073 0.198206 23.9609C0.0788332 23.8298 0.0127645 23.6711 0 23.4849C0.00687114 23.4169 0.0178782 23.3496 0.0330344 23.2829C0.0706803 23.1909 0.116928 23.1043 0.171779 23.0233C0.00626331 22.7007 0.0503047 22.4194 0.303916 22.1794C0.400376 22.1145 0.506086 22.0784 0.621046 22.0712C0.756526 21.8532 0.943712 21.7667 1.18263 21.8115C1.20556 21.7811 1.22978 21.7522 1.25531 21.725C1.33171 21.5213 1.46384 21.3819 1.65172 21.3066C1.71232 21.1299 1.82243 21.0048 1.98206 20.9316C2.07164 20.8408 2.14431 20.7349 2.20009 20.6142C2.25142 20.5562 2.30648 20.5033 2.36526 20.4555C2.40342 20.3257 2.45186 20.2008 2.51061 20.0805C2.55907 20.0324 2.60751 19.9842 2.65596 19.9362C2.76976 19.8863 2.88428 19.8383 2.99952 19.7919C3.02469 19.7332 3.05773 19.6803 3.09862 19.6333C3.09295 19.5231 3.09295 19.4124 3.09862 19.3015C3.12194 19.2155 3.15058 19.1314 3.18451 19.049C3.13854 18.8908 3.15615 18.7418 3.23737 18.6018C3.04903 18.413 2.99178 18.1847 3.06559 17.9166C2.99221 17.8237 2.93936 17.718 2.90702 17.5993C2.69126 17.484 2.56573 17.2965 2.53043 17.0367C2.48303 16.9762 2.43899 16.9136 2.39829 16.8491C2.23537 16.7724 2.09883 16.657 1.98867 16.5029C1.96145 16.4086 1.92181 16.322 1.86974 16.2433C1.84793 16.1687 1.83251 16.0918 1.8235 16.0125C1.82626 16.0039 1.83067 15.9967 1.83671 15.9908C1.68479 15.9333 1.56587 15.8298 1.47994 15.6807C1.42818 15.5477 1.40617 15.4082 1.41387 15.2623C1.22507 15.1582 1.12157 14.9898 1.10335 14.7574C1.10277 14.6635 1.10497 14.5721 1.10995 14.4834C1.07773 14.4308 1.0557 14.3731 1.04389 14.3102C0.803673 14.1356 0.70897 13.9 0.75979 13.6034C0.784354 13.5868 0.795375 13.5629 0.792824 13.5313C0.786218 13.488 0.779611 13.4447 0.773004 13.4014C0.705719 13.3044 0.659471 13.2009 0.63426 13.0913C0.645412 13.0545 0.641012 13.0184 0.621046 12.9831C0.631749 12.8058 0.693417 12.6543 0.806038 12.5287C0.623847 12.3979 0.524744 12.2128 0.508729 11.9733C0.419629 11.8761 0.377781 11.7655 0.383198 11.6415C0.364752 11.622 0.355939 11.598 0.356771 11.5694C0.364461 11.5167 0.371068 11.4638 0.376592 11.4107C0.427834 11.2941 0.454262 11.1691 0.455874 11.0357C0.48801 10.9228 0.538658 10.8219 0.607832 10.7327C0.454923 10.5962 0.36684 10.4183 0.343557 10.199C0.351142 10.1092 0.370963 10.0226 0.403019 9.93931C0.487402 9.80315 0.557871 9.65889 0.614439 9.50654C0.66033 9.43048 0.715379 9.36317 0.779611 9.30459C0.757953 9.19996 0.762354 9.09416 0.792824 8.98722C0.726465 8.83371 0.717651 8.67744 0.766397 8.51839C0.612034 8.2415 0.627454 7.97462 0.812645 7.71778C0.833774 7.56948 0.891042 7.43965 0.984424 7.32829C1.0516 7.10593 1.19035 6.96889 1.40066 6.91716C1.43407 6.88789 1.46932 6.86145 1.50637 6.83782C1.54499 6.76438 1.59124 6.69706 1.64511 6.63586C1.65682 6.53197 1.68765 6.43579 1.73761 6.34735C1.73292 6.22937 1.75493 6.11876 1.80368 6.01556C1.80896 5.91079 1.80235 5.8074 1.78385 5.70542C1.80985 5.5067 1.89794 5.35042 2.04813 5.23659C2.06634 5.16591 2.07736 5.09379 2.08116 5.0202C2.15819 4.75594 2.32336 4.60206 2.57668 4.55859C2.53342 4.25776 2.63033 4.02936 2.86738 3.87337C2.9207 3.82 2.96915 3.7623 3.01273 3.70027C3.07348 3.65028 3.13955 3.61182 3.21094 3.58486C3.31372 3.56819 3.41503 3.54415 3.51486 3.51273C3.5509 3.47823 3.59054 3.44938 3.63378 3.42618C3.6798 3.35195 3.73046 3.28223 3.78574 3.21701C3.80191 2.85823 3.96929 2.65147 4.28786 2.59671C4.3988 2.35537 4.57719 2.23517 4.82302 2.23607C4.91558 2.24633 5.00367 2.26797 5.08729 2.30099C5.18982 1.97728 5.39684 1.82822 5.70834 1.8538C5.75613 1.85889 5.80238 1.87091 5.84708 1.88986C5.88779 1.86403 5.92964 1.83998 5.97261 1.81773C6.05489 1.71746 6.1562 1.65015 6.27653 1.61578C6.29117 1.2898 6.44092 1.08063 6.72579 0.988265C6.8604 0.974359 6.99254 0.988785 7.12221 1.03154C7.14112 1.03825 7.15652 1.05028 7.16845 1.06761C7.19528 1.03534 7.22831 1.0137 7.26756 1.00269C7.34572 0.978139 7.425 0.958895 7.5054 0.944989C7.68399 0.597449 7.94385 0.494061 8.28502 0.63484C8.31658 0.62503 8.34741 0.612999 8.37751 0.598776C8.53235 0.367549 8.73937 0.26657 8.99856 0.29584C9.05403 0.2741 9.1113 0.259675 9.17034 0.252563C9.3384 0.151007 9.51018 0.138991 9.68567 0.216499C9.7837 0.197674 9.87841 0.168823 9.96977 0.129946C10.1877 0.110673 10.3683 0.192423 10.5115 0.37518C10.6034 0.281472 10.7091 0.233377 10.8287 0.230925C10.8841 0.223669 10.9391 0.214061 10.9938 0.202074C11.1034 0.0917472 11.2312 0.0244232 11.377 0.000116155ZM11.9188 2.1928C11.9797 2.27862 12.0458 2.36036 12.117 2.43803C12.3957 2.62894 12.6533 2.60009 12.89 2.35148C13.0909 2.60077 13.3308 2.66088 13.6102 2.5318C13.6729 2.50238 13.7258 2.45911 13.7687 2.40197C13.7819 2.39956 13.7951 2.39716 13.8084 2.39475C13.901 2.42841 13.9935 2.45967 14.0858 2.48852C14.1683 2.50424 14.2498 2.51146 14.3303 2.51016C14.3838 2.48931 14.4389 2.47489 14.4955 2.46688C14.5563 2.50251 14.618 2.53377 14.6805 2.56065C14.7679 2.57705 14.8561 2.58426 14.9447 2.58229C14.9975 2.81444 15.1296 2.96591 15.3412 3.03669C15.4659 3.06569 15.5893 3.05847 15.7111 3.01505C15.7768 3.03815 15.8429 3.05979 15.9093 3.07997C15.9581 3.17421 16.0155 3.26316 16.0811 3.34684C16.2986 3.54871 16.5321 3.57997 16.7815 3.44061C16.8044 3.41724 16.8286 3.3956 16.8541 3.37569C16.894 3.53333 16.9777 3.66316 17.1052 3.76518C17.268 4.03766 17.4949 4.13143 17.7857 4.04648C17.8469 4.0179 17.9041 3.98184 17.9575 3.93829C18.1071 4.18612 18.3185 4.31595 18.5917 4.32778C18.6102 4.37615 18.6301 4.42424 18.6512 4.47203C18.673 4.75577 18.8117 4.93609 19.0674 5.01299C19.1161 5.01902 19.1644 5.02623 19.2128 5.03463C19.2404 5.03483 19.2647 5.02522 19.2855 5.00578C19.3227 5.01184 19.3602 5.01664 19.3978 5.0202C19.4508 5.0925 19.5125 5.15501 19.5828 5.20773C19.5433 5.61181 19.7063 5.85224 20.0717 5.92901C20.1132 5.9912 20.1573 6.05131 20.2038 6.10933C20.2524 6.15062 20.3053 6.18188 20.3624 6.2031C20.4 6.45348 20.5278 6.62419 20.7456 6.7152C20.8648 6.74228 20.9837 6.74228 21.1023 6.7152C21.1341 6.70466 21.1627 6.68782 21.1882 6.66471C21.2283 6.82872 21.2679 6.9922 21.3072 7.15518C21.3944 7.29121 21.4935 7.41624 21.6045 7.53025C21.622 7.5639 21.6397 7.59757 21.6573 7.63122C21.6404 7.78315 21.6712 7.92261 21.7498 8.04956C21.7589 8.20369 21.7699 8.35756 21.7829 8.51118C21.8122 8.63239 21.8673 8.73817 21.948 8.82854C22.041 8.89513 22.1358 8.95764 22.2321 9.01608C22.2741 9.13892 22.3381 9.24711 22.4237 9.34065C22.4194 9.5024 22.47 9.64425 22.5757 9.7662C22.5943 9.95104 22.6625 10.1097 22.7805 10.2422C22.7259 10.3762 22.6863 10.5156 22.6616 10.6606C22.6867 10.6949 22.691 10.731 22.6748 10.7688C22.6953 10.8071 22.7107 10.8479 22.721 10.8914C22.7186 11.0787 22.7671 11.247 22.8664 11.3963C22.9027 11.445 22.9467 11.4835 22.9985 11.5117C23.0149 11.5846 23.0413 11.6519 23.0778 11.7137C23.0793 11.7769 23.0902 11.837 23.1108 11.894C23.1015 11.9588 23.0927 12.0237 23.0844 12.0887C23.0946 12.2233 23.1034 12.3579 23.1108 12.4926C22.9253 12.5654 22.8019 12.7048 22.7408 12.911C22.6933 13.1563 22.755 13.3655 22.9258 13.5385C22.6538 13.694 22.5481 13.932 22.6087 14.2525C22.5971 14.2934 22.5816 14.3317 22.5625 14.3679C22.5441 14.5248 22.5177 14.6785 22.4832 14.8296C22.315 15.0445 22.2732 15.2848 22.3576 15.5508C22.3532 15.6469 22.3488 15.7431 22.3444 15.8394C22.1378 15.872 21.9771 15.9825 21.8621 16.1711C21.8415 16.2066 21.8283 16.245 21.8225 16.2865C21.681 16.4227 21.5996 16.5934 21.578 16.7987C21.5854 16.8434 21.5854 16.8866 21.578 16.9285C21.6049 16.9856 21.6203 17.0456 21.6243 17.1088C21.5026 17.1665 21.4035 17.2531 21.327 17.3685C20.9536 17.4132 20.7531 17.6391 20.7258 18.0465C20.6755 18.0869 20.6293 18.1324 20.587 18.1835C20.2343 18.2591 20.0626 18.4924 20.0717 18.8831C19.9666 18.8866 19.8609 18.8891 19.7545 18.8904C19.5126 18.9597 19.3629 19.1256 19.3053 19.388C19.1796 19.4108 19.065 19.471 18.9617 19.5684C18.9297 19.6262 18.8901 19.6767 18.8428 19.7198C18.4665 19.5311 18.1845 19.6369 17.9971 20.0372C17.7451 20.0024 17.5513 20.1009 17.4157 20.3329C17.3097 20.3716 17.2019 20.398 17.092 20.4122C16.9764 20.4089 16.8728 20.4499 16.7815 20.5349C16.6936 20.5307 16.6054 20.5235 16.5172 20.5132C16.3546 20.5151 16.2137 20.5825 16.0943 20.7152C16.025 20.662 15.95 20.621 15.8697 20.5926C15.6274 20.538 15.4269 20.6126 15.2685 20.8162C15.0983 20.7407 14.9309 20.7504 14.7664 20.845C14.588 20.71 14.3964 20.6834 14.1916 20.7657C14.0901 20.8166 14.0064 20.8912 13.9405 20.9893C13.8759 21.0054 13.8187 21.0367 13.7687 21.083C13.639 21.095 13.5178 21.1358 13.4053 21.2057C13.2164 21.1061 13.0248 21.0124 12.8305 20.9244C12.6811 20.8779 12.5401 20.8995 12.4077 20.9893C12.2446 20.8009 12.0487 20.7335 11.8197 20.7873C11.7214 20.8265 11.6334 20.8843 11.5554 20.9604C11.4823 20.9193 11.4052 20.8928 11.3242 20.8811C11.2017 20.7723 11.0608 20.7146 10.9013 20.708C10.8268 20.5999 10.7299 20.5278 10.6106 20.4916C10.5316 20.4684 10.4523 20.4636 10.3728 20.4772C10.2308 20.1713 10.0062 20.0463 9.69889 20.1021C9.50018 20.1646 9.36804 20.3016 9.30247 20.5132C9.21236 20.5937 9.11986 20.6706 9.02498 20.744C8.96798 20.8351 8.90191 20.9169 8.82678 20.9893C8.78932 21.0666 8.75848 21.1459 8.73428 21.2273C8.45271 21.2414 8.27212 21.3953 8.19252 21.6889C8.10886 21.6964 8.03398 21.7276 7.96789 21.7827C7.82413 21.9083 7.6964 22.0503 7.58469 22.2082C7.50893 22.2273 7.44507 22.2682 7.39309 22.3308C7.12819 22.1407 6.87932 22.1624 6.64651 22.3958C6.57625 22.4148 6.50577 22.434 6.43509 22.4535C6.41154 22.4651 6.39172 22.482 6.37563 22.504C6.15509 22.4488 5.9701 22.5162 5.82065 22.7059C5.77084 22.7368 5.72018 22.7656 5.66869 22.7925C5.5762 22.7733 5.4837 22.7733 5.39121 22.7925C5.28908 22.7576 5.18337 22.7407 5.07408 22.742C4.90037 22.582 4.70656 22.5484 4.49267 22.641C4.3293 22.7304 4.22359 22.8722 4.17554 23.0665C4.08879 22.8203 3.93023 22.6641 3.69985 22.5977C3.59464 22.5814 3.49334 22.5958 3.39593 22.641C3.37238 22.6527 3.35256 22.6696 3.33647 22.6915C3.32352 22.6701 3.3081 22.6509 3.29022 22.6338C3.33158 22.5912 3.37562 22.5503 3.42236 22.5112C3.60171 22.4999 3.74266 22.4157 3.8452 22.2587C3.92414 22.1287 3.95717 21.9845 3.9443 21.826C4.04011 21.7117 4.09076 21.5771 4.09626 21.422C4.15872 21.4161 4.21598 21.3945 4.26804 21.3571C4.36488 21.2736 4.43535 21.1702 4.47946 21.047C4.6926 20.8936 4.78729 20.6772 4.76355 20.3978C4.7512 20.3263 4.72698 20.2589 4.69088 20.1959C4.75162 20.0955 4.78466 19.985 4.78998 19.8641C4.87232 19.8072 4.96261 19.7761 5.06086 19.7703C5.4254 19.6138 5.54873 19.3302 5.43085 18.9192C5.51435 18.7402 5.53196 18.5527 5.4837 18.3566C5.62049 18.1069 5.6227 17.864 5.49031 17.6281C5.44557 17.5762 5.39932 17.5257 5.35156 17.4767C5.26656 17.4295 5.17846 17.391 5.08729 17.3612C4.99601 17.2758 4.8903 17.2254 4.77016 17.2098C4.727 17.0664 4.65214 16.9462 4.54553 16.8491C4.4864 16.7128 4.39831 16.6046 4.28125 16.5246C4.36705 16.3545 4.38687 16.1791 4.34071 15.998C4.23796 15.7346 4.05516 15.5904 3.79234 15.5653C3.78827 15.5536 3.78167 15.5441 3.77252 15.5364C3.82415 15.2493 3.74266 15.0113 3.52807 14.8224C3.49803 14.6772 3.42976 14.5595 3.32326 14.4689C3.4063 14.0017 3.23453 13.7181 2.80792 13.6178C2.76985 13.6416 2.74122 13.632 2.72203 13.589C2.98032 13.3697 3.03978 13.0956 2.90042 12.7667C2.84631 12.6836 2.78024 12.6162 2.70221 12.5648C2.6956 12.5503 2.689 12.5359 2.68239 12.5215C2.74502 12.2865 2.70317 12.0798 2.55686 11.9012C2.53264 11.7847 2.4952 11.6693 2.44454 11.555C2.62675 11.3714 2.69281 11.1478 2.64275 10.8842C2.58088 10.6894 2.46196 10.5547 2.28598 10.4803C2.34681 10.3903 2.38866 10.2917 2.41151 10.1845C2.58082 10.0244 2.65128 9.82249 2.62293 9.57867C2.86288 9.34291 2.90692 9.06883 2.75506 8.75642C2.73999 8.72599 2.72017 8.69955 2.6956 8.67708C2.7 8.67227 2.70442 8.66745 2.70882 8.66265C2.69794 8.62285 2.68913 8.58197 2.68239 8.54003C2.71799 8.47943 2.75102 8.41693 2.78149 8.3525C2.8091 8.28845 2.82671 8.22113 2.83435 8.15054C2.94508 8.01311 2.98693 7.85443 2.95988 7.6745C3.03436 7.63034 3.10923 7.58466 3.18451 7.53746C3.29993 7.4402 3.38582 7.31758 3.44218 7.16961C3.45138 7.12665 3.45798 7.08337 3.462 7.03978C3.56273 7.01605 3.65082 6.96556 3.72627 6.88831C3.78634 6.80747 3.84141 6.72332 3.89145 6.63586C3.92383 6.5281 3.94145 6.41752 3.9443 6.30407C4.02554 6.1574 4.05637 5.99872 4.0368 5.82803C4.06658 5.7433 4.11504 5.67597 4.18215 5.62607C4.21496 5.56181 4.2502 5.4993 4.28786 5.43854C4.51068 5.42156 4.68467 5.31337 4.8098 5.11397C5.09679 4.96833 5.23994 4.72068 5.23925 4.37105C5.24539 4.35041 5.25641 4.33359 5.27228 4.32056C5.40265 4.33787 5.53039 4.32345 5.65548 4.27729C5.67751 4.26286 5.69952 4.24844 5.72155 4.23401C5.93124 4.24577 6.10081 4.16162 6.23028 3.98156C6.25849 3.92494 6.28271 3.86724 6.30295 3.80846C6.3556 3.8053 6.40626 3.8053 6.45491 3.80846C6.49918 3.77642 6.54543 3.76681 6.59366 3.77961C6.7801 3.76306 6.93206 3.6717 7.04953 3.50552C7.09242 3.42924 7.12546 3.3475 7.14863 3.26029C7.46049 3.41734 7.71816 3.34039 7.92164 3.02948C7.93534 2.98757 7.95076 2.94669 7.96789 2.90686C8.11176 2.91604 8.23508 2.87276 8.33787 2.77703C8.50531 2.76372 8.64846 2.69398 8.76732 2.56786C8.97546 2.73797 9.19349 2.75239 9.4214 2.61114C9.73966 2.76575 10.0193 2.70325 10.2605 2.42361C10.2698 2.4008 10.2808 2.37916 10.2935 2.35869C10.3657 2.36391 10.4361 2.36631 10.5049 2.3659C10.5933 2.30732 10.6858 2.29771 10.7824 2.33705C10.9936 2.61164 11.249 2.66695 11.5488 2.50295C11.5998 2.45823 11.6482 2.41015 11.6942 2.35869C11.774 2.31037 11.8489 2.25507 11.9188 2.1928Z" fill="#767676"/>
</svg>
