<svg width="26" height="25" viewBox="0 0 26 25" fill="none" xmlns="http://www.w3.org/2000/svg">
<path d="M16.9363 0.0844078C16.8087 0.14975 16.6811 0.180243 16.5217 0.175886C16.2437 0.167173 16.1207 0.206379 15.7471 0.43725C15.4144 0.646341 15.1638 0.977404 14.9953 1.44786C14.8905 1.73536 14.7583 1.90525 14.5351 2.049C14.4758 2.0882 14.3892 2.1971 14.3391 2.28858C14.289 2.38441 14.2161 2.47589 14.1797 2.49767C14.1432 2.51945 14.0657 2.58479 14.0065 2.64142C13.9473 2.69805 13.8242 2.78082 13.7331 2.82438C13.4825 2.9507 13.1863 3.20771 13.0907 3.39067C13.0405 3.47779 12.9585 3.58669 12.9038 3.63461C12.8492 3.68252 12.7672 3.79142 12.717 3.87855C12.6578 3.9918 12.594 4.04408 12.4983 4.0615C12.3252 4.09635 12.07 4.3098 11.9743 4.50582C11.9333 4.58858 11.8422 4.68442 11.7739 4.71927C11.6007 4.80639 11.464 4.95885 11.3729 5.15923C11.3273 5.26378 11.1359 5.48158 10.899 5.70374C10.6803 5.90848 10.4753 6.11757 10.4479 6.16548C10.4206 6.22211 10.3386 6.26567 10.2338 6.2831C9.98317 6.3223 9.60043 6.62723 9.46829 6.8973C9.3726 7.08897 9.31793 7.14124 9.122 7.22836C8.8395 7.35469 8.59801 7.59863 8.53422 7.82515C8.4841 7.99503 8.29273 8.17363 7.82797 8.49162C7.427 8.76606 7.26297 8.9403 7.20374 9.16246C7.15817 9.3367 7.12628 9.37591 6.98503 9.43254C6.77543 9.5153 6.59317 9.68519 6.52027 9.85943C6.48838 9.93348 6.4337 10.0293 6.39269 10.0729C6.3289 10.1469 5.80035 10.4083 5.72289 10.4083C5.55886 10.4083 5.11233 10.9702 5.11233 11.175C5.11233 11.2752 4.93463 11.4145 4.68402 11.5147C4.58834 11.5539 4.4562 11.6367 4.39241 11.7064C4.32406 11.7717 4.19648 11.8676 4.10991 11.9199C4.02334 11.9721 3.8912 12.1115 3.81374 12.2335C3.73628 12.3598 3.62237 12.4731 3.54947 12.5036C3.39455 12.5646 3.22141 12.7562 3.1485 12.9479C3.11205 13.0437 3.03915 13.1134 2.91612 13.1744C2.68375 13.2789 2.48782 13.5011 2.42403 13.7146C2.40125 13.806 2.34657 13.9062 2.30556 13.9411C2.26911 13.9716 2.20532 14.05 2.17342 14.1153C2.12786 14.1937 2.05951 14.2416 1.95016 14.2591C1.72689 14.2983 1.28036 14.5945 1.15278 14.7949C1.08899 14.8863 0.979635 14.9996 0.902176 15.0475C0.75637 15.139 0.423749 15.6486 0.419193 15.7793C0.419193 15.8185 0.359959 15.9579 0.282499 16.0843C0.118468 16.363 0.104798 16.6113 0.236935 16.8945C0.355403 17.1428 0.355403 17.4346 0.232379 17.5915C0.104798 17.7526 0.0501209 18.0184 0.100242 18.2187C0.123024 18.3189 0.118468 18.4932 0.0865724 18.6631C0.0546773 18.8547 0.0501209 18.9854 0.082016 19.0856C0.118468 19.1901 0.113911 19.2642 0.0729031 19.36C-0.0182258 19.5604 -0.00455644 19.9045 0.100242 20.0962C0.186814 20.2617 0.186814 20.2661 0.0911289 20.4447C0.041008 20.5405 0 20.7017 0 20.7975C0.0182258 21.7515 0.082016 22.4441 0.195927 22.9189C0.232379 23.0714 0.232379 23.1672 0.195927 23.2631C0.168588 23.3415 0.145806 23.4722 0.145806 23.5549C0.145806 23.7379 0.432862 24.3695 0.596894 24.5394C0.724475 24.6744 1.0252 24.8225 1.16645 24.8269C1.21657 24.8269 1.34415 24.8705 1.45351 24.9184C1.74512 25.0534 2.08229 25.0186 2.36479 24.8312C2.56072 24.6962 2.58806 24.6919 2.74754 24.7354C2.97536 24.8008 3.56314 24.8443 3.74995 24.8095C3.83653 24.7964 3.97778 24.7398 4.06435 24.6875C4.21927 24.6004 4.54733 24.5612 5.15789 24.5699C6.60684 24.5917 6.5795 24.5917 6.85745 24.461C7.11261 24.3434 7.13083 24.3434 7.61837 24.3695C8.10136 24.4 8.12414 24.4 8.37019 24.2824C8.62079 24.1691 8.62535 24.1648 8.78938 24.2388C9.02176 24.3434 9.59587 24.3129 9.81002 24.1822C9.8966 24.1299 10.0743 24.0384 10.2064 23.9775C10.3386 23.9121 10.4798 23.8119 10.5254 23.7466C10.6803 23.5244 11.1542 23.1062 11.3683 23.0061C11.5096 22.9364 11.6189 22.8449 11.6873 22.7316C11.742 22.6401 11.8331 22.54 11.8923 22.5138C11.947 22.4833 12.0563 22.3744 12.1247 22.2699C12.1976 22.1653 12.3252 22.0346 12.4072 21.9824C12.4892 21.9301 12.5849 21.8256 12.6259 21.7471C12.6669 21.6687 12.7672 21.5816 12.8628 21.5424C13.0269 21.4727 13.478 21.0371 13.7696 20.6668C13.8561 20.5579 13.9746 20.4229 14.0338 20.3706C14.4576 19.9873 14.5442 19.8958 14.5442 19.8479C14.5442 19.8131 14.6763 19.6867 14.8403 19.5648C14.9998 19.4384 15.1684 19.2773 15.2049 19.2076C15.2459 19.1335 15.3461 19.0507 15.4327 19.0159C15.5192 18.981 15.6468 18.8939 15.7152 18.8286C15.7835 18.7632 15.9749 18.6151 16.1389 18.5062C16.303 18.3973 16.4807 18.2405 16.5353 18.1577C16.59 18.075 16.6629 17.9835 16.6948 17.9574C17.3464 17.378 17.5059 17.1907 17.5059 17.0165C17.5059 16.9816 17.5469 16.9206 17.6015 16.8727C17.6562 16.8291 17.7382 16.7159 17.7838 16.6288C17.8795 16.4502 18.2303 16.2106 18.5311 16.1147C18.6359 16.0799 18.8318 15.9492 18.9867 15.8098C19.1371 15.6704 19.3239 15.531 19.3968 15.4918C19.5198 15.4308 19.9891 14.9996 20.7318 14.2678C20.864 14.1371 20.9915 13.9672 21.0189 13.8975C21.0553 13.8017 21.1237 13.7363 21.2558 13.6797C21.4563 13.5969 21.6431 13.4271 21.7479 13.2354C21.9028 12.9566 22.2947 12.5079 22.4086 12.4818C22.6045 12.4339 23.0146 12.1594 23.1057 12.02C23.1513 11.946 23.2789 11.8284 23.3928 11.763C23.5978 11.6367 23.7937 11.3928 23.7937 11.2621C23.7937 11.2229 23.812 11.1924 23.8393 11.1924C23.9077 11.1924 24.5683 10.5738 24.6412 10.4388C24.6823 10.3691 24.7871 10.2863 24.8736 10.2471C25.1014 10.16 25.6118 9.68519 25.712 9.47174C25.7576 9.37591 25.7986 9.23216 25.7986 9.14939C25.7986 9.07098 25.8441 8.93159 25.9034 8.84447C25.9945 8.70072 26.0036 8.63537 25.9991 8.09958C25.9991 7.74674 25.9763 7.44617 25.9398 7.35033C25.8943 7.21965 25.8943 7.13689 25.9398 6.95393C25.9945 6.70564 25.9535 6.49654 25.8123 6.28745C25.7621 6.20904 25.7621 6.16984 25.8259 6.02609C25.9808 5.66889 25.8669 5.2115 25.5708 5.00677C25.4569 4.92836 25.4341 4.8848 25.4341 4.74105C25.4341 4.43177 25.2427 4.11377 24.9784 3.98309C24.901 3.94389 24.8463 3.86112 24.8098 3.7348C24.7278 3.46472 24.5957 3.28176 24.3633 3.12495C24.2312 3.03347 24.1583 2.95506 24.1583 2.89407C24.1583 2.72854 23.9031 2.40184 23.6935 2.30165C23.5842 2.24938 23.3746 2.12741 23.2242 2.03157C23.0738 1.93138 22.8415 1.8007 22.7139 1.73972C22.5225 1.65259 22.445 1.57854 22.3266 1.39123C22.199 1.19085 22.1306 1.12987 21.88 1.01225C21.6568 0.907705 21.5201 0.872856 21.3287 0.868502C21.1054 0.868502 21.0599 0.851076 20.9414 0.733463C20.7364 0.528727 20.4812 0.419827 20.1942 0.41547C20.0119 0.411114 19.9025 0.384977 19.8023 0.315281C19.7248 0.263006 19.5608 0.197666 19.4378 0.167173C19.3148 0.141037 19.1143 0.0931206 18.9913 0.0582714C18.7088 -0.0201378 18.5948 -0.0201378 18.3807 0.0626278C18.2349 0.119257 18.1574 0.123613 17.8932 0.0800514C17.2826 -0.0157814 17.1322 -0.0157814 16.9363 0.0844078ZM18.5857 2.24938C18.6495 2.28858 18.85 2.34521 19.0277 2.3757C19.5699 2.46282 19.8433 2.54994 20.1486 2.73726C20.3263 2.84616 20.4903 2.91585 20.5769 2.91585C20.75 2.91585 20.7819 2.93764 20.9323 3.15979C21.0599 3.35146 21.2695 3.49957 21.4836 3.54749C21.5565 3.56491 21.6568 3.64767 21.716 3.73044C21.7752 3.81321 21.9757 4.00923 22.158 4.16605C22.3448 4.32722 22.5225 4.51453 22.559 4.57987C22.6273 4.71491 22.7913 4.85431 23.0146 4.97192C23.1422 5.03726 23.1558 5.06775 23.1558 5.24635C23.1558 5.50336 23.247 5.7081 23.4748 5.95204C23.575 6.06094 23.6571 6.16984 23.6571 6.19598C23.6571 6.22211 23.7208 6.37457 23.7983 6.53139L23.9396 6.82761L23.8211 7.0367C23.7573 7.15431 23.7026 7.31984 23.7026 7.40261C23.7026 7.48537 23.6753 7.64655 23.6434 7.7598C23.5978 7.93405 23.5796 7.95583 23.5158 7.91227C23.4748 7.88177 23.3973 7.78158 23.3427 7.68575C23.288 7.58992 23.2287 7.48102 23.206 7.44617C23.1832 7.41132 23.1285 7.28935 23.0875 7.17609C22.9918 6.91037 22.7184 6.67514 22.4724 6.63594C22.3129 6.6098 22.2719 6.58367 22.1899 6.42685C22.1398 6.33101 21.9302 6.09143 21.7251 5.89541C21.5246 5.70374 21.233 5.40317 21.0827 5.22893C20.6589 4.73234 20.4539 4.54938 20.2261 4.4579C20.0484 4.38821 20.0165 4.35771 19.9937 4.21832C19.9572 4.00923 19.7977 3.79142 19.5699 3.64332C19.4287 3.5562 19.3375 3.44729 19.2373 3.24692C19.1462 3.0596 19.0459 2.93764 18.932 2.85923C18.6951 2.70676 18.2349 2.28422 18.2349 2.22324C18.2349 2.14919 18.449 2.16661 18.5857 2.24938ZM16.4624 3.64332C16.5672 3.91339 16.8224 4.24881 17.0001 4.35336C17.114 4.42306 17.2051 4.51453 17.2325 4.60165C17.278 4.72362 17.4193 4.86302 17.8248 5.18101L17.9661 5.28991L17.7701 5.47722C17.5514 5.68632 17.3282 5.84313 17.114 5.93461C17.0365 5.96946 16.9272 6.05223 16.8725 6.12192C16.8178 6.18726 16.7176 6.27439 16.6492 6.31359C16.5809 6.35279 16.4989 6.43556 16.4624 6.5009C16.4305 6.56189 16.3485 6.62287 16.2893 6.6403C16.2301 6.65336 16.1435 6.72306 16.1025 6.79276C16.0615 6.86681 16.0022 6.92344 15.9749 6.92344C15.9476 6.92344 15.8974 6.95393 15.8655 6.98878C15.8336 7.02363 15.7744 7.05412 15.7334 7.05412C15.6924 7.05412 15.5785 7.1456 15.4782 7.2545C15.2231 7.542 14.895 7.83821 14.8403 7.83821C14.813 7.83821 14.7401 7.89049 14.6717 7.95583C14.608 8.02552 14.4895 8.12136 14.412 8.17799C14.3346 8.23462 14.2708 8.30867 14.2708 8.33916C14.2708 8.37401 14.2252 8.42628 14.1705 8.45242C13.9792 8.54825 13.5873 8.90545 13.5873 8.9795C13.5873 9.01871 13.5326 9.08841 13.4688 9.13197C13.2638 9.27136 12.8127 9.68954 12.8127 9.74617C12.8127 9.77666 12.7626 9.82023 12.7034 9.85072C12.6396 9.87685 12.5348 9.9814 12.4664 10.0816C12.3844 10.2079 12.3024 10.2776 12.2158 10.295C12.1338 10.3081 12.0609 10.3647 12.0199 10.4431C11.9834 10.5128 11.8878 10.6087 11.8149 10.6566C11.7374 10.7002 11.5779 10.8439 11.464 10.9746C11.3455 11.1053 11.2089 11.2359 11.1542 11.2664C11.1041 11.2926 10.9947 11.3971 10.9218 11.5017C10.8443 11.6062 10.7213 11.7195 10.6484 11.7587C10.5709 11.7979 10.4889 11.8719 10.4616 11.9242C10.4388 11.9721 10.3021 12.1115 10.1654 12.2335C10.0287 12.3511 9.88748 12.4818 9.85103 12.5166C9.81458 12.5515 9.72345 12.6386 9.65055 12.7039C9.20402 13.1134 8.97164 13.3486 8.93974 13.4401C8.91696 13.4967 8.82583 13.5708 8.73926 13.6057C8.65269 13.6405 8.57067 13.7102 8.55244 13.7581C8.53878 13.8104 8.50688 13.8496 8.48865 13.8496C8.46587 13.8496 8.39297 13.9324 8.32007 14.0325C8.14692 14.2721 7.08527 15.2871 7.00781 15.2871C6.95313 15.2871 6.83011 15.4047 6.50205 15.7706C6.44737 15.8272 6.34257 15.9274 6.26055 15.9971C6.17854 16.0625 6.11475 16.1496 6.11475 16.1932C6.11475 16.2367 6.00995 16.3543 5.87781 16.4545C5.75023 16.5591 5.5862 16.7159 5.5133 16.8117C5.43584 16.9076 5.34471 16.986 5.3037 16.986C5.26725 16.986 5.1989 17.0165 5.15334 17.0557C5.07588 17.121 5.0531 17.1123 4.82983 16.8771C4.60656 16.6418 4.52455 16.4981 4.4562 16.1888C4.41975 16.0363 4.15092 15.7488 3.97322 15.6791L3.83653 15.6269L3.99144 15.4613C4.07346 15.3699 4.16915 15.2218 4.20104 15.1303C4.26027 14.9473 4.54277 14.6337 4.64302 14.6337C4.75693 14.6337 5.0531 14.4638 5.17156 14.3331C5.23535 14.2591 5.31281 14.1327 5.34015 14.0456C5.36749 13.9628 5.41305 13.8932 5.43584 13.8932C5.45862 13.8932 5.56797 13.8104 5.67733 13.7058C5.78213 13.6013 5.93705 13.4924 6.01906 13.4619C6.16487 13.4009 6.50205 13.0742 6.5795 12.9087C6.60229 12.8608 6.68886 12.7954 6.77087 12.7693C6.97591 12.6996 7.13539 12.5253 7.31765 12.1769C7.47712 11.8719 7.58648 11.7717 8.15603 11.3666C8.38841 11.2055 8.55244 11.0443 8.69825 10.8352C8.93974 10.4954 9.45006 9.9814 9.64143 9.88557C9.70978 9.85072 9.81458 9.76795 9.86926 9.69826C9.91938 9.63291 10.0287 9.50223 10.1062 9.41511C10.1837 9.32799 10.2702 9.21038 10.3021 9.1581C10.334 9.09276 10.4251 9.04049 10.5527 9.01C10.8033 8.94901 11.0539 8.75735 11.1496 8.5439C11.2089 8.42193 11.2726 8.36094 11.4276 8.29996C11.6417 8.21719 11.8422 8.02117 11.9105 7.8295C11.9379 7.7598 12.0381 7.66397 12.152 7.59863C12.2842 7.52458 12.4026 7.40696 12.512 7.23272C12.635 7.04105 12.7216 6.95829 12.8492 6.91037C13.0907 6.81889 13.3139 6.63158 13.4005 6.44427C13.4825 6.27003 13.7331 6.03916 13.8926 5.99124C14.0293 5.95204 14.3072 5.64711 14.3437 5.499C14.3619 5.42931 14.4713 5.29427 14.5943 5.18972C14.7128 5.08953 14.8221 4.96756 14.8403 4.924C14.854 4.88044 14.9451 4.82381 15.0454 4.79332C15.1411 4.76719 15.2914 4.67571 15.3734 4.5973C15.7197 4.26188 15.9977 3.96131 16.0751 3.84805C16.1845 3.67817 16.3257 3.5257 16.3759 3.5257C16.3986 3.5257 16.4351 3.57798 16.4624 3.64332ZM18.973 6.14806C19.1097 6.27874 19.2054 6.41813 19.2373 6.52704C19.2692 6.6403 19.3649 6.77969 19.5016 6.91037C19.62 7.02798 19.7841 7.20658 19.8615 7.31549C19.939 7.42439 20.0529 7.542 20.1213 7.57249C20.185 7.60734 20.2898 7.70753 20.3536 7.79901C20.4174 7.89049 20.5222 7.99939 20.5906 8.04295C20.7956 8.16492 20.8457 8.27382 20.709 8.27382C20.6225 8.27382 20.2853 8.54825 20.2853 8.61359C20.2853 8.65715 19.374 9.43254 19.1826 9.54579C19.1188 9.58935 19.0505 9.65905 19.0323 9.70697C19.0186 9.75053 18.9594 9.8028 18.9047 9.81587C18.85 9.82894 18.727 9.9117 18.6359 10.0032C18.0754 10.552 17.9478 10.6653 17.7063 10.8439C17.5605 10.9528 17.3874 11.0922 17.319 11.1575C17.2507 11.2272 17.1823 11.2795 17.1641 11.2795C17.1459 11.2795 16.9955 11.4015 16.8315 11.5452C16.6629 11.6933 16.4852 11.8327 16.4351 11.8545C16.385 11.8763 16.2984 11.9634 16.2392 12.0418C16.1845 12.1246 16.1161 12.1943 16.0934 12.1943C16.0068 12.1943 15.4965 12.6038 15.4053 12.7475C15.3507 12.8259 15.2231 12.9392 15.1183 13.0002C15.0135 13.0568 14.8813 13.1657 14.8221 13.2441C14.7674 13.3182 14.6581 13.3966 14.5897 13.4227C14.5168 13.4445 14.4075 13.536 14.3437 13.6231C14.2753 13.7102 14.1386 13.8539 14.0338 13.9367C13.9336 14.0195 13.7696 14.1632 13.6739 14.2503C13.5782 14.3418 13.4825 14.4159 13.4643 14.4159C13.4142 14.4202 12.8583 14.9255 12.8583 14.9691C12.8583 14.9865 12.7945 15.0388 12.7216 15.078C12.6441 15.1172 12.5849 15.1782 12.5849 15.213C12.5849 15.274 12.348 15.4613 12.2705 15.4613C12.2477 15.4613 12.0472 15.6486 11.824 15.8795C11.6053 16.1104 11.3866 16.3282 11.341 16.3674C11.2954 16.411 11.1724 16.5286 11.0676 16.6331C10.9628 16.7377 10.7441 16.9424 10.5846 17.0905C10.4206 17.2343 10.2064 17.4434 10.1062 17.5479C9.25869 18.4278 8.86228 18.8112 8.63446 18.9767C8.55244 19.0377 8.4841 19.103 8.4841 19.1204C8.4841 19.1684 8.24261 19.4254 8.2016 19.4254C8.11503 19.4254 7.73228 19.7172 7.65483 19.8479C7.56825 19.9873 7.55914 19.9917 7.47712 19.922C7.43156 19.8828 7.36321 19.7477 7.32676 19.6257C7.24475 19.3687 7.21285 19.3295 6.27422 18.3625C6.16031 18.2449 6.02817 18.0706 5.98261 17.9704C5.93705 17.8702 5.85503 17.7526 5.80035 17.7091C5.75023 17.6612 5.70467 17.6132 5.70467 17.5958C5.70467 17.5784 5.78668 17.5087 5.88693 17.4434C5.99172 17.3737 6.10563 17.2648 6.14664 17.1994C6.18765 17.1297 6.27878 17.0557 6.35168 17.0252C6.42003 16.999 6.47926 16.9642 6.47926 16.9468C6.47926 16.8771 6.862 16.4371 6.98503 16.3674C7.05793 16.3238 7.13995 16.2411 7.16273 16.1801C7.18551 16.1191 7.23563 16.0712 7.27208 16.0712C7.30854 16.0712 7.38599 15.9928 7.44067 15.8969C7.49991 15.8011 7.5637 15.7227 7.58192 15.7227C7.66849 15.7227 8.31551 15.1129 8.4841 14.882C8.54789 14.7949 8.66636 14.6816 8.74837 14.6337C8.83039 14.5858 8.90785 14.5117 8.92607 14.4725C8.98075 14.3157 9.75079 13.5011 9.83736 13.5011C9.86014 13.5011 9.91026 13.4445 9.95583 13.3748C9.99684 13.3051 10.088 13.2354 10.1518 13.2223C10.3067 13.1831 10.9309 12.5733 11.3045 12.0985C11.4139 11.9591 11.546 11.8371 11.5961 11.8197C11.7237 11.7848 11.9014 11.628 11.9014 11.5583C11.9014 11.5278 11.9379 11.493 11.988 11.4755C12.0928 11.445 12.872 10.7263 12.9449 10.5913C12.9768 10.539 13.077 10.4475 13.1727 10.3909C13.2684 10.3299 13.3868 10.2123 13.437 10.1208C13.5235 9.95962 13.5736 9.91606 13.7377 9.86814C13.7832 9.85507 13.847 9.78102 13.8744 9.71132C13.9017 9.63727 13.9518 9.58064 13.9792 9.58064C14.0111 9.58064 14.1022 9.51094 14.1888 9.42818C14.3482 9.26265 14.5077 9.11454 14.9816 8.67893C15.1411 8.53083 15.2732 8.39143 15.2732 8.36965C15.2732 8.34787 15.3826 8.28253 15.5147 8.21719C15.7653 8.09958 15.9749 7.91662 16.0205 7.77287C16.0341 7.72495 16.148 7.63348 16.2665 7.56814C16.3895 7.5028 16.5672 7.37211 16.6675 7.27628C16.9317 7.02363 16.9591 6.99749 17.0867 6.86681C17.155 6.80147 17.2325 6.7492 17.2598 6.7492C17.2871 6.7492 17.4831 6.59238 17.6927 6.40071C17.9023 6.20469 18.1119 6.05223 18.162 6.05223C18.2577 6.05223 18.4171 5.93461 18.4171 5.86491C18.4171 5.84313 18.4536 5.79522 18.4992 5.76472C18.5675 5.71245 18.5857 5.72116 18.6677 5.82571C18.7179 5.89105 18.8546 6.0348 18.973 6.14806ZM21.4153 8.80091C21.4563 8.84882 21.6477 9.04484 21.8345 9.23216L22.1762 9.57193L22.0532 9.71568C21.9848 9.79409 21.9119 9.92477 21.8983 10.0032C21.8755 10.1164 21.8071 10.1905 21.5656 10.3604C21.3743 10.4911 21.2285 10.6305 21.1784 10.7306C21.0827 10.9267 20.4356 11.5539 20.2352 11.6454C20.1486 11.6846 19.9162 11.8676 19.7157 12.0462C19.5152 12.2291 19.292 12.399 19.2145 12.4208C18.9913 12.4949 18.7953 12.6604 18.6951 12.8608C18.6404 12.9653 18.5447 13.0786 18.4809 13.1134C18.4126 13.1439 18.2212 13.3138 18.0526 13.488C17.8795 13.6623 17.7246 13.806 17.6972 13.806C17.6015 13.806 17.2735 14.0805 17.1915 14.2286C17.1459 14.32 17.0457 14.4202 16.9728 14.4464C16.7951 14.5248 16.1571 15.1216 15.8792 15.4744C15.8245 15.5441 15.7653 15.6748 15.7516 15.7663C15.7243 15.9144 15.7061 15.9318 15.5511 15.9579C15.3415 15.9884 15.0226 16.2411 14.9497 16.4327C14.9132 16.5242 14.8403 16.5983 14.7264 16.6505C14.5487 16.729 14.2115 17.0557 13.9792 17.3693C13.8972 17.4782 13.7832 17.5697 13.6967 17.5958C13.6192 17.6219 13.4825 17.7047 13.4005 17.7831C13.3139 17.8615 13.159 17.9791 13.0588 18.0445C12.9494 18.1142 12.8173 18.2579 12.7489 18.3843C12.6669 18.528 12.5667 18.6282 12.4573 18.6805C12.2523 18.7807 12.0882 18.9506 11.947 19.1945C11.8832 19.3077 11.7602 19.4254 11.6235 19.5081C11.3866 19.6475 11.259 19.8305 11.2225 20.0962C11.1997 20.2356 11.1678 20.2835 11.0357 20.3488C10.9491 20.3924 10.7805 20.5274 10.6621 20.6451C10.5436 20.767 10.4206 20.8629 10.3841 20.8629C10.252 20.8629 9.95127 21.1199 9.85103 21.3159C9.77813 21.464 9.72801 21.5163 9.65055 21.5163C9.59131 21.5163 9.45006 21.5642 9.3316 21.6208C9.21313 21.6775 9.07644 21.7167 9.02631 21.7036C8.97619 21.6905 8.84406 21.5424 8.72559 21.3769C8.61168 21.2114 8.44765 21.0197 8.36107 20.95C8.27906 20.8803 8.21071 20.7888 8.21071 20.7453C8.20615 20.7017 8.17882 20.5928 8.14692 20.5013C8.08769 20.3445 8.08769 20.3358 8.19704 20.2617C8.26083 20.2225 8.38386 20.1223 8.46587 20.0439C8.55244 19.9699 8.6618 19.9045 8.71192 19.9045C8.81216 19.9045 8.98531 19.7085 8.98531 19.5952C8.98531 19.5473 9.01265 19.5125 9.04454 19.5125C9.07644 19.5125 9.16301 19.4515 9.23591 19.3818C9.30881 19.3077 9.39083 19.2511 9.42273 19.2511C9.45006 19.2511 9.58676 19.1291 9.71889 18.981C9.85559 18.8329 9.99684 18.6848 10.0424 18.65C10.2657 18.467 10.4798 18.2449 10.6028 18.075C10.8124 17.7788 11.1314 17.4651 11.218 17.4651C11.2909 17.4651 11.5825 17.1602 11.5825 17.0862C11.5825 17.0644 11.6508 17.0121 11.7328 16.9642C11.9288 16.8553 12.2341 16.5591 12.3252 16.3935C12.3662 16.3195 12.471 16.2236 12.5576 16.1844C12.6487 16.1452 12.9813 15.8621 13.3048 15.5572C13.6238 15.2522 13.9746 14.9473 14.0794 14.8776C14.1842 14.8079 14.2708 14.7252 14.2708 14.6947C14.2708 14.6598 14.3255 14.6032 14.3984 14.5596C14.4667 14.5161 14.5487 14.4464 14.5806 14.4028C14.6171 14.3593 14.7264 14.2765 14.8221 14.2155C14.9224 14.1545 15.0272 14.063 15.0545 14.0021C15.0818 13.9454 15.1502 13.8888 15.2049 13.8757C15.2641 13.8627 15.4008 13.7538 15.5147 13.6318C15.6286 13.5142 15.738 13.414 15.7562 13.414C15.7744 13.414 15.9476 13.2615 16.1389 13.0742C16.5627 12.6647 16.9044 12.3772 17.0138 12.3424C17.0593 12.3293 17.1687 12.2335 17.2598 12.1246C17.3509 12.02 17.4512 11.9329 17.4831 11.9329C17.5104 11.9329 17.6015 11.8545 17.6836 11.7587C17.7701 11.6541 17.8658 11.5844 17.925 11.5844C18.0344 11.5844 18.1893 11.4668 18.1893 11.3841C18.1893 11.3318 18.4855 11.0617 18.5493 11.0617C18.5675 11.0617 18.7179 10.9354 18.8819 10.7786C19.0505 10.6217 19.2009 10.4954 19.2236 10.4954C19.2419 10.4954 19.3603 10.4083 19.4834 10.2994C19.6018 10.1905 19.7112 10.1034 19.7203 10.1034C19.7613 10.1034 20.2853 9.59371 20.2853 9.55451C20.2853 9.48481 20.5632 9.23216 20.6407 9.23216C20.6817 9.23216 20.7911 9.16246 20.8776 9.07534C20.9642 8.99257 21.0872 8.87496 21.1465 8.81397C21.2786 8.68765 21.3105 8.68329 21.4153 8.80091ZM2.85233 17.9138C2.91612 18.0184 3.03459 18.1577 3.12116 18.2187C3.23052 18.2971 3.28975 18.3843 3.31253 18.4932C3.33076 18.6064 3.40822 18.7153 3.56314 18.8591C3.68616 18.9767 3.82286 19.1466 3.86386 19.2468C3.96411 19.482 4.42886 19.8828 4.71136 19.9742C4.87995 20.0265 4.98019 20.1006 5.15789 20.3053C5.28092 20.449 5.38572 20.5884 5.38572 20.6189C5.38572 20.6494 5.44495 20.7583 5.52241 20.8542C5.59531 20.9543 5.6591 21.085 5.6591 21.146C5.6591 21.281 5.80035 21.5555 5.91426 21.6513C5.96438 21.6905 6.06918 21.7559 6.1512 21.7951C6.24688 21.843 6.29701 21.8996 6.29701 21.965C6.29701 22.0172 6.33801 22.1261 6.38813 22.2045C6.43825 22.2829 6.47926 22.357 6.47926 22.3657C6.47926 22.3788 6.28789 22.3875 6.05096 22.3875C5.81402 22.3875 5.56797 22.4049 5.50418 22.4311C5.42217 22.4615 5.34471 22.4528 5.22168 22.4049C5.11689 22.3614 4.9483 22.3439 4.75693 22.3526C4.52455 22.3614 4.4562 22.3483 4.43798 22.3004C4.42431 22.2655 4.3104 22.1305 4.18282 22.0085C4.05523 21.8822 3.90032 21.721 3.84108 21.647C3.78185 21.5729 3.63149 21.4466 3.49935 21.3682C3.27608 21.2331 3.26697 21.2157 3.25786 21.024C3.24419 20.6712 2.98903 20.3968 2.61084 20.3184L2.46048 20.2879L2.49237 20.0613C2.5425 19.7564 2.52883 19.5778 2.44225 19.4167C2.39213 19.3252 2.37846 19.2337 2.40125 19.1248C2.41947 19.0377 2.44225 18.8286 2.44681 18.6631C2.45592 18.467 2.49237 18.2884 2.55616 18.1621C2.60629 18.0532 2.65185 17.9138 2.65185 17.8441C2.65185 17.6742 2.71564 17.696 2.85233 17.9138Z" fill="#767676"/>
</svg>
