<svg width="30" height="25" viewBox="0 0 30 25" fill="none" xmlns="http://www.w3.org/2000/svg">
<path d="M22.8739 0.0867577C22.7395 0.146378 22.5298 0.195158 22.3792 0.195158C22.2394 0.195158 22.0136 0.227678 21.8899 0.27104C21.7608 0.308981 21.5565 0.368601 21.4382 0.406542C21.3146 0.439062 21.1855 0.504103 21.1479 0.547462C21.1102 0.590824 20.9973 0.628763 20.8952 0.628763C20.5564 0.628763 20.1101 0.796785 19.9166 0.991909C19.8144 1.09489 19.6638 1.21413 19.5778 1.25749C19.4971 1.30085 19.3681 1.43093 19.2928 1.54476C19.2229 1.664 19.1369 1.7724 19.1046 1.79408C19.0724 1.81034 19.0132 1.91332 18.9756 2.01088C18.9272 2.11928 18.8035 2.25478 18.6798 2.33067C18.3895 2.52037 18.2981 2.71007 18.2981 3.15451C18.2981 3.46346 18.2766 3.5556 18.1583 3.72904C18.04 3.90248 18.0024 3.92416 17.9163 3.87538C17.7711 3.7995 16.5936 3.60438 16.3624 3.62064C16.2548 3.62606 16.1097 3.58812 16.0236 3.53392C15.9322 3.46888 15.701 3.41468 15.3891 3.38216C15.0235 3.34964 14.8622 3.30628 14.7385 3.21414C14.5503 3.07321 14.174 3.05695 13.9105 3.1762C13.7653 3.24124 13.7169 3.23582 13.561 3.16536C13.2652 3.02443 12.7168 2.99191 12.3888 3.08947L12.0984 3.1762L11.878 2.92145C11.7597 2.78595 11.5984 2.56915 11.5285 2.44991C11.4532 2.32524 11.3027 2.11928 11.1897 1.9892C11.0768 1.85912 10.9854 1.73446 10.9854 1.70736C10.9854 1.61522 10.6144 1.44177 10.4155 1.44177C10.2111 1.44177 10.0875 1.37131 9.57127 0.991909C9.36695 0.845566 8.84538 0.726326 8.50663 0.753426C8.25929 0.775106 8.17326 0.758846 7.99582 0.650444C7.76461 0.509523 7.54415 0.487843 7.30219 0.596243C7.17314 0.650444 7.11937 0.650444 7.00646 0.590824C6.79676 0.482422 6.60319 0.504103 6.2268 0.682964C6.0386 0.769686 5.84503 0.845566 5.79664 0.845566C5.74825 0.845566 5.60845 0.899767 5.48478 0.964808C5.36111 1.02443 5.14603 1.11115 5.00623 1.14367C4.83954 1.19245 4.61909 1.32795 4.35024 1.54476C4.12978 1.72904 3.90933 1.87538 3.86093 1.87538C3.69962 1.87538 3.48455 2.03256 3.24258 2.33067C3.10816 2.49327 2.93072 2.65587 2.84469 2.69381C2.75866 2.73175 2.58659 2.85099 2.46292 2.95939C2.33388 3.06779 2.15106 3.21414 2.0489 3.27376C1.94673 3.3388 1.81769 3.47972 1.75854 3.59354C1.70477 3.70194 1.61874 3.83202 1.57572 3.8808C1.12944 4.38487 1.04878 4.55289 0.978881 5.08948C0.941242 5.393 0.90898 5.48514 0.796064 5.57187C0.575608 5.74531 0.322891 6.29815 0.312137 6.64504C0.301383 6.82932 0.242236 7.06238 0.150828 7.26834C0.0647965 7.44721 0.00027297 7.66401 0.00027297 7.75615C-0.00510399 8.13556 0.0701735 9.01903 0.118566 9.18705C0.150828 9.29003 0.161582 9.43095 0.145451 9.50141C0.0916814 9.70195 0.269121 10.0922 0.500331 10.2927C0.613247 10.3903 0.726163 10.5366 0.747671 10.6234C0.796064 10.8347 1.10255 11.1274 1.31763 11.1708C1.41441 11.1871 1.62412 11.2684 1.78543 11.3442C2.03814 11.4743 2.09729 11.4797 2.28548 11.431C2.4683 11.3822 2.53282 11.3876 2.67262 11.4689C2.91459 11.6098 3.52756 11.6478 3.76953 11.5448C4.00611 11.4472 4.03837 11.4364 4.57607 11.3605C4.8019 11.328 5.03849 11.2684 5.10839 11.225L5.23206 11.1437V11.561C5.23206 11.9242 5.25357 12.0326 5.39337 12.309C5.60307 12.7318 5.60307 12.8402 5.38261 12.9215C5.17829 12.9919 4.02762 14.1572 3.96847 14.347C3.94697 14.4174 3.85556 14.5421 3.7749 14.6288C3.68887 14.7155 3.61897 14.8131 3.61897 14.8456C3.61897 14.8835 3.55982 15.0299 3.48455 15.1816C3.41465 15.328 3.35012 15.4797 3.35012 15.5068C3.35012 15.5881 3.08665 16.076 2.87695 16.3795C2.78554 16.5204 2.70489 16.683 2.70489 16.7372C2.70489 16.7914 2.64036 16.9377 2.56509 17.057C2.36076 17.3822 2.35538 17.5611 2.51669 18.0001C2.64036 18.3307 2.65649 18.4283 2.62961 18.7589C2.61348 18.9648 2.62423 19.2738 2.65112 19.4364C2.72102 19.7887 2.72102 19.7995 2.67262 19.9892C2.61885 20.2223 2.69413 20.5041 2.86082 20.6722C2.96298 20.7697 3.0275 20.9107 3.05439 21.0678C3.08665 21.2684 3.14042 21.3497 3.4254 21.6044C3.60284 21.767 3.89857 22.0489 4.07601 22.2331C4.47391 22.6342 4.81266 22.9052 5.10839 23.0624C5.23206 23.122 5.36111 23.225 5.39337 23.2846C5.42563 23.3388 5.56543 23.4689 5.70523 23.5611C5.84503 23.6586 6.01172 23.7995 6.07624 23.8808C6.2268 24.0706 6.40962 24.1356 6.8559 24.1735C7.06023 24.1898 7.29681 24.2494 7.42048 24.3145C7.64094 24.4337 7.83989 24.45 8.05497 24.3687C8.16251 24.3253 8.2109 24.3361 8.30231 24.4283C8.47437 24.6017 8.65719 24.6451 9.0981 24.6071C9.45835 24.5746 9.52825 24.5855 9.70569 24.6939C9.88851 24.8023 9.97992 24.8131 10.5391 24.8023C11.2059 24.7968 11.6414 24.8294 11.8188 24.9107C11.878 24.9323 11.9694 24.9703 12.0232 24.9865C12.1791 25.0407 12.7974 24.9215 12.991 24.8023C13.2169 24.6613 13.3567 24.6668 13.6631 24.8294C13.9643 24.992 14.1471 24.9974 14.4159 24.8673C14.5772 24.786 14.7332 24.7697 15.287 24.7806C15.658 24.786 16.2387 24.7697 16.5775 24.7426C16.9162 24.7101 17.3571 24.683 17.5561 24.6776C17.8518 24.6668 17.9378 24.6451 18.0507 24.5367C18.1637 24.4283 18.2174 24.4174 18.4218 24.4445C18.5562 24.4662 18.7229 24.4554 18.8143 24.4174C18.9003 24.3849 19.2229 24.3578 19.5294 24.3632C20.0187 24.3632 20.1101 24.3524 20.3306 24.2332C20.4704 24.1573 20.6532 24.0977 20.7338 24.0977C20.9005 24.0977 21.0672 24.0272 21.2285 23.8808C21.2984 23.8158 21.449 23.7724 21.6587 23.7562C21.8361 23.7453 22.0566 23.7074 22.1426 23.6749C22.234 23.6478 22.4383 23.5773 22.5997 23.5231C22.761 23.4743 22.9814 23.3551 23.089 23.263C23.2825 23.0949 23.3793 23.0299 23.9762 22.6884C24.3525 22.4716 24.5192 22.3361 24.5622 22.206C24.5784 22.1518 24.6752 22.0814 24.7773 22.0434C25.0032 21.9621 25.1591 21.7724 25.2344 21.4906C25.2666 21.3714 25.315 21.2792 25.3365 21.2792C25.4118 21.2792 25.7183 20.786 25.7183 20.6722C25.7183 20.618 25.7667 20.5041 25.8258 20.4228C25.9818 20.2115 26.299 18.8293 26.2399 18.6559C26.2237 18.6234 26.2506 18.5258 26.299 18.4337C26.4119 18.2006 26.3528 17.3226 26.2022 17.0678C26.1269 16.9323 26.0947 16.786 26.0947 16.5312C26.0947 16.2548 26.0624 16.1085 25.9334 15.8321C25.8473 15.6423 25.7506 15.4743 25.7237 15.4581C25.6968 15.4364 25.6215 15.3171 25.557 15.1871C25.4279 14.9161 25.1161 14.7209 24.8096 14.7209C24.6375 14.7209 24.6375 14.7155 24.6752 14.5421C24.702 14.4499 24.7128 14.2711 24.7074 14.1572C24.702 14.0326 24.7343 13.8862 24.7827 13.8104C24.8311 13.7399 24.8795 13.5285 24.8956 13.3497C24.9064 13.1437 24.9548 12.9757 25.0085 12.9161C25.0784 12.8348 25.0999 12.7209 25.0946 12.4228C25.0731 11.2846 25.0677 11.3117 25.2881 11.5448C25.3527 11.6207 25.4763 11.6965 25.5624 11.7128C25.643 11.7345 25.7398 11.7833 25.7721 11.8266C25.8097 11.8646 25.9334 11.9296 26.0517 11.9621C26.2237 12.0055 26.3151 12.0001 26.5302 11.9242C26.7829 11.832 26.7937 11.832 26.9066 11.935C27.0034 12.0217 27.1163 12.038 27.5895 12.0543C28.0734 12.0651 28.1809 12.0488 28.3369 11.9567C28.439 11.8971 28.5627 11.8483 28.6165 11.8483C28.7079 11.8483 28.9176 11.7074 29.3155 11.3768C29.4176 11.2955 29.5306 11.1437 29.5736 11.0407C29.6166 10.9377 29.708 10.8076 29.7779 10.7589C30.0091 10.5746 30.036 10.4011 29.9661 9.64233C29.9338 9.26293 29.9123 8.86185 29.9231 8.75886C29.9285 8.65588 29.9338 8.34694 29.9231 8.07051C29.9123 7.64775 29.8854 7.52309 29.751 7.23041C29.6596 7.0407 29.5897 6.7968 29.5897 6.6884C29.5897 6.55832 29.5467 6.43908 29.4553 6.33067C29.38 6.23853 29.3209 6.09761 29.3209 6.01089C29.3209 5.92417 29.2725 5.76157 29.2133 5.64233C29.1542 5.52308 29.1058 5.37674 29.1058 5.31712C29.1058 5.19788 28.9821 4.98108 28.8477 4.87268C28.7939 4.82932 28.7617 4.69381 28.7509 4.48243C28.7402 4.11387 28.6864 4.00005 28.4552 3.80492C28.3638 3.72904 28.267 3.57728 28.2347 3.46346C28.1756 3.25208 28.025 3.06237 27.3529 2.39029C27.1163 2.1518 26.8475 1.84828 26.7614 1.7182C26.6808 1.58812 26.5463 1.44177 26.4711 1.39299C26.3958 1.34963 26.299 1.25749 26.256 1.19787C26.014 0.861826 25.842 0.731745 25.5462 0.650444C25.3742 0.607084 25.1537 0.520363 25.0516 0.460741C24.9118 0.37944 24.7289 0.341501 24.3687 0.31982C23.96 0.29814 23.8364 0.265619 23.675 0.162638C23.3954 -0.0270634 23.1589 -0.0487442 22.8739 0.0867577ZM23.6912 2.21142C23.7772 2.24394 23.9869 2.25478 24.2074 2.2331L24.5784 2.19516L24.9064 2.52579C25.0892 2.70465 25.2613 2.85099 25.2881 2.85099C25.3096 2.85099 25.3473 2.94855 25.3688 3.06779C25.4118 3.33338 25.686 3.67484 26.0463 3.92416C26.1915 4.02172 26.342 4.16807 26.385 4.24937C26.4281 4.33067 26.5141 4.43907 26.5732 4.48785C26.6324 4.53663 26.7077 4.67213 26.7345 4.79137C26.7668 4.9052 26.8421 5.04612 26.9012 5.10032C26.9604 5.15452 27.0088 5.23582 27.0088 5.2846C27.0088 5.33338 27.0464 5.42552 27.0894 5.49598C27.1539 5.5827 27.1647 5.68027 27.1378 5.88623C27.1056 6.12471 27.1217 6.20059 27.3045 6.56374C27.412 6.78596 27.525 6.97024 27.5518 6.97024C27.5787 6.97024 27.6002 7.03528 27.6002 7.11658C27.6002 7.33339 27.7454 7.78867 27.8637 7.94585C27.9497 8.0651 27.9605 8.18976 27.9659 8.73718C27.9659 9.14911 27.9928 9.46889 28.0358 9.59355C28.1003 9.77242 28.0949 9.81578 28.0035 9.99464C27.8745 10.2385 27.697 10.2765 27.4067 10.1193C27.2937 10.0543 27.1271 10.0055 27.041 10.0055C26.8743 10.0055 26.5571 9.91876 26.4173 9.83746C26.17 9.69112 25.729 9.51225 25.5355 9.47973C25.4118 9.46347 25.1914 9.38759 25.0354 9.32255C24.8849 9.25209 24.7236 9.19247 24.6859 9.19247C24.5676 9.19247 24.2504 9.06239 24.0514 8.93231C23.917 8.84558 23.7826 8.81306 23.5944 8.81306C23.4492 8.81306 23.2073 8.80222 23.0567 8.78596C22.6373 8.73718 22.3093 8.99193 22.2394 9.42553C22.2179 9.57729 22.2555 9.7128 22.4545 10.1247C22.5889 10.4011 22.7179 10.7318 22.7341 10.8564C22.7556 10.9811 22.8201 11.1491 22.8739 11.2196C22.9653 11.3334 22.9707 11.3876 22.9277 11.5502C22.8685 11.7724 22.9277 12.0434 23.0836 12.244C23.2019 12.3957 23.175 12.5529 22.9707 12.9432C22.9115 13.0516 22.8524 13.2955 22.8362 13.4852C22.8201 13.6749 22.7502 13.9459 22.6803 14.103C22.605 14.2548 22.5351 14.4825 22.5136 14.6017C22.4437 15.0299 22.5082 15.1166 23.7772 16.3686C24.1805 16.7697 24.2665 16.8835 24.2665 17.0136C24.2665 17.1058 24.2934 17.2575 24.3257 17.3497C24.3741 17.4798 24.3741 17.6369 24.3257 18.0055C24.288 18.2711 24.2504 18.6071 24.245 18.7589C24.2343 18.9215 24.1859 19.1058 24.116 19.2196C24.0514 19.3226 23.9977 19.496 23.9977 19.599C23.9977 19.7074 23.9493 19.8808 23.8955 19.9947C23.7396 20.2982 23.218 20.8456 23.0782 20.8456C22.9061 20.8456 22.6212 21.0407 22.4921 21.2575C22.4276 21.3551 22.3469 21.4418 22.3093 21.4418C22.277 21.4418 22.1534 21.4906 22.0351 21.5502C21.9168 21.6098 21.7501 21.6586 21.6641 21.6586C21.4544 21.6586 20.8414 21.9079 20.6478 22.0705C20.4542 22.2386 20.1316 22.3199 19.8628 22.2765C19.6961 22.2494 19.5886 22.2711 19.3896 22.3687C19.2122 22.4554 19.0294 22.4987 18.8089 22.5042C18.4755 22.5096 17.8948 22.5963 17.5184 22.6993C17.4001 22.7264 17.2442 22.7535 17.1689 22.7535C16.8678 22.7589 15.8301 22.6993 15.5505 22.6613C15.3031 22.6288 15.2171 22.6397 15.0289 22.7372C14.9052 22.8023 14.7116 22.851 14.5987 22.851C14.4912 22.8456 14.303 22.8456 14.1847 22.851C14.0664 22.8565 13.8782 22.8619 13.7707 22.8565C13.0609 22.8294 12.3942 22.8565 11.7221 22.9323C11.4586 22.9594 11.3941 22.9486 11.2758 22.8565C11.093 22.7101 10.8187 22.6613 10.5983 22.7372C10.4477 22.786 10.3832 22.7806 10.238 22.7101C10.109 22.6451 9.97992 22.6288 9.75946 22.6505C9.52288 22.6776 9.42072 22.6613 9.24865 22.5692C9.07659 22.4825 8.9583 22.4662 8.67869 22.4825C8.36683 22.5042 8.29693 22.4879 8.11411 22.3687C7.94205 22.2548 7.83989 22.2277 7.58179 22.2331C7.27531 22.2386 7.2538 22.2331 7.07636 22.0326C6.93656 21.8754 6.82902 21.8158 6.61394 21.767C6.19991 21.6749 5.98483 21.5502 5.80202 21.2901C5.71061 21.16 5.49015 20.9323 5.31271 20.7806C5.1299 20.6234 4.96859 20.4337 4.93633 20.3307C4.89869 20.2386 4.80728 20.0705 4.72125 19.9621C4.59758 19.8104 4.56532 19.7074 4.55456 19.4527C4.54381 19.2792 4.5223 18.8944 4.50617 18.5963C4.48466 18.2982 4.46853 18.0163 4.47391 17.973C4.47391 17.8104 4.61371 17.3984 4.72662 17.2413C4.78577 17.1491 4.87718 16.9703 4.92557 16.8293C5.07613 16.4283 5.21593 16.1898 5.36648 16.0651C5.44714 16.0001 5.5493 15.87 5.58694 15.7724C5.62996 15.6749 5.70523 15.5827 5.76438 15.561C5.89343 15.5231 6.0171 15.3388 6.12464 15.0082C6.24293 14.6559 6.38811 14.4608 6.60319 14.3741C6.69997 14.3307 6.82364 14.2331 6.87203 14.1572C6.9258 14.0814 7.00646 14.0163 7.05485 14.0163C7.20003 14.0163 7.47963 13.8158 7.57104 13.6423C7.61406 13.5502 7.65169 13.3984 7.65169 13.3009C7.65169 13.1274 7.66245 13.122 7.8829 13.1112C8.20014 13.0895 8.71096 12.8944 8.99056 12.6776C9.11961 12.58 9.25941 12.4987 9.29704 12.4987C9.33468 12.4987 9.48524 12.3795 9.63579 12.2331C9.78635 12.0868 9.9853 11.9513 10.0767 11.9296C10.2541 11.8917 10.609 11.5665 10.609 11.4418C10.609 11.3984 10.6951 11.3388 10.8026 11.3117C10.9101 11.2792 11.0446 11.2196 11.093 11.1708C11.1467 11.122 11.2704 11.0407 11.3726 10.9919C11.4693 10.9377 11.6038 10.8131 11.6737 10.7101C11.7436 10.6071 11.8941 10.4716 12.0124 10.4174C12.2382 10.3144 12.8297 9.67486 12.8942 9.46889C12.9104 9.40927 13.0771 9.24667 13.2599 9.11117C13.604 8.84558 13.8513 8.53664 14.0718 8.08136C14.1471 7.92959 14.2761 7.76699 14.3568 7.71821C14.5073 7.63149 14.8568 7.05154 14.8568 6.89978C14.8568 6.85642 14.8945 6.78596 14.9482 6.74802C15.1042 6.61794 15.244 6.21685 15.2117 6.02173C15.1902 5.90249 15.2063 5.77783 15.2709 5.64233L15.3623 5.4472L15.7171 5.47972C15.9107 5.5014 16.1742 5.56644 16.3032 5.63148C16.443 5.69653 16.6581 5.74531 16.8194 5.74531C17.013 5.75073 17.1313 5.78325 17.2388 5.86997C17.4216 6.01089 17.6528 6.07051 17.8626 6.02173C17.9916 5.99463 18.0346 6.01089 18.083 6.09761C18.2067 6.33067 18.9487 6.6071 19.4649 6.61252C19.8897 6.61794 20.1531 6.29273 20.2123 5.68027C20.2445 5.40926 20.2284 5.32254 20.1424 5.16536C19.9219 4.79137 19.852 4.43365 19.9649 4.28731C19.9865 4.25479 20.0348 4.10303 20.0779 3.94042C20.1263 3.75072 20.2069 3.59354 20.3252 3.4743C20.422 3.37674 20.5188 3.22498 20.5349 3.13825C20.5564 3.02443 20.6371 2.93229 20.8145 2.81847C20.9489 2.73175 21.121 2.61793 21.1963 2.56915C21.2715 2.52037 21.4006 2.47701 21.4759 2.47701C21.5511 2.47159 21.734 2.40655 21.8791 2.32524C22.0243 2.24936 22.2394 2.16806 22.3577 2.14638C22.6427 2.0976 23.503 2.14096 23.6912 2.21142ZM8.0926 2.75343C8.33995 2.79137 8.66794 2.81847 8.82925 2.81305C9.09272 2.80763 9.13036 2.82389 9.27554 2.98649C9.36157 3.08947 9.47449 3.18703 9.52825 3.20329C9.58202 3.21955 9.67881 3.33338 9.74333 3.45262C9.81323 3.57728 9.95304 3.72362 10.0498 3.78324C10.2219 3.88622 10.2326 3.9079 10.2326 4.20059C10.2326 4.36861 10.2111 4.59083 10.1789 4.69381C10.0928 4.9865 10.1896 5.23582 10.4854 5.49056C10.8133 5.76699 10.9424 5.83203 11.1467 5.83203C11.3941 5.83203 11.5984 5.70195 11.7973 5.42552C11.8941 5.29002 12.0017 5.18162 12.0393 5.18162C12.0823 5.18162 12.2167 5.12742 12.3512 5.0678L12.5877 4.94856L12.9695 5.07322C13.1792 5.14368 13.3513 5.21956 13.3513 5.24124C13.3513 5.26834 13.2921 5.37674 13.2169 5.48514C13.1416 5.59354 13.0824 5.72363 13.0824 5.77241C13.0824 5.82661 13.0233 5.94585 12.948 6.04883C12.8727 6.15181 12.8136 6.26563 12.8136 6.30357C12.8136 6.40656 12.378 7.26293 12.3135 7.29003C12.1845 7.33881 11.7704 7.83203 11.6522 8.08677C11.5661 8.27106 11.4317 8.43366 11.2489 8.57458C11.0983 8.6884 10.8833 8.86727 10.7757 8.95941C10.6628 9.05697 10.4854 9.15453 10.3886 9.17079C10.1251 9.21957 9.71645 9.49599 9.58202 9.7128C9.52288 9.81578 9.4476 9.89708 9.42609 9.89708C9.39921 9.89708 9.27016 10.0055 9.14649 10.1356C9.01744 10.2656 8.82387 10.4011 8.71096 10.4391C8.59266 10.477 8.44211 10.5854 8.33995 10.7155C8.24854 10.8293 8.13562 10.9269 8.08723 10.9269C8.03884 10.9269 7.85602 10.9974 7.67858 11.0841C7.50114 11.1708 7.34521 11.2196 7.33983 11.1925C7.32908 11.1654 7.37209 11.0407 7.43124 10.9106C7.50652 10.748 7.54953 10.5312 7.56566 10.1518C7.58179 9.85914 7.61943 9.57729 7.65169 9.51767C7.67858 9.46347 7.70546 9.32797 7.70546 9.21957C7.70546 9.09491 7.75386 8.95941 7.83989 8.84558C8.0227 8.60168 8.05497 8.3903 7.9528 8.03258C7.83989 7.65317 7.59792 7.44179 7.25918 7.43637C6.87741 7.43095 5.99021 7.84287 5.69448 8.16266C5.49553 8.37946 4.8019 8.89437 4.65135 8.94315C4.48466 8.99735 4.22119 9.23583 4.12978 9.40927C4.033 9.59355 3.86631 9.63691 3.2157 9.64775C2.83393 9.65317 2.69413 9.63149 2.55433 9.55561C2.46292 9.49599 2.38227 9.42011 2.38227 9.37675C2.38227 9.33881 2.27473 9.18705 2.14568 9.04071L1.91447 8.77512L1.94136 8.34694C1.96287 8.02715 1.99513 7.88081 2.08116 7.76699C2.16181 7.65317 2.19407 7.52851 2.19407 7.30629C2.19945 7.07322 2.23171 6.93772 2.33925 6.75344C2.5382 6.41739 2.65112 6.13013 2.65112 5.97295C2.65112 5.70737 2.98987 5.18704 3.16731 5.18162C3.27484 5.18162 3.76953 4.66129 3.80716 4.51495C3.83405 4.41197 3.90933 4.34151 4.07601 4.26563C4.23194 4.19517 4.33948 4.09761 4.40401 3.97836C4.54919 3.6911 4.73738 3.49598 4.97934 3.37132C5.10301 3.3117 5.25357 3.18162 5.31271 3.08405C5.51704 2.76427 5.79664 2.68297 6.3666 2.76969C6.53866 2.79679 6.65696 2.78595 6.74299 2.73717C6.9043 2.64503 7.43124 2.58541 7.55491 2.64503C7.60868 2.67213 7.85064 2.72091 8.0926 2.75343Z" fill="#767676"/>
<path d="M9.97455 13.2683C9.80248 13.3442 9.71645 13.4255 9.65731 13.5664C9.58741 13.7453 9.58741 13.7887 9.67881 14.0651C9.7756 14.3686 9.7756 14.3686 10.0767 14.4445C10.437 14.5366 10.5821 14.5041 10.8134 14.2819C10.9747 14.1301 10.9854 14.0922 10.9639 13.8645C10.9424 13.5719 10.808 13.2792 10.6628 13.2033C10.5122 13.122 10.2326 13.1437 9.97455 13.2683Z" fill="#767676"/>
<path d="M15.4214 13.4796C15.1741 13.55 14.9698 13.9024 15.002 14.195C15.0612 14.6395 15.5075 14.943 15.9161 14.8021C16.0828 14.7479 16.1473 14.6774 16.271 14.4444C16.3516 14.2872 16.4162 14.1029 16.4162 14.0433C16.4162 13.8807 16.2226 13.4958 16.1204 13.4525C15.9968 13.4091 15.615 13.42 15.4214 13.4796Z" fill="#767676"/>
<path d="M12.3297 15.5881C12.2544 15.6152 12.1146 15.6315 12.0232 15.6369C11.6898 15.6477 11.5177 16 11.7167 16.2819C11.7597 16.3469 11.8995 16.4499 12.0232 16.5041C12.4049 16.683 12.491 16.813 12.4641 17.187C12.3512 18.6938 12.3727 18.851 12.6738 18.851C12.9749 18.8564 13.0986 18.5908 13.19 17.7832C13.2115 17.5502 13.2222 17.2575 13.2115 17.1383C13.19 16.916 13.2545 16.7697 13.4642 16.5583C13.518 16.5041 13.5664 16.4282 13.5664 16.4011C13.5664 16.3686 13.6201 16.271 13.6846 16.1843C13.7814 16.0488 13.7922 16 13.7384 15.8916C13.7062 15.8158 13.6255 15.7236 13.5556 15.6803C13.4158 15.5881 12.5394 15.5285 12.3297 15.5881Z" fill="#767676"/>
</svg>
