<svg width="25" height="25" fill="none" xmlns="http://www.w3.org/2000/svg"><path opacity=".967" fill-rule="evenodd" clip-rule="evenodd" d="M25 7.353v.224a.16.16 0 0 0-.025.093.93.93 0 0 1-.05.494.595.595 0 0 1-.073.382.632.632 0 0 1 .006.705.983.983 0 0 1-.278.224c.059.115.098.238.117.37a.746.746 0 0 1-.105.414l.019.02a.821.821 0 0 1-.025.435.872.872 0 0 1-.062.369 4.19 4.19 0 0 1-.179.264.65.65 0 0 1-.03.606.597.597 0 0 1-.402.316c-.003.09-.011.18-.025.27.086.33-.006.583-.278.758.005.304-.125.513-.389.626l.019.02a.648.648 0 0 1-.155.52c.092.322.001.568-.271.739a.914.914 0 0 1-.285.059.769.769 0 0 1-.037.112c.157.32.103.593-.16.817a.58.58 0 0 1-.247.085c-.04.277-.187.453-.439.528a.828.828 0 0 1-.148.408.801.801 0 0 1-.111.317c-.096.089-.178.19-.247.303a.387.387 0 0 1-.019.052.318.318 0 0 1 .031.198c-.02.088-.046.173-.08.257a1.078 1.078 0 0 1-.16.178c-.05.03-.097.06-.143.092a.61.61 0 0 0-.061.237.61.61 0 0 1-.278.35.333.333 0 0 1-.105.112c-.104.312-.312.457-.624.435-.017.29-.153.488-.408.593a.697.697 0 0 1-.154.197.743.743 0 0 1-.229.303c-.133.275-.343.4-.63.376a.402.402 0 0 1-.061.06c.03.42-.151.661-.544.724.104.294.043.537-.185.732a1.595 1.595 0 0 1-.21.092.61.61 0 0 1-.216-.007.62.62 0 0 1-.476.429c-.072.066-.15.124-.235.17a.69.69 0 0 1-.197.08.49.49 0 0 0-.136.316 1.161 1.161 0 0 1-.531.501.26.26 0 0 0-.111.033.764.764 0 0 1-.1.132c-.06.325-.246.5-.555.527a1.697 1.697 0 0 0-.247-.033 2.48 2.48 0 0 1-.266-.125c-.282.071-.499-.025-.648-.29-.28.17-.532.134-.76-.105a.7.7 0 0 0-.074-.132 3.379 3.379 0 0 1-.043-.224.119.119 0 0 1-.093-.053c-.263.066-.47-.026-.617-.277a.759.759 0 0 1-.062-.277.09.09 0 0 0-.031-.026.515.515 0 0 1-.63.02 1.848 1.848 0 0 1-.229-.244.573.573 0 0 1-.067-.145 1.281 1.281 0 0 1-.612-.409.58.58 0 0 0-.185-.263 1.198 1.198 0 0 1-.074-.145c-.296.032-.5-.097-.612-.389l-.018-.006c-.293.218-.56.187-.803-.093a.859.859 0 0 1-.111-.395.511.511 0 0 1-.105-.086 5.808 5.808 0 0 0-.532-.079.608.608 0 0 1-.271-.217 3.261 3.261 0 0 0-.105-.198.968.968 0 0 1-.044-.25.566.566 0 0 1-.426-.198c-.079.01-.16.017-.24.02-.238.12-.456.09-.655-.093a.626.626 0 0 1-.16-.428c-.277.062-.494-.03-.65-.276a.812.812 0 0 1-.08-.277.778.778 0 0 1-.37-.139.552.552 0 0 1-.148-.164.57.57 0 0 1-.37-.343.802.802 0 0 1-.433-.099.47.47 0 0 0-.136-.119.582.582 0 0 1-.155-.243 2.066 2.066 0 0 0-.098-.422.416.416 0 0 1-.18-.119.646.646 0 0 1-.4-.25 1.048 1.048 0 0 0-.069-.119.658.658 0 0 1-.179-.145 4.66 4.66 0 0 0-.216-.349.308.308 0 0 1-.025-.125.433.433 0 0 1-.185-.06 5.204 5.204 0 0 0-.222-.204 8.913 8.913 0 0 0-.229-.33 1.481 1.481 0 0 1-.062-.17.646.646 0 0 1-.173-.396c-.248-.047-.415-.197-.5-.448-.37-.17-.484-.455-.34-.857.003-.079.01-.158.019-.237-.061-.058-.12-.12-.18-.184a1.341 1.341 0 0 1-.061-.132.967.967 0 0 1-.284-.303.7.7 0 0 1 .006-.501 2.876 2.876 0 0 0-.191-.303.662.662 0 0 1-.007-.448.666.666 0 0 1-.067-.422.175.175 0 0 1 .03-.092.737.737 0 0 1 .044-.62.598.598 0 0 0 .068-.079.66.66 0 0 1-.044-.698 2.28 2.28 0 0 1 .105-.125.688.688 0 0 1 .031-.574c.061-.064.12-.13.18-.197a.866.866 0 0 1 .16-.382c-.226-.307-.212-.602.043-.883a1.22 1.22 0 0 1 .124-.317c.054-.046.105-.095.154-.145-.118-.283-.073-.532.136-.744a.47.47 0 0 1 .173-.093.707.707 0 0 0 .136-.296.778.778 0 0 1 .099-.178c-.04-.299.06-.525.302-.679a.674.674 0 0 1 .278-.533.49.49 0 0 1 .099-.047c.04-.291.197-.465.47-.52.05-.069.106-.132.166-.191.05-.397.262-.592.636-.587a.772.772 0 0 0 .111.033.566.566 0 0 1 .408-.303c.12-.222.301-.33.544-.323a.602.602 0 0 1 .432-.25.517.517 0 0 1 .58-.08.61.61 0 0 1 .457.14c.107-.047.218-.078.334-.093a.516.516 0 0 1 .463-.264c.105-.006.2.02.284.08l.019-.02a.667.667 0 0 1 .383.02c.059-.07.125-.134.197-.192a.54.54 0 0 1 .507-.04c.073.04.145.082.216.126.273-.122.508-.064.704.171a.503.503 0 0 1 .587.007l.148.145c.273.043.454.203.543.48.04.028.077.059.112.093.284-.199.546-.168.784.092.046.071.085.146.117.224a.56.56 0 0 1 .241.383c.073.026.145.055.216.085.05.053.107.084.173.092a.962.962 0 0 1 .173-.197.387.387 0 0 1 .124-.053.854.854 0 0 1 .21-.33c.038-.025.077-.05.117-.072a.58.58 0 0 1 .266-.468.656.656 0 0 1 .346-.263.898.898 0 0 1 .32-.25.215.215 0 0 1 .075-.007c-.061-.313.037-.548.296-.705.084-.031.17-.051.26-.06.095-.32.3-.468.617-.441.026.004.05.01.074.02.093-.318.295-.474.606-.468a.58.58 0 0 1 .568-.172.611.611 0 0 1 .26-.25c.226-.257.483-.3.771-.125a.774.774 0 0 1 .315-.06.521.521 0 0 1 .488-.151l.204-.165a.537.537 0 0 1 .58 0c.104.054.188.13.254.23.063-.01.127-.016.191-.019.24-.206.487-.217.741-.033.211-.05.392.009.544.178l.346.119a.577.577 0 0 1 .271.382c.06.027.117.057.173.092a.773.773 0 0 1 .136.152c.052.025.101.053.148.085.076.054.144.118.204.191a.528.528 0 0 1 .562.145c.038.056.078.109.118.159a.525.525 0 0 1 .537.092 1.6 1.6 0 0 1 .148.178c.34.067.506.285.5.652a.73.73 0 0 1-.104.283c.16.023.295.1.401.231.046.086.096.17.148.25a.65.65 0 0 1 .204.567c.13.043.228.129.296.257.024.059.042.118.056.178.008.103.004.204-.012.303.125.145.17.316.136.514a.549.549 0 0 1-.161.303c0 .061.005.123.012.185.061.094.094.2.1.316a.5.5 0 0 1 .061.171c.12.148.169.32.148.514a3.548 3.548 0 0 0-.05.198c.133.099.217.23.254.395Zm-6.41-5.271.16.092a.595.595 0 0 0 .358.27c.103.023.206.043.309.06.139-.025.279-.047.42-.066.082.006.165.015.247.026.06.269.217.434.47.494.085.18.221.295.407.343a.91.91 0 0 1 .284.046c.076.364.29.542.642.534a.586.586 0 0 0 .093.112.688.688 0 0 0 .488.487.943.943 0 0 0 .086.442.73.73 0 0 0 .031.376l.247.355c.032.032.063.065.093.1.047.02.09.05.13.085a.258.258 0 0 1-.112.277.624.624 0 0 0-.105.441l.006.204c.053.134.102.27.149.409-.016.095-.02.192-.013.29a.572.572 0 0 0 .118.283.623.623 0 0 0-.185.672.509.509 0 0 0-.093.23 1.96 1.96 0 0 0-.031.284c.004.139.023.273.055.402a.742.742 0 0 0-.117.462.619.619 0 0 0-.136.56 1.203 1.203 0 0 0-.179.23c-.074.175-.103.36-.086.554.017.051.031.104.043.158-.05.108-.083.222-.099.343a.862.862 0 0 0 .099.322c-.285.087-.45.287-.494.6-.277.078-.425.269-.445.573a.619.619 0 0 0 .062.257.61.61 0 0 1-.105.238 1.102 1.102 0 0 0-.043.224c-.27.035-.437.193-.5.474l-.007.356c-.253.13-.364.345-.333.646a.541.541 0 0 0-.352.25 2.35 2.35 0 0 0-.093.21c-.307.128-.434.365-.383.713a.653.653 0 0 0-.26.593.536.536 0 0 0-.172.085.438.438 0 0 1-.16.145.741.741 0 0 0-.174.224.636.636 0 0 0-.34.284c-.026.12-.068.234-.123.342a.662.662 0 0 0-.309.448.497.497 0 0 0-.197.317c-.093.048-.177.11-.253.184-.035.061-.072.12-.112.178a.961.961 0 0 0-.123.086c-.369.077-.534.314-.494.711-.241.024-.408.156-.5.396a1.827 1.827 0 0 0-.056.29c-.366-.067-.599.09-.698.474-.003.14-.026.276-.068.409a.61.61 0 0 0-.574.29 1.65 1.65 0 0 0-.068.184c-.262-.052-.462.044-.6.29a.527.527 0 0 0-.055.211.17.17 0 0 0-.142.066.587.587 0 0 0-.45-.415l-.266-.007a.695.695 0 0 0-.402-.277.56.56 0 0 0-.408-.336 1.55 1.55 0 0 0-.37.014.594.594 0 0 0-.334-.25.603.603 0 0 0-.457-.199.285.285 0 0 1-.068-.217c-.05-.269-.2-.434-.45-.494a.646.646 0 0 0-.186 0 .056.056 0 0 1-.024.02.599.599 0 0 0-.285-.172l-.067-.118a3.642 3.642 0 0 1-.229-.284l-.148-.092a61.492 61.492 0 0 0-.223-.053.635.635 0 0 0-.494-.342.6.6 0 0 0-.444-.145l-.019.02a.433.433 0 0 0-.179-.113 1.1 1.1 0 0 0-.198-.25 1.389 1.389 0 0 1-.105-.073.556.556 0 0 0-.413-.362.742.742 0 0 0-.278.02.6.6 0 0 0-.476-.04.586.586 0 0 0-.284-.48 2.136 2.136 0 0 0-.284-.086c-.07-.358-.276-.531-.618-.52a.51.51 0 0 0-.185.058c-.08-.287-.262-.451-.544-.494a.574.574 0 0 0-.16-.119.757.757 0 0 0-.315-.296c-.059-.243-.203-.392-.432-.448-.026-.335-.193-.54-.5-.613a.274.274 0 0 0-.161.02.814.814 0 0 0-.08-.316.556.556 0 0 0-.143-.172 1.067 1.067 0 0 0-.092-.197 2.334 2.334 0 0 1-.192-.218.944.944 0 0 0-.11-.072.727.727 0 0 0-.217-.264.194.194 0 0 0-.05-.079.862.862 0 0 0-.11-.461l-.075-.08c-.01-.287-.14-.482-.389-.586a.462.462 0 0 1-.13-.033.617.617 0 0 1-.006-.237A.595.595 0 0 0 2 12.44a.676.676 0 0 0 .142-.29.698.698 0 0 0-.142-.639.67.67 0 0 0 .229-.573 3.408 3.408 0 0 1-.062-.25.576.576 0 0 0-.068-.152c.199-.154.277-.36.235-.62a.621.621 0 0 0-.087-.79c.033-.067.064-.135.093-.204.06-.039.12-.078.179-.119a.56.56 0 0 0 .216-.369 1.33 1.33 0 0 0 .173-.25l.086-.409a.639.639 0 0 0-.055-.382c.312-.17.427-.438.346-.804.014-.08.03-.16.05-.237a.236.236 0 0 0 .141-.027c.373.063.6-.104.68-.5a.643.643 0 0 0 .259-.475c.316.087.553-.02.71-.323a.193.193 0 0 1 .136-.052c.058-.028.114-.061.167-.1a.47.47 0 0 0 .389.086.324.324 0 0 0 .13-.046.55.55 0 0 0 .605-.026.574.574 0 0 0 .395.053.292.292 0 0 1 .229-.027.526.526 0 0 0 .358-.151.173.173 0 0 1 .16 0 .38.38 0 0 0 .266.072c.064 0 .128-.007.192-.02.05-.025.1-.054.148-.085.166.102.34.12.525.053l.166.059a.59.59 0 0 0 .266-.02c.054.044.105.095.154.152.153.112.318.14.495.085a.51.51 0 0 0 .296.336l.136.145c.05.033.103.054.16.066a.645.645 0 0 0 .322.316c.045.012.09.023.136.033-.007.282.11.48.351.593a4.585 4.585 0 0 0-.018.211c-.01.182.021.354.093.514.15.217.349.296.599.238.037.028.076.054.117.079a.88.88 0 0 0 .086.369c.051.379.255.552.612.52.21-.053.341-.191.395-.415a.53.53 0 0 0 .241-.25c.095-.07.177-.154.247-.25.105-.25.068-.469-.111-.66a.721.721 0 0 0-.216-.566c.046-.032.096-.06.148-.086a.608.608 0 0 0 .204-.297c.02-.135.037-.271.05-.408.082-.1.172-.192.271-.277a.585.585 0 0 0 .068-.626.72.72 0 0 0 .309-.184.618.618 0 0 0 .185-.066.74.74 0 0 1 .21-.132.696.696 0 0 0 .191-.283c.023-.158.042-.316.056-.475.124.009.247.011.37.007a.226.226 0 0 0 .087-.033c.292.047.504-.072.636-.356a.644.644 0 0 0 .198-.435.124.124 0 0 1 .117-.02c.173.103.35.112.531.027.267.031.468-.074.606-.317a.155.155 0 0 0 .012-.059.037.037 0 0 1 .037.013.41.41 0 0 0 .296.198c.247.046.442-.037.587-.25a.622.622 0 0 0 .068-.198Z" fill="#767676"/></svg>