<svg width="110" height="110" viewBox="0 0 110 110" fill="none" xmlns="http://www.w3.org/2000/svg">
<rect width="110" height="110" rx="55" fill="#D9D9D9"/>
<path d="M75.1348 25.2083C74.8167 25.3513 74.3204 25.4684 73.9641 25.4684C73.6332 25.4684 73.0988 25.5465 72.8061 25.6505C72.5007 25.7416 72.0171 25.8847 71.7371 25.9757C71.4445 26.0538 71.139 26.2099 71.05 26.314C70.9609 26.418 70.6937 26.5091 70.4519 26.5091C69.6502 26.5091 68.594 26.9123 68.1358 27.3806C67.894 27.6278 67.5377 27.914 67.3341 28.018C67.1432 28.1221 66.8378 28.4343 66.6597 28.7075C66.4942 28.9936 66.2906 29.2538 66.2143 29.3058C66.1379 29.3449 65.998 29.592 65.9089 29.8262C65.7943 30.0863 65.5017 30.4115 65.209 30.5936C64.5218 31.0489 64.3055 31.5042 64.3055 32.5709C64.3055 33.3123 64.2546 33.5335 63.9746 33.9497C63.6946 34.366 63.6056 34.418 63.402 34.301C63.0584 34.1188 60.2715 33.6505 59.7243 33.6896C59.4698 33.7026 59.1262 33.6115 58.9226 33.4814C58.7063 33.3253 58.1591 33.1953 57.421 33.1172C56.5556 33.0392 56.1739 32.9351 55.8812 32.714C55.4358 32.3758 54.545 32.3367 53.9215 32.6229C53.5779 32.779 53.4634 32.766 53.0943 32.5969C52.3944 32.2587 51.0964 32.1806 50.3202 32.4148L49.633 32.6229L49.1112 32.0115C48.8313 31.6863 48.4495 31.166 48.2841 30.8798C48.1059 30.5806 47.7496 30.0863 47.4824 29.7741C47.2151 29.4619 46.9988 29.1627 46.9988 29.0977C46.9988 28.8766 46.1207 28.4603 45.6499 28.4603C45.1663 28.4603 44.8737 28.2912 43.652 27.3806C43.1684 27.0294 41.9341 26.7432 41.1324 26.8083C40.547 26.8603 40.3434 26.8213 39.9234 26.5611C39.3762 26.2229 38.8545 26.1709 38.2819 26.431C37.9764 26.5611 37.8492 26.5611 37.582 26.418C37.0857 26.1579 36.6275 26.2099 35.7368 26.6392C35.2914 26.8473 34.8332 27.0294 34.7187 27.0294C34.6042 27.0294 34.2733 27.1595 33.9806 27.3156C33.688 27.4587 33.1789 27.6668 32.8481 27.7448C32.4536 27.8619 31.9318 28.1871 31.2956 28.7075C30.7738 29.1497 30.2521 29.5009 30.1375 29.5009C29.7558 29.5009 29.2468 29.8782 28.6741 30.5936C28.356 30.9839 27.936 31.3741 27.7324 31.4652C27.5288 31.5562 27.1216 31.8424 26.8289 32.1026C26.5235 32.3627 26.0908 32.714 25.8491 32.8571C25.6073 33.0131 25.3019 33.3514 25.1619 33.6245C25.0346 33.8847 24.831 34.1969 24.7292 34.314C23.673 35.5237 23.4821 35.927 23.3167 37.2148C23.2276 37.9432 23.1513 38.1644 22.884 38.3725C22.3623 38.7888 21.7642 40.1156 21.7387 40.9481C21.7133 41.3904 21.5733 41.9497 21.357 42.4441C21.1534 42.8733 21.0006 43.3937 21.0006 43.6148C20.9879 44.5254 21.1661 46.6457 21.2806 47.0489C21.357 47.2961 21.3824 47.6343 21.3442 47.8034C21.217 48.2847 21.6369 49.2213 22.1841 49.7026C22.4514 49.9368 22.7186 50.288 22.7695 50.4961C22.884 51.0034 23.6094 51.7059 24.1184 51.8099C24.3474 51.849 24.8437 52.0441 25.2255 52.2262C25.8236 52.5384 25.9636 52.5514 26.409 52.4343C26.8416 52.3172 26.9943 52.3303 27.3252 52.5254C27.8979 52.8636 29.3486 52.9546 29.9212 52.7075C30.4811 52.4733 30.5575 52.4473 31.83 52.2652C32.3645 52.1872 32.9244 52.0441 33.0899 51.94L33.3825 51.7449V52.7465C33.3825 53.6181 33.4334 53.8782 33.7643 54.5416C34.2606 55.5563 34.2606 55.8164 33.7389 56.0116C33.2553 56.1807 30.532 58.9774 30.3921 59.4327C30.3412 59.6018 30.1248 59.901 29.9339 60.1091C29.7303 60.3173 29.5649 60.5514 29.5649 60.6295C29.5649 60.7205 29.4249 61.0717 29.2468 61.436C29.0813 61.7872 28.9286 62.1514 28.9286 62.2164C28.9286 62.4116 28.3051 63.5823 27.8088 64.3108C27.5924 64.649 27.4016 65.0392 27.4016 65.1693C27.4016 65.2994 27.2489 65.6506 27.0707 65.9368C26.5871 66.7173 26.5744 67.1465 26.9562 68.2002C27.2489 68.9937 27.287 69.2278 27.2234 70.0213C27.1852 70.5156 27.2107 71.2571 27.2743 71.6474C27.4397 72.4929 27.4397 72.5189 27.3252 72.9742C27.198 73.5335 27.3761 74.21 27.7706 74.6132C28.0124 74.8474 28.1651 75.1856 28.2287 75.5628C28.3051 76.0441 28.4323 76.2392 29.1068 76.8506C29.5267 77.2409 30.2266 77.9173 30.6466 78.3596C31.5882 79.3222 32.39 79.9726 33.0899 80.3498C33.3825 80.4929 33.688 80.7401 33.7643 80.8831C33.8407 81.0132 34.1715 81.3254 34.5024 81.5466C34.8332 81.7807 35.2277 82.1189 35.3804 82.314C35.7368 82.7693 36.1694 82.9254 37.2256 83.0165C37.7092 83.0555 38.2691 83.1986 38.5618 83.3547C39.0836 83.6409 39.5544 83.6799 40.0634 83.4848C40.3179 83.3807 40.4325 83.4067 40.6488 83.6279C41.056 84.0441 41.4887 84.1482 42.5322 84.0571C43.3848 83.9791 43.5502 84.0051 43.9701 84.2653C44.4028 84.5254 44.6191 84.5514 45.9426 84.5254C47.5206 84.5124 48.5513 84.5905 48.9713 84.7856C49.1112 84.8376 49.3276 84.9287 49.4548 84.9677C49.8239 85.0978 51.2873 84.8116 51.7454 84.5254C52.2799 84.1872 52.6107 84.2002 53.3361 84.5905C54.0487 84.9807 54.4814 84.9937 55.1177 84.6815C55.4994 84.4864 55.8685 84.4474 57.1792 84.4734C58.0573 84.4864 59.4316 84.4474 60.2333 84.3823C61.035 84.3043 62.0785 84.2392 62.5493 84.2262C63.2492 84.2002 63.4529 84.1482 63.7201 83.888C63.9873 83.6279 64.1146 83.6018 64.5981 83.6669C64.9163 83.7189 65.3108 83.6929 65.5271 83.6018C65.7307 83.5238 66.4942 83.4588 67.2196 83.4718C68.3776 83.4718 68.594 83.4457 69.1157 83.1596C69.4466 82.9775 69.8792 82.8344 70.0701 82.8344C70.4646 82.8344 70.8591 82.6653 71.2409 82.314C71.4063 82.1579 71.7626 82.0539 72.2589 82.0149C72.6788 81.9888 73.2006 81.8978 73.4042 81.8197C73.6205 81.7547 74.1041 81.5856 74.4858 81.4555C74.8676 81.3384 75.3894 81.0522 75.6439 80.8311C76.102 80.4279 76.331 80.2718 77.7436 79.4522C78.6344 78.9319 79.0288 78.6067 79.1307 78.2945C79.1688 78.1644 79.3979 77.9953 79.6397 77.9043C80.1741 77.7092 80.5432 77.2539 80.7213 76.5774C80.7977 76.2913 80.9122 76.0701 80.9631 76.0701C81.1413 76.0701 81.8666 74.8864 81.8666 74.6132C81.8666 74.4831 81.9812 74.21 82.1211 74.0148C82.4902 73.5075 83.241 70.1904 83.101 69.7742C83.0628 69.6961 83.1265 69.462 83.241 69.2408C83.5082 68.6815 83.3682 66.5742 83.0119 65.9628C82.8338 65.6376 82.7574 65.2864 82.7574 64.675C82.7574 64.0116 82.6811 63.6604 82.3756 62.9969C82.172 62.5417 81.943 62.1384 81.8794 62.0994C81.8157 62.0473 81.6376 61.7612 81.4849 61.449C81.1795 60.7986 80.4414 60.3303 79.716 60.3303C79.3088 60.3303 79.3088 60.3173 79.3979 59.901C79.4615 59.6799 79.487 59.2506 79.4742 58.9774C79.4615 58.6782 79.5379 58.327 79.6524 58.1449C79.7669 57.9758 79.8815 57.4685 79.9196 57.0392C79.9451 56.5449 80.0596 56.1416 80.1869 55.9986C80.3523 55.8034 80.4032 55.5303 80.3905 54.8148C80.3396 52.0831 80.3268 52.1481 80.8486 52.7075C81.0013 52.8896 81.294 53.0717 81.4976 53.1107C81.6885 53.1628 81.9175 53.2798 81.9939 53.3839C82.083 53.475 82.3756 53.6311 82.6556 53.7091C83.0628 53.8132 83.2792 53.8002 83.7882 53.6181C84.3863 53.3969 84.4117 53.3969 84.679 53.6441C84.908 53.8522 85.1753 53.8912 86.2951 53.9303C87.4404 53.9563 87.6949 53.9172 88.0639 53.6961C88.3057 53.553 88.5984 53.4359 88.7257 53.4359C88.942 53.4359 89.4383 53.0977 90.38 52.3042C90.6218 52.1091 90.889 51.7449 90.9908 51.4977C91.0926 51.2506 91.3089 50.9384 91.4744 50.8213C92.0216 50.379 92.0852 49.9628 91.9198 48.1416C91.8434 47.2311 91.7925 46.2685 91.818 46.0213C91.8307 45.7741 91.8434 45.0327 91.818 44.3693C91.7925 43.3546 91.7289 43.0554 91.4107 42.353C91.1944 41.8977 91.029 41.3123 91.029 41.0522C91.029 40.74 90.9272 40.4538 90.7108 40.1936C90.5327 39.9725 90.3927 39.6343 90.3927 39.4262C90.3927 39.218 90.2782 38.8278 90.1382 38.5416C89.9982 38.2554 89.8837 37.9042 89.8837 37.7611C89.8837 37.4749 89.591 36.9546 89.2729 36.6945C89.1456 36.5904 89.0693 36.2652 89.0438 35.7579C89.0184 34.8733 88.8911 34.6001 88.3439 34.1319C88.1276 33.9497 87.8985 33.5855 87.8222 33.3123C87.6822 32.805 87.3259 32.3497 85.7352 30.7367C85.1753 30.1644 84.539 29.4359 84.3354 29.1237C84.1445 28.8115 83.8264 28.4603 83.6482 28.3432C83.47 28.2392 83.241 28.018 83.1392 27.8749C82.5665 27.0684 82.1593 26.7562 81.4594 26.5611C81.0522 26.457 80.5305 26.2489 80.2887 26.1058C79.9578 25.9107 79.5251 25.8196 78.6725 25.7676C77.7054 25.7156 77.4127 25.6375 77.0309 25.3904C76.3692 24.9351 75.8093 24.8831 75.1348 25.2083ZM77.0691 30.3075C77.2727 30.3855 77.769 30.4115 78.2908 30.3595L79.1688 30.2684L79.9451 31.0619C80.3777 31.4912 80.785 31.8424 80.8486 31.8424C80.8995 31.8424 80.9886 32.0766 81.0395 32.3627C81.1413 33.0001 81.7903 33.8197 82.6429 34.418C82.9865 34.6522 83.3428 35.0034 83.4446 35.1985C83.5464 35.3936 83.75 35.6538 83.89 35.7709C84.03 35.888 84.2081 36.2132 84.2717 36.4993C84.3481 36.7725 84.5263 37.1107 84.6662 37.2408C84.8062 37.3709 84.9207 37.566 84.9207 37.6831C84.9207 37.8001 85.0098 38.0213 85.1116 38.1904C85.2643 38.3985 85.2898 38.6327 85.2262 39.127C85.1498 39.6993 85.188 39.8815 85.6206 40.753C85.8752 41.2863 86.1424 41.7286 86.206 41.7286C86.2696 41.7286 86.3205 41.8847 86.3205 42.0798C86.3205 42.6002 86.6641 43.6928 86.9441 44.0701C87.1477 44.3563 87.1732 44.6554 87.1859 45.9693C87.1859 46.9579 87.2495 47.7254 87.3513 48.0246C87.504 48.4538 87.4913 48.5579 87.275 48.9872C86.9695 49.5725 86.5496 49.6636 85.8624 49.2863C85.5952 49.1302 85.2007 49.0132 84.9971 49.0132C84.6026 49.0132 83.8518 48.805 83.5209 48.6099C82.9356 48.2587 81.8921 47.8294 81.434 47.7514C81.1413 47.7124 80.6195 47.5302 80.2505 47.3741C79.8942 47.205 79.5124 47.062 79.4233 47.062C79.1434 47.062 78.3926 46.7498 77.9217 46.4376C77.6036 46.2294 77.2855 46.1514 76.8401 46.1514C76.4965 46.1514 75.9238 46.1254 75.5675 46.0863C74.5749 45.9693 73.7987 46.5807 73.6332 47.6213C73.5823 47.9855 73.6714 48.3107 74.1423 49.2994C74.4604 49.9628 74.7658 50.7563 74.804 51.0555C74.8549 51.3546 75.0076 51.7579 75.1348 51.927C75.3512 52.2002 75.3639 52.3303 75.2621 52.7205C75.1221 53.2538 75.2621 53.9042 75.6311 54.3855C75.9111 54.7498 75.8475 55.127 75.3639 56.0636C75.2239 56.3238 75.0839 56.9091 75.0458 57.3644C75.0076 57.8197 74.8422 58.4701 74.6767 58.8473C74.4986 59.2116 74.3331 59.7579 74.2822 60.0441C74.1168 61.0717 74.2695 61.2799 77.2727 64.2847C78.2271 65.2473 78.4307 65.5205 78.4307 65.8327C78.4307 66.0539 78.4944 66.4181 78.5707 66.6392C78.6853 66.9514 78.6853 67.3287 78.5707 68.2132C78.4817 68.8506 78.3926 69.6571 78.3798 70.0213C78.3544 70.4116 78.2399 70.8539 78.0744 71.127C77.9217 71.3742 77.7945 71.7904 77.7945 72.0376C77.7945 72.2978 77.6799 72.714 77.5527 72.9872C77.1837 73.7157 75.9493 75.0295 75.6184 75.0295C75.2112 75.0295 74.5368 75.4978 74.2313 76.0181C74.0786 76.2522 73.8878 76.4604 73.7987 76.4604C73.7223 76.4604 73.4296 76.5774 73.1497 76.7205C72.8697 76.8636 72.4752 76.9807 72.2716 76.9807C71.7753 76.9807 70.3246 77.5791 69.8665 77.9693C69.4084 78.3726 68.6449 78.5677 68.0086 78.4636C67.6141 78.3986 67.3596 78.4506 66.8887 78.6848C66.4688 78.8929 66.0361 78.997 65.5144 79.01C64.7254 79.023 63.3511 79.2311 62.4603 79.4783C62.1803 79.5433 61.8113 79.6083 61.6331 79.6083C60.9205 79.6214 58.4645 79.4783 57.8027 79.3872C57.2174 79.3092 57.0138 79.3352 56.5684 79.5693C56.2757 79.7254 55.8176 79.8425 55.5503 79.8425C55.2958 79.8295 54.8504 79.8295 54.5705 79.8425C54.2905 79.8555 53.8451 79.8685 53.5906 79.8555C51.9108 79.7905 50.3329 79.8555 48.7422 80.0376C48.1186 80.1027 47.9659 80.0766 47.686 79.8555C47.2533 79.5043 46.6043 79.3872 46.0826 79.5693C45.7263 79.6864 45.5736 79.6734 45.23 79.5043C44.9246 79.3482 44.6191 79.3092 44.0974 79.3612C43.5375 79.4262 43.2957 79.3872 42.8885 79.1661C42.4813 78.9579 42.2013 78.9189 41.5396 78.9579C40.8015 79.01 40.6361 78.9709 40.2034 78.6848C39.7962 78.4116 39.5544 78.3466 38.9436 78.3596C38.2182 78.3726 38.1673 78.3596 37.7474 77.8783C37.4165 77.501 37.162 77.3579 36.653 77.2409C35.6731 77.0197 35.1641 76.7205 34.7314 76.0961C34.5151 75.7839 33.9934 75.2376 33.5734 74.8734C33.1408 74.4961 32.759 74.0409 32.6826 73.7937C32.5936 73.5726 32.3772 73.1693 32.1736 72.9091C31.8809 72.5449 31.8046 72.2978 31.7791 71.6864C31.7537 71.2701 31.7028 70.3465 31.6646 69.6311C31.6137 68.9156 31.5755 68.2392 31.5882 68.1352C31.5882 67.7449 31.9191 66.7563 32.1863 66.3791C32.3263 66.1579 32.5427 65.7286 32.6572 65.3904C33.0135 64.4278 33.3444 63.8555 33.7007 63.5563C33.8916 63.4002 34.1333 63.088 34.2224 62.8538C34.3242 62.6197 34.5024 62.3986 34.6424 62.3465C34.9478 62.2555 35.2405 61.8132 35.495 61.0197C35.7749 60.1742 36.1185 59.7059 36.6275 59.4977C36.8566 59.3937 37.1493 59.1595 37.2638 58.9774C37.3911 58.7953 37.582 58.6392 37.6965 58.6392C38.0401 58.6392 38.7018 58.1579 38.9181 57.7416C39.0199 57.5205 39.109 57.1563 39.109 56.9221C39.109 56.5059 39.1345 56.4929 39.6562 56.4668C40.407 56.4148 41.6159 55.9465 42.2777 55.4262C42.5831 55.192 42.9139 54.9969 43.003 54.9969C43.0921 54.9969 43.4484 54.7107 43.8047 54.3595C44.161 54.0083 44.6319 53.6831 44.8482 53.6311C45.2681 53.54 46.108 52.7595 46.108 52.4603C46.108 52.3563 46.3116 52.2132 46.5661 52.1481C46.8207 52.0701 47.1388 51.927 47.2533 51.8099C47.3806 51.6929 47.6733 51.4977 47.915 51.3807C48.1441 51.2506 48.4622 50.9514 48.6277 50.7042C48.7931 50.4571 49.1494 50.1319 49.4294 50.0018C49.9638 49.7546 51.3636 48.2197 51.5164 47.7254C51.5545 47.5823 51.949 47.192 52.3817 46.8668C53.1961 46.2294 53.7815 45.488 54.3032 44.3953C54.4814 44.0311 54.7868 43.6408 54.9777 43.5237C55.334 43.3156 56.1612 41.9237 56.1612 41.5595C56.1612 41.4554 56.2502 41.2863 56.3775 41.1953C56.7465 40.8831 57.0774 39.9205 57.001 39.4522C56.9501 39.166 56.9883 38.8668 57.141 38.5416L57.3574 38.0733L58.1972 38.1514C58.6553 38.2034 59.2789 38.3595 59.5843 38.5156C59.9152 38.6717 60.4242 38.7888 60.806 38.7888C61.2641 38.8018 61.544 38.8798 61.7985 39.088C62.2312 39.4262 62.7784 39.5693 63.2747 39.4522C63.5801 39.3871 63.6819 39.4262 63.7964 39.6343C64.0891 40.1936 65.8452 40.8571 67.0669 40.8701C68.0722 40.8831 68.6958 40.1026 68.8357 38.6327C68.9121 37.9823 68.8739 37.7741 68.6703 37.3969C68.1486 36.4993 67.9831 35.6408 68.2504 35.2896C68.3013 35.2115 68.4158 34.8473 68.5176 34.4571C68.6321 34.0018 68.823 33.6245 69.103 33.3384C69.332 33.1042 69.5611 32.74 69.5993 32.5318C69.6502 32.2587 69.841 32.0375 70.261 31.7644C70.5791 31.5562 70.9863 31.2831 71.1645 31.166C71.3427 31.0489 71.6481 30.9449 71.8262 30.9449C72.0044 30.9318 72.437 30.7757 72.7806 30.5806C73.1242 30.3985 73.6332 30.2034 73.9132 30.1514C74.5877 30.0343 76.6237 30.1383 77.0691 30.3075ZM40.1525 31.6083C40.7379 31.6993 41.5141 31.7644 41.8959 31.7514C42.5194 31.7384 42.6085 31.7774 42.9521 32.1676C43.1557 32.4148 43.4229 32.6489 43.5502 32.6879C43.6775 32.727 43.9065 33.0001 44.0592 33.2863C44.2247 33.5855 44.5555 33.9367 44.7846 34.0798C45.1918 34.327 45.2172 34.379 45.2172 35.0814C45.2172 35.4847 45.1663 36.018 45.09 36.2652C44.8864 36.9676 45.1154 37.566 45.8153 38.1774C46.5916 38.8408 46.897 38.9969 47.3806 38.9969C47.9659 38.9969 48.4495 38.6847 48.9204 38.0213C49.1494 37.6961 49.4039 37.4359 49.493 37.4359C49.5948 37.4359 49.9129 37.3058 50.2311 37.1627L50.791 36.8766L51.6945 37.1758C52.1908 37.3449 52.598 37.527 52.598 37.579C52.598 37.6441 52.458 37.9042 52.2799 38.1644C52.1017 38.4245 51.9617 38.7367 51.9617 38.8538C51.9617 38.9839 51.8218 39.2701 51.6436 39.5172C51.4655 39.7644 51.3255 40.0376 51.3255 40.1286C51.3255 40.3758 50.2947 42.4311 50.142 42.4961C49.8366 42.6132 48.8567 43.7969 48.5768 44.4083C48.3732 44.8506 48.055 45.2408 47.6224 45.579C47.266 45.8522 46.757 46.2815 46.5025 46.5026C46.2353 46.7367 45.8153 46.9709 45.5863 47.0099C44.9627 47.127 43.9956 47.7904 43.6775 48.3107C43.5375 48.5579 43.3593 48.753 43.3084 48.753C43.2448 48.753 42.9394 49.0132 42.6467 49.3254C42.3413 49.6376 41.8832 49.9628 41.6159 50.0538C41.336 50.1449 40.9797 50.405 40.7379 50.7172C40.5215 50.9904 40.2543 51.2246 40.1398 51.2246C40.0252 51.2246 39.5926 51.3937 39.1726 51.6018C38.7527 51.8099 38.3837 51.927 38.3709 51.862C38.3455 51.7969 38.4473 51.4977 38.5873 51.1855C38.7654 50.7953 38.8672 50.275 38.9054 49.3644C38.9436 48.662 39.0327 47.9855 39.109 47.8424C39.1726 47.7124 39.2363 47.3872 39.2363 47.127C39.2363 46.8278 39.3508 46.5026 39.5544 46.2294C39.9871 45.6441 40.0634 45.1367 39.8216 44.2782C39.5544 43.3676 38.9818 42.8603 38.18 42.8473C37.2765 42.8343 35.1768 43.8229 34.4769 44.5904C34.0061 45.1107 32.3645 46.3465 32.0082 46.4636C31.6137 46.5937 30.9902 47.166 30.7738 47.5823C30.5448 48.0246 30.1503 48.1286 28.6105 48.1546C27.707 48.1676 27.3761 48.1156 27.0453 47.9335C26.8289 47.7904 26.638 47.6083 26.638 47.5042C26.638 47.4132 26.3835 47.0489 26.0781 46.6977L25.5309 46.0603L25.5945 45.0327C25.6454 44.2652 25.7218 43.914 25.9254 43.6408C26.1163 43.3676 26.1926 43.0684 26.1926 42.5351C26.2054 41.9758 26.2817 41.6506 26.5362 41.2083C27.0071 40.4018 27.2743 39.7123 27.2743 39.3351C27.2743 38.6977 28.076 37.4489 28.496 37.4359C28.7505 37.4359 29.9212 36.1871 30.0103 35.8359C30.0739 35.5888 30.2521 35.4197 30.6466 35.2375C31.0156 35.0684 31.2701 34.8343 31.4228 34.5481C31.7664 33.8587 32.2118 33.3904 32.7844 33.0912C33.0771 32.9481 33.4334 32.6359 33.5734 32.4018C34.057 31.6343 34.7187 31.4392 36.0676 31.6473C36.4748 31.7123 36.7548 31.6863 36.9584 31.5692C37.3402 31.3481 38.5873 31.205 38.8799 31.3481C39.0072 31.4131 39.5799 31.5302 40.1525 31.6083Z" fill="#9C9C9C"/>
<path d="M44.6065 56.844C44.1992 57.0261 43.9956 57.2213 43.8557 57.5595C43.6902 57.9888 43.6902 58.0928 43.9066 58.7562C44.1356 59.4847 44.1356 59.4847 44.8482 59.6668C45.7008 59.8879 46.0444 59.8099 46.5916 59.2766C46.9734 58.9123 46.9988 58.8213 46.9479 58.2749C46.897 57.5725 46.5789 56.8701 46.2353 56.6879C45.879 56.4928 45.2173 56.5448 44.6065 56.844Z" fill="#9C9C9C"/>
<path d="M57.4974 57.3509C56.912 57.52 56.4284 58.3656 56.5048 59.068C56.6448 60.1347 57.701 60.8631 58.6681 60.5249C59.0626 60.3948 59.2153 60.2257 59.508 59.6664C59.6989 59.2892 59.8516 58.8469 59.8516 58.7038C59.8516 58.3135 59.3935 57.39 59.1517 57.2859C58.859 57.1818 57.9555 57.2078 57.4974 57.3509Z" fill="#9C9C9C"/>
<path d="M50.1802 62.4116C50.0021 62.4766 49.6712 62.5156 49.4549 62.5286C48.6659 62.5547 48.2587 63.4002 48.7295 64.0766C48.8313 64.2327 49.1622 64.4799 49.4549 64.61C50.3584 65.0392 50.562 65.3514 50.4984 66.249C50.2311 69.8652 50.282 70.2425 50.9946 70.2425C51.7073 70.2555 52 69.6181 52.2163 67.6799C52.2672 67.1205 52.2926 66.4181 52.2672 66.1319C52.2163 65.5986 52.369 65.2474 52.8653 64.74C52.9925 64.61 53.1071 64.4278 53.1071 64.3628C53.1071 64.2847 53.2343 64.0506 53.387 63.8425C53.6161 63.5173 53.6415 63.4002 53.5143 63.14C53.4379 62.9579 53.2471 62.7368 53.0816 62.6327C52.7508 62.4116 50.6765 62.2685 50.1802 62.4116Z" fill="#9C9C9C"/>
</svg>
